<?xml version="1.0" encoding="UTF-8" standalone="no"?>
<svg width="732px" height="270px" viewBox="0 0 732 270" version="1.1" xmlns="http://www.w3.org/2000/svg" xmlns:xlink="http://www.w3.org/1999/xlink" xmlns:sketch="http://www.bohemiancoding.com/sketch/ns">
    <!-- Generator: Sketch 3.1.1 (8761) - http://www.bohemiancoding.com/sketch -->
    <title>Group</title>
    <desc>Created with Sketch.</desc>
    <defs>
        <rect id="path-1" x="0" y="0" width="764" height="309"></rect>
    </defs>
    <g id="Page-1" stroke="none" stroke-width="1" fill="none" fill-rule="evenodd" sketch:type="MSPage">
        <g id="Group" sketch:type="MSLayerGroup" transform="translate(-11.000000, -32.000000)">
            <mask id="mask-2" sketch:name="Mask" fill="white">
                <use xlink:href="#path-1"></use>
            </mask>
            <use id="Mask" sketch:type="MSShapeGroup" xlink:href="#path-1"></use>
            <g mask="url(#mask-2)">
                <g transform="translate(11.726092, 27.927114)">
                    <path d="M110.637461,220.175965 C110.637461,215.090477 107.611155,213.507289 105.209309,213.507289 C100.789994,213.507289 96.514758,218.136991 96.514758,222.694698 C96.514758,225.717184 98.4362108,228.163963 101.75072,228.163963 C103.792293,228.163963 106.122014,227.420333 108.595922,225.453321 C109.004197,227.156465 110.085,228.163963 111.526128,228.163963 C113.255429,228.163963 114.264179,226.388848 114.264179,225.885102 C114.264179,225.645225 114.072034,225.549273 113.85585,225.549273 C113.63972,225.549273 113.54362,225.645225 113.447574,225.885102 C112.871137,227.468313 111.694226,227.468313 111.622164,227.468313 C110.637461,227.468313 110.637461,224.925581 110.637461,224.157965 C110.637461,223.486301 110.637461,223.414336 110.949691,223.030527 C113.999972,219.216447 114.672509,215.45034 114.672509,215.426323 C114.672509,215.354352 114.64847,215.090477 114.288218,215.090477 C113.975988,215.090477 113.975988,215.186465 113.807827,215.786123 C113.23139,217.825154 112.150578,220.271887 110.637461,222.190927 L110.637461,220.175965 L110.637461,220.175965 Z M108.451799,224.613739 C105.617638,227.108491 103.119754,227.468313 101.822758,227.468313 C99.8773006,227.468313 98.8925578,226.00504 98.8925578,223.942074 C98.8925578,222.358863 99.733195,218.856583 100.789994,217.201424 C102.303151,214.85061 104.056436,214.226943 105.185334,214.226943 C108.403776,214.226943 108.403776,218.472783 108.403776,220.991542 C108.403776,222.190927 108.403776,224.062013 108.451799,224.613739 L108.451799,224.613739 Z" id="Imported-Layers" stroke="none" fill="#000000" fill-rule="evenodd" sketch:type="MSShapeGroup"></path>
                    <path d="M503.319953,217.561224 L503.319953,234.677843" id="Line" stroke="#000000" stroke-width="2" stroke-linecap="square" fill="none" sketch:type="MSShapeGroup"></path>
                    <path d="M503.319953,217.561224 L524.968123,217.561224" id="Line-2" stroke="#000000" stroke-width="2" stroke-linecap="square" fill="none" sketch:type="MSShapeGroup"></path>
                    <path d="M73.9645809,235.578717 C73.9645809,235.578717 75.2989634,227.590425 73.9645809,224.768222 C72.7432767,222.185177 66.2975207,219.362974 66.2975207,219.362974" id="Path-3" stroke="#000000" stroke-width="2" fill="none" sketch:type="MSShapeGroup"></path>
                    <text id="(гіпотенуза)" stroke="none" fill="none" sketch:type="MSTextLayer" font-family="Helvetica" font-size="20.6259947" font-weight="260">
                        <tspan x="181.303424" y="103.781341" fill="#4990E2">(гіпотенуза)</tspan>
                    </text>
                    <text id="(прилеглий-катет)" stroke="none" fill="none" sketch:type="MSTextLayer" font-family="Helvetica" font-size="20.6259947" font-weight="260">
                        <tspan x="208.363636" y="269.542274" fill="#417505">(прилеглий катет)</tspan>
                    </text>
                    <text id="(протилеглий-катет)" stroke="none" fill="none" sketch:type="MSTextLayer" font-family="Helvetica" font-size="20.6259947" font-weight="260">
                        <tspan x="543.008264" y="140.717201" fill="#D0011B">(протилеглий катет)</tspan>
                    </text>
                    <text id="A" stroke="none" fill="none" sketch:type="MSTextLayer" font-family="Helvetica" font-size="20.6259947" font-weight="260">
                        <tspan x="0" y="247.921283" fill="#000000">A</tspan>
                    </text>
                    <text id="B" stroke="none" fill="none" sketch:type="MSTextLayer" font-family="Helvetica" font-size="20.6259947" font-weight="260">
                        <tspan x="527.674144" y="20" fill="#000000">B</tspan>
                    </text>
                    <text id="C" stroke="none" fill="none" sketch:type="MSTextLayer" font-family="Helvetica" font-size="20.6259947" font-weight="260">
                        <tspan x="531.282172" y="249.723032" fill="#000000">C</tspan>
                    </text>
                    <text id="h" stroke="none" fill="none" sketch:type="MSTextLayer" font-family="Helvetica" font-size="20.6259947" font-weight="260">
                        <tspan x="315.702479" y="151.527697" fill="#4990E2">h</tspan>
                    </text>
                    <text id="a" stroke="none" fill="none" sketch:type="MSTextLayer" font-family="Helvetica" font-size="20.6259947" font-weight="260">
                        <tspan x="322.918536" y="224.498542" fill="#417505">a</tspan>
                    </text>
                    <text id="b" stroke="none" fill="none" sketch:type="MSTextLayer" font-family="Helvetica" font-size="20.6259947" font-weight="260">
                        <tspan x="505.123967" y="142.51895" fill="#D0011B">b</tspan>
                    </text>
                    <path d="M23.0011806,235.578717 L523.615112,235.578717" id="Line" stroke="#417505" stroke-width="3" stroke-linecap="round" fill="none" sketch:type="MSShapeGroup"></path>
                    <path d="M22.0991736,235.578717 L524.517119,37.3862974" id="Line" stroke="#4990E2" stroke-width="3" stroke-linecap="round" fill="none" sketch:type="MSShapeGroup"></path>
                    <path d="M524.517119,36.4854227 L524.517119,235.578717" id="Line" stroke="#D0011B" stroke-width="3" stroke-linecap="round" fill="none" sketch:type="MSShapeGroup"></path>
                </g>
            </g>
        </g>
    </g>
</svg>