<?xml version="1.0" encoding="utf-8"?>
<!-- Generator: Adobe Illustrator 18.0.0, SVG Export Plug-In . SVG Version: 6.00 Build 0)  -->
<!DOCTYPE svg PUBLIC "-//W3C//DTD SVG 1.1//EN" "http://www.w3.org/Graphics/SVG/1.1/DTD/svg11.dtd">
<svg version="1.1" id="Layer_1" xmlns:sketch="http://www.bohemiancoding.com/sketch/ns"
	 xmlns="http://www.w3.org/2000/svg" xmlns:xlink="http://www.w3.org/1999/xlink" x="0px" y="0px" viewBox="0 0 821 300"
	 enable-background="new 0 0 821 300" xml:space="preserve">
<title>Group</title>
<desc>Created with Sketch.</desc>
<g id="Page-1" sketch:type="MSPage">
	<g id="Group" transform="translate(-13.000000, -36.000000)" sketch:type="MSLayerGroup">
		<g id="Mask" sketch:type="MSShapeGroup">
			<rect id="path-1_1_" x="-1" fill="none" width="872" height="343"/>
		</g>
		<defs>
			<filter id="Adobe_OpacityMaskFilter" filterUnits="userSpaceOnUse" x="12" y="33.4" width="817.1" height="309.2">
				<feColorMatrix  type="matrix" values="1 0 0 0 0  0 1 0 0 0  0 0 1 0 0  0 0 0 1 0"/>
			</filter>
		</defs>
		<mask maskUnits="userSpaceOnUse" x="12" y="33.4" width="817.1" height="309.2" id="mask-2">
			<g filter="url(#Adobe_OpacityMaskFilter)">
				<rect id="path-1" x="-1" fill="#FFFFFF" width="847" height="343"/>
			</g>
		</mask>
		<g mask="url(#mask-2)">
			<g transform="translate(13.000000, 31.000000)">
				<path id="Imported-Layers" sketch:type="MSShapeGroup" d="M121.7,244.4c0-5.6-3.4-7.4-6-7.4c-4.9,0-9.6,5.1-9.6,10.2
					c0,3.4,2.1,6.1,5.8,6.1c2.3,0,4.8-0.8,7.6-3c0.5,1.9,1.7,3,3.2,3c1.9,0,3-2,3-2.5c0-0.3-0.2-0.4-0.5-0.4c-0.2,0-0.3,0.1-0.5,0.4
					c-0.6,1.8-1.9,1.8-2,1.8c-1.1,0-1.1-2.8-1.1-3.7c0-0.7,0-0.8,0.3-1.3c3.4-4.2,4.1-8.4,4.1-8.4c0-0.1,0-0.4-0.4-0.4
					c-0.3,0-0.3,0.1-0.5,0.8c-0.6,2.3-1.8,5-3.5,7.1V244.4L121.7,244.4z M119.2,249.3c-3.1,2.8-5.9,3.2-7.3,3.2
					c-2.2,0-3.2-1.6-3.2-3.9c0-1.8,0.9-5.6,2.1-7.5c1.7-2.6,3.6-3.3,4.9-3.3c3.6,0,3.6,4.7,3.6,7.5
					C119.2,246.6,119.2,248.7,119.2,249.3L119.2,249.3z"/>
				<path id="Line" sketch:type="MSShapeGroup" fill="none" stroke="#000000" stroke-width="2" stroke-linecap="square" d="
					M557,241.5v19"/>
				<path id="Line-2" sketch:type="MSShapeGroup" fill="none" stroke="#000000" stroke-width="2" stroke-linecap="square" d="
					M557,241.5h24"/>
				<path id="Path-3" sketch:type="MSShapeGroup" fill="none" stroke="#000000" stroke-width="2" d="M81,261.5c0,0,1.5-8.9,0-12
					c-1.4-2.9-8.5-6-8.5-6"/>
				<g enable-background="new    ">
					<text transform="matrix(1 0 0 1 200 116)" fill="#4990E2" font-family="'Helvetica'" font-size="24">(гіпотенуза)</text>
				</g>
				<g enable-background="new    ">
					<text transform="matrix(1 0 0 1 230 300)" fill="#417505" font-family="'Helvetica'" font-size="24">(прилеглий катет)</text>
				</g>
				<g enable-background="new    ">
					<text transform="matrix(1 0 0 1 585 157)" fill="#D0011B" font-family="'Helvetica'" font-size="24">(протилеглий катет)</text>
				</g>
				<g enable-background="new    ">
					<text transform="matrix(1 0 0 1 -1 276)" font-family="'Helvetica'" font-size="24">A</text>
				</g>
				<g enable-background="new    ">
					<text transform="matrix(1 0 0 1 584 23)" font-family="'Helvetica'" font-size="24">B</text>
				</g>
				<g enable-background="new    ">
					<text transform="matrix(1 0 0 1 588 278)" font-family="'Helvetica'" font-size="24">C</text>
				</g>
				<g enable-background="new    ">
					<text transform="matrix(1 0 0 1 349 169)" fill="#4990E2" font-family="'Helvetica'" font-size="24">h</text>
				</g>
				<g enable-background="new    ">
					<text transform="matrix(1 0 0 1 357 250)" fill="#417505" font-family="'Helvetica'" font-size="24">a</text>
				</g>
				<g enable-background="new    ">
					<text transform="matrix(1 0 0 1 559 159)" fill="#D0011B" font-family="'Helvetica'" font-size="24">b</text>
				</g>
				<path id="Line_1_" sketch:type="MSShapeGroup" fill="none" stroke="#417505" stroke-width="3" stroke-linecap="round" d="
					M24.5,261.5h555"/>
				<path id="Line_2_" sketch:type="MSShapeGroup" fill="none" stroke="#4990E2" stroke-width="3" stroke-linecap="round" d="
					M23.5,261.5l557-220"/>
				<path id="Line_3_" sketch:type="MSShapeGroup" fill="none" stroke="#D0011B" stroke-width="3" stroke-linecap="round" d="
					M580.5,40.5v221"/>
			</g>
		</g>
	</g>
</g>
</svg>
