<?xml version="1.0" encoding="UTF-8" standalone="no"?>
<svg width="821px" height="300px" viewBox="0 0 821 300" version="1.1" xmlns="http://www.w3.org/2000/svg" xmlns:xlink="http://www.w3.org/1999/xlink" xmlns:sketch="http://www.bohemiancoding.com/sketch/ns">
    <!-- Generator: Sketch 3.1.1 (8761) - http://www.bohemiancoding.com/sketch -->
    <title>Group</title>
    <desc>Created with Sketch.</desc>
    <defs></defs>
    <g id="Page-1" stroke="none" stroke-width="1" fill="none" fill-rule="evenodd" sketch:type="MSPage">
        <g id="Group" sketch:type="MSLayerGroup" transform="translate(0.000000, -5.000000)">
            <path d="M122.656976,244.402447 C122.656976,238.75739 119.301896,237 116.639116,237 C111.739692,237 107,242.13912 107,247.198322 C107,250.553379 109.130197,253.269383 112.80479,253.269383 C115.068157,253.269383 117.650976,252.44393 120.393646,250.260482 C120.846276,252.151027 122.044496,253.269383 123.642186,253.269383 C125.559356,253.269383 126.677696,251.298948 126.677696,250.739773 C126.677696,250.473502 126.464676,250.366992 126.225006,250.366992 C125.985396,250.366992 125.878856,250.473502 125.772376,250.739773 C125.133316,252.497189 123.828546,252.497189 123.748656,252.497189 C122.656976,252.497189 122.656976,249.674674 122.656976,248.822596 C122.656976,248.077027 122.656976,247.997143 123.003126,247.571103 C126.384786,243.33735 127.130386,239.15685 127.130386,239.13019 C127.130386,239.0503 127.103736,238.75739 126.704346,238.75739 C126.358196,238.75739 126.358196,238.86394 126.171766,239.52958 C125.532706,241.79297 124.334476,244.508923 122.656976,246.63912 L122.656976,244.402447 L122.656976,244.402447 Z M120.233866,249.328519 C117.091806,252.097775 114.322554,252.497189 112.884654,252.497189 C110.727845,252.497189 109.636121,250.872908 109.636121,248.58295 C109.636121,246.825534 110.568084,242.93789 111.739692,241.10061 C113.417237,238.49113 115.360996,237.79884 116.612536,237.79884 C120.180626,237.79884 120.180626,242.51186 120.180626,245.307764 C120.180626,246.63912 120.180626,248.716086 120.233866,249.328519 L120.233866,249.328519 Z" id="Imported-Layers" fill="#000000" sketch:type="MSShapeGroup"></path>
            <path d="M558,241.5 L558,260.5" id="Line" stroke="#000000" stroke-width="2" stroke-linecap="square" sketch:type="MSShapeGroup"></path>
            <path d="M558,241.5 L582,241.5" id="Line-2" stroke="#000000" stroke-width="2" stroke-linecap="square" sketch:type="MSShapeGroup"></path>
            <path d="M82,261.5 C82,261.5 83.4793482,252.632737 82,249.5 C80.6460149,246.632737 73.5,243.5 73.5,243.5" id="Path-3" stroke="#000000" stroke-width="2" sketch:type="MSShapeGroup"></path>
            <text id="(гіпотенуза)" sketch:type="MSTextLayer" font-family="Helvetica" font-size="24" font-weight="260" fill="#4990E2">
                <tspan x="201" y="116">(гіпотенуза)</tspan>
            </text>
            <text id="(прилеглий-катет)" sketch:type="MSTextLayer" font-family="Helvetica" font-size="24" font-weight="260" fill="#417505">
                <tspan x="231" y="300">(прилеглий катет)</tspan>
            </text>
            <text id="(протилеглий-катет)" sketch:type="MSTextLayer" font-family="Helvetica" font-size="24" font-weight="260" fill="#D0011B">
                <tspan x="602" y="157">(протилеглий катет)</tspan>
            </text>
            <text id="A" sketch:type="MSTextLayer" font-family="Helvetica" font-size="24" font-weight="260" fill="#000000">
                <tspan x="0" y="276">A</tspan>
            </text>
            <text id="B" sketch:type="MSTextLayer" font-family="Helvetica" font-size="24" font-weight="260" fill="#000000">
                <tspan x="585" y="23">B</tspan>
            </text>
            <text id="C" sketch:type="MSTextLayer" font-family="Helvetica" font-size="24" font-weight="260" fill="#000000">
                <tspan x="589" y="278">C</tspan>
            </text>
            <text id="h" sketch:type="MSTextLayer" font-family="Helvetica" font-size="24" font-weight="260" fill="#4990E2">
                <tspan x="350" y="169">h</tspan>
            </text>
            <text id="a" sketch:type="MSTextLayer" font-family="Helvetica" font-size="24" font-weight="260" fill="#417505">
                <tspan x="358" y="250">a</tspan>
            </text>
            <text id="b" sketch:type="MSTextLayer" font-family="Helvetica" font-size="24" font-weight="260" fill="#D0011B">
                <tspan x="560" y="159">b</tspan>
            </text>
            <path d="M25.5,261.5 L580.5,261.5" id="Line" stroke="#417505" stroke-width="3" stroke-linecap="round" sketch:type="MSShapeGroup"></path>
            <path d="M24.5,261.5 L581.5,41.5" id="Line" stroke="#4990E2" stroke-width="3" stroke-linecap="round" sketch:type="MSShapeGroup"></path>
            <path d="M581.5,40.5 L581.5,261.5" id="Line" stroke="#D0011B" stroke-width="3" stroke-linecap="round" sketch:type="MSShapeGroup"></path>
        </g>
    </g>
</svg>