<?xml version="1.0" standalone="no"?>
<!DOCTYPE svg PUBLIC "-//W3C//DTD SVG 20010904//EN"
 "http://www.w3.org/TR/2001/REC-SVG-20010904/DTD/svg10.dtd">
<svg version="1.0" xmlns="http://www.w3.org/2000/svg"
 width="359.000000pt" height="463.000000pt" viewBox="0 0 359.000000 463.000000"
 preserveAspectRatio="xMidYMid meet">
<metadata>
Created by potrace 1.12, written by Peter Selinger 2001-2015
</metadata>
<g transform="translate(0.000000,463.000000) scale(0.100000,-0.100000)"
fill="#000000" stroke="none">
<path d="M102 4019 c-6 -19 -23 -77 -37 -129 -14 -52 -28 -103 -31 -112 -4
-15 1 -18 30 -18 l36 0 0 -235 c0 -202 2 -235 15 -235 13 0 15 33 15 235 l0
235 30 0 c17 0 30 4 30 8 0 5 -13 57 -30 115 -16 59 -30 115 -30 125 0 9 -4
23 -9 31 -6 10 -11 4 -19 -20z"/>
<path d="M3050 3800 l0 -230 -30 0 c-17 0 -30 -5 -30 -12 0 -7 13 -60 29 -118
16 -58 31 -115 33 -128 7 -50 23 -21 59 108 21 74 38 138 39 143 0 4 -16 7
-35 7 l-35 0 0 230 c0 198 -2 230 -15 230 -13 0 -15 -32 -15 -230z"/>
<path d="M359 3767 c-70 -47 -103 -134 -76 -199 21 -50 63 -63 113 -37 34 17
40 17 54 4 28 -26 68 -19 85 15 8 16 15 37 14 47 0 10 -9 -1 -19 -24 -18 -40
-42 -55 -55 -34 -3 5 7 59 22 120 15 61 24 114 20 118 -5 4 -16 2 -27 -4 -14
-10 -21 -9 -30 2 -18 22 -62 18 -101 -8z m97 -12 c15 -23 15 -30 -2 -97 -24
-101 -82 -156 -122 -116 -32 32 1 172 49 212 38 32 54 33 75 1z"/>
<path d="M3314 3768 c-98 -69 -114 -216 -27 -249 20 -7 34 -5 65 11 35 18 42
19 52 6 11 -15 27 -19 59 -17 19 1 51 64 44 84 -2 7 -11 -4 -20 -24 -18 -43
-34 -56 -50 -40 -8 8 -4 39 15 119 26 104 25 138 -4 114 -9 -7 -18 -6 -32 4
-28 20 -67 17 -102 -8z m81 6 c24 -10 36 -48 25 -81 -5 -15 -14 -48 -20 -72
-20 -78 -97 -121 -121 -67 -21 44 21 181 65 211 23 17 28 18 51 9z"/>
<path d="M1053 3132 l-39 -147 33 -3 33 -3 0 -345 0 -344 -215 0 -215 0 0
-415 0 -415 215 0 215 0 0 -69 0 -70 -34 -3 -34 -3 33 -120 c18 -66 36 -133
39 -149 4 -15 9 -26 12 -23 4 4 84 281 84 292 0 3 -16 5 -35 5 l-35 0 0 70 0
70 230 0 230 0 0 415 0 415 -230 0 -230 0 0 345 0 345 35 0 c19 0 35 2 35 5 0
3 -16 61 -35 129 -19 69 -35 131 -35 140 0 8 -4 17 -8 20 -5 3 -27 -61 -49
-142z m487 -1257 l0 -385 -215 0 -215 0 0 220 c0 189 -2 220 -15 220 -13 0
-15 -31 -15 -220 l0 -220 -200 0 -200 0 0 385 0 385 430 0 430 0 0 -385z"/>
<path d="M1269 3173 c-5 -16 -12 -34 -14 -40 -2 -7 0 -13 5 -13 6 0 10 7 10
15 0 25 38 55 70 55 17 0 30 -2 30 -5 0 -3 -12 -53 -26 -110 -24 -96 -29 -105
-50 -105 -12 0 -26 -4 -29 -10 -4 -6 20 -10 65 -10 45 0 69 4 65 10 -3 6 -14
10 -24 10 -18 0 -17 7 8 108 l27 107 35 0 c31 0 34 -3 39 -35 4 -27 7 -31 13
-17 4 10 7 30 7 43 0 24 0 24 -110 24 l-110 0 -11 -27z"/>
<path d="M2275 2793 c-4 -16 -21 -83 -39 -150 l-33 -123 33 0 34 0 0 -355 0
-355 -205 0 -205 0 0 -415 0 -415 230 0 230 0 0 -195 0 -195 -35 0 c-19 0 -35
-2 -35 -5 0 -4 60 -222 76 -278 3 -10 8 -17 10 -14 3 2 20 62 40 133 19 71 37
137 40 147 4 14 -1 17 -30 17 l-36 0 0 195 0 195 220 0 220 0 0 415 0 415
-240 0 -240 0 0 355 0 355 30 0 c17 0 30 4 30 8 0 5 -13 57 -30 115 -16 59
-30 116 -30 126 0 51 -26 68 -35 24z m35 -1003 c0 -6 80 -10 220 -10 l220 0 0
-385 0 -385 -200 0 -200 0 0 170 c0 144 -2 170 -15 170 -13 0 -15 -26 -15
-170 l0 -170 -215 0 -215 0 0 385 0 385 190 0 c120 0 190 4 190 10 0 6 9 10
20 10 11 0 20 -4 20 -10z"/>
<path d="M2472 2758 c-6 -7 -13 -27 -17 -43 l-7 -30 21 33 c17 26 27 32 56 32
19 0 35 -3 35 -6 0 -13 -41 -170 -50 -191 -5 -13 -20 -23 -37 -26 -15 -2 6 -4
47 -4 41 0 65 2 53 4 -28 5 -28 15 0 128 l23 90 37 3 c37 3 37 3 37 -34 0 -47
17 -34 22 16 l3 35 -106 3 c-77 2 -109 -1 -117 -10z"/>
<path d="M250 1190 c-7 -17 -10 -33 -8 -36 3 -3 11 10 17 27 8 23 14 30 22 22
7 -7 5 -31 -6 -78 -10 -45 -12 -72 -6 -78 11 -11 11 -11 36 75 10 39 24 63 40
74 46 30 56 0 31 -93 -9 -34 -11 -55 -4 -59 14 -9 18 -2 35 63 15 59 45 103
70 103 23 0 25 -26 8 -85 -16 -58 -10 -85 20 -85 15 0 45 32 45 49 0 7 -11 -1
-25 -16 -22 -25 -24 -26 -25 -8 0 11 7 40 15 64 9 24 13 52 10 62 -9 26 -50
35 -78 16 -20 -13 -25 -13 -46 1 -19 13 -28 14 -54 4 -21 -8 -35 -8 -41 -2
-19 19 -44 10 -56 -20z"/>
<path d="M807 1200 c-30 -24 -51 -81 -43 -116 8 -29 43 -46 69 -32 22 12 24
-18 1 -50 -15 -21 -72 -33 -59 -12 9 15 -4 30 -20 23 -43 -16 7 -56 57 -46 42
8 58 34 83 134 24 94 24 115 -1 105 -7 -3 -16 -1 -19 4 -10 16 -41 11 -68 -10z"/>
<path d="M126 688 c-2 -7 -19 -71 -38 -143 l-34 -130 33 -3 33 -3 0 -180 c0
-152 2 -179 15 -179 13 0 15 27 15 180 l0 180 34 0 33 0 -33 118 c-19 64 -34
127 -34 139 0 25 -18 41 -24 21z"/>
<path d="M2456 488 c-9 -12 -16 -29 -15 -38 0 -8 7 0 15 19 26 58 37 24 19
-54 -10 -45 -12 -72 -6 -78 11 -11 11 -11 36 75 10 39 24 63 40 74 46 30 56 0
31 -93 -9 -34 -11 -55 -4 -59 14 -9 17 -3 36 66 12 45 25 69 45 83 44 33 54
12 33 -67 -10 -36 -15 -70 -11 -75 16 -27 76 5 74 40 0 8 -5 5 -11 -8 -12 -25
-38 -39 -38 -20 0 7 7 34 15 61 8 28 13 58 9 68 -8 25 -49 34 -76 16 -19 -13
-25 -13 -50 1 -26 15 -30 15 -57 -1 -25 -14 -30 -14 -35 -2 -8 21 -33 17 -50
-8z"/>
<path d="M3011 494 c-24 -17 -51 -70 -51 -102 0 -32 25 -55 59 -54 35 1 39
-12 15 -46 -18 -25 -67 -32 -58 -7 4 10 0 15 -15 15 -28 0 -27 -28 2 -39 31
-12 72 -3 92 19 18 20 67 198 58 213 -3 4 -11 6 -19 3 -7 -3 -16 -1 -19 4 -9
15 -38 12 -64 -6z"/>
</g>
</svg>
