<?xml version="1.0" encoding="UTF-8" standalone="no"?>
<svg width="579px" height="123px" viewBox="0 0 579 123" version="1.1" xmlns="http://www.w3.org/2000/svg" xmlns:xlink="http://www.w3.org/1999/xlink" xmlns:sketch="http://www.bohemiancoding.com/sketch/ns">
    <!-- Generator: Sketch 3.1.1 (8761) - http://www.bohemiancoding.com/sketch -->
    <title>Group</title>
    <desc>Created with Sketch.</desc>
    <defs>
        <path id="path-1" d="M0,0 L526.666653,0 L526.666653,129.33333 L0,129.33333 L0,0 L0,0 Z"></path>
        <path id="path-3" d="M-0.302666659,0.601773318 L-0.302666659,132.886263 L158.438796,132.886263 L158.438796,0.601773318 L-0.302666659,0.601773318 L-0.302666659,0.601773318 Z"></path>
        <path id="path-5" d="M0,0 L526.666654,0 L526.666654,129.33333 L0,129.33333 L0,0 L0,0 Z"></path>
        <path id="path-7" d="M0,0 L526.666653,0 L526.666653,129.33333 L0,129.33333 L0,0 L0,0 Z"></path>
        <path id="path-9" d="M0.412000015,-0.398226682 L0.412000015,131.886263 L198.838795,131.886263 L198.838795,-0.398226682 L0.412000015,-0.398226682 L0.412000015,-0.398226682 Z"></path>
        <path id="path-11" d="M0,0 L526.666653,0 L526.666653,129.33333 L0,129.33333 L0,0 L0,0 Z"></path>
        <path id="path-13" d="M0,0 L526.666653,0 L526.666653,129.33333 L0,129.33333 L0,0 L0,0 Z"></path>
        <path id="path-15" d="M-0.478,22.478 L31.522,22.478 L31.522,0.48373 L-0.478,0.48373"></path>
    </defs>
    <g id="Page-1" stroke="none" stroke-width="1" fill="none" fill-rule="evenodd" sketch:type="MSPage">
        <g id="Group" sketch:type="MSLayerGroup" transform="translate(-11.000000, -5.000000)">
            <g id="11">
                <g id="g10" transform="translate(263.500000, 69.166663) scale(1, -1) translate(-263.500000, -69.166663) translate(0.000000, -0.333337)">
                    <g id="g14" transform="translate(0.000000, 9.333333)">
                        <g id="g16-Clipped">
                            <mask id="mask-2" sketch:name="path20" fill="white">
                                <use xlink:href="#path-1"></use>
                            </mask>
                            <g id="path20"></g>
                            <g id="g16" mask="url(#mask-2)">
                                <g transform="translate(-62.666665, -1.333333)">
                                    <g id="g2318" transform="translate(74.363998, 19.058666)">
                                        <path d="M0,0 L158.130396,0" id="path2320" stroke="#000000" stroke-width="0.53133332" sketch:type="MSShapeGroup"></path>
                                    </g>
                                    <g id="g2322" transform="translate(231.161061, 16.392000)">
                                        <path d="M-0.260679993,4.79201321 C-0.127826663,3.99501323 1.3333333,2.79947993 1.73181329,2.6666666 C1.3333333,2.53385327 -0.127826663,1.33831997 -0.260679993,0.541319986" id="path2324" stroke="#000000" stroke-width="0.5" sketch:type="MSShapeGroup"></path>
                                    </g>
                                    <g id="g2326" transform="translate(74.363998, 19.058666)"></g>
                                    <g id="g2340" transform="translate(74.363998, 19.058666)"></g>
                                    <g id="g2354" transform="translate(74.363998, 19.058666)"></g>
                                    <g id="g2356" transform="translate(225.333328, 0.000000)" font-weight="normal" font-family="Helvetica" font-size="15.3709717">
                                        <g id="text2358" transform="translate(4.008000, 8.693333) scale(1, -1) translate(-4.008000, -8.693333) translate(0.008000, -0.640000)" fill="#000000" sketch:type="MSTextLayer">
                                            <text id="tspan2360">
                                                <tspan x="0" y="15">x</tspan>
                                            </text>
                                        </g>
                                    </g>
                                </g>
                            </g>
                        </g>
                    </g>
                    <g id="g2362" transform="translate(12.000000, 0.000000)">
                        <g id="g2364-Clipped">
                            <mask id="mask-4" sketch:name="path2368" fill="white">
                                <use xlink:href="#path-3"></use>
                            </mask>
                            <g id="path2368"></g>
                            <g id="g2364" mask="url(#mask-4)">
                                <g transform="translate(-12.000000, 9.333333)" id="g2370-Clipped">
                                    <g>
                                        <mask id="mask-6" sketch:name="path2374" fill="white">
                                            <use xlink:href="#path-5"></use>
                                        </mask>
                                        <g id="path2374"></g>
                                        <g id="g2370" mask="url(#mask-6)">
                                            <g transform="translate(38.666666, 17.333333)">
                                                <g id="g2376" transform="translate(-0.302667, 0.392000)" stroke-dasharray="2.98883,2.98883">
                                                    <path d="M-0.209773328,26.4568927 L-0.209773328,0" id="path2378" stroke="#000000" stroke-width="0.53133332" sketch:type="MSShapeGroup"></path>
                                                </g>
                                                <g id="g2380" transform="translate(78.363998, 0.392000)" stroke-dasharray="2.98883,2.98883">
                                                    <path d="M0.494279988,0 L0.494279988,105.827611" id="path2382" stroke="#000000" stroke-width="0.53133332" sketch:type="MSShapeGroup"></path>
                                                </g>
                                                <g id="g2384" transform="translate(-0.302667, 0.392000)">
                                                    <path d="M-0.209773328,0 L79.1609447,0" id="path2386" stroke="#FF0000" stroke-width="1.85970667" sketch:type="MSShapeGroup"></path>
                                                </g>
                                                <g id="g2388" transform="translate(-0.302667, 27.058666)">
                                                    <path d="M-0.209773328,-0.209773328 L3.09730659,3.09730659 L6.40443984,6.40443984 L9.71154642,9.71154642 L13.0186663,13.0186663 L16.3257596,16.3257596 L19.6328928,19.6328928 L22.9400261,22.9400261 L26.2471327,26.2471327 L29.5542393,29.5542393 L32.8613458,32.8613458 L36.1684524,36.1684524 L39.475559,39.475559 L42.7826923,42.7826923 L46.0897988,46.0897988 L49.3969321,49.3969321 L52.7040253,52.7040253 L56.0111319,56.0111319 L59.3182385,59.3182385 L62.6253584,62.6253584 L65.9324917,65.9324917 L69.2395983,69.2395983 L72.5467049,72.5467049 L75.8538248,75.8538248 L78.259238,78.259238" id="path2390" stroke="#0C5A91" stroke-width="1.59404004" sketch:type="MSShapeGroup"></path>
                                                </g>
                                                <g id="g2392" transform="translate(77.013731, 104.375064) rotate(45.000000) translate(-77.013731, -104.375064) translate(75.680411, 100.375103)">
                                                    <path d="M0.116212216,7.40054218 C0.328756839,6.1253011 2.66664103,4.21246616 3.3042349,3.99996154 C2.66664103,3.78745692 0.328756839,1.87462198 0.116212216,0.599380904" id="path2394" stroke="#0C5A91" stroke-width="1.27518771" sketch:type="MSShapeGroup"></path>
                                                </g>
                                            </g>
                                        </g>
                                    </g>
                                </g>
                            </g>
                        </g>
                    </g>
                    <g id="g2396" transform="translate(0.000000, 9.333333)">
                        <g id="g2398-Clipped">
                            <mask id="mask-8" sketch:name="path2402" fill="white">
                                <use xlink:href="#path-7"></use>
                            </mask>
                            <g id="path2402"></g>
                            <g id="g2398" mask="url(#mask-8)">
                                <g transform="translate(288.333326, 17.333333)">
                                    <g id="g2404" transform="translate(0.412000, 0.392000)">
                                        <path d="M0.209773328,0 L158.951196,0" id="path2406" stroke="#000000" stroke-width="0.53133332" sketch:type="MSShapeGroup"></path>
                                    </g>
                                    <g id="g2408" transform="translate(27.078666, 0.392000)"></g>
                                    <g id="g2422" transform="translate(27.078666, 0.392000)"></g>
                                </g>
                            </g>
                        </g>
                    </g>
                    <g id="g2430" transform="translate(314.999992, 1.000000)">
                        <g id="g2432-Clipped">
                            <mask id="mask-10" sketch:name="path2436" fill="white">
                                <use xlink:href="#path-9"></use>
                            </mask>
                            <g id="path2436"></g>
                            <g id="g2432" mask="url(#mask-10)">
                                <g transform="translate(-314.999992, 8.333333)" id="g2438-Clipped">
                                    <g>
                                        <mask id="mask-12" sketch:name="path2442" fill="white">
                                            <use xlink:href="#path-11"></use>
                                        </mask>
                                        <g id="path2442"></g>
                                        <g id="g2438" mask="url(#mask-12)">
                                            <g transform="translate(314.999992, 17.333333)">
                                                <g id="g2444" transform="translate(80.411998, 0.392000)" stroke-dasharray="2.98883,2.98883">
                                                    <path d="M-0.629306651,0 L-0.629306651,79.3706913" id="path2446" stroke="#000000" stroke-width="0.53133332" sketch:type="MSShapeGroup"></path>
                                                </g>
                                                <g id="g2448" transform="translate(27.078666, 0.392000)">
                                                    <path d="M-0.209773328,0 C4.51551989,8.18458646 4.51551989,18.2722662 -0.209773328,26.456866" id="path2450" stroke="#FF0000" stroke-width="1.32837331" sketch:type="MSShapeGroup"></path>
                                                </g>
                                                <g id="g2452" transform="translate(0.412000, 0.392000)">
                                                    <path d="M0,0 L3.30709325,3.30709325 L6.61419983,6.61419983 L9.92130642,9.92130642 L13.2284397,13.2284397 L16.5355463,16.5355463 L19.8426662,19.8426662 L23.1497594,23.1497594 L26.4568927,26.4568927 L29.7639726,29.7639726 L33.0711058,33.0711058 L36.3782124,36.3782124 L39.6853323,39.6853323 L42.9924256,42.9924256 L46.2995588,46.2995588 L49.6066921,49.6066921 L52.9137987,52.9137987 L56.2209053,56.2209053 L59.5280118,59.5280118 L62.8351184,62.8351184 L66.142225,66.142225 L69.4493583,69.4493583 L72.7564648,72.7564648 L76.0635981,76.0635981 L78.468998,78.468998" id="path2454" stroke="#0C5A91" stroke-width="1.59404004" sketch:type="MSShapeGroup"></path>
                                                </g>
                                                <g id="g2456" transform="translate(77.938131, 77.918131) rotate(45.000000) translate(-77.938131, -77.918131) translate(76.604811, 73.918170)">
                                                    <path d="M0.116212216,7.40054218 C0.328756839,6.1253011 2.66664103,4.21246616 3.3042349,3.99996154 C2.66664103,3.78745692 0.328756839,1.87462198 0.116212216,0.599380904" id="path2458" stroke="#0C5A91" stroke-width="1.27518771" sketch:type="MSShapeGroup"></path>
                                                </g>
                                                <g id="g2460" transform="translate(0.412000, 0.392000)">
                                                    <path d="M0,0 L79.3706913,0" id="path2462" stroke="#FF0000" stroke-width="1.85970667" sketch:type="MSShapeGroup"></path>
                                                </g>
                                                <g id="g2464" transform="translate(53.745332, 1.725333)">
                                                    <path d="M52.4942787,25.1235594 L0.133479997,0.252213327" id="path2466" stroke="#FF0000" stroke-width="0.53133332" sketch:type="MSShapeGroup"></path>
                                                </g>
                                                <g id="g2468" transform="translate(54.482152, 2.264120) rotate(205.406207) translate(-54.482152, -2.264120) translate(53.814200, -0.407687)">
                                                    <path d="M-0.261182481,4.80125031 C-0.128073062,4.00271403 1.33590344,2.80487621 1.73515154,2.67180687 C1.33590344,2.53873753 -0.128073062,1.34089972 -0.261182481,0.542363436" id="path2470" stroke="#FF0000" stroke-width="0.66666665" sketch:type="MSShapeGroup"></path>
                                                </g>
                                            </g>
                                        </g>
                                    </g>
                                </g>
                            </g>
                        </g>
                    </g>
                    <g id="g2540" transform="translate(0.000000, 9.333333)">
                        <g id="g2542-Clipped">
                            <mask id="mask-14" sketch:name="path2546" fill="white">
                                <use xlink:href="#path-13"></use>
                            </mask>
                            <g id="path2546"></g>
                            <g id="g2542" mask="url(#mask-14)" font-size="15.3709717" font-family="Helvetica" font-weight="normal">
                                <g transform="translate(239.999994, -17.333333)" id="g2548">
                                    <g>
                                        <g id="text2550" transform="translate(9.048000, 9.482666) scale(1, -1) translate(-9.048000, -9.482666) translate(-0.285333, 0.149333)" fill="#000000" sketch:type="MSTextLayer">
                                            <text id="tspan2552">
                                                <tspan x="0" y="15">10</tspan>
                                            </text>
                                        </g>
                                    </g>
                                </g>
                            </g>
                        </g>
                    </g>
                </g>
            </g>
            <g id="Imported-Layers" transform="translate(54.000000, 20.000000)" fill="#0C5A91" sketch:type="MSShapeGroup">
                <path d="M17.09156,4.45761 C16.58563,4.93696 15.41398,5.94875 15.41398,6.58781 C15.41398,6.96061 15.7602,7.30676 16.10635,7.30676 C16.4525,7.30676 16.61228,7.06715 16.79865,6.82748 C17.22468,6.2949 18.05011,5.28311 19.64779,4.51092 C19.8874,4.35114 20.2602,4.19135 20.2602,3.73866 C20.2602,3.39251 19.99394,3.20615 19.75427,3.01978 C18.9555,2.4872 18.55604,1.84814 18.26313,0.99606 C18.20989,0.64991 18.05011,0.19722 17.57083,0.19722 C17.0649,0.19722 16.85188,0.64991 16.85188,0.94282 C16.85188,1.12919 17.11814,2.27418 17.70396,3.01978 L5.588479,3.01978 C4.976046,3.01978 4.336987,3.01978 4.336987,3.73866 C4.336987,4.45761 4.976046,4.45761 5.588479,4.45761 L17.09156,4.45761" id="Fill-1"></path>
                <path d="M15.9998,12.47247 C15.9998,10.52871 15.06784,9.96954 14.42878,9.96954 C13.52346,9.96954 12.67138,10.90151 12.67138,11.70028 C12.67138,12.15297 12.85775,12.36599 13.2572,12.76538 C14.00274,13.48433 14.45543,14.4163 14.45543,15.72107 C14.45543,17.212209 12.27199,25.440079 8.064838,25.440079 C6.254164,25.440079 5.402085,24.188587 5.402085,22.324661 C5.402085,20.300974 6.3873,17.691486 7.50567,14.70921 C7.745275,14.0968 7.93171,13.59087 7.93171,12.89851 C7.93171,11.3009 6.786713,9.96954 4.976046,9.96954 C1.620983,9.96954 0.2363566,15.1619 0.2363566,15.4814 C0.2363566,15.8542 0.6091411,15.8542 0.662396,15.8542 C1.035182,15.8542 1.061808,15.77431 1.248202,15.21514 C2.286674,11.56715 3.831064,10.74173 4.869536,10.74173 C5.16244,10.74173 5.774866,10.74173 5.774866,11.9133 C5.774866,12.79203 5.402085,13.77724 5.16244,14.4163 C3.591418,18.570218 3.11212,20.221097 3.11212,21.792112 C3.11212,25.653099 6.28079,26.2389007 7.93171,26.2389007 C13.97615,26.2389007 15.9998,14.33641 15.9998,12.47247" id="Fill-3"></path>
            </g>
            <g id="Imported-Layers-2" transform="translate(333.000000, 44.000000)" fill="#0C5A91" sketch:type="MSShapeGroup">
                <path d="M17.09156,4.45761 C16.58563,4.93696 15.41398,5.94875 15.41398,6.58781 C15.41398,6.96061 15.7602,7.30676 16.10635,7.30676 C16.4525,7.30676 16.61228,7.06715 16.79865,6.82748 C17.22468,6.2949 18.05011,5.28311 19.64779,4.51092 C19.8874,4.35114 20.2602,4.19135 20.2602,3.73866 C20.2602,3.39251 19.99394,3.20615 19.75427,3.01978 C18.9555,2.4872 18.55604,1.84814 18.26313,0.99606 C18.20989,0.64991 18.05011,0.19722 17.57083,0.19722 C17.0649,0.19722 16.85188,0.64991 16.85188,0.94282 C16.85188,1.12919 17.11814,2.27418 17.70396,3.01978 L5.588479,3.01978 C4.976046,3.01978 4.336987,3.01978 4.336987,3.73866 C4.336987,4.45761 4.976046,4.45761 5.588479,4.45761 L17.09156,4.45761" id="Fill-1"></path>
                <path d="M15.9998,12.47247 C15.9998,10.52871 15.06784,9.96954 14.42878,9.96954 C13.52346,9.96954 12.67138,10.90151 12.67138,11.70028 C12.67138,12.15297 12.85775,12.36599 13.2572,12.76538 C14.00274,13.48433 14.45543,14.4163 14.45543,15.72107 C14.45543,17.212209 12.27199,25.440079 8.064838,25.440079 C6.254164,25.440079 5.402085,24.188587 5.402085,22.324661 C5.402085,20.300974 6.3873,17.691486 7.50567,14.70921 C7.745275,14.0968 7.93171,13.59087 7.93171,12.89851 C7.93171,11.3009 6.786713,9.96954 4.976046,9.96954 C1.620983,9.96954 0.2363566,15.1619 0.2363566,15.4814 C0.2363566,15.8542 0.6091411,15.8542 0.662396,15.8542 C1.035182,15.8542 1.061808,15.77431 1.248202,15.21514 C2.286674,11.56715 3.831064,10.74173 4.869536,10.74173 C5.16244,10.74173 5.774866,10.74173 5.774866,11.9133 C5.774866,12.79203 5.402085,13.77724 5.16244,14.4163 C3.591418,18.570218 3.11212,20.221097 3.11212,21.792112 C3.11212,25.653099 6.28079,26.2389007 7.93171,26.2389007 C13.97615,26.2389007 15.9998,14.33641 15.9998,12.47247" id="Fill-3"></path>
            </g>
            <g id="Imported-Layers" transform="translate(64.000000, 83.000000)">
                <mask id="mask-16" sketch:name="Clip 2" fill="white">
                    <use xlink:href="#path-15"></use>
                </mask>
                <g id="Clip-2"></g>
                <path d="M15.81804,2.90684 C15.81804,0.98966 14.88607,0.40384 14.24701,0.40384 C13.34163,0.40384 12.48955,1.33581 12.48955,2.13459 C12.48955,2.58728 12.67598,2.8003 13.07537,3.19968 C13.82097,3.91863 14.2736,4.8506 14.2736,6.15537 C14.2736,7.64651 12.09016,15.87439 7.883006,15.87439 C6.072359,15.87439 5.246906,14.622925 5.246906,12.75899 C5.246906,10.73526 6.205494,8.12579 7.323838,5.14351 C7.56351,4.53111 7.749877,4.02518 7.749877,3.35947 C7.749877,1.7352 6.604888,0.40384 4.794241,0.40384 C1.439177,0.40384 0.054549,5.62279 0.054549,5.94236 C0.054549,6.2885 0.427337,6.2885 0.480589,6.2885 C0.853376,6.2885 0.880002,6.20861 1.066396,5.64944 C2.104862,2.02811 3.649258,1.20268 4.687731,1.20268 C4.980628,1.20268 5.593061,1.20268 5.593061,2.34761 C5.593061,3.25299 5.246906,4.21154 4.980628,4.8506 C3.409613,9.03111 2.930315,10.68203 2.930315,12.2264 C2.930315,16.087409 6.098985,16.67321 7.749877,16.67321 C13.79432,16.67321 15.81804,4.77071 15.81804,2.90684" id="Fill-1" fill="#FF0000" sketch:type="MSShapeGroup" mask="url(#mask-16)"></path>
                <path d="M22.66126,19.016427 C22.42165,19.868505 21.59616,21.226508 20.31804,21.226508 C20.23815,21.226508 19.49261,21.226508 18.96003,20.880352 C19.97189,20.560823 20.05178,19.655486 20.05178,19.495724 C20.05178,18.936549 19.62574,18.563762 19.06657,18.563762 C18.34762,18.563762 17.62867,19.176195 17.62867,20.108158 C17.62867,21.359643 19.03992,21.918823 20.2648,21.918823 C21.40979,21.918823 22.44824,21.199882 23.06071,20.161409 C23.67312,21.466153 25.05771,21.918823 26.04299,21.918823 C28.91872,21.918823 30.46309,18.803407 30.46309,18.084471 C30.46309,17.764941 30.1436,17.764941 30.06371,17.764941 C29.71756,17.764941 29.6909,17.898077 29.58443,18.19098 C29.05185,19.921764 27.56071,21.226508 26.14946,21.226508 C25.1376,21.226508 24.60509,20.560823 24.60509,19.602234 C24.60509,18.936549 25.21749,16.67321 25.90979,13.877322 C26.41572,11.96014 27.56071,11.32109 28.3862,11.32109 C28.41279,11.32109 29.21163,11.32109 29.74414,11.66723 C28.91872,11.90691 28.62581,12.5992 28.62581,13.051896 C28.62581,13.611064 29.05185,13.983866 29.63767,13.983866 C30.19684,13.983866 31.02226,13.50452 31.02226,12.46607 C31.02226,11.05483 29.42465,10.62879 28.43944,10.62879 C27.16132,10.62879 26.17611,11.45421 25.61695,12.41284 C25.16425,11.37432 24.01926,10.62879 22.60802,10.62879 C19.81211,10.62879 18.21449,13.71754 18.21449,14.463143 C18.21449,14.782638 18.56064,14.782638 18.64053,14.782638 C18.96003,14.782638 18.98668,14.676162 19.09316,14.356599 C19.73222,12.41284 21.30325,11.32109 22.52813,11.32109 C23.35355,11.32109 24.04592,11.77378 24.04592,12.972 C24.04592,13.477935 23.75301,14.7294 23.51333,15.581479 L22.66126,19.016427" id="Fill-3" fill="#FF0000" sketch:type="MSShapeGroup" mask="url(#mask-16)"></path>
            </g>
            <path d="M364.386892,93.2252567 C364.386892,89.2405106 361.946833,88 360.010266,88 C356.447049,88 353,91.6276141 353,95.1988155 C353,97.5670911 354.549234,99.4842706 357.221665,99.4842706 C358.867751,99.4842706 360.746164,98.9015976 362.740833,97.3603402 C363.070019,98.6948426 363.941452,99.4842706 365.103408,99.4842706 C366.497713,99.4842706 367.311052,98.0933751 367.311052,97.6986633 C367.311052,97.5107073 367.156128,97.4355238 366.981823,97.4355238 C366.807561,97.4355238 366.730077,97.5107073 366.652637,97.6986633 C366.187866,98.9391922 365.238943,98.9391922 365.180841,98.9391922 C364.386892,98.9391922 364.386892,96.9468287 364.386892,96.3453619 C364.386892,95.8190779 364.386892,95.7626892 364.638637,95.4619551 C367.098026,92.4734235 367.640281,89.5224824 367.640281,89.5036635 C367.640281,89.4472706 367.620899,89.2405106 367.330433,89.2405106 C367.078688,89.2405106 367.078688,89.3157224 366.943103,89.7855859 C366.478332,91.3832729 365.606892,93.3004162 364.386892,94.8040847 L364.386892,93.2252567 L364.386892,93.2252567 Z M362.62463,96.702484 C360.339495,98.6572529 358.325494,98.9391922 357.279748,98.9391922 C355.71116,98.9391922 354.917179,97.7926409 354.917179,96.1762 C354.917179,94.9356711 355.59497,92.1914518 356.447049,90.8945482 C357.667081,89.0525624 359.080724,88.5638871 359.990935,88.5638871 C362.58591,88.5638871 362.58591,91.8907247 362.58591,93.864304 C362.58591,94.8040847 362.58591,96.2701784 362.62463,96.702484 L362.62463,96.702484 Z" id="Imported-Layers" fill="#FF0000" sketch:type="MSShapeGroup"></path>
            <g id="Imported-Layers" transform="translate(416.000000, 54.000000)" fill="#FF0000" sketch:type="MSShapeGroup">
                <path d="M11.9863066,10.8456473 C11.9863066,9.32210486 11.2591193,8.88383649 10.7396864,8.88383649 C10.0540874,8.88383649 9.36844152,9.61429946 9.36844152,10.2403624 C9.36844152,10.5951735 9.51386027,10.7621351 9.82553874,11.0751705 C10.4072605,11.6386719 10.7812201,12.3691349 10.7812201,13.3917924 C10.7812201,14.5605238 9.05680987,21.0093949 5.79484357,21.0093949 C4.36128176,21.0093949 3.71720632,20.0285208 3.71720632,18.5675949 C3.71720632,16.9814359 4.46516366,14.9361678 5.33779863,12.598713 C5.52475422,12.1187159 5.67022368,11.7221762 5.67022368,11.1795705 C5.67022368,9.92732703 4.77682419,8.88383649 3.38478127,8.88383649 C0.746153202,8.88383649 -0.313452023,12.9535241 -0.313452023,13.2248308 C-0.313452023,13.4961376 -0.0433542422,13.4961376 0.0189720897,13.4961376 C0.289071587,13.4961376 0.330621695,13.4335211 0.455283722,12.9952527 C1.26556661,10.1360173 2.47061102,9.48906649 3.30167482,9.48906649 C3.50943784,9.48906649 3.98730036,9.48906649 3.98730036,10.4073241 C3.98730036,11.0960584 3.71720632,11.86825 3.50943784,12.3691349 C2.28362344,15.645743 1.90964204,16.9397073 1.90964204,18.1501673 C1.90964204,21.1763596 4.3820572,21.6355166 5.67022368,21.6355166 C10.3865132,21.6355166 11.9863066,12.3065184 11.9863066,10.8456473" id="Fill-1"></path>
                <path d="M17.3051121,23.4720756 C17.118105,24.1399214 16.4740475,25.2043013 15.47677,25.2043013 C15.4144343,25.2043013 14.8326657,25.2043013 14.4171569,24.9329906 C15.2274273,24.6616799 15.2689688,23.9729597 15.2689688,23.8477416 C15.2689688,23.4094694 14.936543,23.1172787 14.5002399,23.1172787 C13.9392655,23.1172787 13.3783457,23.5973 13.3783457,24.306883 C13.3783457,25.2877821 14.4794926,25.7469289 15.4351817,25.7469289 C16.328582,25.7469289 17.1388992,25.1834331 17.616736,24.3486257 C18.0945805,25.3921319 19.1749879,25.7469289 19.9437168,25.7469289 C22.2083541,25.7469289 23.3926465,23.3051305 23.3926465,22.7416291 C23.3926465,22.4911608 23.1432959,22.4911608 23.0809602,22.4911608 C22.81087,22.4911608 22.7901305,22.5955044 22.7069928,22.8250833 C22.2914917,24.1816641 21.1280013,25.2043013 20.0268466,25.2043013 C19.2373236,25.2043013 18.8425621,24.6616799 18.8425621,23.9312225 C18.8425621,23.4094694 19.2996593,21.6355166 19.8606337,19.4441316 C20.2346011,17.941477 21.1280013,17.4405922 21.7720588,17.4405922 C21.8135926,17.4405922 22.4161085,17.4405922 22.831672,17.7118989 C22.2083541,17.8997484 21.9590659,18.4423619 21.9590659,18.797173 C21.9590659,19.2354414 22.2914917,19.5276359 22.7485343,19.5276359 C23.2056316,19.5276359 23.8497437,19.1519292 23.8497437,18.3171289 C23.8497437,17.2319019 22.5823214,16.8979786 21.8135926,16.8979786 C20.837117,16.8979786 20.047594,17.5449373 19.6112909,18.2962881 C19.2580709,17.4823208 18.3647253,16.8979786 17.263516,16.8979786 C15.0820085,16.8979786 13.8353883,19.2980578 13.8353883,19.9032878 C13.8353883,20.1536989 14.1054784,20.1536989 14.1678141,20.1536989 C14.4171569,20.1536989 14.4379042,20.0702495 14.5418283,19.8197757 C15.0196728,18.2754003 16.2454989,17.4405922 17.2219744,17.4405922 C17.8660865,17.4405922 18.3854648,17.7954032 18.3854648,18.7345565 C18.3854648,19.1310962 18.1569162,20.1119781 17.9699638,20.7798168 L17.3051121,23.4720756" id="Fill-3"></path>
                <path d="M53.5394183,12.1187159 C53.9548179,12.1187159 54.4952089,12.1187159 54.4952089,11.5552146 C54.4952089,10.9917132 53.9548179,10.9917132 53.5601657,10.9917132 L36.7935335,10.9917132 C36.3987719,10.9917132 35.8585917,10.9917132 35.8585917,11.5552146 C35.8585917,12.1187159 36.3987719,12.1187159 36.8143276,12.1187159 L53.5394183,12.1187159 L53.5394183,12.1187159 Z M53.5601657,17.5866659 C53.9548179,17.5866659 54.4952089,17.5866659 54.4952089,17.0232116 C54.4952089,16.4597103 53.9548179,16.4597103 53.5394183,16.4597103 L36.8143276,16.4597103 C36.3987719,16.4597103 35.8585917,16.4597103 35.8585917,17.0232116 C35.8585917,17.5866659 36.3987719,17.5866659 36.7727393,17.5866659 L53.5601657,17.5866659 L53.5601657,17.5866659 Z" id="Fill-4"></path>
                <path d="M68.2491052,1.22445054 C68.2491052,0.723565676 68.2491052,0.20184 67.6885053,0.20184 C67.1273748,0.20184 67.1273748,0.723565676 67.1273748,1.22445054 L67.1273748,27.353931 C67.1273748,27.8548151 67.1273748,28.3556988 67.6885053,28.3556988 C68.2491052,28.3556988 68.2491052,27.8548151 68.2491052,27.353931 L68.2491052,1.22445054" id="Fill-5"></path>
                <path d="M85.5351937,4.56367514 C85.1405336,4.93938189 84.2262924,5.73240649 84.2262924,6.23329135 C84.2262924,6.52548595 84.4964996,6.7967927 84.7873839,6.7967927 C85.0368359,6.7967927 85.1820439,6.60899027 85.3277982,6.44202865 C85.6601928,6.00376811 86.3043049,5.23152162 87.5297955,4.60545865 C87.7377372,4.48022568 88.0079444,4.35498486 88.0079444,4.00022865 C88.0079444,3.72886703 87.8206798,3.58280108 87.6132843,3.4367273 C86.9899274,3.01929973 86.698965,2.51841486 86.4702682,1.85056838 C86.4080807,1.57926162 86.3043049,1.22445054 85.9091767,1.22445054 C85.5145166,1.22445054 85.3485534,1.57926162 85.3485534,1.80883973 C85.3485534,1.95491351 85.576704,2.85233811 86.0134206,3.4367273 L76.5804827,3.4367273 C76.1028566,3.4367273 75.6039526,3.4367273 75.6039526,4.00022865 C75.6039526,4.58456297 76.1028566,4.58456297 76.5804827,4.58456297 L85.5351937,4.58456297" id="Fill-6"></path>
                <path d="M84.7044413,10.8456473 C84.7044413,9.32210486 83.9773865,8.88383649 83.4784825,8.88383649 C82.7721049,8.88383649 82.0864825,9.61429946 82.0864825,10.2403624 C82.0864825,10.5951735 82.2316906,10.7621351 82.5434081,11.0751705 C83.1252547,11.6386719 83.4991596,12.3691349 83.4991596,13.3917924 C83.4991596,14.5605238 81.7955982,21.0093949 78.5127722,21.0093949 C77.0794179,21.0093949 76.4352824,20.0285208 76.4352824,18.5675949 C76.4352824,16.9814359 77.1831157,14.9361678 78.0559247,12.598713 C78.2633202,12.1187159 78.3883193,11.7221762 78.3883193,11.1795705 C78.3883193,9.92732703 77.4947552,8.88383649 76.1028566,8.88383649 C73.4641973,8.88383649 72.4046934,12.9535241 72.4046934,13.2248308 C72.4046934,13.4961376 72.6748849,13.4961376 72.7371192,13.4961376 C73.0073108,13.4961376 73.0487977,13.4335211 73.1732584,12.9952527 C74.0045883,10.1360173 75.2093003,9.48906649 76.0198828,9.48906649 C76.2480569,9.48906649 76.705474,9.48906649 76.705474,10.4073241 C76.705474,11.0960584 76.4352824,11.86825 76.2480569,12.3691349 C75.0018657,15.645743 74.6486926,16.9397073 74.6486926,18.1501673 C74.6486926,21.1763596 77.1000951,21.6355166 78.3883193,21.6355166 C83.1044996,21.6355166 84.7044413,12.3065184 84.7044413,10.8456473" id="Fill-7"></path>
                <path d="M90.6258251,1.22445054 C90.6258251,0.723565676 90.6258251,0.20184 90.0647336,0.20184 C89.5035641,0.20184 89.5035641,0.723565676 89.5035641,1.22445054 L89.5035641,27.353931 C89.5035641,27.8548151 89.5035641,28.3556988 90.0647336,28.3556988 C90.6258251,28.3556988 90.6258251,27.8548151 90.6258251,27.353931 L90.6258251,1.22445054" id="Fill-8"></path>
                <path d="M101.865523,15.1866416 C101.865523,10.5951735 104.151009,9.40555432 105.647253,9.40555432 C105.896705,9.40555432 107.662532,9.44733784 108.639039,10.4491076 C107.496022,10.532557 107.330059,11.388253 107.330059,11.743017 C107.330059,12.47348 107.828495,13.0369814 108.618283,13.0369814 C109.345416,13.0369814 109.906508,12.5778251 109.906508,11.7221762 C109.906508,9.80209405 107.76623,8.71687486 105.626498,8.71687486 C102.114975,8.71687486 99.5386045,11.743017 99.5386045,15.2492032 C99.5386045,18.8389016 102.302239,21.6355166 105.564232,21.6355166 C109.324661,21.6355166 110.218225,18.2545124 110.218225,17.9623649 C110.218225,17.6910581 109.927263,17.6910581 109.843774,17.6910581 C109.594868,17.6910581 109.532603,17.7954032 109.490624,17.9623649 C108.680549,20.5919673 106.85191,20.9258905 105.813138,20.9258905 C104.338274,20.9258905 101.865523,19.7154305 101.865523,15.1866416" id="Fill-9"></path>
                <path d="M124.263068,15.2909868 C124.263068,11.7012884 121.457923,8.71687486 118.071399,8.71687486 C114.581256,8.71687486 111.859599,11.7847927 111.859599,15.2909868 C111.859599,18.9223511 114.767896,21.6355166 118.050644,21.6355166 C121.437168,21.6355166 124.263068,18.8806303 124.263068,15.2909868 L124.263068,15.2909868 Z M118.071399,20.9258905 C116.866742,20.9258905 115.640705,20.3415562 114.87214,19.0475919 C114.186596,17.7954032 114.186596,16.0840114 114.186596,15.0822416 C114.186596,13.9761268 114.186596,12.4526392 114.851385,11.2212914 C115.599273,9.92732703 116.928929,9.32210486 118.050644,9.32210486 C119.276681,9.32210486 120.481338,9.9482227 121.209017,11.1586749 C121.936072,12.3691349 121.936072,13.9970224 121.936072,15.0822416 C121.936072,16.0840114 121.936072,17.6075538 121.33347,18.8389016 C120.710113,20.1119781 119.484076,20.9258905 118.071399,20.9258905 L118.071399,20.9258905 Z" id="Fill-10"></path>
                <path d="M130.870074,15.8544881 C131.472676,15.9796662 133.778371,16.4179346 133.778371,18.4423619 C133.778371,19.8823922 132.802411,21.0093949 130.620622,21.0093949 C128.252116,21.0093949 127.254854,19.402403 126.714517,17.0232116 C126.631497,16.6475127 126.610742,16.5431676 126.319857,16.5431676 C125.96663,16.5431676 125.96663,16.731017 125.96663,17.2319019 L125.96663,20.9467784 C125.96663,21.4267754 125.96663,21.6355166 126.257592,21.6355166 C126.4028,21.6355166 126.44431,21.6146264 126.96397,21.0720192 C127.026157,21.0093949 127.026157,20.9467784 127.525061,20.4250057 C128.771229,21.5937362 130.018021,21.6355166 130.620622,21.6355166 C133.841183,21.6355166 135.129329,19.7363262 135.129329,17.7118989 C135.129329,16.2301322 134.277275,15.3744362 133.944881,15.040513 C133.030561,14.1430884 131.929602,13.9135103 130.745075,13.683987 C129.18719,13.3917924 127.296364,13.0161405 127.296364,11.388253 C127.296364,10.4073241 128.023419,9.2385927 130.433358,9.2385927 C133.529465,9.2385927 133.674674,11.7847927 133.716184,12.6613295 C133.757616,12.9117484 134.007068,12.9117484 134.048578,12.9117484 C134.422483,12.9117484 134.422483,12.7656746 134.422483,12.2230611 L134.422483,9.38472135 C134.422483,8.90466946 134.422483,8.71687486 134.110844,8.71687486 C133.965636,8.71687486 133.924126,8.71687486 133.550221,9.05079811 C133.4672,9.15514324 133.197071,9.40555432 133.072072,9.48906649 C132.012544,8.71687486 130.870074,8.71687486 130.433358,8.71687486 C127.026157,8.71687486 125.96663,10.5951735 125.96663,12.1813324 C125.96663,13.1622143 126.4028,13.9552938 127.171911,14.5605238 C128.064929,15.2909868 128.854796,15.4579484 130.870074,15.8544881" id="Fill-11"></path>
                <path d="M145.309578,28.0843877 C145.309578,28.0009069 145.309578,27.9382951 144.831897,27.4582801 C141.341207,23.9103534 140.426888,18.5884278 140.426888,14.289217 C140.426888,9.38472135 141.507639,4.48022568 144.956428,0.974031622 C145.309578,0.640108378 145.309578,0.577491892 145.309578,0.494042432 C145.309578,0.285297297 145.20588,0.20184 145.03937,0.20184 C144.748408,0.20184 142.234771,2.12187514 140.572642,5.69067784 C139.13921,8.80032432 138.806815,11.9099786 138.806815,14.289217 C138.806815,16.4805511 139.118455,19.8823922 140.655585,23.0755524 C142.338469,26.5191237 144.748408,28.3556988 145.03937,28.3556988 C145.20588,28.3556988 145.309578,28.2722182 145.309578,28.0843877" id="Fill-12"></path>
                <path d="M160.330927,14.6857568 C160.330927,10.2612503 157.713047,8.88383649 155.656257,8.88383649 C151.812886,8.88383649 148.114723,12.9117484 148.114723,16.8770908 C148.114723,19.4858524 149.797529,21.6355166 152.643639,21.6355166 C154.410012,21.6355166 156.425291,20.988507 158.5651,19.27717 C158.91825,20.7589289 159.853325,21.6355166 161.120794,21.6355166 C162.595658,21.6355166 163.468467,20.0910824 163.468467,19.6319811 C163.468467,19.4441316 163.302036,19.3606743 163.136073,19.3606743 C162.928131,19.3606743 162.84511,19.4441316 162.762168,19.6319811 C162.263264,21.0093949 161.245247,21.0093949 161.203736,21.0093949 C160.330927,21.0093949 160.330927,18.8180138 160.330927,18.1501673 C160.330927,17.5449373 160.330927,17.4823208 160.601135,17.1483976 C163.23977,13.8300608 163.821695,10.5742857 163.821695,10.532557 C163.821695,10.4908284 163.80094,10.2612503 163.489222,10.2612503 C163.219015,10.2612503 163.219015,10.3447624 163.073807,10.8456473 C162.574903,12.6196008 161.639907,14.7692141 160.330927,16.4179346 L160.330927,14.6857568 L160.330927,14.6857568 Z M158.440648,18.5258662 C155.988652,20.6963673 153.828165,21.0093949 152.705904,21.0093949 C151.02302,21.0093949 150.192189,19.7363262 150.192189,17.941477 C150.192189,16.5640554 150.919322,13.5170254 151.812886,12.0978281 C153.121787,10.0316722 154.63824,9.48906649 155.614747,9.48906649 C158.399137,9.48906649 158.399137,13.1831022 158.399137,15.3744362 C158.399137,16.4179346 158.399137,18.06671 158.440648,18.5258662 L158.440648,18.5258662 Z" id="Fill-13"></path>
                <path d="M173.088092,14.289217 C173.088092,12.0978281 172.776375,8.67514622 171.238699,5.50288324 C169.555892,2.03841784 167.145875,0.20184 166.854991,0.20184 C166.688482,0.20184 166.584784,0.327080811 166.584784,0.494042432 C166.584784,0.577491892 166.584784,0.640108378 167.125198,1.14099324 C169.867532,3.91672432 171.467474,8.40378459 171.467474,14.289217 C171.467474,19.0893127 170.428701,24.0564405 166.937934,27.6043726 C166.584784,27.9382951 166.584784,28.0009069 166.584784,28.0843877 C166.584784,28.2513478 166.688482,28.3556988 166.854991,28.3556988 C167.145875,28.3556988 169.65959,26.4356429 171.321719,22.8668637 C172.75562,19.7780549 173.088092,16.6475127 173.088092,14.289217" id="Fill-14"></path>
            </g>
        </g>
    </g>
</svg>