<?xml version="1.0" encoding="UTF-8" standalone="no"?>
<svg width="521px" height="91px" viewBox="0 0 521 91" version="1.1" xmlns="http://www.w3.org/2000/svg" xmlns:xlink="http://www.w3.org/1999/xlink" xmlns:sketch="http://www.bohemiancoding.com/sketch/ns">
    <!-- Generator: Sketch 3.1.1 (8761) - http://www.bohemiancoding.com/sketch -->
    <title>Group</title>
    <desc>Created with Sketch.</desc>
    <defs>
        <path id="path-1" d="M0.0531684147,-0.066266665 L0.0531684147,132.218263 L188.446711,132.218263 L188.446711,-0.066266665 L0.0531684147,-0.066266665 L0.0531684147,-0.066266665 Z"></path>
        <path id="path-3" d="M0,0 L563.332012,0 L563.332012,113.33333 L0,113.33333 L0,0 L0,0 Z"></path>
        <path id="path-5" d="M0,0 L563.332012,0 L563.332012,113.33333 L0,113.33333 L0,0 L0,0 Z"></path>
        <path id="path-7" d="M-0.268373903,-0.066266665 L-0.268373903,132.218263 L188.125169,132.218263 L188.125169,-0.066266665 L-0.268373903,-0.066266665 L-0.268373903,-0.066266665 Z"></path>
        <path id="path-9" d="M0,0 L563.332012,0 L563.332012,113.33333 L0,113.33333 L0,0 L0,0 Z"></path>
        <path id="path-11" d="M0,0 L143.332012,0 L143.332012,113.33333 L0,113.33333 L0,0 L0,0 Z"></path>
        <path id="path-13" d="M0.35951978,-0.066266665 L0.35951978,132.218263 L188.753062,132.218263 L188.753062,-0.066266665 L0.35951978,-0.066266665 L0.35951978,-0.066266665 Z"></path>
        <path id="path-15" d="M0,0 L563.332012,0 L563.332012,113.33333 L0,113.33333 L0,0 L0,0 Z"></path>
    </defs>
    <g id="Page-1" stroke="none" stroke-width="1" fill="none" fill-rule="evenodd" sketch:type="MSPage">
        <g id="Group" sketch:type="MSLayerGroup" transform="translate(-43.000000, -18.000000)">
            <g id="12" transform="translate(0.142764, 0.000000)">
                <g id="g10" transform="translate(304.500000, 65.666644) scale(1, -1) translate(-304.500000, -65.666644) translate(0.000000, -0.333356)">
                    <g id="g302" transform="translate(30.650711, -0.333352)">
                        <g id="g304-Clipped">
                            <mask id="mask-2" sketch:name="path308" fill="white">
                                <use xlink:href="#path-1"></use>
                            </mask>
                            <g id="path308"></g>
                            <g id="g304" mask="url(#mask-2)">
                                <g transform="translate(-30.381951, 10.666666)" id="g310-Clipped">
                                    <g>
                                        <mask id="mask-4" sketch:name="path314" fill="white">
                                            <use xlink:href="#path-3"></use>
                                        </mask>
                                        <g id="path314"></g>
                                        <g id="g310" mask="url(#mask-4)">
                                            <g transform="translate(30.381951, 14.666666)">
                                                <g id="g316" transform="translate(76.008046, 1.057333)" stroke-dasharray="2.98883,2.98883">
                                                    <path d="M-0.597486389,0 L-0.597486389,79.3706913" id="path318" stroke="#000000" stroke-width="0.53133332" sketch:type="MSShapeGroup"></path>
                                                </g>
                                                <g id="g320" transform="translate(50.689754, 27.723999)">
                                                    <path d="M-0.39832004,-0.209773328 C4.08804345,7.97481313 4.08804345,18.0624795 -0.39832004,26.2470927" id="path322" stroke="#FF0000" stroke-width="1.32837331" sketch:type="MSShapeGroup"></path>
                                                </g>
                                                <g id="g324" transform="translate(25.371461, 27.723999)">
                                                    <path d="M-0.199166349,-0.209773328 L49.1829989,51.802332" id="path326" stroke="#0C5A91" stroke-width="1.59404004" sketch:type="MSShapeGroup"></path>
                                                </g>
                                                <g id="g328" transform="translate(73.659408, 78.583465) rotate(45.000405) translate(-73.659408, -78.583465) translate(72.393514, 74.583531)">
                                                    <path d="M0.110335281,7.40048985 C0.312131371,6.12525779 2.53178709,4.21243638 3.13713738,3.99993326 C2.53178709,3.78743013 0.312131371,1.87460872 0.110335281,0.599376665" id="path330" stroke="#0C5A91" stroke-width="1.2751787" sketch:type="MSShapeGroup"></path>
                                                </g>
                                                <g id="g332" transform="translate(25.371461, 1.057333)">
                                                    <path d="M-0.199166349,0 L50.039099,0" id="path334" stroke="#FF0000" stroke-width="1.85970667" sketch:type="MSShapeGroup"></path>
                                                </g>
                                                <g id="g336" transform="translate(25.371461, 1.057333)" stroke-dasharray="2.98883,2.98883">
                                                    <path d="M-0.199166349,0 L-0.199166349,26.4568927" id="path338" stroke="#000000" stroke-width="0.53133332" sketch:type="MSShapeGroup"></path>
                                                </g>
                                                <g id="g340" transform="translate(0.053168, 1.057333)"></g>
                                                <g id="g342" transform="translate(118.679497, 2.333333)" font-weight="normal" font-family="Helvetica" font-size="22.3800209">
                                                    <g id="text344" transform="translate(5.294055, 12.523999) scale(1, -1) translate(-5.294055, -12.523999) translate(-0.402561, -0.476001)" fill="#000000" sketch:type="MSTextLayer">
                                                        <text id="tspan346">
                                                            <tspan x="8.43268566e-15" y="21">x</tspan>
                                                        </text>
                                                    </g>
                                                </g>
                                                <g id="g348" transform="translate(25.371461, 27.723999)" stroke-dasharray="2.98883,2.98883">
                                                    <path d="M-0.199166349,-0.209773328 L50.039099,-0.209773328" id="path350" stroke="#000000" stroke-width="1.06267997" sketch:type="MSShapeGroup"></path>
                                                </g>
                                                <g id="g352" transform="translate(50.689754, 2.390667)">
                                                    <path d="M49.839958,25.1235594 L0.126730714,0.252213327" id="path354" stroke="#FF0000" stroke-width="0.53133332" sketch:type="MSShapeGroup"></path>
                                                </g>
                                                <g id="g356" transform="translate(51.389317, 2.929507) rotate(205.406207) translate(-51.389317, -2.929507) translate(50.755140, 0.257700)">
                                                    <path d="M-0.24797605,4.80125031 C-0.121597176,4.00271403 1.26835481,2.80487621 1.64741533,2.67180687 C1.26835481,2.53873753 -0.121597176,1.34089972 -0.24797605,0.542363436" id="path358" stroke="#FF0000" stroke-width="0.66666665" sketch:type="MSShapeGroup"></path>
                                                </g>
                                                <g id="g360" transform="translate(0.053168, 1.057333)"></g>
                                            </g>
                                        </g>
                                    </g>
                                </g>
                            </g>
                        </g>
                    </g>
                    <g id="g386" transform="translate(0.268760, 10.333314)">
                        <g id="g388-Clipped">
                            <mask id="mask-6" sketch:name="path392" fill="white">
                                <use xlink:href="#path-5"></use>
                            </mask>
                            <g id="path392"></g>
                            <g id="g388" mask="url(#mask-6)">
                                <g transform="translate(224.699848, 14.333333)">
                                    <g id="g394" transform="translate(7.327114, 1.390667)">
                                        <path d="M0.584857577,0.26566666 L118.053008,0.26566666" id="path396" stroke="#000000" stroke-width="0.53133332" sketch:type="MSShapeGroup"></path>
                                    </g>
                                    <g id="g398" transform="translate(124.114194, -0.276000)">
                                        <path d="M-0.24749897,3.79201321 C-0.121363236,2.99501323 1.26591463,1.79947993 1.64424588,1.6666666 C1.26591463,1.53385327 -0.121363236,0.338319967 -0.24749897,-0.458680014" id="path400" stroke="#000000" stroke-width="0.5" sketch:type="MSShapeGroup"></path>
                                    </g>
                                    <g id="g402" transform="translate(0.364583, 1.390667)"></g>
                                    <g id="g416" transform="translate(0.364583, 1.390667)"></g>
                                </g>
                            </g>
                        </g>
                    </g>
                    <g id="g424" transform="translate(225.601565, -0.333352)">
                        <g id="g426-Clipped">
                            <mask id="mask-8" sketch:name="path430" fill="white">
                                <use xlink:href="#path-7"></use>
                            </mask>
                            <g id="path430"></g>
                            <g id="g426" mask="url(#mask-8)">
                                <g transform="translate(-225.332805, 10.666666)" id="g432-Clipped">
                                    <g>
                                        <mask id="mask-10" sketch:name="path436" fill="white">
                                            <use xlink:href="#path-9"></use>
                                        </mask>
                                        <g id="path436"></g>
                                        <g id="g432" mask="url(#mask-10)">
                                            <g transform="translate(-3.797744, -2.666667)">
                                                <g id="g438" transform="translate(279.498760, 18.390666)" stroke-dasharray="2.98883,2.98883">
                                                    <path d="M-0.39832004,26.4568927 L-0.39832004,0" id="path440" stroke="#000000" stroke-width="0.53133332" sketch:type="MSShapeGroup"></path>
                                                </g>
                                                <g id="g442" transform="translate(279.498760, 18.390666)">
                                                    <path d="M24.7208063,0 L24.7208063,13.2284397 L-0.39832004,13.2284397" id="path444" stroke="#FF0000" stroke-width="1.32837331" sketch:type="MSShapeGroup"></path>
                                                </g>
                                                <g id="g446" transform="translate(279.498760, 45.057332)">
                                                    <path d="M-0.39832004,-0.209773328 L-0.39832004,51.428812" id="path448" stroke="#0C5A91" stroke-width="1.59404004" sketch:type="MSShapeGroup"></path>
                                                </g>
                                                <g id="g454" transform="translate(279.498760, 19.724000)">
                                                    <path d="M49.839958,25.1235594 L0.126730714,0.252213327" id="path456" stroke="#FF0000" stroke-width="0.53133332" sketch:type="MSShapeGroup"></path>
                                                </g>
                                                <g id="g458" transform="translate(280.198324, 20.262839) rotate(205.406207) translate(-280.198324, -20.262839) translate(279.564146, 17.591033)">
                                                    <path d="M-0.24797605,4.80125031 C-0.121597176,4.00271403 1.26835481,2.80487621 1.64741533,2.67180687 C1.26835481,2.53873753 -0.121597176,1.34089972 -0.24797605,0.542363436" id="path460" stroke="#FF0000" stroke-width="0.66666665" sketch:type="MSShapeGroup"></path>
                                                </g>
                                                <g id="g462" transform="translate(228.862175, 18.390666)"></g>
                                                <g id="g464" transform="translate(346.860610, 19.666666)" font-weight="normal" font-family="Helvetica" font-size="22.3800209">
                                                    <g id="text466" transform="translate(5.726599, 12.523999) scale(1, -1) translate(-5.726599, -12.523999) translate(0.226599, -0.476001)" fill="#000000" sketch:type="MSTextLayer">
                                                        <text id="tspan468">
                                                            <tspan x="-1.0658141e-14" y="21">x</tspan>
                                                        </text>
                                                        <text id="tspan468-2">
                                                            <tspan x="-1.0658141e-14" y="21">x</tspan>
                                                        </text>
                                                    </g>
                                                </g>
                                            </g>
                                        </g>
                                    </g>
                                </g>
                            </g>
                        </g>
                    </g>
                    <g id="g490" transform="translate(31.000000, 10.000000)">
                        <g id="g492-Clipped">
                            <mask id="mask-12" sketch:name="path496" fill="white">
                                <use xlink:href="#path-11"></use>
                            </mask>
                            <g id="path496"></g>
                            <g id="g492" mask="url(#mask-12)">
                                <g transform="translate(-0.349298, 13.333333)">
                                    <g id="g498" transform="translate(11.752752, 1.390667)">
                                        <path d="M0.589926104,1 L113.305828,1" id="path500" stroke="#000000" stroke-width="0.53133332" sketch:type="MSShapeGroup"></path>
                                    </g>
                                    <g id="g502" transform="translate(123.792652, -0.276000)">
                                        <path d="M-0.24749897,4.79201321 C-0.121363236,3.99501323 1.26591463,2.79947993 1.64424588,2.6666666 C1.26591463,2.53385327 -0.121363236,1.33831997 -0.24749897,0.541319986" id="path504" stroke="#000000" stroke-width="0.5" sketch:type="MSShapeGroup"></path>
                                    </g>
                                    <g id="g506" transform="translate(0.043040, 2.390667)"></g>
                                    <g id="g508" transform="translate(47.471798, 62.999998)">
                                        <g id="text510" transform="translate(6.556172, 13.706666) scale(1, -1) translate(-6.556172, -13.706666) translate(-0.406359, 0.373333)"></g>
                                    </g>
                                    <g id="g520" transform="translate(0.043040, 2.390667)"></g>
                                    <g id="g528" transform="translate(0.043040, 2.390667)"></g>
                                    <g id="g530" transform="translate(118.363018, 2.666667)" font-weight="normal" font-family="Helvetica" font-size="22.3800209">
                                        <g id="text532" transform="translate(5.601672, 13.190666) scale(1, -1) translate(-5.601672, -13.190666) translate(-0.094944, -0.142667)" fill="#000000" sketch:type="MSTextLayer">
                                            <text id="tspan534">
                                                <tspan x="0" y="21">x</tspan>
                                            </text>
                                        </g>
                                    </g>
                                </g>
                            </g>
                        </g>
                    </g>
                    <g id="g536" transform="translate(419.602983, -0.333352)">
                        <g id="g538-Clipped">
                            <mask id="mask-14" sketch:name="path542" fill="white">
                                <use xlink:href="#path-13"></use>
                            </mask>
                            <g id="path542"></g>
                            <g id="g538" mask="url(#mask-14)">
                                <g transform="translate(-426.334223, 21.666666)" id="g544-Clipped">
                                    <g>
                                        <mask id="mask-16" sketch:name="path548" fill="white">
                                            <use xlink:href="#path-15"></use>
                                        </mask>
                                        <g id="path548"></g>
                                        <g id="g544" mask="url(#mask-16)">
                                            <g transform="translate(450.070123, 3.666666)">
                                                <g id="g550" transform="translate(52.578498, 1.057333)" stroke-dasharray="2.98883,2.98883">
                                                    <path d="M-0.597486389,0 L-0.597486389,26.4568927" id="path552" stroke="#000000" stroke-width="0.53133332" sketch:type="MSShapeGroup"></path>
                                                </g>
                                                <g id="g554" transform="translate(1.941912, 1.057333)" stroke-dasharray="2.98883,2.98883">
                                                    <path d="M-0.199166349,79.3706913 L-0.199166349,0" id="path556" stroke="#000000" stroke-width="0.53133332" sketch:type="MSShapeGroup"></path>
                                                </g>
                                                <g id="g558" transform="translate(19.664717, 26.390666)">
                                                    <path d="M19.756712,16.9978396 C10.9200328,15.3568129 3.5831334,8.87255978 0.514163888,-0.00842666646" id="path560" stroke="#FF0000" stroke-width="1.32837331" sketch:type="MSShapeGroup"></path>
                                                </g>
                                                <g id="g562" transform="translate(3.207827, 27.723999)">
                                                    <path d="M48.7731844,-0.209773328 L-0.608980894,51.802332" id="path564" stroke="#0C5A91" stroke-width="1.59404004" sketch:type="MSShapeGroup"></path>
                                                </g>
                                                <g id="g566" transform="translate(3.493911, 78.583465) rotate(134.999595) translate(-3.493911, -78.583465) translate(2.228018, 74.583531)">
                                                    <path d="M0.110335281,7.40048985 C0.312131371,6.12525779 2.53178709,4.21243638 3.13713738,3.99993326 C2.53178709,3.78743013 0.312131371,1.87460872 0.110335281,0.599376665" id="path568" stroke="#0C5A91" stroke-width="1.2751787" sketch:type="MSShapeGroup"></path>
                                                </g>
                                                <g id="g570" transform="translate(1.941912, 27.723999)" stroke-dasharray="2.98883,2.98883">
                                                    <path d="M-0.199166349,-0.209773328 L50.039099,-0.209773328" id="path572" stroke="#000000" stroke-width="1.06267997" sketch:type="MSShapeGroup"></path>
                                                </g>
                                                <g id="g574" transform="translate(1.941912, 1.057333)">
                                                    <path d="M-0.199166349,0 L50.039099,0" id="path576" stroke="#FF0000" stroke-width="1.85970667" sketch:type="MSShapeGroup"></path>
                                                </g>
                                                <g id="g578" transform="translate(27.260205, 2.390667)">
                                                    <path d="M49.839958,25.1235594 L0.126730714,0.252213327" id="path580" stroke="#FF0000" stroke-width="0.53133332" sketch:type="MSShapeGroup"></path>
                                                </g>
                                                <g id="g582" transform="translate(27.959769, 2.929507) rotate(205.406207) translate(-27.959769, -2.929507) translate(27.325591, 0.257700)">
                                                    <path d="M-0.24797605,4.80125031 C-0.121597176,4.00271403 1.26835481,2.80487621 1.64741533,2.67180687 C1.26835481,2.53873753 -0.121597176,1.34089972 -0.24797605,0.542363436" id="path584" stroke="#FF0000" stroke-width="0.66666665" sketch:type="MSShapeGroup"></path>
                                                </g>
                                            </g>
                                        </g>
                                    </g>
                                </g>
                            </g>
                        </g>
                    </g>
                </g>
            </g>
            <g id="Imported-Layers-2" transform="translate(68.770916, 18.000000)" fill="#0C5A91" sketch:type="MSShapeGroup">
                <path d="M12.1705068,3.42893077 C11.8102456,3.79766154 10.9759406,4.57596154 10.9759406,5.06754615 C10.9759406,5.35431538 11.2224759,5.62058462 11.4689614,5.62058462 C11.7154468,5.62058462 11.8292225,5.43626923 11.9619323,5.25190769 C12.2652985,4.84223077 12.8530682,4.06393077 13.9907394,3.46993846 C14.1613601,3.34703077 14.4268224,3.22411538 14.4268224,2.87589231 C14.4268224,2.60962308 14.2372248,2.46626923 14.0665613,2.32290769 C13.4977756,1.91323077 13.2133293,1.42164615 13.0047548,0.7662 C12.9668438,0.499930769 12.8530682,0.151707692 12.5117839,0.151707692 C12.1515228,0.151707692 11.9998362,0.499930769 11.9998362,0.725246154 C11.9998362,0.868607692 12.1894338,1.74936923 12.6065827,2.32290769 L3.97942736,2.32290769 C3.54332791,2.32290769 3.08826869,2.32290769 3.08826869,2.87589231 C3.08826869,3.42893077 3.54332791,3.42893077 3.97942736,3.42893077 L12.1705068,3.42893077" id="Fill-1"></path>
                <path d="M11.3930896,9.59420769 C11.3930896,8.09900769 10.7294623,7.66887692 10.2744024,7.66887692 C9.62974482,7.66887692 9.02299825,8.38577692 9.02299825,9.00021538 C9.02299825,9.34843846 9.15570804,9.5123 9.4401472,9.81952308 C9.97102909,10.3725615 10.2933792,11.0894615 10.2933792,12.0931308 C10.2933792,13.2401608 8.73860182,19.5692915 5.74278565,19.5692915 C4.45344634,19.5692915 3.84670048,18.6066054 3.84670048,17.1728162 C3.84670048,15.6161338 4.54824942,13.6088354 5.34461497,11.3147769 C5.51523218,10.8436923 5.64798826,10.4545154 5.64798826,9.92193077 C5.64798826,8.693 4.83266223,7.66887692 3.54332791,7.66887692 C1.15426471,7.66887692 0.168304099,11.663 0.168304099,11.9087692 C0.168304099,12.1955385 0.433755367,12.1955385 0.471676956,12.1955385 C0.737129293,12.1955385 0.756089055,12.1340846 0.888815935,11.7039538 C1.62828796,8.89780769 2.72801256,8.26286923 3.46748459,8.26286923 C3.67605479,8.26286923 4.11214926,8.26286923 4.11214926,9.16407692 C4.11214926,9.84002308 3.84670048,10.5978769 3.67605479,11.0894615 C2.55736615,14.2847831 2.21606907,15.55469 2.21606907,16.7631631 C2.21606907,19.7331531 4.4724061,20.1837698 5.64798826,20.1837698 C9.95209496,20.1837698 11.3930896,11.0280077 11.3930896,9.59420769" id="Fill-3"></path>
            </g>
            <g id="Imported-Layers-3" transform="translate(254.860372, 18.000000)" fill="#0C5A91" sketch:type="MSShapeGroup">
                <path d="M12.1705068,3.42893077 C11.8102456,3.79766154 10.9759406,4.57596154 10.9759406,5.06754615 C10.9759406,5.35431538 11.2224759,5.62058462 11.4689614,5.62058462 C11.7154468,5.62058462 11.8292225,5.43626923 11.9619323,5.25190769 C12.2652985,4.84223077 12.8530682,4.06393077 13.9907394,3.46993846 C14.1613601,3.34703077 14.4268224,3.22411538 14.4268224,2.87589231 C14.4268224,2.60962308 14.2372248,2.46626923 14.0665613,2.32290769 C13.4977756,1.91323077 13.2133293,1.42164615 13.0047548,0.7662 C12.9668438,0.499930769 12.8530682,0.151707692 12.5117839,0.151707692 C12.1515228,0.151707692 11.9998362,0.499930769 11.9998362,0.725246154 C11.9998362,0.868607692 12.1894338,1.74936923 12.6065827,2.32290769 L3.97942736,2.32290769 C3.54332791,2.32290769 3.08826869,2.32290769 3.08826869,2.87589231 C3.08826869,3.42893077 3.54332791,3.42893077 3.97942736,3.42893077 L12.1705068,3.42893077" id="Fill-1"></path>
                <path d="M11.3930896,9.59420769 C11.3930896,8.09900769 10.7294623,7.66887692 10.2744024,7.66887692 C9.62974482,7.66887692 9.02299825,8.38577692 9.02299825,9.00021538 C9.02299825,9.34843846 9.15570804,9.5123 9.4401472,9.81952308 C9.97102909,10.3725615 10.2933792,11.0894615 10.2933792,12.0931308 C10.2933792,13.2401608 8.73860182,19.5692915 5.74278565,19.5692915 C4.45344634,19.5692915 3.84670048,18.6066054 3.84670048,17.1728162 C3.84670048,15.6161338 4.54824942,13.6088354 5.34461497,11.3147769 C5.51523218,10.8436923 5.64798826,10.4545154 5.64798826,9.92193077 C5.64798826,8.693 4.83266223,7.66887692 3.54332791,7.66887692 C1.15426471,7.66887692 0.168304099,11.663 0.168304099,11.9087692 C0.168304099,12.1955385 0.433755367,12.1955385 0.471676956,12.1955385 C0.737129293,12.1955385 0.756089055,12.1340846 0.888815935,11.7039538 C1.62828796,8.89780769 2.72801256,8.26286923 3.46748459,8.26286923 C3.67605479,8.26286923 4.11214926,8.26286923 4.11214926,9.16407692 C4.11214926,9.84002308 3.84670048,10.5978769 3.67605479,11.0894615 C2.55736615,14.2847831 2.21606907,15.55469 2.21606907,16.7631631 C2.21606907,19.7331531 4.4724061,20.1837698 5.64798826,20.1837698 C9.95209496,20.1837698 11.3930896,11.0280077 11.3930896,9.59420769" id="Fill-3"></path>
            </g>
            <g id="Imported-Layers-4" transform="translate(466.584600, 18.000000)" fill="#0C5A91" sketch:type="MSShapeGroup">
                <path d="M12.1705068,3.42893077 C11.8102456,3.79766154 10.9759406,4.57596154 10.9759406,5.06754615 C10.9759406,5.35431538 11.2224759,5.62058462 11.4689614,5.62058462 C11.7154468,5.62058462 11.8292225,5.43626923 11.9619323,5.25190769 C12.2652985,4.84223077 12.8530682,4.06393077 13.9907394,3.46993846 C14.1613601,3.34703077 14.4268224,3.22411538 14.4268224,2.87589231 C14.4268224,2.60962308 14.2372248,2.46626923 14.0665613,2.32290769 C13.4977756,1.91323077 13.2133293,1.42164615 13.0047548,0.7662 C12.9668438,0.499930769 12.8530682,0.151707692 12.5117839,0.151707692 C12.1515228,0.151707692 11.9998362,0.499930769 11.9998362,0.725246154 C11.9998362,0.868607692 12.1894338,1.74936923 12.6065827,2.32290769 L3.97942736,2.32290769 C3.54332791,2.32290769 3.08826869,2.32290769 3.08826869,2.87589231 C3.08826869,3.42893077 3.54332791,3.42893077 3.97942736,3.42893077 L12.1705068,3.42893077" id="Fill-1"></path>
                <path d="M11.3930896,9.59420769 C11.3930896,8.09900769 10.7294623,7.66887692 10.2744024,7.66887692 C9.62974482,7.66887692 9.02299825,8.38577692 9.02299825,9.00021538 C9.02299825,9.34843846 9.15570804,9.5123 9.4401472,9.81952308 C9.97102909,10.3725615 10.2933792,11.0894615 10.2933792,12.0931308 C10.2933792,13.2401608 8.73860182,19.5692915 5.74278565,19.5692915 C4.45344634,19.5692915 3.84670048,18.6066054 3.84670048,17.1728162 C3.84670048,15.6161338 4.54824942,13.6088354 5.34461497,11.3147769 C5.51523218,10.8436923 5.64798826,10.4545154 5.64798826,9.92193077 C5.64798826,8.693 4.83266223,7.66887692 3.54332791,7.66887692 C1.15426471,7.66887692 0.168304099,11.663 0.168304099,11.9087692 C0.168304099,12.1955385 0.433755367,12.1955385 0.471676956,12.1955385 C0.737129293,12.1955385 0.756089055,12.1340846 0.888815935,11.7039538 C1.62828796,8.89780769 2.72801256,8.26286923 3.46748459,8.26286923 C3.67605479,8.26286923 4.11214926,8.26286923 4.11214926,9.16407692 C4.11214926,9.84002308 3.84670048,10.5978769 3.67605479,11.0894615 C2.55736615,14.2847831 2.21606907,15.55469 2.21606907,16.7631631 C2.21606907,19.7331531 4.4724061,20.1837698 5.64798826,20.1837698 C9.95209496,20.1837698 11.3930896,11.0280077 11.3930896,9.59420769" id="Fill-3"></path>
            </g>
            <g id="Imported-Layers" transform="translate(120.989896, 55.000000)" fill="#FF0000" sketch:type="MSShapeGroup">
                <path d="M10.073789,1.96453297 C10.073789,0.454960172 9.48098181,0.020650355 9.05758172,0.020650355 C8.49863941,0.020650355 7.93973526,0.744437921 7.93973526,1.34413697 C7.93973526,1.71640253 8.05828143,1.88183835 8.3123253,2.19201305 C8.78658633,2.75036479 9.0914466,3.47415236 9.0914466,4.46676732 C9.0914466,5.64546069 7.68565323,12.0354339 5.02652015,12.0354339 C3.85785538,12.0354339 3.33280148,11.0634879 3.33280148,9.59527017 C3.33280148,8.04430347 3.94254048,5.9970293 4.65389131,3.70163244 C4.80634243,3.22596755 4.9248867,2.83305164 4.9248867,2.29540462 C4.9248867,1.03396227 4.19659962,0 3.06180672,0 C0.910783013,0 0.0469873705,4.05314669 0.0469873705,4.30133149 C0.0469873705,4.59085584 0.267171052,4.59085584 0.31798237,4.59085584 C0.538166891,4.59085584 0.572039089,4.52881158 0.673664588,4.07384364 C1.33421554,1.26144235 2.31657066,0.620395999 2.99405788,0.620395999 C3.16343191,0.620395999 3.55298429,0.620395999 3.55298429,1.50957279 C3.55298429,2.21271 3.33280148,2.95714793 3.16343191,3.47415236 C2.16413671,6.70011991 1.85926562,7.98225922 1.85926562,9.18164954 C1.85926562,12.2008689 3.87479163,12.635136 4.9248867,12.635136 C8.7696348,12.635136 10.073789,3.4121081 10.073789,1.96453297" id="Fill-1"></path>
                <path d="M14.4097089,14.4756115 C14.2573042,15.1373533 13.7322268,16.1920016 12.9192406,16.1920016 C12.8684242,16.1920016 12.3942014,16.1920016 12.055438,15.902492 C12.7160132,15.6543383 12.7498781,14.9512345 12.7498781,14.8478383 C12.7498781,14.4135711 12.4788827,14.1240569 12.123206,14.1240569 C11.6658965,14.1240569 11.208587,14.579007 11.208587,15.3027891 C11.208587,16.2747195 12.1062545,16.7296696 12.8853758,16.7296696 C13.6136806,16.7296696 14.2742112,16.1713233 14.6637973,15.344145 C15.0533325,16.3781204 15.934093,16.7296696 16.5607587,16.7296696 C18.4069101,16.7296696 19.372301,14.2894919 19.372301,13.7518294 C19.372301,13.5036757 19.1690799,13.5036757 19.1182571,13.5036757 C18.8980845,13.5036757 18.8811266,13.5863936 18.8134032,13.8345473 C18.4746335,15.1787099 17.526156,16.1920016 16.6284885,16.1920016 C15.9848649,16.1920016 15.6630976,15.6543383 15.6630976,14.9098786 C15.6630976,14.4135711 16.0356813,12.635136 16.4929908,10.4844897 C16.7978511,8.97486641 17.526156,8.49926365 18.0512334,8.49926365 C18.0850983,8.49926365 18.5762727,8.49926365 18.915036,8.76809104 C18.4069101,8.93352687 18.2036445,9.49187861 18.2036445,9.84339285 C18.2036445,10.2570088 18.4746335,10.5671812 18.8472681,10.5671812 C19.2198963,10.5671812 19.7449292,10.1949638 19.7449292,9.36778232 C19.7449292,8.27178356 18.7117704,7.94091191 18.0850983,7.94091191 C17.2890636,7.94091191 16.64544,8.5819505 16.2897633,9.32644278 C16.0018164,8.54061095 15.2735115,7.94091191 14.3758504,7.94091191 C12.5974288,7.94091191 11.5812152,10.3397003 11.5812152,10.9187513 C11.5812152,11.187578 11.8013942,11.187578 11.8522106,11.187578 C12.055438,11.187578 12.0723896,11.1048336 12.1570709,10.8567063 C12.5466506,9.32644278 13.5459064,8.49926365 14.3419855,8.49926365 C14.8670184,8.49926365 15.2904694,8.85077789 15.2904694,9.78134859 C15.2904694,10.1742645 15.1041553,11.1462322 14.9516997,11.807974 L14.4097089,14.4756115" id="Fill-3"></path>
                <path d="M38.2004169,8.68987613 C38.422605,8.58166129 38.5856487,8.48888581 38.5856487,8.22606839 C38.5856487,7.97869613 38.422605,7.88591484 38.2004169,7.77770581 L27.136531,2.33539419 C26.8699441,2.18075097 26.8255065,2.18075097 26.7662786,2.18075097 C26.5589141,2.18075097 26.3663732,2.36630774 26.3663732,2.59820581 C26.3663732,2.78376258 26.4700388,2.92288516 26.7514549,3.06205419 L37.2377517,8.22606839 L26.7514549,13.4055306 C26.4700388,13.5446799 26.3663732,13.6683684 26.3663732,13.8693657 C26.3663732,14.0858197 26.5589141,14.286813 26.7662786,14.286813 C26.8255065,14.286813 26.8699441,14.286813 27.136531,14.132204 L38.2004169,8.68987613" id="Fill-4"></path>
                <path d="M54.9814998,6.77271935 C54.9814998,5.1029 54.87799,3.43311548 54.1818394,1.88698516 C53.2635006,-0.107472903 51.6342319,-0.447626452 50.7898279,-0.447626452 C49.5901509,-0.447626452 48.1387107,0.0935174194 47.3094752,2.04162839 C46.6724802,3.47950903 46.5685866,5.1029 46.5685866,6.77271935 C46.5685866,8.33428323 46.6576899,10.2205265 47.4721351,11.7975721 C48.3313238,13.4828354 49.7975543,13.9002862 50.7750432,13.9002862 C51.8416354,13.9002862 53.3670159,13.4673752 54.2409894,11.488371 C54.87799,10.0504497 54.9814998,8.42705871 54.9814998,6.77271935 L54.9814998,6.77271935 Z M50.7750432,13.4519149 C49.990173,13.4519149 48.8052807,12.9262475 48.4496239,10.9162729 C48.2274358,9.67938258 48.2274358,7.74675161 48.2274358,6.52534129 C48.2274358,5.19567548 48.2274358,3.81966258 48.3904739,2.6909871 C48.7757057,0.201732258 50.2715112,0.016216129 50.7750432,0.016216129 C51.4268285,0.016216129 52.7451839,0.387283226 53.1300375,2.45908323 C53.3226506,3.61863161 53.3226506,5.21114968 53.3226506,6.52534129 C53.3226506,8.08690516 53.3226506,9.50934645 53.1004625,10.8389716 C52.8043339,12.817995 51.663807,13.4519149 50.7750432,13.4519149 L50.7750432,13.4519149 Z" id="Fill-5"></path>
            </g>
            <g id="Imported-Layers" transform="translate(340.309612, 56.000000)" fill="#FF0000" sketch:type="MSShapeGroup">
                <path d="M13.1786147,7.288002 C13.4849546,7.288002 13.8834703,7.288002 13.8834703,6.856632 C13.8834703,6.425304 13.4849546,6.425304 13.1939093,6.425304 L0.829260419,6.425304 C0.538140325,6.425304 0.139745471,6.425304 0.139745471,6.856632 C0.139745471,7.288002 0.538140325,7.288002 0.844560724,7.288002 L13.1786147,7.288002 L13.1786147,7.288002 Z M13.1939093,11.457858 C13.4849546,11.457858 13.8834703,11.457858 13.8834703,11.02653 C13.8834703,10.59516 13.4849546,10.59516 13.1786147,10.59516 L0.844560724,10.59516 C0.538140325,10.59516 0.139745471,10.59516 0.139745471,11.02653 C0.139745471,11.457858 0.538140325,11.457858 0.813925589,11.457858 L13.1939093,11.457858 L13.1939093,11.457858 Z" id="Fill-4"></path>
                <path d="M30.2932056,7.43181 C30.2932056,5.70633 30.1861265,3.980886 29.4659707,2.383218 C28.515965,0.322278 26.8305147,-0.029214 25.9569933,-0.029214 C24.7159481,-0.029214 23.2144582,0.529968 22.3566284,2.543016 C21.6976681,4.028826 21.5901919,5.70633 21.5901919,7.43181 C21.5901919,9.045426 21.6823677,10.994544 22.5248973,12.6241578 C23.4137132,14.3655966 24.9305034,14.7969624 25.9416988,14.7969624 C27.04507,14.7969624 28.6230499,14.349621 29.5271604,12.30465 C30.1861265,10.818798 30.2932056,9.141294 30.2932056,7.43181 L30.2932056,7.43181 Z M25.9416988,14.3336454 C25.1297641,14.3336454 23.9040135,13.7904558 23.5360926,11.713482 C23.3062428,10.435362 23.3062428,8.43831 23.3062428,7.176186 C23.3062428,5.802198 23.3062428,4.380318 23.4749029,3.21402 C23.8734186,0.64179 25.4208036,0.45009 25.9416988,0.45009 C26.6159594,0.45009 27.9797753,0.833526 28.3778997,2.974386 C28.5771547,4.172586 28.5771547,5.818188 28.5771547,7.176186 C28.5771547,8.789802 28.5771547,10.259658 28.3473049,11.633604 C28.040965,13.6785948 26.8611096,14.3336454 25.9416988,14.3336454 L25.9416988,14.3336454 Z" id="Fill-5"></path>
            </g>
            <g id="Fill-2-+-Fill-4" transform="translate(317.523148, 57.000000)" fill="#FF0000" sketch:type="MSShapeGroup">
                <path d="M10.0268016,1.96453297 C10.0268016,0.454960172 9.43399444,0.020650355 9.01059435,0.020650355 C8.45165204,0.020650355 7.89274789,0.744437921 7.89274789,1.34413697 C7.89274789,1.71640253 8.01129406,1.88183835 8.26533793,2.19201305 C8.73959896,2.75036479 9.04445923,3.47415236 9.04445923,4.46676732 C9.04445923,5.64546069 7.63866586,12.0354339 4.97953278,12.0354339 C3.81086801,12.0354339 3.28581411,11.0634879 3.28581411,9.59527017 C3.28581411,8.04430347 3.89555311,5.9970293 4.60690393,3.70163244 C4.75935506,3.22596755 4.87789933,2.83305164 4.87789933,2.29540462 C4.87789933,1.03396227 4.14961225,0 3.01481935,0 C0.863795642,0 0,4.05314669 0,4.30133149 C0,4.59085584 0.220183681,4.59085584 0.270994999,4.59085584 C0.49117952,4.59085584 0.525051718,4.52881158 0.626677217,4.07384364 C1.28722817,1.26144235 2.26958329,0.620395999 2.94707051,0.620395999 C3.11644453,0.620395999 3.50599691,0.620395999 3.50599691,1.50957279 C3.50599691,2.21271 3.28581411,2.95714793 3.11644453,3.47415236 C2.11714934,6.70011991 1.81227825,7.98225922 1.81227825,9.18164954 C1.81227825,12.2008689 3.82780426,12.635136 4.87789933,12.635136 C8.72264743,12.635136 10.0268016,3.4121081 10.0268016,1.96453297" id="Fill-2"></path>
                <path d="M14.594354,14.5346996 C14.4419493,15.1964414 13.9168718,16.2510897 13.1038856,16.2510897 C13.0530692,16.2510897 12.5788464,16.2510897 12.2400831,15.9615801 C12.9006582,15.7134264 12.9345231,15.0103226 12.9345231,14.9069263 C12.9345231,14.4726592 12.6635277,14.183145 12.307851,14.183145 C11.8505415,14.183145 11.393232,14.6380951 11.393232,15.3618772 C11.393232,16.3338076 12.2908995,16.7887577 13.0700208,16.7887577 C13.7983257,16.7887577 14.4588563,16.2304114 14.8484423,15.403233 C15.2379776,16.4372085 16.118738,16.7887577 16.7454037,16.7887577 C18.5915551,16.7887577 19.556946,14.34858 19.556946,13.8109175 C19.556946,13.5627637 19.3537249,13.5627637 19.3029021,13.5627637 C19.0827295,13.5627637 19.0657716,13.6454817 18.9980482,13.8936354 C18.6592785,15.237798 17.710801,16.2510897 16.8131335,16.2510897 C16.1695099,16.2510897 15.8477426,15.7134264 15.8477426,14.9689667 C15.8477426,14.4726592 16.2203263,12.6942241 16.6776358,10.5435778 C16.9824961,9.0339545 17.710801,8.55835174 18.2358784,8.55835174 C18.2697433,8.55835174 18.7609177,8.55835174 19.099681,8.82717913 C18.5915551,8.99261496 18.3882895,9.5509667 18.3882895,9.90248094 C18.3882895,10.3160969 18.6592785,10.6262693 19.0319131,10.6262693 C19.4045413,10.6262693 19.9295742,10.2540519 19.9295742,9.42687041 C19.9295742,8.33087165 18.8964154,8 18.2697433,8 C17.4737086,8 16.830085,8.64103859 16.4744084,9.38553087 C16.1864614,8.59969905 15.4581565,8 14.5604954,8 C12.7820738,8 11.7658602,10.3987884 11.7658602,10.9778394 C11.7658602,11.2466661 11.9860392,11.2466661 12.0368556,11.2466661 C12.2400831,11.2466661 12.2570346,11.1639217 12.3417159,10.9157944 C12.7312956,9.38553087 13.7305514,8.55835174 14.5266305,8.55835174 C15.0516635,8.55835174 15.4751144,8.90986598 15.4751144,9.84043668 C15.4751144,10.2333526 15.2888003,11.2053203 15.1363447,11.8670621 L14.594354,14.5346996" id="Fill-4"></path>
            </g>
            <g id="Fill-2-+-Fill-5" transform="translate(515.955272, 57.000000)" fill="#FF0000" sketch:type="MSShapeGroup">
                <path d="M10.0268016,1.96453297 C10.0268016,0.454960172 9.43399444,0.020650355 9.01059435,0.020650355 C8.45165204,0.020650355 7.89274789,0.744437921 7.89274789,1.34413697 C7.89274789,1.71640253 8.01129406,1.88183835 8.26533793,2.19201305 C8.73959896,2.75036479 9.04445923,3.47415236 9.04445923,4.46676732 C9.04445923,5.64546069 7.63866586,12.0354339 4.97953278,12.0354339 C3.81086801,12.0354339 3.28581411,11.0634879 3.28581411,9.59527017 C3.28581411,8.04430347 3.89555311,5.9970293 4.60690393,3.70163244 C4.75935506,3.22596755 4.87789933,2.83305164 4.87789933,2.29540462 C4.87789933,1.03396227 4.14961225,0 3.01481935,0 C0.863795642,0 0,4.05314669 0,4.30133149 C0,4.59085584 0.220183681,4.59085584 0.270994999,4.59085584 C0.49117952,4.59085584 0.525051718,4.52881158 0.626677217,4.07384364 C1.28722817,1.26144235 2.26958329,0.620395999 2.94707051,0.620395999 C3.11644453,0.620395999 3.50599691,0.620395999 3.50599691,1.50957279 C3.50599691,2.21271 3.28581411,2.95714793 3.11644453,3.47415236 C2.11714934,6.70011991 1.81227825,7.98225922 1.81227825,9.18164954 C1.81227825,12.2008689 3.82780426,12.635136 4.87789933,12.635136 C8.72264743,12.635136 10.0268016,3.4121081 10.0268016,1.96453297" id="Fill-2"></path>
                <path d="M14.594354,14.5346996 C14.4419493,15.1964414 13.9168718,16.2510897 13.1038856,16.2510897 C13.0530692,16.2510897 12.5788464,16.2510897 12.2400831,15.9615801 C12.9006582,15.7134264 12.9345231,15.0103226 12.9345231,14.9069263 C12.9345231,14.4726592 12.6635277,14.183145 12.307851,14.183145 C11.8505415,14.183145 11.393232,14.6380951 11.393232,15.3618772 C11.393232,16.3338076 12.2908995,16.7887577 13.0700208,16.7887577 C13.7983257,16.7887577 14.4588563,16.2304114 14.8484423,15.403233 C15.2379776,16.4372085 16.118738,16.7887577 16.7454037,16.7887577 C18.5915551,16.7887577 19.556946,14.34858 19.556946,13.8109175 C19.556946,13.5627637 19.3537249,13.5627637 19.3029021,13.5627637 C19.0827295,13.5627637 19.0657716,13.6454817 18.9980482,13.8936354 C18.6592785,15.237798 17.710801,16.2510897 16.8131335,16.2510897 C16.1695099,16.2510897 15.8477426,15.7134264 15.8477426,14.9689667 C15.8477426,14.4726592 16.2203263,12.6942241 16.6776358,10.5435778 C16.9824961,9.0339545 17.710801,8.55835174 18.2358784,8.55835174 C18.2697433,8.55835174 18.7609177,8.55835174 19.099681,8.82717913 C18.5915551,8.99261496 18.3882895,9.5509667 18.3882895,9.90248094 C18.3882895,10.3160969 18.6592785,10.6262693 19.0319131,10.6262693 C19.4045413,10.6262693 19.9295742,10.2540519 19.9295742,9.42687041 C19.9295742,8.33087165 18.8964154,8 18.2697433,8 C17.4737086,8 16.830085,8.64103859 16.4744084,9.38553087 C16.1864614,8.59969905 15.4581565,8 14.5604954,8 C12.7820738,8 11.7658602,10.3987884 11.7658602,10.9778394 C11.7658602,11.2466661 11.9860392,11.2466661 12.0368556,11.2466661 C12.2400831,11.2466661 12.2570346,11.1639217 12.3417159,10.9157944 C12.7312956,9.38553087 13.7305514,8.55835174 14.5266305,8.55835174 C15.0516635,8.55835174 15.4751144,8.90986598 15.4751144,9.84043668 C15.4751144,10.2333526 15.2888003,11.2053203 15.1363447,11.8670621 L14.594354,14.5346996" id="Fill-4"></path>
            </g>
            <path d="M539.126968,64.5091252 C538.90478,64.4009103 538.741736,64.3081348 538.741736,64.0453174 C538.741736,63.7979452 538.90478,63.7051639 539.126968,63.5969548 L550.190854,58.1546432 C550.457441,58 550.501878,58 550.561106,58 C550.768471,58 550.961011,58.1855568 550.961011,58.4174548 C550.961011,58.6030116 550.857346,58.7421342 550.57593,58.8813032 L540.089633,64.0453174 L550.57593,69.2247797 C550.857346,69.363929 550.961011,69.4876174 550.961011,69.6886147 C550.961011,69.9050688 550.768471,70.106062 550.561106,70.106062 C550.501878,70.106062 550.457441,70.106062 550.190854,69.951453 L539.126968,64.5091252" id="Fill-5" fill="#FF0000" sketch:type="MSShapeGroup"></path>
            <path d="M563.585162,63.461024 C563.585162,61.735544 563.478083,60.0101 562.757927,58.412432 C561.807921,56.351492 560.122471,56 559.248949,56 C558.007904,56 556.506414,56.559182 555.648585,58.57223 C554.989624,60.05804 554.882148,61.735544 554.882148,63.461024 C554.882148,65.07464 554.974324,67.023758 555.816853,68.6533718 C556.705669,70.3948106 558.22246,70.8261764 559.233655,70.8261764 C560.337026,70.8261764 561.915006,70.378835 562.819116,68.333864 C563.478083,66.848012 563.585162,65.170508 563.585162,63.461024 L563.585162,63.461024 Z M559.233655,70.3628594 C558.42172,70.3628594 557.19597,69.8196698 556.828049,67.742696 C556.598199,66.464576 556.598199,64.467524 556.598199,63.2054 C556.598199,61.831412 556.598199,60.409532 556.766859,59.243234 C557.165375,56.671004 558.71276,56.479304 559.233655,56.479304 C559.907916,56.479304 561.271731,56.86274 561.669856,59.0036 C561.869111,60.2018 561.869111,61.847402 561.869111,63.2054 C561.869111,64.819016 561.869111,66.288872 561.639261,67.662818 C561.332921,69.7078088 560.153066,70.3628594 559.233655,70.3628594 L559.233655,70.3628594 Z" id="Fill-6" fill="#FF0000" sketch:type="MSShapeGroup"></path>
            <path d="M417.688646,106.2655 L530.67153,106.2655" id="Line" stroke="#000000" stroke-width="0.531" stroke-linecap="square" sketch:type="MSShapeGroup"></path>
            <text id="tspan468-3" fill="#000000" sketch:type="MSTextLayer" font-family="Helvetica" font-size="22.3800209" font-weight="normal">
                <tspan x="531.146248" y="102">x</tspan>
            </text>
            <path d="M529,108.450694 C529.126136,107.653694 530.513414,106.458161 530.891745,106.325347 C530.513414,106.192534 529.126136,104.997001 529,104.200001" id="path400-2" stroke="#000000" stroke-width="0.5" sketch:type="MSShapeGroup"></path>
        </g>
    </g>
</svg>