<?xml version="1.0" encoding="UTF-8" standalone="no"?>
<svg
   xmlns:dc="http://purl.org/dc/elements/1.1/"
   xmlns:cc="http://creativecommons.org/ns#"
   xmlns:rdf="http://www.w3.org/1999/02/22-rdf-syntax-ns#"
   xmlns:svg="http://www.w3.org/2000/svg"
   xmlns="http://www.w3.org/2000/svg"
   viewBox="0 0 320 212"
   height="212"
   width="320"
   xml:space="preserve"
   version="1.1"
   id="svg2"><metadata
     id="metadata8"><rdf:RDF><cc:Work
         rdf:about=""><dc:format>image/svg+xml</dc:format><dc:type
           rdf:resource="http://purl.org/dc/dcmitype/StillImage" /></cc:Work></rdf:RDF></metadata><defs
     id="defs6"><clipPath
       id="clipPath40"
       clipPathUnits="userSpaceOnUse"><path
         id="path42"
         d="m 40.0035,2.397491 48,0 0,77.95515 -48,0 0,-77.95515 z" /></clipPath><clipPath
       id="clipPath60"
       clipPathUnits="userSpaceOnUse"><path
         id="path62"
         d="m 69.768,2.397491 48,0 0,77.95515 -48,0 0,-77.95515 z" /></clipPath><clipPath
       id="clipPath80"
       clipPathUnits="userSpaceOnUse"><path
         id="path82"
         d="m 99.531,2.397491 48,0 0,77.95515 -48,0 0,-77.95515 z" /></clipPath><clipPath
       id="clipPath100"
       clipPathUnits="userSpaceOnUse"><path
         id="path102"
         d="m 129.2955,2.397491 48,0 0,77.95515 -48,0 0,-77.95515 z" /></clipPath><clipPath
       id="clipPath120"
       clipPathUnits="userSpaceOnUse"><path
         id="path122"
         d="m 159.0585,2.397491 48,0 0,77.95515 -48,0 0,-77.95515 z" /></clipPath><clipPath
       id="clipPath148"
       clipPathUnits="userSpaceOnUse"><path
         id="path150"
         d="m -1.1775,14.49199 48,0 0,77.95515 -48,0 0,-77.95515 z" /></clipPath><clipPath
       id="clipPath168"
       clipPathUnits="userSpaceOnUse"><path
         id="path170"
         d="m -1.1775,44.25499 48,0 0,77.95515 -48,0 0,-77.95515 z" /></clipPath><clipPath
       id="clipPath188"
       clipPathUnits="userSpaceOnUse"><path
         id="path190"
         d="m -1.1775,74.01949 48,0 0,77.95515 -48,0 0,-77.95515 z" /></clipPath><clipPath
       id="clipPath216"
       clipPathUnits="userSpaceOnUse"><path
         style="clip-rule:evenodd"
         id="path218"
         d="m 92.888,77.539 0,-60 58.5,0 0,60 -58.5,0 0,0 z" /></clipPath><clipPath
       id="clipPath236"
       clipPathUnits="userSpaceOnUse"><path
         style="clip-rule:evenodd"
         id="path238"
         d="m 116.2142,51.0703 c 1.249,5.7234 2.3861,10.617 3.7847,16.2852 -3.1491,-0.0767 -5.8482,-0.1424 -8.9973,-0.2191 1.7529,-5.6712 3.3154,-10.4988 5.2126,-16.0661 l 0,0 z" /></clipPath><clipPath
       id="clipPath242"
       clipPathUnits="userSpaceOnUse"><path
         id="path244"
         d="m 111,51 9,0 0,17 -9,0 0,-17 z" /></clipPath><clipPath
       id="clipPath246"
       clipPathUnits="userSpaceOnUse"><path
         style="clip-rule:evenodd"
         id="path248"
         d="m 103.5016,74.8555 23.9973,0 0,-31.2852 -23.9973,0 0,31.2852 z" /></clipPath><clipPath
       id="clipPath250"
       clipPathUnits="userSpaceOnUse"><path
         id="path252"
         d="m 111,51 9,0 0,17 -9,0 0,-17 z" /></clipPath><clipPath
       id="clipPath278"
       clipPathUnits="userSpaceOnUse"><path
         style="clip-rule:evenodd"
         id="path280"
         d="m -0.29875,144.6958 20,0 0,13.9964 -20,0" /></clipPath><clipPath
       id="clipPath284"
       clipPathUnits="userSpaceOnUse"><path
         id="path286"
         d="m 0,145 20,0 0,14 -20,0 0,-14 z" /></clipPath><clipPath
       id="clipPath288"
       clipPathUnits="userSpaceOnUse"><path
         style="clip-rule:evenodd"
         id="path290"
         d="m 9.886275,157.1502 c 0,1.22 -0.582481,1.5928 -0.981894,1.5928 -0.565862,0 -1.098412,-0.5931 -1.098412,-1.1014 0,-0.2881 0.116518,-0.4236 0.366137,-0.6778 0.466,-0.4575 0.748894,-1.0505 0.748894,-1.8809 0,-0.9489 -1.36465,-6.1848 -3.994121,-6.1848 -1.131655,0 -1.647563,0.7964 -1.647563,1.9825 0,1.2879 0.599118,2.9484 1.298083,4.8463 0.149795,0.3897 0.266274,0.7116 0.266274,1.1353 0,1.0336 -0.715618,1.8808 -1.847272,1.8808 -2.0969154,0 -2.96230788,-3.3211 -2.96230788,-3.5245 0,-0.2203 0.23299248,-0.2203 0.26627498,-0.2203 0.2329919,0 0.2496331,0.0509 0.3661294,0.4067 0.6490415,2.3045 1.6142885,2.8298 2.2633345,2.8298 0.18306,0 0.565831,0 0.565831,-0.7286 0,-0.5762 -0.216347,-1.1862 -0.382771,-1.5928 -0.981884,-2.6604 -1.281445,-3.711 -1.281445,-4.6937 0,-2.457 1.980419,-2.8298 3.012226,-2.8298 3.777777,0 5.042602,7.5743 5.042602,8.7604" /></clipPath><clipPath
       id="clipPath292"
       clipPathUnits="userSpaceOnUse"><path
         id="path294"
         d="m 0,144 20,0 0,15 -20,0 0,-15 z" /></clipPath><clipPath
       id="clipPath296"
       clipPathUnits="userSpaceOnUse"><path
         style="clip-rule:evenodd"
         id="path298"
         d="m 14.16329,146.8986 c -0.14976,-0.5422 -0.66569,-1.4064 -1.46451,-1.4064 -0.04994,0 -0.5159,0 -0.84876,0.2203 0.63241,0.2033 0.68234,0.7795 0.68234,0.8811 0,0.3559 -0.26627,0.5931 -0.61575,0.5931 -0.44935,0 -0.89869,-0.3897 -0.89869,-0.9828 0,-0.7964 0.88203,-1.1522 1.64758,-1.1522 0.71562,0 1.36465,0.4575 1.74744,1.1183 0.38276,-0.8303 1.24813,-1.1183 1.86393,-1.1183 1.79733,0 2.76256,1.9825 2.76256,2.44 0,0.2033 -0.19968,0.2033 -0.24961,0.2033 -0.21634,0 -0.23301,-0.0847 -0.29955,-0.2711 -0.33286,-1.1014 -1.26483,-1.9317 -2.14686,-1.9317 -0.63241,0 -0.96523,0.4236 -0.96523,1.0337 0,0.4236 0.38275,1.8639 0.81544,3.6431 0.31621,1.22 1.03182,1.6267 1.54776,1.6267 0.01661,0 0.51589,0 0.84871,-0.2203 -0.51589,-0.1525 -0.69896,-0.5931 -0.69896,-0.8812 0,-0.3558 0.26628,-0.593 0.63241,-0.593 0.34949,0 0.86537,0.305 0.86537,0.9658 0,0.8981 -0.9985,1.1692 -1.61426,1.1692 -0.79882,0 -1.41458,-0.5252 -1.76406,-1.1353 -0.28293,0.6609 -0.99855,1.1353 -1.88058,1.1353 -1.74744,0 -2.74595,-1.9655 -2.74595,-2.44 0,-0.2033 0.21634,-0.2033 0.26627,-0.2033 0.19969,0 0.21635,0.0677 0.2829,0.2711 0.39941,1.2369 1.3813,1.9317 2.14685,1.9317 0.51589,0 0.94862,-0.2881 0.94862,-1.0506 0,-0.322 -0.18307,-1.1184 -0.33287,-1.6606 l -0.53254,-2.1859" /></clipPath><clipPath
       id="clipPath300"
       clipPathUnits="userSpaceOnUse"><path
         id="path302"
         d="m 0,144 20,0 0,15 -20,0 0,-15 z" /></clipPath><clipPath
       id="clipPath330"
       clipPathUnits="userSpaceOnUse"><path
         style="clip-rule:evenodd"
         id="path332"
         d="m 211.5382,8.353775 1.614,0 c 0.3431,0 0.5083,0 0.5083,0.33551 0,0.186382 -0.1652,0.186382 -0.4829,0.186382 l -1.4996,0 c 0.61,2.385823 0.699,2.721333 0.699,2.820743 0,0.28579 -0.2034,0.44732 -0.4957,0.44732 -0.0508,0 -0.5337,-0.01241 -0.6862,-0.59645 l -0.6736,-2.671613 -1.614,0 c -0.3304,0 -0.5083,0 -0.5083,-0.310665 0,-0.211227 0.1398,-0.211227 0.4829,-0.211227 l 1.4996,0 c -1.2327,-4.759235 -1.2963,-5.045026 -1.2963,-5.34325 0,-0.907122 0.6482,-1.54086 1.5759,-1.54086 1.7538,0 2.7196,2.447981 2.7196,2.58464 0,0.161569 -0.127,0.161569 -0.2033,0.161569 -0.1525,0 -0.1652,-0.049723 -0.2542,-0.236105 -0.7371,-1.739675 -1.6394,-2.137311 -2.224,-2.137311 -0.3685,0 -0.5337,0.211256 -0.5337,0.770429 0,0.397638 0.0381,0.521888 0.1016,0.795271 l 1.2709,4.945617" /></clipPath><clipPath
       id="clipPath340"
       clipPathUnits="userSpaceOnUse"><path
         style="clip-rule:evenodd"
         id="path342"
         d="m 228.5804,8.018265 c -0.2669,0 -0.5083,0 -0.7498,-0.223664 -0.2669,-0.260974 -0.305,-0.546766 -0.305,-0.658612 0,-0.397637 0.305,-0.584019 0.6354,-0.584019 0.4956,0 0.9531,0.397637 0.9531,1.068657 0,0.82012 -0.8006,1.441417 -2.0206,1.441417 -2.313,0 -4.5878,-2.398223 -4.5878,-4.759202 0,-1.503577 0.9913,-2.833177 2.7705,-2.833177 2.4527,0 3.8888,1.776961 3.8888,1.97578 0,0.099409 -0.1017,0.223659 -0.2034,0.223659 -0.0889,0 -0.1143,-0.037282 -0.216,-0.173973 -1.3598,-1.652673 -3.228,-1.652673 -3.4313,-1.652673 -1.0802,0 -1.5505,0.820117 -1.5505,1.826646 0,0.683429 0.3432,2.311255 0.9277,3.355067 0.5338,0.944375 1.4743,1.665114 2.4147,1.665114 0.5846,0 1.2454,-0.211256 1.4742,-0.67102" /></clipPath><clipPath
       id="clipPath350"
       clipPathUnits="userSpaceOnUse"><path
         style="clip-rule:evenodd"
         id="path352"
         d="m 168.2115,139.1885 c 0,0.0452 -0.0341,0.1468 -0.1703,0.1468 -0.0794,0 -0.0908,-0.0112 -0.2724,-0.2259 l -0.7379,-0.8698 c -0.3973,0.723 -1.1919,1.0957 -2.1909,1.0957 -1.9411,0 -3.7801,-1.7509 -3.7801,-3.5922 0,-1.2314 0.8173,-1.9317 1.5893,-2.169 l 1.646,-0.4179 c 0.5675,-0.1356 1.4076,-0.3728 1.4076,-1.6154 0,-1.3782 -1.2601,-2.8129 -2.7585,-2.8129 -0.9762,0 -2.679,0.3389 -2.679,2.2255 0,0.3727 0.0795,0.7342 0.0908,0.8246 0.0114,0.0678 0.0341,0.0791 0.0341,0.113 0,0.1468 -0.1135,0.1694 -0.1817,0.1694 -0.0794,0 -0.1135,-0.0226 -0.1589,-0.0678 -0.0567,-0.0565 -0.9195,-3.5358 -0.9195,-3.581 0,-0.0903 0.0795,-0.1468 0.1703,-0.1468 0.0795,0 0.0908,0.0113 0.2724,0.2259 l 0.7493,0.8698 c 0.6584,-0.8811 1.7027,-1.0957 2.5882,-1.0957 2.0887,0 3.8936,2.0221 3.8936,3.9086 0,1.0505 -0.5222,1.5702 -0.7492,1.7848 -0.3519,0.3502 -0.5903,0.418 -1.9525,0.7682 -0.3292,0.0903 -0.8854,0.2372 -1.0217,0.2711 -0.4086,0.1355 -0.9308,0.5761 -0.9308,1.3894 0,1.2314 1.226,2.5192 2.679,2.5192 1.2714,0 2.2022,-0.6552 2.2022,-2.361 0,-0.4857 -0.0567,-0.7569 -0.0567,-0.8472 0,-0.0113 0,-0.1582 0.1816,-0.1582 0.1476,0 0.1703,0.0452 0.227,0.305 l 0.8287,3.3438" /></clipPath><clipPath
       id="clipPath360"
       clipPathUnits="userSpaceOnUse"><path
         style="clip-rule:evenodd"
         id="path362"
         d="m 170.3797,127.4288 c -0.1135,-0.3615 -0.4655,-0.9376 -1.0103,-0.9376 -0.0341,0 -0.3519,0 -0.579,0.1582 0.4428,0.1355 0.4768,0.5196 0.4768,0.5761 0,0.2372 -0.1816,0.3954 -0.4314,0.3954 -0.2951,0 -0.613,-0.2486 -0.613,-0.6439 0,-0.531 0.6017,-0.7795 1.1239,-0.7795 0.4881,0 0.9308,0.305 1.2032,0.7569 0.2498,-0.5648 0.8401,-0.7569 1.2714,-0.7569 1.226,0 1.8731,1.333 1.8731,1.6267 0,0.1356 -0.1362,0.1356 -0.1703,0.1356 -0.1476,0 -0.1589,-0.0452 -0.2043,-0.1808 -0.2157,-0.7342 -0.8628,-1.2878 -1.4644,-1.2878 -0.42,0 -0.647,0.2937 -0.647,0.7004 0,0.2711 0.261,1.2426 0.5562,2.4174 0.2157,0.8247 0.6924,1.0845 1.0443,1.0845 0.0227,0 0.3519,0 0.579,-0.1468 -0.3406,-0.0904 -0.4654,-0.3954 -0.4654,-0.5874 0,-0.226 0.1816,-0.3954 0.42,-0.3954 0.2497,0 0.6016,0.2033 0.6016,0.6552 0,0.5987 -0.6811,0.7794 -1.1125,0.7794 -0.5335,0 -0.9648,-0.3502 -1.1919,-0.7568 -0.193,0.4292 -0.6924,0.7568 -1.2827,0.7568 -1.2033,0 -1.8844,-1.3104 -1.8844,-1.6267 0,-0.1468 0.1476,-0.1468 0.1816,-0.1468 0.1362,0 0.1476,0.0452 0.2043,0.1807 0.2611,0.836 0.9422,1.2878 1.4644,1.2878 0.3519,0 0.6357,-0.192 0.6357,-0.7003 0,-0.2147 -0.1249,-0.7456 -0.2157,-1.1071 l -0.3632,-1.4573" /></clipPath><clipPath
       id="clipPath370"
       clipPathUnits="userSpaceOnUse"><path
         style="clip-rule:evenodd"
         id="path372"
         d="m 190.1656,133.5741 c 0.2386,0 0.5222,0 0.5222,0.305 0,0.305 -0.2836,0.305 -0.4993,0.305 l -9.1723,0 c -0.2157,0 -0.5108,0 -0.5108,-0.305 0,-0.305 0.2951,-0.305 0.5222,-0.305 l 9.138,0 0,0 z m 0.0229,-2.9483 c 0.2157,0 0.4993,0 0.4993,0.3049 0,0.305 -0.2836,0.305 -0.5222,0.305 l -9.138,0 c -0.2271,0 -0.5222,0 -0.5222,-0.305 0,-0.3049 0.2951,-0.3049 0.5108,-0.3049 l 9.1723,0 0,0 z" /></clipPath><clipPath
       id="clipPath380"
       clipPathUnits="userSpaceOnUse"><path
         style="clip-rule:evenodd"
         id="path382"
         d="m 202.9364,134.2632 c 0,0.8246 -0.4085,1.0619 -0.6811,1.0619 -0.386,0 -0.7492,-0.3954 -0.7492,-0.723 0,-0.2033 0.0793,-0.2937 0.2496,-0.4631 0.3179,-0.3051 0.5222,-0.7004 0.5222,-1.2427 0,-0.6438 -0.9421,-4.1345 -2.7357,-4.1345 -0.7719,0 -1.1238,0.531 -1.1238,1.333 0,0.8472 0.4086,1.9656 0.8855,3.2195 0.102,0.2598 0.1816,0.4745 0.1816,0.7682 0,0.6891 -0.4882,1.2539 -1.26,1.2539 -1.4304,0 -2.0206,-2.2141 -2.0206,-2.3497 0,-0.1582 0.159,-0.1582 0.193,-0.1582 0.1476,0 0.1589,0.0339 0.2383,0.2825 0.4428,1.5363 1.1011,1.8865 1.5439,1.8865 0.1247,0 0.386,0 0.386,-0.4858 0,-0.3841 -0.1477,-0.7907 -0.2613,-1.0731 -0.6696,-1.7623 -0.8741,-2.4627 -0.8741,-3.1179 0,-1.6493 1.351,-1.8865 2.0548,-1.8865 2.5768,0 3.4509,5.0383 3.4509,5.829" /></clipPath><clipPath
       id="clipPath390"
       clipPathUnits="userSpaceOnUse"><path
         style="clip-rule:evenodd"
         id="path392"
         d="m 205.8425,127.4288 c -0.1023,-0.3615 -0.4542,-0.9376 -0.9991,-0.9376 -0.034,0 -0.3519,0 -0.5789,0.1582 0.4313,0.1355 0.4655,0.5196 0.4655,0.5761 0,0.2372 -0.1816,0.3954 -0.4202,0.3954 -0.3062,0 -0.6128,-0.2486 -0.6128,-0.6439 0,-0.531 0.6015,-0.7795 1.1237,-0.7795 0.4882,0 0.9308,0.305 1.1921,0.7569 0.2609,-0.5648 0.8512,-0.7569 1.2714,-0.7569 1.2257,0 1.8843,1.333 1.8843,1.6267 0,0.1356 -0.1363,0.1356 -0.1704,0.1356 -0.1476,0 -0.1589,-0.0452 -0.2042,-0.1808 -0.227,-0.7342 -0.8629,-1.2878 -1.4644,-1.2878 -0.4313,0 -0.6472,0.2937 -0.6472,0.7004 0,0.2711 0.25,1.2426 0.5449,2.4174 0.2159,0.8247 0.7038,1.0845 1.0558,1.0845 0.0226,0 0.3519,0 0.5789,-0.1468 -0.352,-0.0904 -0.4766,-0.3954 -0.4766,-0.5874 0,-0.226 0.1816,-0.3954 0.4312,-0.3954 0.2383,0 0.6016,0.2033 0.6016,0.6552 0,0.5987 -0.6922,0.7794 -1.1125,0.7794 -0.5335,0 -0.9648,-0.3502 -1.2031,-0.7568 -0.1929,0.4292 -0.6811,0.7568 -1.2827,0.7568 -1.192,0 -1.8732,-1.3104 -1.8732,-1.6267 0,-0.1468 0.1476,-0.1468 0.1816,-0.1468 0.1363,0 0.1476,0.0452 0.193,0.1807 0.2725,0.836 0.9424,1.2878 1.4643,1.2878 0.3519,0 0.6472,-0.192 0.6472,-0.7003 0,-0.2147 -0.1249,-0.7456 -0.227,-1.1071 l -0.3632,-1.4573" /></clipPath><clipPath
       id="clipPath400"
       clipPathUnits="userSpaceOnUse"><path
         style="clip-rule:evenodd"
         id="path402"
         d="m 217.2054,132.4106 c 0,0.4406 -0.3633,0.8021 -0.8059,0.8021 -0.4429,0 -0.8174,-0.3615 -0.8174,-0.8021 0,-0.4519 0.3745,-0.8134 0.8174,-0.8134 0.4426,0 0.8059,0.3615 0.8059,0.8134" /></clipPath><clipPath
       id="clipPath410"
       clipPathUnits="userSpaceOnUse"><path
         style="clip-rule:evenodd"
         id="path412"
         d="m 228.7048,139.2337 c -0.1022,0.192 -0.1362,0.2711 -0.3975,0.2711 -0.2609,0 -0.2836,-0.0791 -0.3972,-0.2711 l -5.1763,-10.3363 c -0.0683,-0.1356 -0.0683,-0.1582 -0.0683,-0.1808 0,-0.1242 0.091,-0.1242 0.3293,-0.1242 l 10.6253,0 c 0.2496,0 0.3406,0 0.3406,0.1242 0,0.0226 0,0.0452 -0.0796,0.1808 l -5.1763,10.3363 0,0 z m -0.8854,-1.2539 4.1205,-8.2239 -8.2526,0 4.1321,8.2239 0,0 z" /></clipPath><clipPath
       id="clipPath420"
       clipPathUnits="userSpaceOnUse"><path
         style="clip-rule:evenodd"
         id="path422"
         d="m 237.8429,134.6925 1.4417,0 c 0.3066,0 0.4539,0 0.4539,0.305 0,0.1694 -0.1473,0.1694 -0.4313,0.1694 l -1.3394,0 c 0.5449,2.1577 0.6242,2.4627 0.6242,2.553 0,0.2599 -0.1816,0.418 -0.4425,0.418 -0.0457,0 -0.4769,-0.0226 -0.6132,-0.5535 l -0.6016,-2.4175 -1.4303,0 c -0.3066,0 -0.4653,0 -0.4653,-0.2937 0,-0.1807 0.1247,-0.1807 0.4313,-0.1807 l 1.3507,0 c -1.1124,-4.3266 -1.1691,-4.5864 -1.1691,-4.8575 0,-0.8247 0.5789,-1.4008 1.4077,-1.4008 1.5664,0 2.4405,2.2141 2.4405,2.3384 0,0.1581 -0.125,0.1581 -0.193,0.1581 -0.1363,0 -0.1476,-0.0451 -0.2269,-0.2146 -0.6585,-1.5815 -1.4644,-1.9543 -1.9866,-1.9543 -0.3179,0 -0.4769,0.2034 -0.4769,0.7004 0,0.3728 0.034,0.4744 0.091,0.7343 l 1.1351,4.496" /></clipPath><clipPath
       id="clipPath430"
       clipPathUnits="userSpaceOnUse"><path
         id="path432"
         d="m 0,139 60,0 0,88 -60,0 0,-88 z" /></clipPath><clipPath
       id="clipPath448"
       clipPathUnits="userSpaceOnUse"><path
         id="path450"
         d="m 194,-4 45,0 0,88 -45,0 0,-88 z" /></clipPath></defs><g
     transform="matrix(1.3333333,0,0,-1.3333333,0,212)"
     id="g10"><g
       id="g12" /><g
       id="g14"><g
         transform="matrix(1,0,0,-1,33.416,110.4526)"
         id="g16"><path
           id="path18"
           style="fill:none;stroke:#c0c0c0;stroke-width:0.3985;stroke-linecap:butt;stroke-linejoin:miter;stroke-miterlimit:10;stroke-dasharray:2.98883, 2.98883;stroke-dashoffset:0;stroke-opacity:1"
           d="m 0,92.2686 148.8201,0 M 0,32.74058 l 148.8201,0 M 0,92.2686 0,0 m 29.76401,92.2686 0,-92.2686 m 29.76402,92.2686 0,-92.2686 m 29.764,92.2686 0,-92.2686 m 29.76407,92.2686 0,-92.2686 m 29.7535,92.2686 0,-92.2686" /></g><g
         transform="matrix(1,0,0,-1,33.416,18.184)"
         id="g20"><path
           id="path22"
           style="fill:none;stroke:#000000;stroke-width:0.3985;stroke-linecap:butt;stroke-linejoin:miter;stroke-miterlimit:10;stroke-dasharray:none;stroke-opacity:1"
           d="M 0,0 177.8967,0" /></g><g
         transform="matrix(1,0,0,-1,209.5195,20.575)"
         id="g24"><path
           id="path26"
           style="fill:none;stroke:#000000;stroke-width:0.31878999;stroke-linecap:round;stroke-linejoin:round;stroke-miterlimit:10;stroke-dasharray:none;stroke-opacity:1"
           d="M 0,0 C 0.14946,0.896625 1.793265,2.2416 2.241555,2.391015 1.793265,2.54043 0.14946,3.885405 0,4.78203" /></g><g
         transform="matrix(1,0,0,-1,63.18,20.2762)"
         id="g28"><path
           id="path30"
           style="fill:none;stroke:#000000;stroke-width:0.3985;stroke-linecap:butt;stroke-linejoin:miter;stroke-miterlimit:10;stroke-dasharray:none;stroke-opacity:1"
           d="M 0,0 0,4.18434" /></g><g
         transform="matrix(1,0,0,-1,63.18,20.2762)"
         id="g32"><path
           id="path34"
           style="fill:none;stroke:#000000;stroke-width:0.3985;stroke-linecap:butt;stroke-linejoin:miter;stroke-miterlimit:10;stroke-dasharray:none;stroke-opacity:1"
           d="M 0,0 0,4.18434" /></g></g><g
       id="g36"><g
         clip-path="url(#clipPath40)"
         id="g38"><g
           transform="matrix(1,0,0,-1,60.0035,18.39749)"
           id="g44"><text
             id="text46"
             style="font-variant:normal;font-weight:normal;font-size:11.95514965px;font-family:LucidaGrande;-inkscape-font-specification:LucidaGrande;writing-mode:lr-tb;fill:#000000;fill-opacity:1;fill-rule:nonzero;stroke:none"
             transform="translate(0,12)"><tspan
               id="tspan48"
               y="0"
               x="0">1</tspan></text>
</g></g></g><g
       id="g50"><g
         transform="matrix(1,0,0,-1,92.944,20.2762)"
         id="g52"><path
           id="path54"
           style="fill:none;stroke:#000000;stroke-width:0.3985;stroke-linecap:butt;stroke-linejoin:miter;stroke-miterlimit:10;stroke-dasharray:none;stroke-opacity:1"
           d="M 0,0 0,4.18434" /></g></g><g
       id="g56"><g
         clip-path="url(#clipPath60)"
         id="g58"><g
           transform="matrix(1,0,0,-1,89.768,18.39749)"
           id="g64"><text
             id="text66"
             style="font-variant:normal;font-weight:normal;font-size:11.95514965px;font-family:LucidaGrande;-inkscape-font-specification:LucidaGrande;writing-mode:lr-tb;fill:#000000;fill-opacity:1;fill-rule:nonzero;stroke:none"
             transform="translate(0,12)"><tspan
               id="tspan68"
               y="0"
               x="0">2</tspan></text>
</g></g></g><g
       id="g70"><g
         transform="matrix(1,0,0,-1,122.708,20.2762)"
         id="g72"><path
           id="path74"
           style="fill:none;stroke:#000000;stroke-width:0.3985;stroke-linecap:butt;stroke-linejoin:miter;stroke-miterlimit:10;stroke-dasharray:none;stroke-opacity:1"
           d="M 0,0 0,4.18434" /></g></g><g
       id="g76"><g
         clip-path="url(#clipPath80)"
         id="g78"><g
           transform="matrix(1,0,0,-1,119.531,18.39749)"
           id="g84"><text
             id="text86"
             style="font-variant:normal;font-weight:normal;font-size:11.95514965px;font-family:LucidaGrande;-inkscape-font-specification:LucidaGrande;writing-mode:lr-tb;fill:#000000;fill-opacity:1;fill-rule:nonzero;stroke:none"
             transform="translate(0,12)"><tspan
               id="tspan88"
               y="0"
               x="0">3</tspan></text>
</g></g></g><g
       id="g90"><g
         transform="matrix(1,0,0,-1,152.4721,20.2762)"
         id="g92"><path
           id="path94"
           style="fill:none;stroke:#000000;stroke-width:0.3985;stroke-linecap:butt;stroke-linejoin:miter;stroke-miterlimit:10;stroke-dasharray:none;stroke-opacity:1"
           d="M 0,0 0,4.18434" /></g></g><g
       id="g96"><g
         clip-path="url(#clipPath100)"
         id="g98"><g
           transform="matrix(1,0,0,-1,149.2955,18.39749)"
           id="g104"><text
             id="text106"
             style="font-variant:normal;font-weight:normal;font-size:11.95514965px;font-family:LucidaGrande;-inkscape-font-specification:LucidaGrande;writing-mode:lr-tb;fill:#000000;fill-opacity:1;fill-rule:nonzero;stroke:none"
             transform="translate(0,12)"><tspan
               id="tspan108"
               y="0"
               x="0">4</tspan></text>
</g></g></g><g
       id="g110"><g
         transform="matrix(1,0,0,-1,182.2361,20.2762)"
         id="g112"><path
           id="path114"
           style="fill:none;stroke:#000000;stroke-width:0.3985;stroke-linecap:butt;stroke-linejoin:miter;stroke-miterlimit:10;stroke-dasharray:none;stroke-opacity:1"
           d="M 0,0 0,4.18434" /></g></g><g
       id="g116"><g
         clip-path="url(#clipPath120)"
         id="g118"><g
           transform="matrix(1,0,0,-1,179.0585,18.39749)"
           id="g124"><text
             id="text126"
             style="font-variant:normal;font-weight:normal;font-size:11.95514965px;font-family:LucidaGrande;-inkscape-font-specification:LucidaGrande;writing-mode:lr-tb;fill:#000000;fill-opacity:1;fill-rule:nonzero;stroke:none"
             transform="translate(0,12)"><tspan
               id="tspan128"
               y="0"
               x="0">5</tspan></text>
</g></g></g><g
       id="g130"><g
         transform="matrix(1,0,0,-1,33.416,136.5526)"
         id="g132"><path
           id="path134"
           style="fill:none;stroke:#000000;stroke-width:0.3985;stroke-linecap:butt;stroke-linejoin:miter;stroke-miterlimit:10;stroke-dasharray:none;stroke-opacity:1"
           d="M 0,118.3686 0,0" /></g><g
         transform="matrix(1,0,0,-1,31.025,137.0009)"
         id="g136"><path
           id="path138"
           style="fill:none;stroke:#000000;stroke-width:0.31878999;stroke-linecap:round;stroke-linejoin:round;stroke-miterlimit:10;stroke-dasharray:none;stroke-opacity:1"
           d="M 0,2.241555 C 0.896625,2.092095 2.2416,0.44829 2.391015,0 2.54043,0.44829 3.885405,2.092095 4.78203,2.241555" /></g><g
         transform="matrix(1,0,0,-1,31.3238,18.184)"
         id="g140"><path
           id="path142"
           style="fill:none;stroke:#000000;stroke-width:0.3985;stroke-linecap:butt;stroke-linejoin:miter;stroke-miterlimit:10;stroke-dasharray:none;stroke-opacity:1"
           d="M 4.18434,0 0,0" /></g></g><g
       id="g144"><g
         clip-path="url(#clipPath148)"
         id="g146"><g
           transform="matrix(1,0,0,-1,18.8225,30.49199)"
           id="g152"><text
             id="text154"
             style="font-variant:normal;font-weight:normal;font-size:11.95514965px;font-family:LucidaGrande;-inkscape-font-specification:LucidaGrande;writing-mode:lr-tb;fill:#000000;fill-opacity:1;fill-rule:nonzero;stroke:none"
             transform="translate(0,12)"><tspan
               id="tspan156"
               y="0"
               x="0">0</tspan></text>
</g></g></g><g
       id="g158"><g
         transform="matrix(1,0,0,-1,31.3238,47.948)"
         id="g160"><path
           id="path162"
           style="fill:none;stroke:#000000;stroke-width:0.3985;stroke-linecap:butt;stroke-linejoin:miter;stroke-miterlimit:10;stroke-dasharray:none;stroke-opacity:1"
           d="M 4.18434,0 0,0" /></g></g><g
       id="g164"><g
         clip-path="url(#clipPath168)"
         id="g166"><g
           transform="matrix(1,0,0,-1,18.8225,60.25499)"
           id="g172"><text
             id="text174"
             style="font-variant:normal;font-weight:normal;font-size:11.95514965px;font-family:LucidaGrande;-inkscape-font-specification:LucidaGrande;writing-mode:lr-tb;fill:#000000;fill-opacity:1;fill-rule:nonzero;stroke:none"
             transform="translate(0,12)"><tspan
               id="tspan176"
               y="0"
               x="0">1</tspan></text>
</g></g></g><g
       id="g178"><g
         transform="matrix(1,0,0,-1,31.3238,77.712)"
         id="g180"><path
           id="path182"
           style="fill:none;stroke:#000000;stroke-width:0.3985;stroke-linecap:butt;stroke-linejoin:miter;stroke-miterlimit:10;stroke-dasharray:none;stroke-opacity:1"
           d="M 4.18434,0 0,0" /></g></g><g
       id="g184"><g
         clip-path="url(#clipPath188)"
         id="g186"><g
           transform="matrix(1,0,0,-1,18.8225,90.01949)"
           id="g192"><text
             id="text194"
             style="font-variant:normal;font-weight:normal;font-size:11.95514965px;font-family:LucidaGrande;-inkscape-font-specification:LucidaGrande;writing-mode:lr-tb;fill:#000000;fill-opacity:1;fill-rule:nonzero;stroke:none"
             transform="translate(0,12)"><tspan
               id="tspan196"
               y="0"
               x="0">2</tspan></text>
</g></g></g><g
       id="g198"><g
         transform="matrix(1,0,0,-1,33.416,77.712)"
         id="g200"><path
           id="path202"
           style="fill:none;stroke:#000000;stroke-width:1.19553006;stroke-linecap:butt;stroke-linejoin:miter;stroke-miterlimit:10;stroke-dasharray:none;stroke-opacity:1"
           d="m 0,0 6.200655,0 6.200685,0 6.20067,0 6.2007,0 6.20069,0 6.20068,0 6.2007,0 6.20067,0 6.2007,0 6.20069,0 6.20068,0 6.20069,0 6.20068,0 6.2007,0 6.20067,0 6.20069,0 6.20065,0 6.2007,0 6.2007,0 6.2007,0 6.2007,0 6.2007,0 6.2007,0 6.2007,0" /></g><g
         transform="matrix(1,0,0,-1,92.138,78.289)"
         id="g204"><path
           id="path206"
           style="fill:none;stroke:#ff0000;stroke-width:1;stroke-linecap:square;stroke-linejoin:miter;stroke-miterlimit:10;stroke-dasharray:none;stroke-opacity:1"
           d="M 0,0 0,58.5" /></g><g
         transform="matrix(1,0,0,-1,152.138,76.789)"
         id="g208"><path
           id="path210"
           style="fill:none;stroke:#ff0000;stroke-width:1;stroke-linecap:square;stroke-linejoin:miter;stroke-miterlimit:10;stroke-dasharray:none;stroke-opacity:1"
           d="M 0,0 0,58.5" /></g></g><g
       id="g212"><g
         clip-path="url(#clipPath216)"
         id="g214"><path
           id="path220"
           style="fill:#ff0000;fill-opacity:0.54409999;fill-rule:evenodd;stroke:none"
           d="m 87.888,82.539 68.5,0 0,-70 -68.5,0 0,70 z" /></g></g><g
       id="g222"><g
         transform="matrix(1,0,0,-1,92.888,77.539)"
         id="g224"><path
           id="path226"
           style="fill:none;stroke:#ff0000;stroke-width:2;stroke-linecap:butt;stroke-linejoin:miter;stroke-miterlimit:10;stroke-dasharray:none;stroke-opacity:1"
           d="M 0,0 0,60 58.5,60 58.5,0 0,0 0,0 Z" /></g><g
         transform="matrix(1,0,0,-1,115.388,124.039)"
         id="g228"><path
           id="path230"
           style="fill:none;stroke:#000000;stroke-width:1;stroke-linecap:square;stroke-linejoin:miter;stroke-miterlimit:10;stroke-dasharray:none;stroke-opacity:1"
           d="m 42,0.02918826 c 0,0 -31.06332,-1.06885626 -37.109478,9.72957974 C -2.775685,23.4506 0.8628986,73.5 0.8628986,73.5" /></g></g><g
       id="g232"><g
         clip-path="url(#clipPath236)"
         id="g234"><g
           id="g240" /><g
           id="g254"><g
             id="g256"
             clip-path="url(#clipPath242)"><g
               id="g258" /><g
               id="g260"><g
                 id="g262"
                 clip-path="url(#clipPath246)"><g
                   id="g264"
                   clip-path="url(#clipPath250)"><path
                     id="path266"
                     style="fill:#000000;fill-opacity:1;fill-rule:evenodd;stroke:none"
                     d="m 98.5016,79.8555 33.9973,0 0,-41.2852 -33.9973,0 0,41.2852 z" /></g></g></g></g></g></g></g><g
       id="g268"><g
         transform="matrix(1,0,0,-1,111.0016,67.35546)"
         id="g270"><path
           id="path272"
           style="fill:none;stroke:#000000;stroke-width:1;stroke-linecap:butt;stroke-linejoin:miter;stroke-miterlimit:10;stroke-dasharray:none;stroke-opacity:1"
           d="M 5.212619,16.2852 C 6.461601,10.56176 7.598676,5.66811 8.997333,0 5.848266,0.07668 3.149066,0.142395 0,0.219075 1.752897,5.89029 3.315472,10.71787 5.212619,16.2852 l 0,0 0,0 z" /></g></g><g
       id="g274"><g
         clip-path="url(#clipPath278)"
         id="g276"><g
           id="g282" /><g
           id="g304"><g
             id="g306"
             clip-path="url(#clipPath284)"><g
               id="g308" /><g
               id="g310"><g
                 id="g312"
                 clip-path="url(#clipPath288)"><g
                   id="g314"
                   clip-path="url(#clipPath292)"><path
                     id="path316"
                     style="fill:#000000;fill-opacity:1;fill-rule:evenodd;stroke:none"
                     d="m -4.965907,163.743 19.852177,0 0,-20.3532 -19.852177,0 0,20.3532 z" /></g></g></g><g
               id="g318"><g
                 id="g320"
                 clip-path="url(#clipPath296)"><g
                   id="g322"
                   clip-path="url(#clipPath300)"><path
                     id="path324"
                     style="fill:#000000;fill-opacity:1;fill-rule:evenodd;stroke:none"
                     d="m 6.017919,157.2362 18.370991,0 0,-17.1845 -18.370991,0 0,17.1845 z" /></g></g></g></g></g></g></g><g
       id="g326"><g
         clip-path="url(#clipPath330)"
         id="g328"><path
           id="path334"
           style="fill:#000000;fill-opacity:1;fill-rule:evenodd;stroke:none"
           d="m 203.3992,17.14373 15.2613,0 0,-20.674065 -15.2613,0 0,20.674065 z" /></g></g><g
       id="g336"><g
         clip-path="url(#clipPath340)"
         id="g338"><path
           id="path344"
           style="fill:#000000;fill-opacity:1;fill-rule:evenodd;stroke:none"
           d="m 217.5057,14.06204 16.6593,0 0,-17.592375 -16.6593,0 0,17.592375 z" /></g></g><g
       id="g346"><g
         clip-path="url(#clipPath350)"
         id="g348"><path
           id="path354"
           style="fill:#000000;fill-opacity:1;fill-rule:evenodd;stroke:none"
           d="m 154.1301,144.3353 19.0814,0 0,-21.0705 -19.0814,0 0,21.0705 z" /></g></g><g
       id="g356"><g
         clip-path="url(#clipPath360)"
         id="g358"><path
           id="path364"
           style="fill:#000000;fill-opacity:1;fill-rule:evenodd;stroke:none"
           d="m 163.2228,135.9985 15.7213,0 0,-14.801 -15.7213,0 0,14.801 z" /></g></g><g
       id="g366"><g
         clip-path="url(#clipPath370)"
         id="g368"><path
           id="path374"
           style="fill:#000000;fill-opacity:1;fill-rule:evenodd;stroke:none"
           d="m 175.5054,139.1841 20.1824,0 0,-13.5583 -20.1824,0 0,13.5583 z" /></g></g><g
       id="g376"><g
         clip-path="url(#clipPath380)"
         id="g378"><path
           id="path384"
           style="fill:#000000;fill-opacity:1;fill-rule:evenodd;stroke:none"
           d="m 191.2049,140.3364 16.7315,0 0,-16.9022 -16.7315,0 0,16.9022 z" /></g></g><g
       id="g386"><g
         clip-path="url(#clipPath390)"
         id="g388"><path
           id="path394"
           style="fill:#000000;fill-opacity:1;fill-rule:evenodd;stroke:none"
           d="m 198.697,135.9985 15.7211,0 0,-14.801 -15.7211,0 0,14.801 z" /></g></g><g
       id="g396"><g
         clip-path="url(#clipPath400)"
         id="g398"><path
           id="path404"
           style="fill:#000000;fill-opacity:1;fill-rule:evenodd;stroke:none"
           d="m 210.5821,138.2127 11.6233,0 0,-11.6155 -11.6233,0 0,11.6155 z" /></g></g><g
       id="g406"><g
         clip-path="url(#clipPath410)"
         id="g408"><path
           id="path414"
           style="fill:#000000;fill-opacity:1;fill-rule:evenodd;stroke:none"
           d="m 217.6655,144.5048 21.2952,0 0,-20.9124 -21.2952,0 0,20.9124 z" /></g></g><g
       id="g416"><g
         clip-path="url(#clipPath420)"
         id="g418"><path
           id="path424"
           style="fill:#000000;fill-opacity:1;fill-rule:evenodd;stroke:none"
           d="m 230.0391,143.1379 14.6994,0 0,-19.7037 -14.6994,0 0,19.7037 z" /></g></g><g
       id="g426"><g
         clip-path="url(#clipPath430)"
         id="g428"><g
           transform="matrix(1,0,0,-1,20,160)"
           id="g434"><text
             id="text436"
             style="font-style:italic;font-variant:normal;font-size:17px;font-family:TimesNewRomanPS;-inkscape-font-specification:TimesNewRomanPS-ItalicMT;writing-mode:lr-tb;fill:#000000;fill-opacity:1;fill-rule:nonzero;stroke:none"
             transform="translate(0,15)"><tspan
               id="tspan438"
               y="0"
               x="0 4.25">, </tspan></text>
<text
             id="text440"
             style="font-style:italic;font-variant:normal;font-size:17px;font-family:TimesNewRomanPS;-inkscape-font-specification:TimesNewRomanPS-ItalicMT;writing-mode:lr-tb;fill:#000000;fill-opacity:1;fill-rule:nonzero;stroke:none"
             transform="translate(8.5,15)"><tspan
               id="tspan442"
               y="0"
               x="0">м</tspan></text>
</g></g></g><g
       id="g444"><g
         clip-path="url(#clipPath448)"
         id="g446"><g
           transform="matrix(1,0,0,-1,214,17)"
           id="g452"><text
             id="text454"
             style="font-style:italic;font-variant:normal;font-size:17px;font-family:TimesNewRomanPS;-inkscape-font-specification:TimesNewRomanPS-ItalicMT;writing-mode:lr-tb;fill:#000000;fill-opacity:1;fill-rule:nonzero;stroke:none"
             transform="translate(0,15)"><tspan
               id="tspan456"
               y="0"
               x="0">,</tspan></text>
</g></g></g></g></svg>