<?xml version="1.0" encoding="UTF-8" standalone="no"?>
<svg
   xmlns:dc="http://purl.org/dc/elements/1.1/"
   xmlns:cc="http://creativecommons.org/ns#"
   xmlns:rdf="http://www.w3.org/1999/02/22-rdf-syntax-ns#"
   xmlns:svg="http://www.w3.org/2000/svg"
   xmlns="http://www.w3.org/2000/svg"
   viewBox="0 0 284 190.66667"
   height="190.66667"
   width="284"
   xml:space="preserve"
   version="1.1"
   id="svg2"><metadata
     id="metadata8"><rdf:RDF><cc:Work
         rdf:about=""><dc:format>image/svg+xml</dc:format><dc:type
           rdf:resource="http://purl.org/dc/dcmitype/StillImage" /></cc:Work></rdf:RDF></metadata><defs
     id="defs6"><clipPath
       id="clipPath18"
       clipPathUnits="userSpaceOnUse"><path
         style="clip-rule:evenodd"
         id="path20"
         d="m 0.514,-0.313 214.486,0 0,146 -214.486,0" /></clipPath><clipPath
       id="clipPath24"
       clipPathUnits="userSpaceOnUse"><path
         id="path26"
         d="M 0,0 213,0 213,143 0,143 0,0 Z" /></clipPath><clipPath
       id="clipPath28"
       clipPathUnits="userSpaceOnUse"><path
         id="path30"
         d="M 0,0 213,0 213,143 0,143 0,0 Z" /></clipPath><clipPath
       id="clipPath56"
       clipPathUnits="userSpaceOnUse"><path
         style="clip-rule:evenodd"
         id="path58"
         d="m 43.8467,65.0764 4.5894,3.8601 -0.4114,-5.9828 -4.178,2.1227 0,0 z" /></clipPath><clipPath
       id="clipPath62"
       clipPathUnits="userSpaceOnUse"><path
         id="path64"
         d="m 43,62 6,0 0,7 -6,0 0,-7 z" /></clipPath><clipPath
       id="clipPath66"
       clipPathUnits="userSpaceOnUse"><path
         style="clip-rule:evenodd"
         id="path68"
         d="m 38.8467,73.9365 14.5894,0 0,-15.9828 -14.5894,0 0,15.9828 z" /></clipPath><clipPath
       id="clipPath70"
       clipPathUnits="userSpaceOnUse"><path
         id="path72"
         d="m 43,62 6,0 0,7 -6,0 0,-7 z" /></clipPath><clipPath
       id="clipPath102"
       clipPathUnits="userSpaceOnUse"><path
         style="clip-rule:evenodd"
         id="path104"
         d="m 186.0909,44.7279 4.954,-3.3585 -5.8572,-1.2306 0.9032,4.5891 0,0 z" /></clipPath><clipPath
       id="clipPath108"
       clipPathUnits="userSpaceOnUse"><path
         id="path110"
         d="m 185,40 7,0 0,5 -7,0 0,-5 z" /></clipPath><clipPath
       id="clipPath112"
       clipPathUnits="userSpaceOnUse"><path
         style="clip-rule:evenodd"
         id="path114"
         d="m 180.1877,49.7279 15.8572,0 0,-14.5891 -15.8572,0 0,14.5891 z" /></clipPath><clipPath
       id="clipPath116"
       clipPathUnits="userSpaceOnUse"><path
         id="path118"
         d="m 185,40 7,0 0,5 -7,0 0,-5 z" /></clipPath><clipPath
       id="clipPath148"
       clipPathUnits="userSpaceOnUse"><path
         style="clip-rule:evenodd"
         id="path150"
         d="m 140.4072,38.9352 -5.5023,2.3356 5.5023,2.3356 0,-4.6712 0,0 z" /></clipPath><clipPath
       id="clipPath154"
       clipPathUnits="userSpaceOnUse"><path
         id="path156"
         d="m 134,38 7,0 0,6 -7,0 0,-6 z" /></clipPath><clipPath
       id="clipPath158"
       clipPathUnits="userSpaceOnUse"><path
         style="clip-rule:evenodd"
         id="path160"
         d="m 129.9049,48.6064 15.5023,0 0,-14.6712 -15.5023,0 0,14.6712 z" /></clipPath><clipPath
       id="clipPath162"
       clipPathUnits="userSpaceOnUse"><path
         id="path164"
         d="m 134,38 7,0 0,6 -7,0 0,-6 z" /></clipPath><clipPath
       id="clipPath194"
       clipPathUnits="userSpaceOnUse"><path
         style="clip-rule:evenodd"
         id="path196"
         d="m 158.8186,120.6782 3.9877,4.4739 0.4482,-5.9764 -4.4359,1.5025 0,0 z" /></clipPath><clipPath
       id="clipPath200"
       clipPathUnits="userSpaceOnUse"><path
         id="path202"
         d="m 158,119 6,0 0,7 -6,0 0,-7 z" /></clipPath><clipPath
       id="clipPath204"
       clipPathUnits="userSpaceOnUse"><path
         style="clip-rule:evenodd"
         id="path206"
         d="m 153.8186,130.1521 14.4359,0 0,-15.9764 -14.4359,0 0,15.9764 z" /></clipPath><clipPath
       id="clipPath208"
       clipPathUnits="userSpaceOnUse"><path
         id="path210"
         d="m 158,119 6,0 0,7 -6,0 0,-7 z" /></clipPath><clipPath
       id="clipPath240"
       clipPathUnits="userSpaceOnUse"><path
         style="clip-rule:evenodd"
         id="path242"
         d="m 83.1794,43.8288 -5.5716,-2.1995 2.2882,5.5357 3.2834,-3.3362 0,0 z" /></clipPath><clipPath
       id="clipPath246"
       clipPathUnits="userSpaceOnUse"><path
         id="path248"
         d="m 77,41 7,0 0,7 -7,0 0,-7 z" /></clipPath><clipPath
       id="clipPath250"
       clipPathUnits="userSpaceOnUse"><path
         style="clip-rule:evenodd"
         id="path252"
         d="m 72.6078,52.165 15.5716,0 0,-15.5357 -15.5716,0 0,15.5357 z" /></clipPath><clipPath
       id="clipPath254"
       clipPathUnits="userSpaceOnUse"><path
         id="path256"
         d="m 77,41 7,0 0,7 -7,0 0,-7 z" /></clipPath><clipPath
       id="clipPath282"
       clipPathUnits="userSpaceOnUse"><path
         style="clip-rule:evenodd"
         id="path284"
         d="m 21.5867,13.1489 c 0,0.8253 -0.6691,1.4944 -1.4944,1.4944 -0.8254,0 -1.4945,-0.6691 -1.4945,-1.4944 0,-0.8254 0.6691,-1.4944 1.4945,-1.4944 0.8253,0 1.4944,0.669 1.4944,1.4944 l 0,0 z" /></clipPath><clipPath
       id="clipPath288"
       clipPathUnits="userSpaceOnUse"><path
         id="path290"
         d="m 18,11 4,0 0,4 -4,0 0,-4 z" /></clipPath><clipPath
       id="clipPath292"
       clipPathUnits="userSpaceOnUse"><path
         style="clip-rule:evenodd"
         id="path294"
         d="m 13.5978,19.6433 12.9889,0 0,-12.9888 -12.9889,0 0,12.9888 z" /></clipPath><clipPath
       id="clipPath296"
       clipPathUnits="userSpaceOnUse"><path
         id="path298"
         d="m 18,11 4,0 0,4 -4,0 0,-4 z" /></clipPath><clipPath
       id="clipPath324"
       clipPathUnits="userSpaceOnUse"><path
         id="path326"
         d="m -8.795,10.19836 46,0 0,68.9701 -46,0 0,-68.9701 z" /></clipPath><clipPath
       id="clipPath338"
       clipPathUnits="userSpaceOnUse"><path
         style="clip-rule:evenodd"
         id="path340"
         d="m 50.1623,69.3927 c 0,0.8253 -0.6691,1.4944 -1.4944,1.4944 -0.8254,0 -1.4944,-0.6691 -1.4944,-1.4944 0,-0.8254 0.669,-1.4944 1.4944,-1.4944 0.8253,0 1.4944,0.669 1.4944,1.4944 l 0,0 z" /></clipPath><clipPath
       id="clipPath344"
       clipPathUnits="userSpaceOnUse"><path
         id="path346"
         d="m 47,67 4,0 0,4 -4,0 0,-4 z" /></clipPath><clipPath
       id="clipPath348"
       clipPathUnits="userSpaceOnUse"><path
         style="clip-rule:evenodd"
         id="path350"
         d="m 42.1735,75.8871 12.9888,0 0,-12.9888 -12.9888,0 0,12.9888 z" /></clipPath><clipPath
       id="clipPath352"
       clipPathUnits="userSpaceOnUse"><path
         id="path354"
         d="m 47,67 4,0 0,4 -4,0 0,-4 z" /></clipPath><clipPath
       id="clipPath380"
       clipPathUnits="userSpaceOnUse"><path
         id="path382"
         d="m 29.278,69.31536 45,0 0,68.9701 -45,0 0,-68.9701 z" /></clipPath><clipPath
       id="clipPath394"
       clipPathUnits="userSpaceOnUse"><path
         style="clip-rule:evenodd"
         id="path396"
         d="m 193.0404,41.2708 c 0,0.8253 -0.669,1.4944 -1.4944,1.4944 -0.8253,0 -1.4944,-0.6691 -1.4944,-1.4944 0,-0.8254 0.6691,-1.4944 1.4944,-1.4944 0.8254,0 1.4944,0.669 1.4944,1.4944 l 0,0 z" /></clipPath><clipPath
       id="clipPath400"
       clipPathUnits="userSpaceOnUse"><path
         id="path402"
         d="m 190,39 4,0 0,4 -4,0 0,-4 z" /></clipPath><clipPath
       id="clipPath404"
       clipPathUnits="userSpaceOnUse"><path
         style="clip-rule:evenodd"
         id="path406"
         d="m 185.0516,47.7652 12.9888,0 0,-12.9888 -12.9888,0 0,12.9888 z" /></clipPath><clipPath
       id="clipPath408"
       clipPathUnits="userSpaceOnUse"><path
         id="path410"
         d="m 190,39 4,0 0,4 -4,0 0,-4 z" /></clipPath><clipPath
       id="clipPath436"
       clipPathUnits="userSpaceOnUse"><path
         id="path438"
         d="m 172.245,40.19436 46,0 0,68.9701 -46,0 0,-68.9701 z" /></clipPath><clipPath
       id="clipPath450"
       clipPathUnits="userSpaceOnUse"><path
         style="clip-rule:evenodd"
         id="path452"
         d="m 135.8892,41.2708 c 0,0.8253 -0.6691,1.4944 -1.4944,1.4944 -0.8254,0 -1.4945,-0.6691 -1.4945,-1.4944 0,-0.8254 0.6691,-1.4944 1.4945,-1.4944 0.8253,0 1.4944,0.669 1.4944,1.4944 l 0,0 z" /></clipPath><clipPath
       id="clipPath456"
       clipPathUnits="userSpaceOnUse"><path
         id="path458"
         d="m 132,39 4,0 0,4 -4,0 0,-4 z" /></clipPath><clipPath
       id="clipPath460"
       clipPathUnits="userSpaceOnUse"><path
         style="clip-rule:evenodd"
         id="path462"
         d="m 127.9003,47.7652 12.9889,0 0,-12.9888 -12.9889,0 0,12.9888 z" /></clipPath><clipPath
       id="clipPath464"
       clipPathUnits="userSpaceOnUse"><path
         id="path466"
         d="m 132,39 4,0 0,4 -4,0 0,-4 z" /></clipPath><clipPath
       id="clipPath492"
       clipPathUnits="userSpaceOnUse"><path
         id="path494"
         d="m 114.802,28.69636 46,0 0,68.9701 -46,0 0,-68.9701 z" /></clipPath><clipPath
       id="clipPath506"
       clipPathUnits="userSpaceOnUse"><path
         style="clip-rule:evenodd"
         id="path508"
         d="m 164.4648,125.6365 c 0,0.8253 -0.669,1.4944 -1.4944,1.4944 -0.8253,0 -1.4944,-0.6691 -1.4944,-1.4944 0,-0.8254 0.6691,-1.4944 1.4944,-1.4944 0.8254,0 1.4944,0.669 1.4944,1.4944 l 0,0 z" /></clipPath><clipPath
       id="clipPath512"
       clipPathUnits="userSpaceOnUse"><path
         id="path514"
         d="m 161,124 4,0 0,4 -4,0 0,-4 z" /></clipPath><clipPath
       id="clipPath516"
       clipPathUnits="userSpaceOnUse"><path
         style="clip-rule:evenodd"
         id="path518"
         d="m 156.476,132.1309 12.9888,0 0,-12.9888 -12.9888,0 0,12.9888 z" /></clipPath><clipPath
       id="clipPath520"
       clipPathUnits="userSpaceOnUse"><path
         id="path522"
         d="m 161,124 4,0 0,4 -4,0 0,-4 z" /></clipPath><clipPath
       id="clipPath548"
       clipPathUnits="userSpaceOnUse"><path
         id="path550"
         d="m 143.642,125.5594 45,0 0,68.9701 -45,0 0,-68.9701 z" /></clipPath><clipPath
       id="clipPath562"
       clipPathUnits="userSpaceOnUse"><path
         style="clip-rule:evenodd"
         id="path564"
         d="m 78.7379,41.2708 c 0,0.8253 -0.6691,1.4944 -1.4944,1.4944 -0.8253,0 -1.4944,-0.6691 -1.4944,-1.4944 0,-0.8254 0.6691,-1.4944 1.4944,-1.4944 0.8253,0 1.4944,0.669 1.4944,1.4944 l 0,0 z" /></clipPath><clipPath
       id="clipPath568"
       clipPathUnits="userSpaceOnUse"><path
         id="path570"
         d="m 75,39 4,0 0,4 -4,0 0,-4 z" /></clipPath><clipPath
       id="clipPath572"
       clipPathUnits="userSpaceOnUse"><path
         style="clip-rule:evenodd"
         id="path574"
         d="m 70.7491,47.7652 12.9888,0 0,-12.9888 -12.9888,0 0,12.9888 z" /></clipPath><clipPath
       id="clipPath576"
       clipPathUnits="userSpaceOnUse"><path
         id="path578"
         d="m 75,39 4,0 0,4 -4,0 0,-4 z" /></clipPath><clipPath
       id="clipPath604"
       clipPathUnits="userSpaceOnUse"><path
         id="path606"
         d="m 53.975,46.19436 45,0 0,68.9701 -45,0 0,-68.9701 z" /></clipPath><clipPath
       id="clipPath624"
       clipPathUnits="userSpaceOnUse"><path
         style="clip-rule:evenodd"
         id="path626"
         d="m 70.8124,40.7115 5.9731,0.3339 -3.9091,-4.5286 -2.064,4.1947 0,0 z" /></clipPath><clipPath
       id="clipPath630"
       clipPathUnits="userSpaceOnUse"><path
         id="path632"
         d="m 70,36 7,0 0,6 -7,0 0,-6 z" /></clipPath><clipPath
       id="clipPath634"
       clipPathUnits="userSpaceOnUse"><path
         style="clip-rule:evenodd"
         id="path636"
         d="m 65.8124,46.0454 15.9731,0 0,-14.5286 -15.9731,0 0,14.5286 z" /></clipPath><clipPath
       id="clipPath638"
       clipPathUnits="userSpaceOnUse"><path
         id="path640"
         d="m 70,36 7,0 0,6 -7,0 0,-6 z" /></clipPath><clipPath
       id="clipPath666"
       clipPathUnits="userSpaceOnUse"><path
         style="clip-rule:evenodd"
         id="path668"
         d="m 59.85262,26.29381 c -0.1619,-0.15546 -0.54533,-0.48361 -0.54533,-0.69087 0,-0.11226 0.1193,-0.23317 0.23006,-0.23317 0.10224,0 0.1619,0.07771 0.22154,0.15544 0.13633,0.17273 0.40047,0.50088 0.9032,0.75132 0.08522,0.05182 0.19599,0.10364 0.19599,0.25046 0,0.11226 -0.07669,0.17271 -0.15339,0.23315 -0.25561,0.17273 -0.38343,0.37999 -0.47716,0.65634 -0.01704,0.11226 -0.06817,0.25909 -0.23005,0.25909 -0.1619,0 -0.23006,-0.14683 -0.23006,-0.24182 0,-0.06045 0.09373,-0.43179 0.28117,-0.67361 l -3.87695,0 c -0.19597,0 -0.40047,0 -0.40047,-0.23315 0,-0.23318 0.2045,-0.23318 0.40047,-0.23318 l 3.68098,0" /></clipPath><clipPath
       id="clipPath676"
       clipPathUnits="userSpaceOnUse"><path
         style="clip-rule:evenodd"
         id="path678"
         d="m 60.03156,24.54072 c 0,0.03453 -0.01704,0.11226 -0.1193,0.11226 -0.05964,0 -0.07668,-0.0086 -0.21301,-0.17273 l -0.54533,-0.66496 c -0.30676,0.54408 -0.90322,0.83769 -1.64452,0.83769 -1.46556,0 -2.84594,-1.33857 -2.84594,-2.74623 0,-0.94996 0.61349,-1.48537 1.20142,-1.6581 l 1.227,-0.32817 c 0.42605,-0.10362 1.05658,-0.27635 1.05658,-1.23493 0,-1.04495 -0.93729,-2.14171 -2.07055,-2.14171 -0.73279,0 -2.01091,0.25908 -2.01091,1.70127 0,0.27635 0.05965,0.56135 0.06817,0.63044 0.01704,0.04317 0.02556,0.06044 0.02556,0.07771 0,0.1209 -0.07668,0.12955 -0.13633,0.12955 -0.05965,0 -0.07669,-0.0086 -0.11077,-0.04318 -0.05113,-0.05182 -0.69018,-2.70305 -0.69018,-2.7376 0,-0.06909 0.05112,-0.1209 0.11929,-0.1209 0.05964,0 0.07668,0.01727 0.21302,0.18135 l 0.56237,0.65633 c 0.4942,-0.6736 1.26959,-0.83768 1.94274,-0.83768 1.5593,0 2.91412,1.55447 2.91412,2.99667 0,0.80314 -0.39196,1.2004 -0.56239,1.36447 -0.26414,0.26773 -0.43456,0.3109 -1.45706,0.57861 -0.2556,0.06908 -0.6646,0.18999 -0.76686,0.2159 -0.31527,0.10362 -0.70723,0.44044 -0.70723,1.05358 0,0.94996 0.92026,1.93445 2.01091,1.93445 0.95433,0 1.66156,-0.50088 1.66156,-1.8049 0,-0.37134 -0.05113,-0.57861 -0.05113,-0.64769 0,-0.01729 0,-0.12091 0.13633,-0.12091 0.1193,0 0.12781,0.03453 0.17894,0.23317 l 0.6135,2.55624" /></clipPath></defs><g
     transform="matrix(1.3333333,0,0,-1.3333333,0,190.66667)"
     id="g10"><g
       id="g12" /><g
       id="g14"><g
         clip-path="url(#clipPath18)"
         id="g16"><g
           id="g22" /><g
           id="g32"><g
             id="g34"
             clip-path="url(#clipPath24)"><g
               id="g36" /><g
               id="g38"><g
                 id="g40"
                 clip-path="url(#clipPath28)"><g
                   id="g42"
                   transform="matrix(1,0,0,-1,0.0894,142.5098)"><path
                     id="path44"
                     style="fill:none;stroke:#c0c0c0;stroke-width:0.3985;stroke-linecap:round;stroke-linejoin:round;stroke-miterlimit:10;stroke-dasharray:0.99628, 0.99628;stroke-dashoffset:0;stroke-opacity:1"
                     d="m 0,129.3609 212.6028,0 M 0,101.239 l 212.6028,0 M 0,73.11709 l 212.6028,0 M 0,44.99519 l 212.6028,0 M 0,16.87329 l 212.6028,0 M 20.00286,141.7346 20.00286,0 M 48.57849,141.7346 48.57849,0 M 77.15411,141.7346 77.15411,0 M 105.7297,141.7346 105.7297,0 M 134.3054,141.7346 134.3054,0 M 162.881,141.7346 162.881,0 m 28.5756,141.7346 0,-141.7346" /></g></g></g></g></g></g></g><g
       id="g46"><g
         transform="matrix(1,0,0,-1,20.0923,68.6692)"
         id="g48"><path
           id="path50"
           style="fill:none;stroke:#0c5a91;stroke-width:0.3985;stroke-linecap:round;stroke-linejoin:round;stroke-miterlimit:10;stroke-dasharray:none;stroke-opacity:1"
           d="M 0,55.52026 28.20803,0" /></g></g><g
       id="g52"><g
         clip-path="url(#clipPath56)"
         id="g54"><g
           id="g60" /><g
           id="g74"><g
             id="g76"
             clip-path="url(#clipPath62)"><g
               id="g78" /><g
               id="g80"><g
                 id="g82"
                 clip-path="url(#clipPath66)"><g
                   id="g84"
                   clip-path="url(#clipPath70)"><path
                     id="path86"
                     style="fill:#0c5a91;fill-opacity:1;fill-rule:evenodd;stroke:none"
                     d="m 33.8467,78.9365 24.5894,0 0,-25.9828 -24.5894,0 0,25.9828 z" /></g></g></g></g></g></g></g><g
       id="g88"><g
         transform="matrix(1,0,0,-1,43.8467,68.9365)"
         id="g90"><path
           id="path92"
           style="fill:none;stroke:#0c5a91;stroke-width:0.3985;stroke-linecap:round;stroke-linejoin:miter;stroke-miterlimit:10;stroke-dasharray:none;stroke-opacity:1"
           d="M 0,3.86006 4.589381,0 4.178015,5.982746 0,3.86006 l 0,0 z" /></g><g
         transform="matrix(1,0,0,-1,48.6679,69.3927)"
         id="g94"><path
           id="path96"
           style="fill:none;stroke:#0c5a91;stroke-width:0.3985;stroke-linecap:round;stroke-linejoin:round;stroke-miterlimit:10;stroke-dasharray:none;stroke-opacity:1"
           d="M 0,0 142.0834,27.96549" /></g></g><g
       id="g98"><g
         clip-path="url(#clipPath102)"
         id="g100"><g
           id="g106" /><g
           id="g120"><g
             id="g122"
             clip-path="url(#clipPath108)"><g
               id="g124" /><g
               id="g126"><g
                 id="g128"
                 clip-path="url(#clipPath112)"><g
                   id="g130"
                   clip-path="url(#clipPath116)"><path
                     id="path132"
                     style="fill:#0c5a91;fill-opacity:1;fill-rule:evenodd;stroke:none"
                     d="m 175.1877,54.7279 25.8572,0 0,-24.5891 -25.8572,0 0,24.5891 z" /></g></g></g></g></g></g></g><g
       id="g134"><g
         transform="matrix(1,0,0,-1,185.1877,44.7279)"
         id="g136"><path
           id="path138"
           style="fill:none;stroke:#0c5a91;stroke-width:0.3985;stroke-linecap:round;stroke-linejoin:miter;stroke-miterlimit:10;stroke-dasharray:none;stroke-opacity:1"
           d="M 0.9032232,0 5.85722,3.358473 0,4.58908 0.9032232,0 l 0,0 z" /></g><g
         transform="matrix(1,0,0,-1,135.2037,41.2708)"
         id="g140"><path
           id="path142"
           style="fill:none;stroke:#0c5a91;stroke-width:0.3985;stroke-linecap:round;stroke-linejoin:round;stroke-miterlimit:10;stroke-dasharray:none;stroke-opacity:1"
           d="M 56.34232,0 0,0" /></g></g><g
       id="g144"><g
         clip-path="url(#clipPath148)"
         id="g146"><g
           id="g152" /><g
           id="g166"><g
             id="g168"
             clip-path="url(#clipPath154)"><g
               id="g170" /><g
               id="g172"><g
                 id="g174"
                 clip-path="url(#clipPath158)"><g
                   id="g176"
                   clip-path="url(#clipPath162)"><path
                     id="path178"
                     style="fill:#0c5a91;fill-opacity:1;fill-rule:evenodd;stroke:none"
                     d="m 124.9049,53.6064 25.5023,0 0,-24.6712 -25.5023,0 0,24.6712 z" /></g></g></g></g></g></g></g><g
       id="g180"><g
         transform="matrix(1,0,0,-1,134.9049,43.6064)"
         id="g182"><path
           id="path184"
           style="fill:none;stroke:#0c5a91;stroke-width:0.3985;stroke-linecap:round;stroke-linejoin:miter;stroke-miterlimit:10;stroke-dasharray:none;stroke-opacity:1"
           d="M 5.50234,4.6712 0,2.3356 5.50234,0 l 0,4.6712 0,0 z" /></g><g
         transform="matrix(1,0,0,-1,134.3948,124.8683)"
         id="g186"><path
           id="path188"
           style="fill:none;stroke:#0c5a91;stroke-width:0.3985;stroke-linecap:round;stroke-linejoin:round;stroke-miterlimit:10;stroke-dasharray:none;stroke-opacity:1"
           d="M 0,83.59752 28.31546,0" /></g></g><g
       id="g190"><g
         clip-path="url(#clipPath194)"
         id="g192"><g
           id="g198" /><g
           id="g212"><g
             id="g214"
             clip-path="url(#clipPath200)"><g
               id="g216" /><g
               id="g218"><g
                 id="g220"
                 clip-path="url(#clipPath204)"><g
                   id="g222"
                   clip-path="url(#clipPath208)"><path
                     id="path224"
                     style="fill:#0c5a91;fill-opacity:1;fill-rule:evenodd;stroke:none"
                     d="m 148.8186,135.1521 24.4359,0 0,-25.9764 -24.4359,0 0,25.9764 z" /></g></g></g></g></g></g></g><g
       id="g226"><g
         transform="matrix(1,0,0,-1,158.8186,125.1521)"
         id="g228"><path
           id="path230"
           style="fill:none;stroke:#0c5a91;stroke-width:0.3985;stroke-linecap:round;stroke-linejoin:miter;stroke-miterlimit:10;stroke-dasharray:none;stroke-opacity:1"
           d="M 0,4.47391 3.987705,0 4.435865,5.976354 0,4.47391 l 0,0 z" /></g><g
         transform="matrix(1,0,0,-1,77.8213,125.6365)"
         id="g232"><path
           id="path234"
           style="fill:none;stroke:#0c5a91;stroke-width:0.3985;stroke-linecap:round;stroke-linejoin:round;stroke-miterlimit:10;stroke-dasharray:none;stroke-opacity:1"
           d="M 85.14914,0 0,83.7971" /></g></g><g
       id="g236"><g
         clip-path="url(#clipPath240)"
         id="g238"><g
           id="g244" /><g
           id="g258"><g
             id="g260"
             clip-path="url(#clipPath246)"><g
               id="g262" /><g
               id="g264"><g
                 id="g266"
                 clip-path="url(#clipPath250)"><g
                   id="g268"
                   clip-path="url(#clipPath254)"><path
                     id="path270"
                     style="fill:#0c5a91;fill-opacity:1;fill-rule:evenodd;stroke:none"
                     d="m 67.6078,57.165 25.5716,0 0,-25.5357 -25.5716,0 0,25.5357 z" /></g></g></g></g></g></g></g><g
       id="g272"><g
         transform="matrix(1,0,0,-1,77.6078,47.165)"
         id="g274"><path
           id="path276"
           style="fill:none;stroke:#0c5a91;stroke-width:0.3985;stroke-linecap:round;stroke-linejoin:miter;stroke-miterlimit:10;stroke-dasharray:none;stroke-opacity:1"
           d="M 5.571575,3.336264 0,5.535727 2.288188,0 l 3.283387,3.336264 0,0 z" /></g></g><g
       id="g278"><g
         clip-path="url(#clipPath282)"
         id="g280"><g
           id="g286" /><g
           id="g300"><g
             id="g302"
             clip-path="url(#clipPath288)"><g
               id="g304" /><g
               id="g306"><g
                 id="g308"
                 clip-path="url(#clipPath292)"><g
                   id="g310"
                   clip-path="url(#clipPath296)"><path
                     id="path312"
                     style="fill:#0c5a91;fill-opacity:1;fill-rule:evenodd;stroke:none"
                     d="m 8.5978,24.6433 22.9889,0 0,-22.9888 -22.9889,0 0,22.9888 z" /></g></g></g></g></g></g></g><g
       id="g314"><g
         transform="matrix(1,0,0,-1,18.5978,14.6433)"
         id="g316"><path
           id="path318"
           style="fill:none;stroke:#000000;stroke-width:0.3985;stroke-linecap:round;stroke-linejoin:round;stroke-miterlimit:10;stroke-dasharray:none;stroke-opacity:1"
           d="M 2.98883,1.49441 C 2.98883,0.66906 2.31977,0 1.49442,0 0.66908,0 0,0.66906 0,1.49441 c 0,0.82535 0.66908,1.49442 1.49442,1.49442 0.82535,0 1.49441,-0.66907 1.49441,-1.49442 l 0,0 0,0 z" /></g></g><g
       id="g320"><g
         clip-path="url(#clipPath324)"
         id="g322"><g
           transform="matrix(1,0,0,-1,11.205,21.19836)"
           id="g328"><text
             id="text330"
             style="font-variant:normal;font-weight:normal;font-size:7.97009993px;font-family:LucidaGrande;-inkscape-font-specification:LucidaGrande;writing-mode:lr-tb;fill:#026ea2;fill-opacity:1;fill-rule:nonzero;stroke:none"
             transform="translate(0,8)"><tspan
               id="tspan332"
               y="0"
               x="0">A</tspan></text>
</g></g></g><g
       id="g334"><g
         clip-path="url(#clipPath338)"
         id="g336"><g
           id="g342" /><g
           id="g356"><g
             id="g358"
             clip-path="url(#clipPath344)"><g
               id="g360" /><g
               id="g362"><g
                 id="g364"
                 clip-path="url(#clipPath348)"><g
                   id="g366"
                   clip-path="url(#clipPath352)"><path
                     id="path368"
                     style="fill:#0c5a91;fill-opacity:1;fill-rule:evenodd;stroke:none"
                     d="m 37.1735,80.8871 22.9888,0 0,-22.9888 -22.9888,0 0,22.9888 z" /></g></g></g></g></g></g></g><g
       id="g370"><g
         transform="matrix(1,0,0,-1,47.1735,70.8871)"
         id="g372"><path
           id="path374"
           style="fill:none;stroke:#000000;stroke-width:0.3985;stroke-linecap:round;stroke-linejoin:round;stroke-miterlimit:10;stroke-dasharray:none;stroke-opacity:1"
           d="M 2.98883,1.49441 C 2.98883,0.66907 2.31976,0 1.49441,0 0.66907,0 0,0.66907 0,1.49441 c 0,0.82535 0.66907,1.49442 1.49441,1.49442 0.82535,0 1.49442,-0.66907 1.49442,-1.49442 l 0,0 0,0 z" /></g></g><g
       id="g376"><g
         clip-path="url(#clipPath380)"
         id="g378"><g
           transform="matrix(1,0,0,-1,49.278,80.31536)"
           id="g384"><text
             id="text386"
             style="font-variant:normal;font-weight:normal;font-size:7.97009993px;font-family:LucidaGrande;-inkscape-font-specification:LucidaGrande;writing-mode:lr-tb;fill:#026ea2;fill-opacity:1;fill-rule:nonzero;stroke:none"
             transform="translate(0,8)"><tspan
               id="tspan388"
               y="0"
               x="0">B</tspan></text>
</g></g></g><g
       id="g390"><g
         clip-path="url(#clipPath394)"
         id="g392"><g
           id="g398" /><g
           id="g412"><g
             id="g414"
             clip-path="url(#clipPath400)"><g
               id="g416" /><g
               id="g418"><g
                 id="g420"
                 clip-path="url(#clipPath404)"><g
                   id="g422"
                   clip-path="url(#clipPath408)"><path
                     id="path424"
                     style="fill:#0c5a91;fill-opacity:1;fill-rule:evenodd;stroke:none"
                     d="m 180.0516,52.7652 22.9888,0 0,-22.9888 -22.9888,0 0,22.9888 z" /></g></g></g></g></g></g></g><g
       id="g426"><g
         transform="matrix(1,0,0,-1,190.0516,42.7652)"
         id="g428"><path
           id="path430"
           style="fill:none;stroke:#000000;stroke-width:0.3985;stroke-linecap:round;stroke-linejoin:round;stroke-miterlimit:10;stroke-dasharray:none;stroke-opacity:1"
           d="M 2.98883,1.49441 C 2.98883,0.66906 2.31976,0 1.49442,0 0.66909,0 0,0.66906 0,1.49441 c 0,0.82535 0.66909,1.49442 1.49442,1.49442 0.82534,0 1.49441,-0.66907 1.49441,-1.49442 l 0,0 0,0 z" /></g></g><g
       id="g432"><g
         clip-path="url(#clipPath436)"
         id="g434"><g
           transform="matrix(1,0,0,-1,192.245,51.19436)"
           id="g440"><text
             id="text442"
             style="font-variant:normal;font-weight:normal;font-size:7.97009993px;font-family:LucidaGrande;-inkscape-font-specification:LucidaGrande;writing-mode:lr-tb;fill:#026ea2;fill-opacity:1;fill-rule:nonzero;stroke:none"
             transform="translate(0,8)"><tspan
               id="tspan444"
               y="0"
               x="0">C</tspan></text>
</g></g></g><g
       id="g446"><g
         clip-path="url(#clipPath450)"
         id="g448"><g
           id="g454" /><g
           id="g468"><g
             id="g470"
             clip-path="url(#clipPath456)"><g
               id="g472" /><g
               id="g474"><g
                 id="g476"
                 clip-path="url(#clipPath460)"><g
                   id="g478"
                   clip-path="url(#clipPath464)"><path
                     id="path480"
                     style="fill:#0c5a91;fill-opacity:1;fill-rule:evenodd;stroke:none"
                     d="m 122.9003,52.7652 22.9889,0 0,-22.9888 -22.9889,0 0,22.9888 z" /></g></g></g></g></g></g></g><g
       id="g482"><g
         transform="matrix(1,0,0,-1,132.9003,42.7652)"
         id="g484"><path
           id="path486"
           style="fill:none;stroke:#000000;stroke-width:0.3985;stroke-linecap:round;stroke-linejoin:round;stroke-miterlimit:10;stroke-dasharray:none;stroke-opacity:1"
           d="M 2.98883,1.49441 C 2.98883,0.66906 2.31976,0 1.49442,0 0.66908,0 0,0.66906 0,1.49441 c 0,0.82535 0.66908,1.49442 1.49442,1.49442 0.82534,0 1.49441,-0.66907 1.49441,-1.49442 l 0,0 0,0 z" /></g></g><g
       id="g488"><g
         clip-path="url(#clipPath492)"
         id="g490"><g
           transform="matrix(1,0,0,-1,134.802,39.69636)"
           id="g496"><text
             id="text498"
             style="font-variant:normal;font-weight:normal;font-size:7.97009993px;font-family:LucidaGrande;-inkscape-font-specification:LucidaGrande;writing-mode:lr-tb;fill:#026ea2;fill-opacity:1;fill-rule:nonzero;stroke:none"
             transform="translate(0,8)"><tspan
               id="tspan500"
               y="0"
               x="0">D</tspan></text>
</g></g></g><g
       id="g502"><g
         clip-path="url(#clipPath506)"
         id="g504"><g
           id="g510" /><g
           id="g524"><g
             id="g526"
             clip-path="url(#clipPath512)"><g
               id="g528" /><g
               id="g530"><g
                 id="g532"
                 clip-path="url(#clipPath516)"><g
                   id="g534"
                   clip-path="url(#clipPath520)"><path
                     id="path536"
                     style="fill:#0c5a91;fill-opacity:1;fill-rule:evenodd;stroke:none"
                     d="m 151.476,137.1309 22.9888,0 0,-22.9888 -22.9888,0 0,22.9888 z" /></g></g></g></g></g></g></g><g
       id="g538"><g
         transform="matrix(1,0,0,-1,161.476,127.1309)"
         id="g540"><path
           id="path542"
           style="fill:none;stroke:#000000;stroke-width:0.3985;stroke-linecap:round;stroke-linejoin:round;stroke-miterlimit:10;stroke-dasharray:none;stroke-opacity:1"
           d="M 2.98883,1.49442 C 2.98883,0.66909 2.31976,0 1.49441,0 0.66907,0 0,0.66909 0,1.49442 c 0,0.82535 0.66907,1.49441 1.49441,1.49441 0.82535,0 1.49442,-0.66906 1.49442,-1.49441 l 0,0 0,0 z" /></g></g><g
       id="g544"><g
         clip-path="url(#clipPath548)"
         id="g546"><g
           transform="matrix(1,0,0,-1,163.642,136.5594)"
           id="g552"><text
             id="text554"
             style="font-variant:normal;font-weight:normal;font-size:7.97009993px;font-family:LucidaGrande;-inkscape-font-specification:LucidaGrande;writing-mode:lr-tb;fill:#026ea2;fill-opacity:1;fill-rule:nonzero;stroke:none"
             transform="translate(0,8)"><tspan
               id="tspan556"
               y="0"
               x="0">E</tspan></text>
</g></g></g><g
       id="g558"><g
         clip-path="url(#clipPath562)"
         id="g560"><g
           id="g566" /><g
           id="g580"><g
             id="g582"
             clip-path="url(#clipPath568)"><g
               id="g584" /><g
               id="g586"><g
                 id="g588"
                 clip-path="url(#clipPath572)"><g
                   id="g590"
                   clip-path="url(#clipPath576)"><path
                     id="path592"
                     style="fill:#0c5a91;fill-opacity:1;fill-rule:evenodd;stroke:none"
                     d="m 65.7491,52.7652 22.9888,0 0,-22.9888 -22.9888,0 0,22.9888 z" /></g></g></g></g></g></g></g><g
       id="g594"><g
         transform="matrix(1,0,0,-1,75.7491,42.7652)"
         id="g596"><path
           id="path598"
           style="fill:none;stroke:#000000;stroke-width:0.3985;stroke-linecap:round;stroke-linejoin:round;stroke-miterlimit:10;stroke-dasharray:none;stroke-opacity:1"
           d="M 2.98883,1.49441 C 2.98883,0.66906 2.31976,0 1.49441,0 0.66908,0 0,0.66906 0,1.49441 c 0,0.82535 0.66908,1.49442 1.49441,1.49442 0.82535,0 1.49442,-0.66907 1.49442,-1.49442 l 0,0 0,0 z" /></g></g><g
       id="g600"><g
         clip-path="url(#clipPath604)"
         id="g602"><g
           transform="matrix(1,0,0,-1,73.975,57.19436)"
           id="g608"><text
             id="text610"
             style="font-variant:normal;font-weight:normal;font-size:7.97009993px;font-family:LucidaGrande;-inkscape-font-specification:LucidaGrande;writing-mode:lr-tb;fill:#026ea2;fill-opacity:1;fill-rule:nonzero;stroke:none"
             transform="translate(0,8)"><tspan
               id="tspan612"
               y="0"
               x="0">F</tspan></text>
</g></g></g><g
       id="g614"><g
         transform="matrix(1,0,0,-1,20.0923,40.9134)"
         id="g616"><path
           id="path618"
           style="fill:none;stroke:#f7ad30;stroke-width:0.3985;stroke-linecap:round;stroke-linejoin:round;stroke-miterlimit:10;stroke-dasharray:none;stroke-opacity:1"
           d="M 0,27.76446 56.42483,0" /></g></g><g
       id="g620"><g
         clip-path="url(#clipPath624)"
         id="g622"><g
           id="g628" /><g
           id="g642"><g
             id="g644"
             clip-path="url(#clipPath630)"><g
               id="g646" /><g
               id="g648"><g
                 id="g650"
                 clip-path="url(#clipPath634)"><g
                   id="g652"
                   clip-path="url(#clipPath638)"><path
                     id="path654"
                     style="fill:#f7ad30;fill-opacity:1;fill-rule:evenodd;stroke:none"
                     d="m 60.8124,51.0454 25.9731,0 0,-24.5286 -25.9731,0 0,24.5286 z" /></g></g></g></g></g></g></g><g
       id="g656"><g
         transform="matrix(1,0,0,-1,70.8124,41.0454)"
         id="g658"><path
           id="path660"
           style="fill:none;stroke:#f7ad30;stroke-width:0.3985;stroke-linecap:round;stroke-linejoin:miter;stroke-miterlimit:10;stroke-dasharray:none;stroke-opacity:1"
           d="M 0,0.3338952 5.97311,0 2.064016,4.528633 0,0.3338952 l 0,0 z" /></g></g><g
       id="g662"><g
         clip-path="url(#clipPath666)"
         id="g664"><path
           id="path670"
           style="fill:#f7ad30;fill-opacity:1;fill-rule:evenodd;stroke:none"
           d="m 50.77117,32.67557 15.08691,0 0,-12.3058 -15.08691,0 0,12.3058 z" /></g></g><g
       id="g672"><g
         clip-path="url(#clipPath676)"
         id="g674"><path
           id="path680"
           style="fill:#f7ad30;fill-opacity:1;fill-rule:evenodd;stroke:none"
           d="m 48.22345,29.65298 16.80811,0 0,-18.47185 -16.80811,0 0,18.47185 z" /></g></g></g></svg>