<?xml version="1.0" encoding="UTF-8" standalone="no"?>
<svg width="277px" height="179px" viewBox="0 0 277 179" version="1.1" xmlns="http://www.w3.org/2000/svg" xmlns:xlink="http://www.w3.org/1999/xlink" xmlns:sketch="http://www.bohemiancoding.com/sketch/ns">
    <!-- Generator: Sketch 3.1.1 (8761) - http://www.bohemiancoding.com/sketch -->
    <title>Group</title>
    <desc>Created with Sketch.</desc>
    <defs></defs>
    <g id="Page-1" stroke="none" stroke-width="1" fill="none" fill-rule="evenodd" sketch:type="MSPage">
        <g id="Group" sketch:type="MSLayerGroup">
            <path d="M3.5,37.5 L240.5,175.5" id="Line" stroke="#000000" stroke-width="2" stroke-linecap="round" stroke-linejoin="round" sketch:type="MSShapeGroup"></path>
            <path id="Line-decoration-1" d="M229.441388,172.532326 C233.236322,173.527003 236.489121,174.379583 240.284055,175.37426 C237.545822,172.564815 235.198765,170.156719 232.460533,167.347274" stroke="#000000" stroke-width="2" stroke-linecap="round" stroke-linejoin="round"></path>
            <g id="Imported-Layers" transform="translate(142.000000, 51.000000)" fill="#000000" sketch:type="MSShapeGroup">
                <path d="M16.33001,4.45761 C15.82408,4.93696 14.6525,5.94875 14.6525,6.58781 C14.6525,6.96061 14.99865,7.30676 15.37145,7.30676 C15.69095,7.30676 15.87732,7.06715 16.06375,6.82748 C16.48979,6.2949 17.31522,5.28311 18.88624,4.51092 C19.1525,4.35114 19.49865,4.19135 19.49865,3.73866 C19.49865,3.39251 19.25905,3.20615 18.99279,3.01978 C18.22053,2.4872 17.82115,1.84814 17.52823,0.99606 C17.44834,0.64991 17.31522,0.19722 16.80928,0.19722 C16.30335,0.19722 16.09033,0.64991 16.09033,0.94282 C16.09033,1.12919 16.38325,2.27418 16.94241,3.01978 L4.85357,3.01978 C4.241144,3.01978 3.602085,3.01978 3.602085,3.73866 C3.602085,4.45761 4.241144,4.45761 4.85357,4.45761 L16.33001,4.45761" id="Fill-1"></path>
                <path d="M12.65543,12.25945 C12.01638,10.92809 10.95128,9.96954 9.353596,9.96954 C5.146474,9.96954 0.6996883,15.24173 0.6996883,20.487368 C0.6996883,23.869057 2.670122,26.2389007 5.466004,26.2389007 C6.184947,26.2389007 7.969002,26.079136 10.12578,23.549528 C10.41869,25.040665 11.67023,26.2389007 13.40097,26.2389007 C14.6525,26.2389007 15.47793,25.413446 16.06375,24.268471 C16.67616,22.96372 17.12885,20.780272 17.12885,20.700388 C17.12885,20.354232 16.80928,20.354232 16.70281,20.354232 C16.35666,20.354232 16.30335,20.487368 16.19688,20.993291 C15.58447,23.336508 14.94541,25.440079 13.48086,25.440079 C12.49565,25.440079 12.38918,24.508116 12.38918,23.789173 C12.38918,22.990353 12.469,22.724075 12.86845,21.126427 C13.26784,19.635316 13.32108,19.262515 13.6673,17.904506 L14.94541,12.87192 C15.21167,11.86006 15.21167,11.80683 15.21167,11.64704 C15.21167,11.03464 14.75898,10.68849 14.14657,10.68849 C13.29449,10.68849 12.76191,11.48726 12.65543,12.25945 L12.65543,12.25945 Z M10.31222,21.552466 C10.12578,22.218151 10.12578,22.271409 9.593268,22.883843 C8.02224,24.880897 6.557728,25.440079 5.545888,25.440079 C3.73522,25.440079 3.229297,23.469643 3.229297,22.05839 C3.229297,20.274348 4.400905,15.8542 5.226358,14.20328 C6.318082,12.07308 7.942349,10.74173 9.380249,10.74173 C11.72347,10.74173 12.2294,13.69735 12.2294,13.91037 C12.2294,14.12339 12.1495,14.33641 12.12285,14.52284 L10.31222,21.552466 L10.31222,21.552466 Z" id="Fill-3"></path>
            </g>
            <path d="M6.165729,21.594911 C4.727842,23.99138 3.316589,24.497303 1.745567,24.603813 C1.319527,24.630439 1,24.630439 1,25.322756 C1,25.535776 1.159766,25.722163 1.45267,25.722163 C2.437884,25.722163 3.529608,25.615653 4.541455,25.615653 C5.739689,25.615653 6.991182,25.722163 8.136151,25.722163 C8.34917,25.722163 8.828447,25.722163 8.828447,25.029852 C8.828447,24.630439 8.508952,24.603813 8.242694,24.603813 C7.417201,24.523929 6.565142,24.257658 6.565142,23.35232 C6.565142,22.926281 6.778162,22.526867 7.071059,22.020951 L9.787068,17.414381 L18.813788,17.414381 C18.867028,18.186569 19.372958,23.059417 19.372958,23.432205 C19.372958,24.497303 17.509018,24.603813 16.790068,24.603813 C16.284138,24.603813 15.937988,24.603813 15.937988,25.322756 C15.937988,25.722163 16.364028,25.722163 16.443918,25.722163 C17.908468,25.722163 19.452848,25.615653 20.917328,25.615653 C21.822648,25.615653 24.086038,25.722163 24.991358,25.722163 C25.204378,25.722163 25.630418,25.722163 25.630418,25.003226 C25.630418,24.603813 25.257618,24.603813 24.804928,24.603813 C22.568248,24.603813 22.568248,24.364167 22.461708,23.325695 L20.278268,0.87874 C20.198378,0.15979 20.198378,0 19.585978,0 C19.026808,0 18.867028,0.26633 18.654008,0.61248 L6.165729,21.594911 L6.165729,21.594911 Z M10.479368,16.3227 L17.535668,4.44683 L18.707248,16.3227 L10.479368,16.3227 L10.479368,16.3227 Z" id="Fill-1" fill="#000000" sketch:type="MSShapeGroup"></path>
            <path d="M254.75587,170.204118 C254.38307,171.588746 254.30318,171.88165 251.48069,171.88165 C250.86821,171.88165 250.49548,171.88165 250.49548,172.600593 C250.49548,173 250.81497,173 251.48069,173 L264.28845,173 C269.96009,173 274.22049,168.766239 274.22049,165.251386 C274.22049,162.641917 272.11694,160.564957 268.65539,160.165567 C272.3832,159.499857 276.13766,156.837147 276.13766,153.428827 C276.13766,150.766047 273.76786,148.476137 269.45423,148.476137 L257.39193,148.476137 C256.72629,148.476137 256.35349,148.476137 256.35349,149.195017 C256.35349,149.594477 256.67305,149.594477 257.36535,149.594477 C257.44524,149.594477 258.11088,149.594477 258.72336,149.647707 C259.389,149.727607 259.70856,149.754257 259.70856,150.233537 C259.70856,150.366657 259.65532,150.473137 259.54878,150.899177 L254.75587,170.204118 L254.75587,170.204118 Z M260.16119,159.846007 L262.39793,150.952487 C262.71742,149.700947 262.79731,149.594477 264.34176,149.594477 L268.97489,149.594477 C272.11694,149.594477 272.88913,151.698017 272.88913,153.269047 C272.88913,156.437687 269.80038,159.846007 265.40686,159.846007 L260.16119,159.846007 L260.16119,159.846007 Z M258.53692,171.88165 C258.05764,171.88165 257.97775,171.88165 257.76473,171.855024 C257.39193,171.801766 257.28546,171.77514 257.28546,171.482236 C257.28546,171.375726 257.28546,171.322475 257.47182,170.656783 L259.94817,160.644847 L266.73821,160.644847 C270.17311,160.644847 270.86548,163.307627 270.86548,164.852 C270.86548,168.393451 267.67018,171.88165 263.43637,171.88165 L258.53692,171.88165 L258.53692,171.88165 Z" id="Fill-3" fill="#000000" sketch:type="MSShapeGroup"></path>
            <circle id="Oval-1" fill="#000000" sketch:type="MSShapeGroup" cx="2.5" cy="36.5" r="2.5"></circle>
            <circle id="Oval-2" fill="#000000" sketch:type="MSShapeGroup" cx="242.5" cy="176.5" r="2.5"></circle>
        </g>
    </g>
</svg>