<?xml version="1.0" encoding="UTF-8" standalone="no"?>
<svg width="290px" height="226px" viewBox="0 0 290 226" version="1.1" xmlns="http://www.w3.org/2000/svg" xmlns:xlink="http://www.w3.org/1999/xlink" xmlns:sketch="http://www.bohemiancoding.com/sketch/ns">
    <!-- Generator: Sketch 3.1.1 (8761) - http://www.bohemiancoding.com/sketch -->
    <title>Group</title>
    <desc>Created with Sketch.</desc>
    <defs>
        <path id="path-1" d="M-0.143313,31.028 L27.856687,31.028 L27.856687,0.02181 L-0.143313,0.02181"></path>
        <path id="path-3" d="M-0.143313,31.028 L28.854017,31.028 L28.854017,0.02181 L-0.143313,0.02181"></path>
    </defs>
    <g id="Page-1" stroke="none" stroke-width="1" fill="none" fill-rule="evenodd" sketch:type="MSPage">
        <g id="Group" sketch:type="MSLayerGroup" transform="translate(0.000000, 1.000000)">
            <g id="Group-3" transform="translate(24.000000, 12.000000)" stroke="#000000" stroke-linecap="square">
                <path d="M13.5,0.5 L13.5,195.5" id="Line" sketch:type="MSShapeGroup"></path>
                <path id="Line-decoration-1" d="M10.5,12.1 C11.55,8.32 12.45,5.08 13.5,1.3 C14.55,5.08 15.45,8.32 16.5,12.1"></path>
                <path d="M0.5,176.5 L235.5,176.5" id="Line" sketch:type="MSShapeGroup"></path>
                <path id="Line-decoration-1" d="M224.7,179.5 C228.48,178.45 231.72,177.55 235.5,176.5 C231.72,175.45 228.48,174.55 224.7,173.5"></path>
            </g>
            <path d="M31.122869,3.81207615 L31.628799,3.33273615 C32.693889,2.24104615 33.892119,1.01616615 36.341809,0.85638615 C36.714619,0.80314615 37.060759,0.80314615 37.060759,0.16409615 C37.060759,-0.12881385 36.874399,-0.26194385 36.581489,-0.26194385 C35.649519,-0.26194385 34.611069,-0.15547385 33.625859,-0.15547385 C32.454219,-0.15547385 31.202759,-0.26194385 30.057769,-0.26194385 C29.818089,-0.26194385 29.365469,-0.26194385 29.365469,0.40376615 C29.365469,0.80314615 29.711619,0.85638615 29.897989,0.85638615 C30.164239,0.85638615 31.202759,0.90962615 31.202759,1.68188615 C31.202759,2.29428615 30.377259,3.22625615 30.217549,3.38603615 L21.883129,12.9719261 L17.942297,2.32094615 C17.729277,1.81501615 17.729277,1.73511615 17.729277,1.70846615 C17.729277,0.85638615 19.486673,0.85638615 19.832819,0.85638615 C20.338749,0.85638615 20.711549,0.85638615 20.711549,0.13743615 C20.711549,-0.26194385 20.285509,-0.26194385 20.178969,-0.26194385 C19.167109,-0.26194385 16.637519,-0.15547385 15.652305,-0.15547385 C14.746968,-0.15547385 12.510261,-0.26194385 11.631556,-0.26194385 C11.391911,-0.26194385 10.939241,-0.26194385 10.939241,0.45700615 C10.939241,0.85638615 11.285401,0.85638615 11.764692,0.85638615 C13.921515,0.85638615 14.054657,1.17595615 14.374187,2.05461615 L18.794376,13.8772461 C18.847614,13.9837161 18.954089,14.3831761 18.954089,14.4896461 C18.954089,14.5961961 17.516258,20.3743361 17.329823,21.0400211 C16.877164,23.0104501 16.823913,23.1169601 13.948147,23.1435921 C13.282456,23.1435921 12.989559,23.1435921 12.989559,23.8625291 C12.989559,24.2619438 13.415598,24.2619438 13.495475,24.2619438 C14.507322,24.2619438 17.0103,24.155434 18.02212,24.155434 C19.007395,24.155434 21.616869,24.2619438 22.602079,24.2619438 C22.868339,24.2619438 23.294379,24.2619438 23.294379,23.5429991 C23.294379,23.1435921 22.974879,23.1435921 22.282509,23.1435921 C22.229279,23.1435921 21.536979,23.1435921 20.924569,23.0637081 C20.178969,23.0104501 19.965949,22.9305731 19.965949,22.5045331 C19.965949,22.2382551 20.285509,20.9867631 20.445229,20.2411941 L21.723349,15.1819461 C21.883129,14.4896461 21.936369,14.3831761 22.202689,14.0636061 L31.122869,3.81207615" id="Fill-6" fill="#000000" sketch:type="MSShapeGroup"></path>
            <path d="M276.4291,193.248362 L273.42024,186.085582 C273.31369,185.792672 273.2338,185.659542 273.2338,185.632962 C273.2338,185.419942 273.84628,184.727572 275.364,184.594442 C275.71015,184.541202 276.08295,184.514552 276.08295,183.902152 C276.08295,183.476112 275.65691,183.476112 275.55043,183.476112 C274.0593,183.476112 272.51485,183.582582 271.02371,183.582582 C270.1184,183.582582 267.88172,183.476112 267.00299,183.476112 C266.78997,183.476112 266.33728,183.476112 266.33728,184.195062 C266.33728,184.594442 266.71008,184.594442 267.18936,184.594442 C269.31956,184.594442 269.55923,184.940592 269.87872,185.739432 L274.11253,195.751362 L266.52372,203.899373 L266.07102,204.29878 C264.31363,206.189331 262.60947,206.775139 260.77218,206.881648 C260.31949,206.908274 260,206.908274 260,207.600585 C260,207.627217 260,208 260.45262,208 C261.54437,208 262.71595,207.89349 263.83435,207.89349 C265.16571,207.89349 266.57695,208 267.85507,208 C268.06809,208 268.49413,208 268.49413,207.281055 C268.49413,206.908274 268.14798,206.881648 268.06809,206.881648 C267.74853,206.855016 266.63019,206.775139 266.63019,205.763292 C266.63019,205.204117 267.18936,204.618309 267.6154,204.165644 L271.26339,200.278011 L274.51192,196.763222 L278.13325,205.337252 C278.26638,205.736666 278.31969,205.763292 278.31969,205.843176 C278.31969,206.13608 277.62732,206.748506 276.21608,206.881648 C275.84328,206.908274 275.49713,206.961526 275.49713,207.573959 C275.49713,208 275.89658,208 276.0563,208 C277.04157,208 279.57115,207.89349 280.58302,207.89349 C281.46168,207.89349 283.67177,208 284.5505,208 C284.81676,208 285.2428,208 285.2428,207.307688 C285.2428,206.881648 284.89665,206.881648 284.60374,206.881648 C282.18063,206.855016 282.12739,206.748506 281.51498,205.310627 C280.10367,201.955563 277.70722,196.363762 276.88179,194.206982 C279.3049,191.703982 283.08595,187.416942 284.23093,186.405142 C285.26945,185.553072 286.65404,184.700992 288.81089,184.567862 C289.26352,184.541202 289.58308,184.541202 289.58308,183.848912 C289.58308,183.822262 289.58308,183.476112 289.13039,183.476112 C288.0387,183.476112 286.86706,183.582582 285.74873,183.582582 C284.41737,183.582582 283.05936,183.476112 281.75459,183.476112 C281.54157,183.476112 281.08895,183.476112 281.08895,184.195062 C281.08895,184.434662 281.24866,184.541202 281.51498,184.567862 C281.83448,184.621102 282.95282,184.700992 282.95282,185.686192 C282.95282,186.192122 282.55343,186.671402 282.26052,186.990902 L276.45575,193.221772" id="Fill-7" fill="#000000" sketch:type="MSShapeGroup"></path>
            <path d="M37.5,128.5 L37.5,186.5" id="Line" stroke="#000000" stroke-width="3" stroke-linecap="round" stroke-linejoin="round" sketch:type="MSShapeGroup"></path>
            <path id="Line-decoration-1" d="M34.5,140.1 C35.55,136.32 36.45,133.08 37.5,129.3 C38.55,133.08 39.45,136.32 40.5,140.1" stroke="#000000" stroke-width="3" stroke-linecap="round" stroke-linejoin="round"></path>
            <path d="M35.5,124.5 L39.5,124.5" id="Line" stroke="#000000" stroke-linecap="square" sketch:type="MSShapeGroup"></path>
            <path d="M96.5,188.5 L38.5,188.5" id="Line-2" stroke="#000000" stroke-width="3" stroke-linecap="square" sketch:type="MSShapeGroup"></path>
            <path id="Line-2-decoration-1" d="M84.9,185.5 C88.68,186.55 91.92,187.45 95.7,188.5 C91.92,189.55 88.68,190.45 84.9,191.5" stroke="#000000" stroke-width="3" stroke-linecap="square"></path>
            <path d="M99.5,186.5 L99.5,190.5" id="Line" stroke="#000000" stroke-linecap="square" sketch:type="MSShapeGroup"></path>
            <path d="M27.0621721,120.372788 C27.0621721,120.021324 27.0621721,120 26.7182192,120 C25.797355,120.915992 24.4770762,120.915992 24,120.915992 L24,121.363328 C24.2995596,121.363328 25.1760475,121.363328 25.9637746,120.99054 L25.9637746,128.424938 C25.9637746,128.946839 25.9083013,129.117254 24.5658342,129.117254 L24.0887582,129.117254 L24.0887582,129.564595 C24.6102133,129.521991 25.9083013,129.521991 26.5074208,129.521991 C27.1065371,129.521991 28.4157267,129.521991 28.9371725,129.564595 L28.9371725,129.117254 L28.4600933,129.117254 C27.1065371,129.117254 27.0621721,128.957489 27.0621721,128.424938 L27.0621721,120.372788" id="Imported-Layers" fill="#000000" sketch:type="MSShapeGroup"></path>
            <path d="M101.062172,193.372788 C101.062172,193.021324 101.062172,193 100.718219,193 C99.797355,193.915992 98.4770762,193.915992 98,193.915992 L98,194.363328 C98.2995596,194.363328 99.1760475,194.363328 99.9637746,193.99054 L99.9637746,201.424938 C99.9637746,201.946839 99.9083012,202.117254 98.5658342,202.117254 L98.0887582,202.117254 L98.0887582,202.564595 C98.6102133,202.521991 99.9083012,202.521991 100.507421,202.521991 C101.106537,202.521991 102.415727,202.521991 102.937173,202.564595 L102.937173,202.117254 L102.460093,202.117254 C101.106537,202.117254 101.062172,201.957489 101.062172,201.424938 L101.062172,193.372788" id="Imported-Layers-2" fill="#000000" sketch:type="MSShapeGroup"></path>
            <g id="Imported-Layers" transform="translate(50.000000, 193.000000)">
                <mask id="mask-2" sketch:name="Clip 2" fill="white">
                    <use xlink:href="#path-1"></use>
                </mask>
                <g id="Clip-2"></g>
                <path d="M16.9515,4.25555 C16.44557,4.73483 15.24734,5.72003 15.24734,6.38575 C15.24734,6.7319 15.62014,7.1047 15.96629,7.1047 C16.28586,7.1047 16.47222,6.83844 16.65859,6.62542 C17.08463,6.09284 17.91012,5.08098 19.48115,4.30879 C19.74741,4.14907 20.09356,3.96264 20.09356,3.5366 C20.09356,3.19045 19.85388,3.00408 19.61428,2.81765 C18.81544,2.28513 18.41605,1.64608 18.12314,0.76734 C18.0699,0.44785 17.91012,-0.00484 17.40419,-0.00484 C16.89826,-0.00484 16.68524,0.44785 16.68524,0.74076 C16.68524,0.92713 16.97815,2.07211 17.56397,2.81765 L5.448457,2.81765 C4.836024,2.81765 4.196965,2.81765 4.196965,3.5366 C4.196965,4.25555 4.836024,4.25555 5.448457,4.25555 L16.9515,4.25555" id="Fill-1" fill="#000000" sketch:type="MSShapeGroup" mask="url(#mask-2)"></path>
                <path d="M5.767987,17.32964 C6.806446,17.32964 9.46923,17.24975 11.27986,16.50422 C13.78286,15.43912 13.96922,13.30892 13.96922,12.80299 C13.96922,11.23196 12.58463,9.74082 10.10829,9.74082 C6.140768,9.74082 0.708766,13.22903 0.708766,19.51308 C0.708766,23.187649 2.838963,26.01019 6.353787,26.01019 C11.49288,26.01019 14.50181,22.202441 14.50181,21.7764 C14.50181,21.56338 14.28879,21.32378 14.07577,21.32378 C13.88933,21.32378 13.80951,21.37702 13.59649,21.66993 C10.77393,25.237996 6.859684,25.237996 6.407046,25.237996 C3.611157,25.237996 3.291628,22.202441 3.291628,21.05745 C3.291628,20.63141 3.31826,19.51308 3.877435,17.32964 L5.767987,17.32964 L5.767987,17.32964 Z M4.090455,16.5308 C5.475083,11.07218 9.17632,10.53966 10.10829,10.53966 C11.81244,10.53966 12.771,11.57811 12.771,12.80299 C12.771,16.5308 7.019465,16.5308 5.554967,16.5308 L4.090455,16.5308 L4.090455,16.5308 Z" id="Fill-3" fill="#000000" sketch:type="MSShapeGroup" mask="url(#mask-2)"></path>
                <path d="M22.4449367,19.8769181 C22.4449367,19.3926142 22.4262935,19.37402 21.9233954,19.37402 C20.8057189,20.4916405 19.2037526,20.5102907 18.49594,20.5102907 L18.49594,21.1436074 C18.905713,21.1436074 20.0606269,21.1436074 21.0292766,20.6406603 L21.0292766,29.5818412 C21.0292766,30.1592933 21.0292766,30.4014494 19.2782834,30.4014494 L18.6076734,30.4014494 L18.6076734,31.0161537 C18.9243562,31.0161537 21.0851153,30.9602751 21.7370821,30.9602751 C22.2772737,30.9602751 24.4939694,31.0161537 24.8664909,31.0161537 L24.8664909,30.4014494 L24.2145241,30.4014494 C22.4449367,30.4014494 22.4449367,30.1592933 22.4449367,29.5818412 L22.4449367,19.8769181" id="Fill-4" fill="#000000" sketch:type="MSShapeGroup" mask="url(#mask-2)"></path>
            </g>
            <g id="Imported-Layers" transform="translate(0.000000, 141.000000)">
                <mask id="mask-4" sketch:name="Clip 2" fill="white">
                    <use xlink:href="#path-3"></use>
                </mask>
                <g id="Clip-2"></g>
                <path d="M16.9515,4.25555 C16.44557,4.73483 15.24734,5.72003 15.24734,6.38575 C15.24734,6.7319 15.62014,7.1047 15.96629,7.1047 C16.28586,7.1047 16.47222,6.83844 16.65859,6.62542 C17.08463,6.09284 17.91012,5.08098 19.48115,4.30879 C19.74741,4.14907 20.09356,3.96264 20.09356,3.5366 C20.09356,3.19045 19.85388,3.00408 19.61428,2.81765 C18.81544,2.28513 18.41605,1.64608 18.12314,0.76734 C18.0699,0.44785 17.91012,-0.00484 17.40419,-0.00484 C16.89826,-0.00484 16.68524,0.44785 16.68524,0.74076 C16.68524,0.92713 16.97815,2.07211 17.56397,2.81765 L5.448457,2.81765 C4.836024,2.81765 4.196965,2.81765 4.196965,3.5366 C4.196965,4.25555 4.836024,4.25555 5.448457,4.25555 L16.9515,4.25555" id="Fill-1" fill="#000000" sketch:type="MSShapeGroup" mask="url(#mask-4)"></path>
                <path d="M5.767987,17.32964 C6.806446,17.32964 9.46923,17.24975 11.27986,16.50422 C13.78286,15.43912 13.96922,13.30892 13.96922,12.80299 C13.96922,11.23196 12.58463,9.74082 10.10829,9.74082 C6.140768,9.74082 0.708766,13.22903 0.708766,19.51308 C0.708766,23.187649 2.838963,26.01019 6.353787,26.01019 C11.49288,26.01019 14.50181,22.202441 14.50181,21.7764 C14.50181,21.56338 14.28879,21.32378 14.07577,21.32378 C13.88933,21.32378 13.80951,21.37702 13.59649,21.66993 C10.77393,25.237996 6.859684,25.237996 6.407046,25.237996 C3.611157,25.237996 3.291628,22.202441 3.291628,21.05745 C3.291628,20.63141 3.31826,19.51308 3.877435,17.32964 L5.767987,17.32964 L5.767987,17.32964 Z M4.090455,16.5308 C5.475083,11.07218 9.17632,10.53966 10.10829,10.53966 C11.81244,10.53966 12.771,11.57811 12.771,12.80299 C12.771,16.5308 7.019465,16.5308 5.554967,16.5308 L4.090455,16.5308 L4.090455,16.5308 Z" id="Fill-3" fill="#000000" sketch:type="MSShapeGroup" mask="url(#mask-4)"></path>
                <path d="M24.4247628,27.1044637 L23.8628419,27.1044637 C23.8287966,27.462039 23.6585315,28.3985495 23.4541827,28.5688222 C23.3179629,28.653958 22.0919851,28.653958 21.8706328,28.653958 L18.9248917,28.653958 C20.5935678,27.1725736 21.155495,26.7298581 22.1260304,25.9636025 C23.3179629,25.0271092 24.4247628,24.0224824 24.4247628,22.507068 C24.4247628,20.5659077 22.7219967,19.37402 20.6617032,19.37402 C18.6694557,19.37402 17.3243,20.7702565 17.3243,22.251632 C17.3243,23.0689505 18.0224406,23.1540767 18.1756639,23.1540767 C18.5673197,23.1540767 19.0270661,22.8816372 19.0270661,22.3027192 C19.0270661,22.0132378 18.9248917,21.4513553 18.0905313,21.4513553 C18.5843232,20.31051 19.6740748,19.9529444 20.4233091,19.9529444 C22.0238944,19.9529444 22.8582164,21.2129611 22.8582164,22.507068 C22.8582164,23.9033109 21.8706328,25.0100654 21.3597991,25.5890314 L17.4945651,29.4031654 C17.3243,29.5393851 17.3243,29.573442 17.3243,30.0161537 L23.930971,30.0161537 L24.407721,27.1044637" id="Fill-4" fill="#000000" sketch:type="MSShapeGroup" mask="url(#mask-4)"></path>
            </g>
        </g>
    </g>
</svg>