<?xml version="1.0" encoding="UTF-8" standalone="no"?>
<svg width="290px" height="226px" viewBox="0 0 290 226" version="1.1" xmlns="http://www.w3.org/2000/svg" xmlns:xlink="http://www.w3.org/1999/xlink" xmlns:sketch="http://www.bohemiancoding.com/sketch/ns">
    <!-- Generator: Sketch 3.1.1 (8761) - http://www.bohemiancoding.com/sketch -->
    <title>Group</title>
    <desc>Created with Sketch.</desc>
    <defs>
        <path id="path-1" d="M-0.143313,31.028 L27.856687,31.028 L27.856687,0.02181 L-0.143313,0.02181"></path>
        <path id="path-3" d="M-0.143313,31.028 L28.854017,31.028 L28.854017,0.02181 L-0.143313,0.02181"></path>
        <path id="path-5" d="M-0.359444742,23.271 L22.6364004,23.271 L22.6364004,0.0163575 L-0.359444742,0.0163575"></path>
        <path id="path-7" d="M-0.371426233,23.271 L22.6285738,23.271 L22.6285738,0.0163575 L-0.371426233,0.0163575"></path>
    </defs>
    <g id="Page-1" stroke="none" stroke-width="1" fill="none" fill-rule="evenodd" sketch:type="MSPage">
        <g id="Group" sketch:type="MSLayerGroup" transform="translate(0.000000, 1.000000)">
            <g>
                <g id="Group-3" transform="translate(24.000000, 12.000000)" stroke="#000000" stroke-linecap="square">
                    <path d="M13.5,0.5 L13.5,195.5" id="Line" sketch:type="MSShapeGroup"></path>
                    <path id="Line-decoration-1" d="M10.5,12.1 C11.55,8.32 12.45,5.08 13.5,1.3 C14.55,5.08 15.45,8.32 16.5,12.1"></path>
                    <path d="M0.5,176.5 L235.5,176.5" id="Line" sketch:type="MSShapeGroup"></path>
                    <path id="Line-decoration-1" d="M224.7,179.5 C228.48,178.45 231.72,177.55 235.5,176.5 C231.72,175.45 228.48,174.55 224.7,173.5"></path>
                </g>
                <path d="M31.122869,3.81207615 L31.628799,3.33273615 C32.693889,2.24104615 33.892119,1.01616615 36.341809,0.85638615 C36.714619,0.80314615 37.060759,0.80314615 37.060759,0.16409615 C37.060759,-0.12881385 36.874399,-0.26194385 36.581489,-0.26194385 C35.649519,-0.26194385 34.611069,-0.15547385 33.625859,-0.15547385 C32.454219,-0.15547385 31.202759,-0.26194385 30.057769,-0.26194385 C29.818089,-0.26194385 29.365469,-0.26194385 29.365469,0.40376615 C29.365469,0.80314615 29.711619,0.85638615 29.897989,0.85638615 C30.164239,0.85638615 31.202759,0.90962615 31.202759,1.68188615 C31.202759,2.29428615 30.377259,3.22625615 30.217549,3.38603615 L21.883129,12.9719261 L17.942297,2.32094615 C17.729277,1.81501615 17.729277,1.73511615 17.729277,1.70846615 C17.729277,0.85638615 19.486673,0.85638615 19.832819,0.85638615 C20.338749,0.85638615 20.711549,0.85638615 20.711549,0.13743615 C20.711549,-0.26194385 20.285509,-0.26194385 20.178969,-0.26194385 C19.167109,-0.26194385 16.637519,-0.15547385 15.652305,-0.15547385 C14.746968,-0.15547385 12.510261,-0.26194385 11.631556,-0.26194385 C11.391911,-0.26194385 10.939241,-0.26194385 10.939241,0.45700615 C10.939241,0.85638615 11.285401,0.85638615 11.764692,0.85638615 C13.921515,0.85638615 14.054657,1.17595615 14.374187,2.05461615 L18.794376,13.8772461 C18.847614,13.9837161 18.954089,14.3831761 18.954089,14.4896461 C18.954089,14.5961961 17.516258,20.3743361 17.329823,21.0400211 C16.877164,23.0104501 16.823913,23.1169601 13.948147,23.1435921 C13.282456,23.1435921 12.989559,23.1435921 12.989559,23.8625291 C12.989559,24.2619438 13.415598,24.2619438 13.495475,24.2619438 C14.507322,24.2619438 17.0103,24.155434 18.02212,24.155434 C19.007395,24.155434 21.616869,24.2619438 22.602079,24.2619438 C22.868339,24.2619438 23.294379,24.2619438 23.294379,23.5429991 C23.294379,23.1435921 22.974879,23.1435921 22.282509,23.1435921 C22.229279,23.1435921 21.536979,23.1435921 20.924569,23.0637081 C20.178969,23.0104501 19.965949,22.9305731 19.965949,22.5045331 C19.965949,22.2382551 20.285509,20.9867631 20.445229,20.2411941 L21.723349,15.1819461 C21.883129,14.4896461 21.936369,14.3831761 22.202689,14.0636061 L31.122869,3.81207615" id="Fill-6" fill="#000000" sketch:type="MSShapeGroup"></path>
                <path d="M276.4291,193.248362 L273.42024,186.085582 C273.31369,185.792672 273.2338,185.659542 273.2338,185.632962 C273.2338,185.419942 273.84628,184.727572 275.364,184.594442 C275.71015,184.541202 276.08295,184.514552 276.08295,183.902152 C276.08295,183.476112 275.65691,183.476112 275.55043,183.476112 C274.0593,183.476112 272.51485,183.582582 271.02371,183.582582 C270.1184,183.582582 267.88172,183.476112 267.00299,183.476112 C266.78997,183.476112 266.33728,183.476112 266.33728,184.195062 C266.33728,184.594442 266.71008,184.594442 267.18936,184.594442 C269.31956,184.594442 269.55923,184.940592 269.87872,185.739432 L274.11253,195.751362 L266.52372,203.899373 L266.07102,204.29878 C264.31363,206.189331 262.60947,206.775139 260.77218,206.881648 C260.31949,206.908274 260,206.908274 260,207.600585 C260,207.627217 260,208 260.45262,208 C261.54437,208 262.71595,207.89349 263.83435,207.89349 C265.16571,207.89349 266.57695,208 267.85507,208 C268.06809,208 268.49413,208 268.49413,207.281055 C268.49413,206.908274 268.14798,206.881648 268.06809,206.881648 C267.74853,206.855016 266.63019,206.775139 266.63019,205.763292 C266.63019,205.204117 267.18936,204.618309 267.6154,204.165644 L271.26339,200.278011 L274.51192,196.763222 L278.13325,205.337252 C278.26638,205.736666 278.31969,205.763292 278.31969,205.843176 C278.31969,206.13608 277.62732,206.748506 276.21608,206.881648 C275.84328,206.908274 275.49713,206.961526 275.49713,207.573959 C275.49713,208 275.89658,208 276.0563,208 C277.04157,208 279.57115,207.89349 280.58302,207.89349 C281.46168,207.89349 283.67177,208 284.5505,208 C284.81676,208 285.2428,208 285.2428,207.307688 C285.2428,206.881648 284.89665,206.881648 284.60374,206.881648 C282.18063,206.855016 282.12739,206.748506 281.51498,205.310627 C280.10367,201.955563 277.70722,196.363762 276.88179,194.206982 C279.3049,191.703982 283.08595,187.416942 284.23093,186.405142 C285.26945,185.553072 286.65404,184.700992 288.81089,184.567862 C289.26352,184.541202 289.58308,184.541202 289.58308,183.848912 C289.58308,183.822262 289.58308,183.476112 289.13039,183.476112 C288.0387,183.476112 286.86706,183.582582 285.74873,183.582582 C284.41737,183.582582 283.05936,183.476112 281.75459,183.476112 C281.54157,183.476112 281.08895,183.476112 281.08895,184.195062 C281.08895,184.434662 281.24866,184.541202 281.51498,184.567862 C281.83448,184.621102 282.95282,184.700992 282.95282,185.686192 C282.95282,186.192122 282.55343,186.671402 282.26052,186.990902 L276.45575,193.221772" id="Fill-7" fill="#000000" sketch:type="MSShapeGroup"></path>
                <path d="M35.5,124.5 L39.5,124.5" id="Line" stroke="#000000" stroke-linecap="square" sketch:type="MSShapeGroup"></path>
                <path d="M99.5,186.5 L99.5,190.5" id="Line" stroke="#000000" stroke-linecap="square" sketch:type="MSShapeGroup"></path>
                <path d="M27.0621721,120.372788 C27.0621721,120.021324 27.0621721,120 26.7182192,120 C25.797355,120.915992 24.4770762,120.915992 24,120.915992 L24,121.363328 C24.2995596,121.363328 25.1760475,121.363328 25.9637746,120.99054 L25.9637746,128.424938 C25.9637746,128.946839 25.9083013,129.117254 24.5658342,129.117254 L24.0887582,129.117254 L24.0887582,129.564595 C24.6102133,129.521991 25.9083013,129.521991 26.5074208,129.521991 C27.1065371,129.521991 28.4157267,129.521991 28.9371725,129.564595 L28.9371725,129.117254 L28.4600933,129.117254 C27.1065371,129.117254 27.0621721,128.957489 27.0621721,128.424938 L27.0621721,120.372788" id="Imported-Layers" fill="#000000" sketch:type="MSShapeGroup"></path>
                <path d="M101.062172,193.372788 C101.062172,193.021324 101.062172,193 100.718219,193 C99.797355,193.915992 98.4770762,193.915992 98,193.915992 L98,194.363328 C98.2995596,194.363328 99.1760475,194.363328 99.9637746,193.99054 L99.9637746,201.424938 C99.9637746,201.946839 99.9083012,202.117254 98.5658342,202.117254 L98.0887582,202.117254 L98.0887582,202.564595 C98.6102133,202.521991 99.9083012,202.521991 100.507421,202.521991 C101.106537,202.521991 102.415727,202.521991 102.937173,202.564595 L102.937173,202.117254 L102.460093,202.117254 C101.106537,202.117254 101.062172,201.957489 101.062172,201.424938 L101.062172,193.372788" id="Imported-Layers-2" fill="#000000" sketch:type="MSShapeGroup"></path>
                <g id="Imported-Layers" transform="translate(50.000000, 193.000000)">
                    <mask id="mask-2" sketch:name="Clip 2" fill="white">
                        <use xlink:href="#path-1"></use>
                    </mask>
                    <g id="Clip-2"></g>
                    <path d="M16.9515,4.25555 C16.44557,4.73483 15.24734,5.72003 15.24734,6.38575 C15.24734,6.7319 15.62014,7.1047 15.96629,7.1047 C16.28586,7.1047 16.47222,6.83844 16.65859,6.62542 C17.08463,6.09284 17.91012,5.08098 19.48115,4.30879 C19.74741,4.14907 20.09356,3.96264 20.09356,3.5366 C20.09356,3.19045 19.85388,3.00408 19.61428,2.81765 C18.81544,2.28513 18.41605,1.64608 18.12314,0.76734 C18.0699,0.44785 17.91012,-0.00484 17.40419,-0.00484 C16.89826,-0.00484 16.68524,0.44785 16.68524,0.74076 C16.68524,0.92713 16.97815,2.07211 17.56397,2.81765 L5.448457,2.81765 C4.836024,2.81765 4.196965,2.81765 4.196965,3.5366 C4.196965,4.25555 4.836024,4.25555 5.448457,4.25555 L16.9515,4.25555" id="Fill-1" fill="#000000" sketch:type="MSShapeGroup" mask="url(#mask-2)"></path>
                    <path d="M5.767987,17.32964 C6.806446,17.32964 9.46923,17.24975 11.27986,16.50422 C13.78286,15.43912 13.96922,13.30892 13.96922,12.80299 C13.96922,11.23196 12.58463,9.74082 10.10829,9.74082 C6.140768,9.74082 0.708766,13.22903 0.708766,19.51308 C0.708766,23.187649 2.838963,26.01019 6.353787,26.01019 C11.49288,26.01019 14.50181,22.202441 14.50181,21.7764 C14.50181,21.56338 14.28879,21.32378 14.07577,21.32378 C13.88933,21.32378 13.80951,21.37702 13.59649,21.66993 C10.77393,25.237996 6.859684,25.237996 6.407046,25.237996 C3.611157,25.237996 3.291628,22.202441 3.291628,21.05745 C3.291628,20.63141 3.31826,19.51308 3.877435,17.32964 L5.767987,17.32964 L5.767987,17.32964 Z M4.090455,16.5308 C5.475083,11.07218 9.17632,10.53966 10.10829,10.53966 C11.81244,10.53966 12.771,11.57811 12.771,12.80299 C12.771,16.5308 7.019465,16.5308 5.554967,16.5308 L4.090455,16.5308 L4.090455,16.5308 Z" id="Fill-3" fill="#000000" sketch:type="MSShapeGroup" mask="url(#mask-2)"></path>
                    <path d="M22.4449367,19.8769181 C22.4449367,19.3926142 22.4262935,19.37402 21.9233954,19.37402 C20.8057189,20.4916405 19.2037526,20.5102907 18.49594,20.5102907 L18.49594,21.1436074 C18.905713,21.1436074 20.0606269,21.1436074 21.0292766,20.6406603 L21.0292766,29.5818412 C21.0292766,30.1592933 21.0292766,30.4014494 19.2782834,30.4014494 L18.6076734,30.4014494 L18.6076734,31.0161537 C18.9243562,31.0161537 21.0851153,30.9602751 21.7370821,30.9602751 C22.2772737,30.9602751 24.4939694,31.0161537 24.8664909,31.0161537 L24.8664909,30.4014494 L24.2145241,30.4014494 C22.4449367,30.4014494 22.4449367,30.1592933 22.4449367,29.5818412 L22.4449367,19.8769181" id="Fill-4" fill="#000000" sketch:type="MSShapeGroup" mask="url(#mask-2)"></path>
                </g>
                <g id="Imported-Layers" transform="translate(0.000000, 141.000000)">
                    <mask id="mask-4" sketch:name="Clip 2" fill="white">
                        <use xlink:href="#path-3"></use>
                    </mask>
                    <g id="Clip-2"></g>
                    <path d="M16.9515,4.25555 C16.44557,4.73483 15.24734,5.72003 15.24734,6.38575 C15.24734,6.7319 15.62014,7.1047 15.96629,7.1047 C16.28586,7.1047 16.47222,6.83844 16.65859,6.62542 C17.08463,6.09284 17.91012,5.08098 19.48115,4.30879 C19.74741,4.14907 20.09356,3.96264 20.09356,3.5366 C20.09356,3.19045 19.85388,3.00408 19.61428,2.81765 C18.81544,2.28513 18.41605,1.64608 18.12314,0.76734 C18.0699,0.44785 17.91012,-0.00484 17.40419,-0.00484 C16.89826,-0.00484 16.68524,0.44785 16.68524,0.74076 C16.68524,0.92713 16.97815,2.07211 17.56397,2.81765 L5.448457,2.81765 C4.836024,2.81765 4.196965,2.81765 4.196965,3.5366 C4.196965,4.25555 4.836024,4.25555 5.448457,4.25555 L16.9515,4.25555" id="Fill-1" fill="#000000" sketch:type="MSShapeGroup" mask="url(#mask-4)"></path>
                    <path d="M5.767987,17.32964 C6.806446,17.32964 9.46923,17.24975 11.27986,16.50422 C13.78286,15.43912 13.96922,13.30892 13.96922,12.80299 C13.96922,11.23196 12.58463,9.74082 10.10829,9.74082 C6.140768,9.74082 0.708766,13.22903 0.708766,19.51308 C0.708766,23.187649 2.838963,26.01019 6.353787,26.01019 C11.49288,26.01019 14.50181,22.202441 14.50181,21.7764 C14.50181,21.56338 14.28879,21.32378 14.07577,21.32378 C13.88933,21.32378 13.80951,21.37702 13.59649,21.66993 C10.77393,25.237996 6.859684,25.237996 6.407046,25.237996 C3.611157,25.237996 3.291628,22.202441 3.291628,21.05745 C3.291628,20.63141 3.31826,19.51308 3.877435,17.32964 L5.767987,17.32964 L5.767987,17.32964 Z M4.090455,16.5308 C5.475083,11.07218 9.17632,10.53966 10.10829,10.53966 C11.81244,10.53966 12.771,11.57811 12.771,12.80299 C12.771,16.5308 7.019465,16.5308 5.554967,16.5308 L4.090455,16.5308 L4.090455,16.5308 Z" id="Fill-3" fill="#000000" sketch:type="MSShapeGroup" mask="url(#mask-4)"></path>
                    <path d="M24.4247628,27.1044637 L23.8628419,27.1044637 C23.8287966,27.462039 23.6585315,28.3985495 23.4541827,28.5688222 C23.3179629,28.653958 22.0919851,28.653958 21.8706328,28.653958 L18.9248917,28.653958 C20.5935678,27.1725736 21.155495,26.7298581 22.1260304,25.9636025 C23.3179629,25.0271092 24.4247628,24.0224824 24.4247628,22.507068 C24.4247628,20.5659077 22.7219967,19.37402 20.6617032,19.37402 C18.6694557,19.37402 17.3243,20.7702565 17.3243,22.251632 C17.3243,23.0689505 18.0224406,23.1540767 18.1756639,23.1540767 C18.5673197,23.1540767 19.0270661,22.8816372 19.0270661,22.3027192 C19.0270661,22.0132378 18.9248917,21.4513553 18.0905313,21.4513553 C18.5843232,20.31051 19.6740748,19.9529444 20.4233091,19.9529444 C22.0238944,19.9529444 22.8582164,21.2129611 22.8582164,22.507068 C22.8582164,23.9033109 21.8706328,25.0100654 21.3597991,25.5890314 L17.4945651,29.4031654 C17.3243,29.5393851 17.3243,29.573442 17.3243,30.0161537 L23.930971,30.0161537 L24.407721,27.1044637" id="Fill-4" fill="#000000" sketch:type="MSShapeGroup" mask="url(#mask-4)"></path>
                </g>
                <path d="M37.5,187.5 L197.5,73.5" id="Line" stroke="#000000" stroke-width="2" stroke-linecap="round" stroke-linejoin="round" sketch:type="MSShapeGroup"></path>
                <path id="Line-decoration-1" d="M190.071549,82.4763713 C192.54077,79.4277908 194.657246,76.8147218 197.126468,73.7661413 C193.438669,75.1044382 190.277699,76.2515499 186.5899,77.5898468" stroke="#000000" stroke-width="2" stroke-linecap="round" stroke-linejoin="round"></path>
                <path d="M199.5,72.5 L199.5,187.5" id="Line" stroke="#000000" stroke-linecap="square" stroke-dasharray="5" sketch:type="MSShapeGroup"></path>
                <path d="M199.5,71.5 L37.5,73.5" id="Line" stroke="#000000" stroke-linecap="square" stroke-dasharray="5" sketch:type="MSShapeGroup"></path>
                <path d="M38.5,188 L196,188" id="Line" stroke="#D0011B" stroke-width="2" stroke-linecap="round" stroke-linejoin="round" sketch:type="MSShapeGroup"></path>
                <path id="Line-decoration-1" d="M184.7,191 C188.48,189.95 191.72,189.05 195.5,188 C191.72,186.95 188.48,186.05 184.7,185" stroke="#D0011B" stroke-width="2" stroke-linecap="round" stroke-linejoin="round"></path>
                <path d="M37,187.5 L37,77" id="Line" stroke="#417505" stroke-width="2" stroke-linecap="round" stroke-linejoin="round" sketch:type="MSShapeGroup"></path>
                <path id="Line-decoration-1" d="M40,88.3 C38.95,84.52 38.05,81.28 37,77.5 C35.95,81.28 35.05,84.52 34,88.3" stroke="#417505" stroke-width="2" stroke-linecap="round" stroke-linejoin="round"></path>
                <path d="M35,128.5 L35,188" id="Line" stroke="#000000" stroke-width="2" stroke-linecap="round" stroke-linejoin="round" sketch:type="MSShapeGroup"></path>
                <path id="Line-decoration-1" d="M32,140.1 C33.05,136.32 33.95,133.08 35,129.3 C36.05,133.08 36.95,136.32 38,140.1" stroke="#000000" stroke-width="2" stroke-linecap="round" stroke-linejoin="round"></path>
                <path d="M96.5,190 L38.5,190" id="Line-2" stroke="#000000" stroke-width="2" stroke-linecap="square" sketch:type="MSShapeGroup"></path>
                <path id="Line-2-decoration-1" d="M84.9,187 C88.68,188.05 91.92,188.95 95.7,190 C91.92,191.05 88.68,191.95 84.9,193" stroke="#000000" stroke-width="2" stroke-linecap="square"></path>
            </g>
            <g id="Imported-Layers" transform="translate(43.000000, 80.000000)">
                <mask id="mask-6" sketch:name="Clip 2" fill="white">
                    <use xlink:href="#path-5"></use>
                </mask>
                <g id="Clip-2"></g>
                <path d="M11.5731177,3.1916625 C11.1977503,3.5511225 10.328469,4.2900225 10.328469,4.7893125 C10.328469,5.048925 10.58529,5.328525 10.8618835,5.328525 C11.0989765,5.328525 11.237251,5.12883 11.3557974,4.969065 C11.6916197,4.56963 12.30408,3.810735 13.4696829,3.2315925 C13.6474506,3.1118025 13.9240442,2.97198 13.9240442,2.65245 C13.9240442,2.3928375 13.7265039,2.25306 13.5486768,2.1132375 C12.955989,1.7138475 12.6596748,1.23456 12.4621271,0.575505 C12.4028539,0.3358875 12.30408,-0.00363 11.9287126,-0.00363 C11.5533452,-0.00363 11.3952981,0.3358875 11.3952981,0.55557 C11.3952981,0.6953475 11.6126184,1.5540825 12.0274865,2.1132375 L3.05831742,2.1132375 C2.60393684,2.1132375 2.11003632,2.1132375 2.11003632,2.65245 C2.11003632,3.1916625 2.60393684,3.1916625 3.05831742,3.1916625 L11.5731177,3.1916625" id="Fill-1" fill="#417505" sketch:type="MSShapeGroup" mask="url(#mask-6)"></path>
                <path d="M8.90604516,9.0430425 C8.43190387,8.0445225 7.66144839,7.3255575 6.45634558,7.3255575 C3.33490206,7.3255575 0.0356722581,11.279745 0.0356722581,15.213945 C0.0356722581,17.7502455 1.49760865,19.5276173 3.59172674,19.5276173 C4.12513606,19.5276173 5.44879052,19.4077913 7.04898065,17.4906345 C7.26630097,18.6289268 8.1948629,19.5276173 9.47896032,19.5276173 C10.4075148,19.5276173 11.0199306,18.8885378 11.4347987,18.029796 C11.8892119,17.0712075 12.2448068,15.4336275 12.2448068,15.37371 C12.2448068,15.0941625 12.0077065,15.0941625 11.9287126,15.0941625 C11.652119,15.0941625 11.632339,15.213945 11.5533452,15.5933925 C11.0989765,17.3308695 10.6248352,18.928497 9.5185129,18.928497 C8.80727129,18.928497 8.72827742,18.2295398 8.72827742,17.6903273 C8.72827742,17.0911973 8.78749871,16.871514 9.06409226,15.69324 C9.36046581,14.55495 9.4196871,14.2953375 9.65678,13.27683 L10.6248352,9.502395 C10.8026103,8.7435 10.8026103,8.6835825 10.8026103,8.583735 C10.8026103,8.1243825 10.4865161,7.8448275 10.0321474,7.8448275 C9.39995903,7.8448275 8.98509839,8.4439125 8.90604516,9.0430425 L8.90604516,9.0430425 Z M7.1873071,16.01277 C7.04898065,16.492065 7.04898065,16.5519848 6.6538911,17.0113403 C5.46851413,18.4891515 4.38196148,18.928497 3.63124148,18.928497 C2.30759742,18.928497 1.93223445,17.450655 1.93223445,16.3922175 C1.93223445,15.05418 2.78173797,11.739105 3.39417084,10.500915 C4.22391439,8.903265 5.42901571,7.904745 6.495844,7.904745 C8.21458355,7.904745 8.58995097,10.1214675 8.58995097,10.2812325 C8.58995097,10.4409975 8.55045032,10.6007625 8.5109571,10.7405325 L7.1873071,16.01277 L7.1873071,16.01277 Z" id="Fill-3" fill="#417505" sketch:type="MSShapeGroup" mask="url(#mask-6)"></path>
                <path d="M20.4041948,20.6679471 L19.9239553,20.6679471 C19.8939545,20.9865285 19.7438881,21.8209117 19.5637813,21.9726161 C19.4437215,22.0484677 18.3631826,22.0484677 18.1680895,22.0484677 L15.5718046,22.0484677 C17.042524,20.7286296 17.5377836,20.3341926 18.3932229,19.6514978 C19.4287351,18.8171299 20.4041948,17.9220586 20.4041948,16.5719014 C20.4041948,14.8424263 18.9184891,13.780515 17.1025764,13.780515 C15.346705,13.780515 14.1610926,15.0244907 14.1610926,16.3443209 C14.1610926,17.0725102 14.7764121,17.1483532 14.9114922,17.1483532 C15.2566516,17.1483532 15.6618579,16.9056235 15.6618579,16.389837 C15.6618579,16.1319238 15.5718046,15.6313151 14.8214388,15.6313151 C15.2716718,14.61488 16.2321508,14.2963072 16.8924576,14.2963072 C18.3031696,14.2963072 19.038549,15.418918 19.038549,16.5719014 C19.038549,17.8158828 18.1680895,18.8019448 17.717896,19.317774 L14.3111928,22.7159734 C14.1610926,22.8373383 14.1610926,22.8676812 14.1610926,23.2621148 L19.9840078,23.2621148 L20.4041948,20.6679471" id="Fill-4" fill="#417505" sketch:type="MSShapeGroup" mask="url(#mask-6)"></path>
            </g>
            <g id="Imported-Layers" transform="translate(122.000000, 160.000000)">
                <mask id="mask-8" sketch:name="Clip 2" fill="white">
                    <use xlink:href="#path-7"></use>
                </mask>
                <g id="Clip-2"></g>
                <path d="M11.9588883,3.1916625 C11.5710087,3.5511225 10.6727513,4.2900225 10.6727513,4.7893125 C10.6727513,5.048925 10.938133,5.328525 11.2239463,5.328525 C11.4689423,5.328525 11.611826,5.12883 11.734324,4.969065 C12.0813403,4.56963 12.714216,3.810735 13.9186723,3.2315925 C14.1023657,3.1118025 14.388179,2.97198 14.388179,2.65245 C14.388179,2.3928375 14.184054,2.25306 14.0002993,2.1132375 C13.3878553,1.7138475 13.081664,1.23456 12.8775313,0.575505 C12.8162823,0.3358875 12.714216,-0.00363 12.3263363,-0.00363 C11.9384567,-0.00363 11.7751413,0.3358875 11.7751413,0.55557 C11.7751413,0.6953475 11.9997057,1.5540825 12.4284027,2.1132375 L3.16026133,2.1132375 C2.69073473,2.1132375 2.18037087,2.1132375 2.18037087,2.65245 C2.18037087,3.1916625 2.69073473,3.1916625 3.16026133,3.1916625 L11.9588883,3.1916625" id="Fill-1" fill="#D0011B" sketch:type="MSShapeGroup" mask="url(#mask-8)"></path>
                <path d="M9.20291333,9.0430425 C8.71296733,8.0445225 7.91683,7.3255575 6.6715571,7.3255575 C3.44606547,7.3255575 0.0368613333,11.279745 0.0368613333,15.213945 C0.0368613333,17.7502455 1.54752893,19.5276172 3.71145097,19.5276172 C4.2626406,19.5276172 5.63041687,19.4077912 7.28394667,17.4906345 C7.508511,18.6289267 8.468025,19.5276172 9.79492567,19.5276172 C10.754432,19.5276172 11.3872617,18.8885377 11.8159587,18.029796 C12.285519,17.0712075 12.652967,15.4336275 12.652967,15.37371 C12.652967,15.0941625 12.4079633,15.0941625 12.3263363,15.0941625 C12.040523,15.0941625 12.0200837,15.213945 11.9384567,15.5933925 C11.4689423,17.3308695 10.9789963,18.928497 9.83579667,18.928497 C9.100847,18.928497 9.01922,18.2295397 9.01922,17.6903272 C9.01922,17.0911972 9.08041533,16.871514 9.36622867,15.69324 C9.67248133,14.55495 9.73367667,14.2953375 9.97867267,13.27683 L10.9789963,9.502395 C11.1626973,8.7435 11.1626973,8.6835825 11.1626973,8.583735 C11.1626973,8.1243825 10.8360667,7.8448275 10.3665523,7.8448275 C9.713291,7.8448275 9.28460167,8.4439125 9.20291333,9.0430425 L9.20291333,9.0430425 Z M7.426884,16.01277 C7.28394667,16.492065 7.28394667,16.5519847 6.87568747,17.0113402 C5.65079793,18.4891515 4.52802687,18.928497 3.75228287,18.928497 C2.38451733,18.928497 1.99664227,17.450655 1.99664227,16.3922175 C1.99664227,15.05418 2.87446257,11.739105 3.50730987,10.500915 C4.36471153,8.903265 5.6099829,7.904745 6.71237213,7.904745 C8.488403,7.904745 8.87628267,10.1214675 8.87628267,10.2812325 C8.87628267,10.4409975 8.83546533,10.6007625 8.79465567,10.7405325 L7.426884,16.01277 L7.426884,16.01277 Z" id="Fill-3" fill="#D0011B" sketch:type="MSShapeGroup" mask="url(#mask-8)"></path>
                <path d="M17.8190026,14.1900858 C17.8190026,13.7956585 17.7879959,13.780515 17.3848036,13.780515 C16.454322,14.6907288 15.120689,14.7059179 14.5313863,14.7059179 L14.5313863,15.2217044 C14.8725652,15.2217044 15.8340127,15.2217044 16.6404381,14.8120936 L16.6404381,22.0939804 C16.6404381,22.5642696 16.6404381,22.7614866 15.1827024,22.7614866 L14.6244415,22.7614866 L14.6244415,23.2621148 C14.8880511,23.2621148 16.6869657,23.2166061 17.2297408,23.2166061 C17.6794549,23.2166061 19.5093762,23.2621148 19.8350343,23.2621148 L19.8350343,22.7614866 L19.2767384,22.7614866 C17.8190026,22.7614866 17.8190026,22.5642696 17.8190026,22.0939804 L17.8190026,14.1900858" id="Fill-4" fill="#D0011B" sketch:type="MSShapeGroup" mask="url(#mask-8)"></path>
            </g>
            <path d="M119.570709,106.195292 C119.18283,106.554753 118.284572,107.293652 118.284572,107.792942 C118.284572,108.052555 118.549954,108.332155 118.835767,108.332155 C119.080763,108.332155 119.223647,108.13246 119.346145,107.972695 C119.693161,107.57326 120.326037,106.814365 121.530493,106.235223 C121.714187,106.115432 122,105.97561 122,105.65608 C122,105.396467 121.795875,105.25669 121.61212,105.116867 C120.999676,104.717478 120.693485,104.23819 120.489352,103.579135 C120.428103,103.339517 120.326037,103 119.938157,103 C119.550278,103 119.386962,103.339517 119.386962,103.5592 C119.386962,103.698977 119.611527,104.557712 120.040224,105.116867 L110.772082,105.116867 C110.302556,105.116867 109.792192,105.116867 109.792192,105.65608 C109.792192,106.195292 110.302556,106.195292 110.772082,106.195292 L119.570709,106.195292" id="Fill-2" fill="#000000" sketch:type="MSShapeGroup"></path>
            <path d="M116.958244,111.717485 C116.468298,110.718965 115.672161,110 114.426888,110 C111.201396,110 107.792192,113.954188 107.792192,117.888387 C107.792192,120.424688 109.302859,122.20206 111.466782,122.20206 C112.017971,122.20206 113.385747,122.082234 115.039277,120.165077 C115.263842,121.303369 116.223356,122.20206 117.550256,122.20206 C118.509763,122.20206 119.142592,121.56298 119.571289,120.704239 C120.04085,119.74565 120.408298,118.10807 120.408298,118.048153 C120.408298,117.768605 120.163294,117.768605 120.081667,117.768605 C119.795854,117.768605 119.775414,117.888387 119.693787,118.267835 C119.224273,120.005312 118.734327,121.60294 117.591127,121.60294 C116.856178,121.60294 116.774551,120.903982 116.774551,120.36477 C116.774551,119.76564 116.835746,119.545957 117.121559,118.367683 C117.427812,117.229393 117.489007,116.96978 117.734003,115.951273 L118.734327,112.176838 C118.918028,111.417943 118.918028,111.358025 118.918028,111.258178 C118.918028,110.798825 118.591397,110.51927 118.121883,110.51927 C117.468622,110.51927 117.039932,111.118355 116.958244,111.717485 L116.958244,111.717485 Z M115.182215,118.687213 C115.039277,119.166507 115.039277,119.226427 114.631018,119.685783 C113.406128,121.163594 112.283357,121.60294 111.507613,121.60294 C110.139848,121.60294 109.751973,120.125097 109.751973,119.06666 C109.751973,117.728623 110.629793,114.413547 111.26264,113.175358 C112.120042,111.577708 113.365313,110.579188 114.467703,110.579188 C116.243734,110.579188 116.631613,112.79591 116.631613,112.955675 C116.631613,113.11544 116.590796,113.275205 116.549986,113.414975 L115.182215,118.687213 L115.182215,118.687213 Z" id="Fill-4" fill="#000000" sketch:type="MSShapeGroup"></path>
        </g>
    </g>
</svg>