<?xml version="1.0" encoding="UTF-8" standalone="no"?>
<svg width="562px" height="125px" viewBox="0 0 562 125" version="1.1" xmlns="http://www.w3.org/2000/svg" xmlns:xlink="http://www.w3.org/1999/xlink" xmlns:sketch="http://www.bohemiancoding.com/sketch/ns">
    <!-- Generator: Sketch 3.1.1 (8761) - http://www.bohemiancoding.com/sketch -->
    <title>Group</title>
    <desc>Created with Sketch.</desc>
    <defs></defs>
    <g id="Page-1" stroke="none" stroke-width="1" fill="none" fill-rule="evenodd" sketch:type="MSPage">
        <g id="Group" sketch:type="MSLayerGroup" transform="translate(1.000000, 1.000000)">
            <g transform="translate(300.000000, 6.000000)">
                <g id="Imported-Layers-4" transform="translate(243.000000, 0.000000)" fill="#000000" sketch:type="MSShapeGroup">
                    <path d="M14.36781,4.46918 C13.86188,4.92181 12.69031,5.93367 12.69031,6.59938 C12.69031,6.94553 13.03646,7.31833 13.40926,7.31833 C13.72876,7.31833 13.91519,7.052 14.0749,6.83898 C14.5276,6.30647 15.35302,5.29461 16.92405,4.49577 C17.19031,4.36264 17.53652,4.17627 17.53652,3.75023 C17.53652,3.37743 17.29685,3.21765 17.03059,3.03128 C16.23175,2.4987 15.85895,1.83305 15.56604,0.98098 C15.48615,0.66141 15.35302,0.18213 14.84709,0.18213 C14.34123,0.18213 14.12821,0.66141 14.12821,0.95432 C14.12821,1.1141 14.42105,2.28568 14.98029,3.03128 L2.891391,3.03128 C2.278957,3.03128 1.613273,3.03128 1.613273,3.75023 C1.613273,4.46918 2.278957,4.46918 2.891391,4.46918 L14.36781,4.46918" id="Fill-1"></path>
                    <path d="M7.684313,10.69999 C7.684313,10.67334 7.684313,10.3006 7.205036,10.3006 C6.379583,10.3006 3.770095,10.59345 2.811507,10.67334 C2.545229,10.69999 2.145822,10.75323 2.145822,11.39229 C2.145822,11.81833 2.465351,11.81833 2.997901,11.81833 C4.728684,11.81833 4.808568,12.08458 4.808568,12.4308 C4.808568,12.6704 4.489038,13.89529 4.302644,14.66747 L1.346995,26.356903 C0.9209552,28.167604 0.7878183,28.726772 0.7878183,30.004897 C0.7878183,33.413212 2.678371,35.6232933 5.341117,35.6232933 C9.574906,35.6232933 13.99501,30.271175 13.99501,25.10544 C13.99501,21.83025 12.07784,19.35391 9.228757,19.35391 C7.551184,19.35391 6.086686,20.39235 5.021588,21.51076 L7.657728,10.69999 L7.684313,10.69999 Z M4.302644,24.28001 C4.515664,23.48117 4.515664,23.42793 4.835194,23.02848 C6.592603,20.68526 8.216897,20.15275 9.148866,20.15275 C10.42698,20.15275 11.41219,21.21785 11.41219,23.53441 C11.41219,25.63802 10.21396,29.765252 9.574906,31.14988 C8.403263,33.546348 6.752371,34.851099 5.341117,34.851099 C4.116251,34.851099 2.944642,33.865877 2.944642,31.203131 C2.944642,30.537447 2.944642,29.845136 3.503817,27.581783 L4.302644,24.28001 L4.302644,24.28001 Z" id="Fill-3"></path>
                </g>
                <path d="M0.5,90.5 L177.5,0.5" id="Line-5" stroke="#000000" stroke-width="2" stroke-linecap="round" stroke-linejoin="round" sketch:type="MSShapeGroup"></path>
                <path id="Line-5-decoration-1" d="M168.727036,8.32637757 C171.620563,5.67715075 174.100729,3.4063849 176.994256,0.757158077 C173.148911,1.53447613 169.852901,2.20074874 166.007556,2.97806679" stroke="#000000" stroke-width="2" stroke-linecap="round" stroke-linejoin="round"></path>
                <path d="M180,0 L228.5,83.5" id="Line-6" stroke="#000000" stroke-width="2" stroke-linecap="round" stroke-linejoin="round" sketch:type="MSShapeGroup"></path>
                <path id="Line-6-decoration-1" d="M220.198439,75.1806191 C223.004936,77.9218736 225.410504,80.2715204 228.217001,83.012775 C227.226409,79.2167735 226.37733,75.963058 225.386738,72.1670565" stroke="#000000" stroke-width="2" stroke-linecap="round" stroke-linejoin="round"></path>
                <g id="Imported-Layers-5" transform="translate(80.000000, 8.000000)" fill="#000000" sketch:type="MSShapeGroup">
                    <path d="M15.33001,4.45761 C14.82408,4.93696 13.6525,5.94875 13.6525,6.58781 C13.6525,6.96061 13.99865,7.30676 14.37145,7.30676 C14.69095,7.30676 14.87732,7.06715 15.06375,6.82748 C15.48979,6.2949 16.31522,5.28311 17.88624,4.51092 C18.1525,4.35114 18.49865,4.19135 18.49865,3.73866 C18.49865,3.39251 18.25905,3.20615 17.99279,3.01978 C17.22053,2.4872 16.82115,1.84814 16.52823,0.99606 C16.44834,0.64991 16.31522,0.19722 15.80928,0.19722 C15.30335,0.19722 15.09033,0.64991 15.09033,0.94282 C15.09033,1.12919 15.38325,2.27418 15.94241,3.01978 L3.85357,3.01978 C3.241144,3.01978 2.602085,3.01978 2.602085,3.73866 C2.602085,4.45761 3.241144,4.45761 3.85357,4.45761 L15.33001,4.45761" id="Fill-1"></path>
                    <path d="M11.65543,12.25945 C11.01638,10.92809 9.95128,9.96954 8.353596,9.96954 C4.146474,9.96954 -0.3003117,15.24173 -0.3003117,20.487368 C-0.3003117,23.869057 1.670122,26.2389007 4.466004,26.2389007 C5.184947,26.2389007 6.969002,26.079136 9.12578,23.549528 C9.41869,25.040665 10.67023,26.2389007 12.40097,26.2389007 C13.6525,26.2389007 14.47793,25.413446 15.06375,24.268471 C15.67616,22.96372 16.12885,20.780272 16.12885,20.700388 C16.12885,20.354232 15.80928,20.354232 15.70281,20.354232 C15.35666,20.354232 15.30335,20.487368 15.19688,20.993291 C14.58447,23.336508 13.94541,25.440079 12.48086,25.440079 C11.49565,25.440079 11.38918,24.508116 11.38918,23.789173 C11.38918,22.990353 11.469,22.724075 11.86845,21.126427 C12.26784,19.635316 12.32108,19.262515 12.6673,17.904506 L13.94541,12.87192 C14.21167,11.86006 14.21167,11.80683 14.21167,11.64704 C14.21167,11.03464 13.75898,10.68849 13.14657,10.68849 C12.29449,10.68849 11.76191,11.48726 11.65543,12.25945 L11.65543,12.25945 Z M9.31222,21.552466 C9.12578,22.218151 9.12578,22.271409 8.593268,22.883843 C7.02224,24.880897 5.557728,25.440079 4.545888,25.440079 C2.73522,25.440079 2.229297,23.469643 2.229297,22.05839 C2.229297,20.274348 3.400905,15.8542 4.226358,14.20328 C5.318082,12.07308 6.942349,10.74173 8.380249,10.74173 C10.72347,10.74173 11.2294,13.69735 11.2294,13.91037 C11.2294,14.12339 11.1495,14.33641 11.12285,14.52284 L9.31222,21.552466 L9.31222,21.552466 Z" id="Fill-3"></path>
                </g>
                <path d="M0.5,90.5 L227,86" id="Line-2" stroke="#000000" stroke-width="2" stroke-linecap="round" stroke-linejoin="round" sketch:type="MSShapeGroup"></path>
                <path id="Line-2-decoration-1" d="M215.717132,89.224755 C219.475529,88.0998776 222.697013,87.135697 226.45541,86.0108197 C222.655299,85.0361114 219.398061,84.2006471 215.59795,83.2259388" stroke="#000000" stroke-width="2" stroke-linecap="round" stroke-linejoin="round"></path>
                <g id="Imported-Layers-3" transform="translate(121.000000, 91.000000)" fill="#000000" sketch:type="MSShapeGroup">
                    <path d="M15.48875,4.45196 C14.98282,4.93124 13.81124,5.9431 13.81124,6.58216 C13.81124,6.9283 14.15739,7.30111 14.50354,7.30111 C14.84969,7.30111 15.00947,7.03478 15.19584,6.82176 C15.62188,6.28924 16.44737,5.27738 18.04498,4.5052 C18.28466,4.34541 18.65739,4.18563 18.65739,3.73301 C18.65739,3.38686 18.39113,3.20043 18.15153,3.01406 C17.35269,2.48148 16.95323,1.84242 16.66039,0.96375 C16.60708,0.64419 16.44737,0.19156 15.94144,0.19156 C15.46209,0.19156 15.22249,0.64419 15.22249,0.9371 C15.22249,1.12353 15.5154,2.26846 16.10115,3.01406 L3.985683,3.01406 C3.37325,3.01406 2.734191,3.01406 2.734191,3.73301 C2.734191,4.45196 3.37325,4.45196 3.985683,4.45196 L15.48875,4.45196" id="Fill-1"></path>
                    <path d="M12.3201,12.17391 C11.73428,12.17391 11.25501,12.17391 10.74908,12.67984 C10.16325,13.21235 10.08336,13.82482 10.08336,14.09108 C10.08336,14.94316 10.74908,15.34255 11.41472,15.34255 C12.45323,15.34255 13.43844,14.49047 13.43844,13.05264 C13.43844,11.29517 11.73428,9.96382 9.2047,9.96382 C4.358471,9.96382 -0.4344754,15.07629 -0.4344754,20.16211 C-0.4344754,23.384065 1.642467,26.233205 5.396937,26.233205 C10.53606,26.233205 13.54492,22.425503 13.54492,21.972811 C13.54492,21.759791 13.3319,21.520119 13.11888,21.520119 C12.93251,21.520119 12.85262,21.600009 12.6396,21.866267 C9.81711,25.434377 5.90286,25.434377 5.450195,25.434377 C3.213488,25.434377 2.228274,23.676968 2.228274,21.520119 C2.228274,20.055634 2.94721,16.56743 4.172077,14.33076 C5.290427,12.28038 7.260869,10.73601 9.23128,10.73601 C10.45616,10.73601 11.81417,11.21528 12.3201,12.17391" id="Fill-3"></path>
                </g>
                <path d="M229.242652,22.27512 C229.402434,21.50293 229.775235,20.14493 229.775235,19.95856 C229.775235,19.34615 229.349196,19 228.736722,19 C228.630246,19 227.618392,19.02659 227.298863,20.27812 L222.133138,41.07414 C222,41.526812 222,41.580064 222,41.659948 C222,42.192497 222.399412,42.618536 223.011843,42.618536 C223.784038,42.618536 224.210077,41.979477 224.263335,41.872967 C224.423097,41.553438 224.875769,39.689512 226.260397,34.15099 C227.405372,35.109609 229.029632,35.269323 229.721997,35.269323 C232.251576,35.269323 233.662826,33.64506 234.514906,32.63326 C234.834466,34.25753 236.165826,35.269323 237.736856,35.269323 C238.988316,35.269323 239.813746,34.443897 240.399566,33.29891 C241.012036,31.9942 241.491316,29.8107 241.491316,29.73081 C241.491316,29.38466 241.145166,29.38466 241.038626,29.38466 C240.692476,29.38466 240.665826,29.51779 240.532696,30.02372 C239.946946,32.36694 239.281226,34.47055 237.816746,34.47055 C236.858126,34.47055 236.724996,33.53858 236.724996,32.81963 C236.724996,32.02079 237.177686,30.34329 237.443946,29.09175 L238.455806,25.20416 C238.562276,24.67164 238.935086,23.31364 239.068206,22.75447 C239.254576,21.92897 239.600726,20.57096 239.600726,20.35794 C239.600726,19.71889 239.094866,19.39939 238.562276,19.39939 C238.402496,19.39939 237.443946,19.42604 237.177686,20.65086 L235.473526,27.36101 C235.047486,29.17164 234.648036,30.66278 234.541556,31.03558 C234.514906,31.22195 232.784096,34.47055 229.881711,34.47055 C228.071064,34.47055 227.218985,33.29891 227.218985,31.35515 C227.218985,30.31663 227.458631,29.30477 227.724902,28.29298 L229.242652,22.27512" id="Imported-Layers" fill="#000000" sketch:type="MSShapeGroup"></path>
                <path d="M70.917251,22.4321 C72.408391,26.213214 74.112551,31.698454 74.698371,32.523907 C75.257541,33.3227287 75.630341,33.3227287 76.588901,33.3227287 L77.387741,33.3227287 C77.733881,33.2694738 77.787121,33.0564541 77.787121,32.949946 C77.787121,32.843436 77.707231,32.790178 77.600761,32.630417 C77.254611,32.231003 77.014931,31.698454 76.775331,30.979511 L69.452771,10.55623 C68.707171,8.45269 66.763406,8 65.059214,8 C64.899453,8 64.420155,8 64.420155,8.39945 C64.420155,8.69229 64.713059,8.7456 64.739685,8.7456 C65.937919,8.95862 66.177585,9.17164 67.082901,11.62133 L70.571111,21.39365 L60.639059,31.245789 C60.21302,31.671828 60,31.884848 60,32.337513 C60,32.949946 60.505917,33.3759837 61.091724,33.3759837 C61.650899,33.3759837 61.970429,33.003198 62.263333,32.630417 L70.917251,22.4321" id="Imported-Layers" fill="#000000" sketch:type="MSShapeGroup"></path>
            </g>
            <g id="Imported-Layers-2" transform="translate(238.000000, 8.000000)" fill="#000000" sketch:type="MSShapeGroup">
                <path d="M14.36781,4.46918 C13.86188,4.92181 12.69031,5.93367 12.69031,6.59938 C12.69031,6.94553 13.03646,7.31833 13.40926,7.31833 C13.72876,7.31833 13.91519,7.052 14.0749,6.83898 C14.5276,6.30647 15.35302,5.29461 16.92405,4.49577 C17.19031,4.36264 17.53652,4.17627 17.53652,3.75023 C17.53652,3.37743 17.29685,3.21765 17.03059,3.03128 C16.23175,2.4987 15.85895,1.83305 15.56604,0.98098 C15.48615,0.66141 15.35302,0.18213 14.84709,0.18213 C14.34123,0.18213 14.12821,0.66141 14.12821,0.95432 C14.12821,1.1141 14.42105,2.28568 14.98029,3.03128 L2.891391,3.03128 C2.278957,3.03128 1.613273,3.03128 1.613273,3.75023 C1.613273,4.46918 2.278957,4.46918 2.891391,4.46918 L14.36781,4.46918" id="Fill-1"></path>
                <path d="M7.684313,10.69999 C7.684313,10.67334 7.684313,10.3006 7.205036,10.3006 C6.379583,10.3006 3.770095,10.59345 2.811507,10.67334 C2.545229,10.69999 2.145822,10.75323 2.145822,11.39229 C2.145822,11.81833 2.465351,11.81833 2.997901,11.81833 C4.728684,11.81833 4.808568,12.08458 4.808568,12.4308 C4.808568,12.6704 4.489038,13.89529 4.302644,14.66747 L1.346995,26.356903 C0.9209552,28.167604 0.7878183,28.726772 0.7878183,30.004897 C0.7878183,33.413212 2.678371,35.6232933 5.341117,35.6232933 C9.574906,35.6232933 13.99501,30.271175 13.99501,25.10544 C13.99501,21.83025 12.07784,19.35391 9.228757,19.35391 C7.551184,19.35391 6.086686,20.39235 5.021588,21.51076 L7.657728,10.69999 L7.684313,10.69999 Z M4.302644,24.28001 C4.515664,23.48117 4.515664,23.42793 4.835194,23.02848 C6.592603,20.68526 8.216897,20.15275 9.148866,20.15275 C10.42698,20.15275 11.41219,21.21785 11.41219,23.53441 C11.41219,25.63802 10.21396,29.765252 9.574906,31.14988 C8.403263,33.546348 6.752371,34.851099 5.341117,34.851099 C4.116251,34.851099 2.944642,33.865877 2.944642,31.203131 C2.944642,30.537447 2.944642,29.845136 3.503817,27.581783 L4.302644,24.28001 L4.302644,24.28001 Z" id="Fill-3"></path>
            </g>
            <path d="M0.5,90.5 L177.5,0.5" id="Line-2" stroke="#000000" stroke-width="2" stroke-linecap="round" stroke-linejoin="round" sketch:type="MSShapeGroup"></path>
            <path id="Line-2-decoration-1" d="M168.727036,8.32637757 C171.620563,5.67715075 174.100729,3.4063849 176.994256,0.757158077 C173.148911,1.53447613 169.852901,2.20074874 166.007556,2.97806679" stroke="#000000" stroke-width="2" stroke-linecap="round" stroke-linejoin="round"></path>
            <path d="M206.5,2.5 L255.5,85.5" id="Line-4" stroke="#000000" stroke-width="2" stroke-linecap="round" stroke-linejoin="round" sketch:type="MSShapeGroup"></path>
            <path id="Line-4-decoration-1" d="M247.230554,77.3936713 C250.056419,80.1149553 252.478589,82.4474845 255.304454,85.1687686 C254.286968,81.3798871 253.414837,78.1322744 252.397352,74.3433929" stroke="#000000" stroke-width="2" stroke-linecap="round" stroke-linejoin="round"></path>
            <g id="Imported-Layers-4" transform="translate(59.000000, 13.000000)" fill="#000000" sketch:type="MSShapeGroup">
                <path d="M15.33001,4.45761 C14.82408,4.93696 13.6525,5.94875 13.6525,6.58781 C13.6525,6.96061 13.99865,7.30676 14.37145,7.30676 C14.69095,7.30676 14.87732,7.06715 15.06375,6.82748 C15.48979,6.2949 16.31522,5.28311 17.88624,4.51092 C18.1525,4.35114 18.49865,4.19135 18.49865,3.73866 C18.49865,3.39251 18.25905,3.20615 17.99279,3.01978 C17.22053,2.4872 16.82115,1.84814 16.52823,0.99606 C16.44834,0.64991 16.31522,0.19722 15.80928,0.19722 C15.30335,0.19722 15.09033,0.64991 15.09033,0.94282 C15.09033,1.12919 15.38325,2.27418 15.94241,3.01978 L3.85357,3.01978 C3.241144,3.01978 2.602085,3.01978 2.602085,3.73866 C2.602085,4.45761 3.241144,4.45761 3.85357,4.45761 L15.33001,4.45761" id="Fill-1"></path>
                <path d="M11.65543,12.25945 C11.01638,10.92809 9.95128,9.96954 8.353596,9.96954 C4.146474,9.96954 -0.3003117,15.24173 -0.3003117,20.487368 C-0.3003117,23.869057 1.670122,26.2389007 4.466004,26.2389007 C5.184947,26.2389007 6.969002,26.079136 9.12578,23.549528 C9.41869,25.040665 10.67023,26.2389007 12.40097,26.2389007 C13.6525,26.2389007 14.47793,25.413446 15.06375,24.268471 C15.67616,22.96372 16.12885,20.780272 16.12885,20.700388 C16.12885,20.354232 15.80928,20.354232 15.70281,20.354232 C15.35666,20.354232 15.30335,20.487368 15.19688,20.993291 C14.58447,23.336508 13.94541,25.440079 12.48086,25.440079 C11.49565,25.440079 11.38918,24.508116 11.38918,23.789173 C11.38918,22.990353 11.469,22.724075 11.86845,21.126427 C12.26784,19.635316 12.32108,19.262515 12.6673,17.904506 L13.94541,12.87192 C14.21167,11.86006 14.21167,11.80683 14.21167,11.64704 C14.21167,11.03464 13.75898,10.68849 13.14657,10.68849 C12.29449,10.68849 11.76191,11.48726 11.65543,12.25945 L11.65543,12.25945 Z M9.31222,21.552466 C9.12578,22.218151 9.12578,22.271409 8.593268,22.883843 C7.02224,24.880897 5.557728,25.440079 4.545888,25.440079 C2.73522,25.440079 2.229297,23.469643 2.229297,22.05839 C2.229297,20.274348 3.400905,15.8542 4.226358,14.20328 C5.318082,12.07308 6.942349,10.74173 8.380249,10.74173 C10.72347,10.74173 11.2294,13.69735 11.2294,13.91037 C11.2294,14.12339 11.1495,14.33641 11.12285,14.52284 L9.31222,21.552466 L9.31222,21.552466 Z" id="Fill-3"></path>
            </g>
        </g>
    </g>
</svg>