<?xml version="1.0" encoding="UTF-8" standalone="no"?>
<svg width="298px" height="247px" viewBox="0 0 298 247" version="1.1" xmlns="http://www.w3.org/2000/svg" xmlns:xlink="http://www.w3.org/1999/xlink" xmlns:sketch="http://www.bohemiancoding.com/sketch/ns">
    <!-- Generator: Sketch 3.1.1 (8761) - http://www.bohemiancoding.com/sketch -->
    <title>Group</title>
    <desc>Created with Sketch.</desc>
    <defs></defs>
    <g id="Page-1" stroke="none" stroke-width="1" fill="none" fill-rule="evenodd" sketch:type="MSPage">
        <g id="Group" sketch:type="MSLayerGroup" transform="translate(4.000000, 1.000000)">
            <path d="M53.5,0.5 L290.5,138.5" id="Line" stroke="#000000" stroke-width="2" stroke-linecap="round" stroke-linejoin="round" sketch:type="MSShapeGroup"></path>
            <path id="Line-decoration-1" d="M279.441388,135.532326 C283.236322,136.527003 286.489121,137.379583 290.284055,138.37426 C287.545822,135.564815 285.198765,133.156719 282.460533,130.347274" stroke="#000000" stroke-width="2" stroke-linecap="round" stroke-linejoin="round"></path>
            <path d="M35.5,70.5 L192,163" id="Line-2" stroke="#000000" stroke-width="2" stroke-linecap="round" stroke-linejoin="round" sketch:type="MSShapeGroup"></path>
            <path id="Line-2-decoration-1" d="M180.493909,159.684115 C184.282267,160.703547 187.529432,161.577345 191.31779,162.596777 C188.597958,159.769514 186.266673,157.346147 183.546841,154.518884" stroke="#000000" stroke-width="2" stroke-linecap="round" stroke-linejoin="round"></path>
            <path d="M0,139 L179,245" id="Line-3" stroke="#000000" stroke-width="2" stroke-linecap="round" stroke-linejoin="round" sketch:type="MSShapeGroup" transform="translate(89.500000, 192.000000) scale(-1, -1) translate(-89.500000, -192.000000) "></path>
            <path id="Line-3-decoration-1" d="M168.151662,242.062402 C171.93917,243.084988 175.185605,243.961491 178.973113,244.984078 C176.255637,242.154551 173.926371,239.729243 171.208895,236.899716" stroke="#000000" stroke-width="2" stroke-linecap="round" stroke-linejoin="round"></path>
            <g id="Imported-Layers" transform="translate(172.000000, 25.000000)" fill="#000000" sketch:type="MSShapeGroup">
                <path d="M16.33001,4.45761 C15.82408,4.93696 14.6525,5.94875 14.6525,6.58781 C14.6525,6.96061 14.99865,7.30676 15.37145,7.30676 C15.69095,7.30676 15.87732,7.06715 16.06375,6.82748 C16.48979,6.2949 17.31522,5.28311 18.88624,4.51092 C19.1525,4.35114 19.49865,4.19135 19.49865,3.73866 C19.49865,3.39251 19.25905,3.20615 18.99279,3.01978 C18.22053,2.4872 17.82115,1.84814 17.52823,0.99606 C17.44834,0.64991 17.31522,0.19722 16.80928,0.19722 C16.30335,0.19722 16.09033,0.64991 16.09033,0.94282 C16.09033,1.12919 16.38325,2.27418 16.94241,3.01978 L4.85357,3.01978 C4.241144,3.01978 3.602085,3.01978 3.602085,3.73866 C3.602085,4.45761 4.241144,4.45761 4.85357,4.45761 L16.33001,4.45761" id="Fill-1"></path>
                <path d="M12.65543,12.25945 C12.01638,10.92809 10.95128,9.96954 9.353596,9.96954 C5.146474,9.96954 0.6996883,15.24173 0.6996883,20.487368 C0.6996883,23.869057 2.670122,26.2389007 5.466004,26.2389007 C6.184947,26.2389007 7.969002,26.079136 10.12578,23.549528 C10.41869,25.040665 11.67023,26.2389007 13.40097,26.2389007 C14.6525,26.2389007 15.47793,25.413446 16.06375,24.268471 C16.67616,22.96372 17.12885,20.780272 17.12885,20.700388 C17.12885,20.354232 16.80928,20.354232 16.70281,20.354232 C16.35666,20.354232 16.30335,20.487368 16.19688,20.993291 C15.58447,23.336508 14.94541,25.440079 13.48086,25.440079 C12.49565,25.440079 12.38918,24.508116 12.38918,23.789173 C12.38918,22.990353 12.469,22.724075 12.86845,21.126427 C13.26784,19.635316 13.32108,19.262515 13.6673,17.904506 L14.94541,12.87192 C15.21167,11.86006 15.21167,11.80683 15.21167,11.64704 C15.21167,11.03464 14.75898,10.68849 14.14657,10.68849 C13.29449,10.68849 12.76191,11.48726 12.65543,12.25945 L12.65543,12.25945 Z M10.31222,21.552466 C10.12578,22.218151 10.12578,22.271409 9.593268,22.883843 C8.02224,24.880897 6.557728,25.440079 5.545888,25.440079 C3.73522,25.440079 3.229297,23.469643 3.229297,22.05839 C3.229297,20.274348 4.400905,15.8542 5.226358,14.20328 C6.318082,12.07308 7.942349,10.74173 9.380249,10.74173 C11.72347,10.74173 12.2294,13.69735 12.2294,13.91037 C12.2294,14.12339 12.1495,14.33641 12.12285,14.52284 L10.31222,21.552466 L10.31222,21.552466 Z" id="Fill-3"></path>
            </g>
            <g id="Imported-Layers" transform="translate(114.000000, 70.000000)" fill="#000000" sketch:type="MSShapeGroup">
                <path d="M14.36781,4.46918 C13.86188,4.92181 12.69031,5.93367 12.69031,6.59938 C12.69031,6.94553 13.03646,7.31833 13.40926,7.31833 C13.72876,7.31833 13.91519,7.052 14.0749,6.83898 C14.5276,6.30647 15.35302,5.29461 16.92405,4.49577 C17.19031,4.36264 17.53652,4.17627 17.53652,3.75023 C17.53652,3.37743 17.29685,3.21765 17.03059,3.03128 C16.23175,2.4987 15.85895,1.83305 15.56604,0.98098 C15.48615,0.66141 15.35302,0.18213 14.84709,0.18213 C14.34123,0.18213 14.12821,0.66141 14.12821,0.95432 C14.12821,1.1141 14.42105,2.28568 14.98029,3.03128 L2.891391,3.03128 C2.278957,3.03128 1.613273,3.03128 1.613273,3.75023 C1.613273,4.46918 2.278957,4.46918 2.891391,4.46918 L14.36781,4.46918" id="Fill-1"></path>
                <path d="M7.684313,10.69999 C7.684313,10.67334 7.684313,10.3006 7.205036,10.3006 C6.379583,10.3006 3.770095,10.59345 2.811507,10.67334 C2.545229,10.69999 2.145822,10.75323 2.145822,11.39229 C2.145822,11.81833 2.465351,11.81833 2.997901,11.81833 C4.728684,11.81833 4.808568,12.08458 4.808568,12.4308 C4.808568,12.6704 4.489038,13.89529 4.302644,14.66747 L1.346995,26.356903 C0.9209552,28.167604 0.7878183,28.726772 0.7878183,30.004897 C0.7878183,33.413212 2.678371,35.6232933 5.341117,35.6232933 C9.574906,35.6232933 13.99501,30.271175 13.99501,25.10544 C13.99501,21.83025 12.07784,19.35391 9.228757,19.35391 C7.551184,19.35391 6.086686,20.39235 5.021588,21.51076 L7.657728,10.69999 L7.684313,10.69999 Z M4.302644,24.28001 C4.515664,23.48117 4.515664,23.42793 4.835194,23.02848 C6.592603,20.68526 8.216897,20.15275 9.148866,20.15275 C10.42698,20.15275 11.41219,21.21785 11.41219,23.53441 C11.41219,25.63802 10.21396,29.765252 9.574906,31.14988 C8.403263,33.546348 6.752371,34.851099 5.341117,34.851099 C4.116251,34.851099 2.944642,33.865877 2.944642,31.203131 C2.944642,30.537447 2.944642,29.845136 3.503817,27.581783 L4.302644,24.28001 L4.302644,24.28001 Z" id="Fill-3"></path>
            </g>
            <g id="Imported-Layers" transform="translate(88.000000, 153.000000)" fill="#000000" sketch:type="MSShapeGroup">
                <path d="M16.07773,4.45761 C15.5718,4.93696 14.40022,5.94875 14.40022,6.58781 C14.40022,6.96061 14.74637,7.30676 15.11917,7.30676 C15.43867,7.30676 15.62503,7.06715 15.81147,6.82748 C16.23751,6.2949 17.06293,5.28311 18.63396,4.51092 C18.90022,4.35114 19.24637,4.19135 19.24637,3.73866 C19.24637,3.39251 19.00676,3.20615 18.74051,3.01978 C17.96825,2.4872 17.56886,1.84814 17.27595,0.99606 C17.19606,0.64991 17.06293,0.19722 16.557,0.19722 C16.05107,0.19722 15.83805,0.64991 15.83805,0.94282 C15.83805,1.12919 16.13096,2.27418 16.69013,3.01978 L4.601289,3.01978 C3.988863,3.01978 3.349804,3.01978 3.349804,3.73866 C3.349804,4.45761 3.988863,4.45761 4.601289,4.45761 L16.07773,4.45761" id="Fill-1"></path>
                <path d="M12.93567,12.17963 C12.34992,12.17963 11.84399,12.17963 11.33806,12.68549 C10.77889,13.24473 10.699,13.83048 10.699,14.0968 C10.699,14.94888 11.33806,15.34827 12.03035,15.34827 C13.0688,15.34827 14.02742,14.49619 14.02742,13.05829 C14.02742,11.3009 12.34992,9.96954 9.79368,9.96954 C4.947451,9.96954 0.1811327,15.1086 0.1811327,20.167838 C0.1811327,23.389759 2.258073,26.2389007 5.985917,26.2389007 C11.12504,26.2389007 14.1339,22.431171 14.1339,22.005131 C14.1339,21.792112 13.92088,21.52584 13.70786,21.52584 C13.52149,21.52584 13.46825,21.605725 13.25523,21.898622 C10.40609,25.440079 6.491841,25.440079 6.065801,25.440079 C3.802469,25.440079 2.84388,23.682663 2.84388,21.52584 C2.84388,20.061328 3.562823,16.57315 4.761057,14.33641 C5.879407,12.2861 7.84985,10.74173 9.846918,10.74173 C11.04514,10.74173 12.42974,11.221 12.93567,12.17963" id="Fill-3"></path>
            </g>
        </g>
    </g>
</svg>