<?xml version="1.0" encoding="UTF-8" standalone="no"?>
<svg width="330px" height="213px" viewBox="0 0 330 213" version="1.1" xmlns="http://www.w3.org/2000/svg" xmlns:xlink="http://www.w3.org/1999/xlink" xmlns:sketch="http://www.bohemiancoding.com/sketch/ns">
    <!-- Generator: Sketch 3.1.1 (8761) - http://www.bohemiancoding.com/sketch -->
    <title>Group</title>
    <desc>Created with Sketch.</desc>
    <defs></defs>
    <g id="Page-1" stroke="none" stroke-width="1" fill="none" fill-rule="evenodd" sketch:type="MSPage">
        <g id="Group" sketch:type="MSLayerGroup">
            <path d="M0.5,74.5 L237.5,212.5" id="Line" stroke="#000000" stroke-linecap="round" stroke-linejoin="round" sketch:type="MSShapeGroup"></path>
            <path d="M147.5,67.5 L304,160" id="Line-2" stroke="#000000" stroke-width="2" stroke-linecap="round" stroke-linejoin="round" sketch:type="MSShapeGroup" transform="translate(225.500000, 113.500000) scale(1, -1) translate(-225.500000, -113.500000) "></path>
            <path id="Line-2-decoration-1" d="M292.493909,156.684115 C296.282267,157.703547 299.529432,158.577345 303.31779,159.596777 C300.597958,156.769514 298.266673,154.346147 295.546841,151.518884" stroke="#000000" stroke-width="2" stroke-linecap="round" stroke-linejoin="round"></path>
            <path d="M38.5,4.5 L195,97" id="Line-4" stroke="#000000" stroke-width="2" stroke-linecap="round" stroke-linejoin="round" sketch:type="MSShapeGroup" transform="translate(116.500000, 50.500000) scale(1, -1) translate(-116.500000, -50.500000) "></path>
            <path id="Line-4-decoration-1" d="M183.493909,93.6841149 C187.282267,94.7035466 190.529432,95.5773452 194.31779,96.5967769 C191.597958,93.7695144 189.266673,91.3461467 186.546841,88.5188843" stroke="#000000" stroke-width="2" stroke-linecap="round" stroke-linejoin="round"></path>
            <path d="M131.165729,185.568268 C129.727842,187.991369 128.316589,188.497293 126.745567,188.603802 C126.319527,188.630428 126,188.630428 126,189.322739 C126,189.535758 126.159766,189.695527 126.45267,189.695527 C127.437884,189.695527 128.529608,189.589017 129.541455,189.589017 C130.739689,189.589017 131.991182,189.695527 133.136151,189.695527 C133.34917,189.695527 133.828447,189.695527 133.828447,189.029842 C133.828447,188.630428 133.508952,188.603802 133.242694,188.603802 C132.417201,188.523918 131.565142,188.231015 131.565142,187.325684 C131.565142,186.899645 131.778162,186.500231 132.071059,186.020934 L134.787068,181.41438 L143.813788,181.41438 C143.867028,182.159981 144.372958,187.059406 144.372958,187.405562 C144.372958,188.497293 142.509018,188.603802 141.790068,188.603802 C141.284138,188.603802 140.937988,188.603802 140.937988,189.322739 C140.937988,189.695527 141.364028,189.695527 141.443918,189.695527 C142.908468,189.695527 144.452848,189.589017 145.917328,189.589017 C146.822648,189.589017 149.086038,189.695527 149.991358,189.695527 C150.204378,189.695527 150.630418,189.695527 150.630418,188.976583 C150.630418,188.603802 150.257618,188.603802 149.804928,188.603802 C147.568248,188.603802 147.568248,188.337524 147.461708,187.299052 L145.278268,164.85208 C145.198378,164.13313 145.198378,164 144.585978,164 C144.026808,164 143.867028,164.23967 143.654008,164.61248 L131.165729,185.568268 L131.165729,185.568268 Z M135.479368,180.29604 L142.535668,168.44683 L143.707248,180.29604 L135.479368,180.29604 L135.479368,180.29604 Z" id="Fill-1" fill="#000000" sketch:type="MSShapeGroup"></path>
            <path d="M308.26039,82.728005 C307.88759,84.139259 307.8077,84.432162 304.98521,84.432162 C304.37273,84.432162 304,84.432162 304,85.151099 C304,85.523887 304.31949,85.523887 304.98521,85.523887 L317.79297,85.523887 C323.46461,85.523887 327.72501,81.290119 327.72501,77.775321 C327.72501,75.19243 325.62146,73.11547 322.15991,72.71609 C325.88772,72.02379 329.64218,69.36101 329.64218,65.95269 C329.64218,63.28998 327.27238,61 322.95875,61 L310.89645,61 C310.23081,61 309.85801,61 309.85801,61.71895 C309.85801,62.11834 310.17757,62.11834 310.86987,62.11834 C310.94976,62.11834 311.6154,62.11834 312.22788,62.19823 C312.89352,62.25147 313.21308,62.30471 313.21308,62.7574 C313.21308,62.91718 313.15984,63.02366 313.0533,63.4497 L308.26039,82.728005 L308.26039,82.728005 Z M313.66571,72.39652 L315.90245,63.47635 C316.22194,62.22488 316.30183,62.11834 317.84628,62.11834 L322.47941,62.11834 C325.62146,62.11834 326.39365,64.24854 326.39365,65.81957 C326.39365,68.98821 323.3049,72.39652 318.91138,72.39652 L313.66571,72.39652 L313.66571,72.39652 Z M312.04144,84.432162 C311.56216,84.432162 311.48227,84.432162 311.26925,84.378904 C310.89645,84.352278 310.78998,84.325653 310.78998,84.032749 C310.78998,83.926239 310.78998,83.846355 310.97634,83.207296 L313.45269,73.16871 L320.24273,73.16871 C323.67763,73.16871 324.37,75.83149 324.37,77.375867 C324.37,80.943963 321.1747,84.432162 316.94089,84.432162 L312.04144,84.432162 L312.04144,84.432162 Z" id="Fill-3" fill="#000000" sketch:type="MSShapeGroup"></path>
            <path d="M45.254595,102.798696 C45.254595,102.692156 45.174845,102.452556 44.855145,102.452556 C44.748805,102.452556 44.722225,102.479136 44.322765,102.878596 L41.793115,105.647846 C41.473415,105.141916 39.822425,102.452556 35.855145,102.452556 C27.840155,102.452556 19.745405,110.387516 19.745405,118.721936 C19.745405,124.633211 23.979145,128.547444 29.491075,128.547444 C32.606345,128.547444 35.349355,127.109564 37.239605,125.458658 C40.594755,122.52964 41.180295,119.254456 41.180295,119.147976 C41.180295,118.775176 40.834695,118.775176 40.754255,118.775176 C40.541585,118.775176 40.354805,118.855066 40.301635,119.147976 C39.982615,120.186424 39.157125,122.74266 36.654055,124.819599 C34.177575,126.81666 31.914455,127.429093 30.050245,127.429093 C26.828295,127.429093 23.020595,125.565167 23.020595,119.973404 C23.020595,117.923096 23.766125,112.091676 27.360875,107.911176 C29.544315,105.354936 32.926045,103.544236 36.120995,103.544236 C39.795845,103.544236 41.899455,106.313496 41.899455,110.493996 C41.899455,111.931896 41.793115,111.958546 41.793115,112.304696 C41.793115,112.677496 42.192565,112.677496 42.352075,112.677496 C42.804705,112.677496 42.804705,112.597606 42.991475,111.958546 L45.254595,102.798696" id="Fill-4" fill="#000000" sketch:type="MSShapeGroup"></path>
            <path d="M200.83371,24.4660615 C200.48811,25.8773155 200.40767,26.1702185 197.58559,26.1702185 C196.97277,26.1702185 196.57332,26.1702185 196.57332,26.8359035 C196.57332,27.2619435 196.89302,27.2619435 197.58559,27.2619435 L209.46152,27.2619435 C216.9435,27.2619435 224,19.6997445 224,11.8180165 C224,6.7587765 220.9646,2.7380565 215.559,2.7380565 L203.49697,2.7380565 C202.83099,2.7380565 202.43153,2.7380565 202.43153,3.4303565 C202.43153,3.8563965 202.75123,3.8563965 203.47039,3.8563965 C203.92301,3.8563965 204.58831,3.8830465 205.01435,3.9362865 C205.574,3.9895265 205.78668,4.0960665 205.78668,4.4954565 C205.78668,4.6552365 205.76009,4.7617165 205.65375,5.1877565 L200.83371,24.4660615 L200.83371,24.4660615 Z M208.60944,5.2144065 C208.92846,3.9629365 208.98231,3.8563965 210.55286,3.8563965 L214.3872,3.8563965 C217.9019,3.8563965 220.8841,5.7469165 220.8841,10.5132465 C220.8841,12.2707065 220.1657,18.1553665 217.1036,22.0961985 C216.0648,23.4275885 213.2427,26.1702185 208.82212,26.1702185 L204.7485,26.1702185 C204.24203,26.1702185 204.18886,26.1702185 203.97618,26.1169605 C203.60331,26.0903345 203.49697,26.0637095 203.49697,25.7708055 C203.49697,25.6642955 203.49697,25.5844115 203.68306,24.9453525 L208.60944,5.2144065 L208.60944,5.2144065 Z" id="Fill-5" fill="#000000" sketch:type="MSShapeGroup"></path>
            <circle id="Oval-1" fill="#000000" sketch:type="MSShapeGroup" cx="38.5" cy="96.5" r="2.5"></circle>
            <circle id="Oval-2" fill="#000000" sketch:type="MSShapeGroup" cx="197.5" cy="2.5" r="2.5"></circle>
            <circle id="Oval-3" fill="#000000" sketch:type="MSShapeGroup" cx="306.5" cy="65.5" r="2.5"></circle>
            <circle id="Oval-4" fill="#000000" sketch:type="MSShapeGroup" cx="146.5" cy="160.5" r="2.5"></circle>
        </g>
    </g>
</svg>