<?xml version="1.0" encoding="UTF-8" standalone="no"?>
<svg width="572px" height="227px" viewBox="0 0 572 227" version="1.1" xmlns="http://www.w3.org/2000/svg" xmlns:xlink="http://www.w3.org/1999/xlink" xmlns:sketch="http://www.bohemiancoding.com/sketch/ns">
    <!-- Generator: Sketch 3.1.1 (8761) - http://www.bohemiancoding.com/sketch -->
    <title>Group</title>
    <desc>Created with Sketch.</desc>
    <defs>
        <path id="path-1" d="M-0.0470588235,16.1643636 L24.9161912,16.1643636 L24.9161912,0.168530909 L-0.0470588235,0.168530909"></path>
        <path id="path-3" d="M-0.0470588235,16.1643636 L24.9161912,16.1643636 L24.9161912,0.168530909 L-0.0470588235,0.168530909"></path>
        <path id="path-5" d="M-0.496,22.226 L30.4984,22.226 L30.4984,0.23173 L-0.496,0.23173 L-0.496,22.226 Z"></path>
        <path id="path-7" d="M-0.496,22.226 L29.504,22.226 L29.504,0.23173 L-0.496,0.23173 L-0.496,22.226 Z"></path>
    </defs>
    <g id="Page-1" stroke="none" stroke-width="1" fill="none" fill-rule="evenodd" sketch:type="MSPage">
        <g id="Group" sketch:type="MSLayerGroup" transform="translate(-11.000000, -27.000000)">
            <g id="Imported-Layers" transform="translate(425.000000, 113.000000)" fill="#000000" sketch:type="MSShapeGroup">
                <path d="M15.33001,4.45761 C14.82408,4.93696 13.6525,5.94875 13.6525,6.58781 C13.6525,6.96061 13.99865,7.30676 14.37145,7.30676 C14.69095,7.30676 14.87732,7.06715 15.06375,6.82748 C15.48979,6.2949 16.31522,5.28311 17.88624,4.51092 C18.1525,4.35114 18.49865,4.19135 18.49865,3.73866 C18.49865,3.39251 18.25905,3.20615 17.99279,3.01978 C17.22053,2.4872 16.82115,1.84814 16.52823,0.99606 C16.44834,0.64991 16.31522,0.19722 15.80928,0.19722 C15.30335,0.19722 15.09033,0.64991 15.09033,0.94282 C15.09033,1.12919 15.38325,2.27418 15.94241,3.01978 L3.85357,3.01978 C3.241144,3.01978 2.602085,3.01978 2.602085,3.73866 C2.602085,4.45761 3.241144,4.45761 3.85357,4.45761 L15.33001,4.45761" id="Fill-1"></path>
                <path d="M11.65543,12.25945 C11.01638,10.92809 9.95128,9.96954 8.353596,9.96954 C4.146474,9.96954 -0.3003117,15.24173 -0.3003117,20.487368 C-0.3003117,23.869057 1.670122,26.2389007 4.466004,26.2389007 C5.184947,26.2389007 6.969002,26.079136 9.12578,23.549528 C9.41869,25.040665 10.67023,26.2389007 12.40097,26.2389007 C13.6525,26.2389007 14.47793,25.413446 15.06375,24.268471 C15.67616,22.96372 16.12885,20.780272 16.12885,20.700388 C16.12885,20.354232 15.80928,20.354232 15.70281,20.354232 C15.35666,20.354232 15.30335,20.487368 15.19688,20.993291 C14.58447,23.336508 13.94541,25.440079 12.48086,25.440079 C11.49565,25.440079 11.38918,24.508116 11.38918,23.789173 C11.38918,22.990353 11.469,22.724075 11.86845,21.126427 C12.26784,19.635316 12.32108,19.262515 12.6673,17.904506 L13.94541,12.87192 C14.21167,11.86006 14.21167,11.80683 14.21167,11.64704 C14.21167,11.03464 13.75898,10.68849 13.14657,10.68849 C12.29449,10.68849 11.76191,11.48726 11.65543,12.25945 L11.65543,12.25945 Z M9.31222,21.552466 C9.12578,22.218151 9.12578,22.271409 8.593268,22.883843 C7.02224,24.880897 5.557728,25.440079 4.545888,25.440079 C2.73522,25.440079 2.229297,23.469643 2.229297,22.05839 C2.229297,20.274348 3.400905,15.8542 4.226358,14.20328 C5.318082,12.07308 6.942349,10.74173 8.380249,10.74173 C10.72347,10.74173 11.2294,13.69735 11.2294,13.91037 C11.2294,14.12339 11.1495,14.33641 11.12285,14.52284 L9.31222,21.552466 L9.31222,21.552466 Z" id="Fill-3"></path>
            </g>
            <g id="Imported-Layers-2" transform="translate(133.000000, 113.000000)" fill="#000000" sketch:type="MSShapeGroup">
                <path d="M15.33001,4.45761 C14.82408,4.93696 13.6525,5.94875 13.6525,6.58781 C13.6525,6.96061 13.99865,7.30676 14.37145,7.30676 C14.69095,7.30676 14.87732,7.06715 15.06375,6.82748 C15.48979,6.2949 16.31522,5.28311 17.88624,4.51092 C18.1525,4.35114 18.49865,4.19135 18.49865,3.73866 C18.49865,3.39251 18.25905,3.20615 17.99279,3.01978 C17.22053,2.4872 16.82115,1.84814 16.52823,0.99606 C16.44834,0.64991 16.31522,0.19722 15.80928,0.19722 C15.30335,0.19722 15.09033,0.64991 15.09033,0.94282 C15.09033,1.12919 15.38325,2.27418 15.94241,3.01978 L3.85357,3.01978 C3.241144,3.01978 2.602085,3.01978 2.602085,3.73866 C2.602085,4.45761 3.241144,4.45761 3.85357,4.45761 L15.33001,4.45761" id="Fill-1"></path>
                <path d="M11.65543,12.25945 C11.01638,10.92809 9.95128,9.96954 8.353596,9.96954 C4.146474,9.96954 -0.3003117,15.24173 -0.3003117,20.487368 C-0.3003117,23.869057 1.670122,26.2389007 4.466004,26.2389007 C5.184947,26.2389007 6.969002,26.079136 9.12578,23.549528 C9.41869,25.040665 10.67023,26.2389007 12.40097,26.2389007 C13.6525,26.2389007 14.47793,25.413446 15.06375,24.268471 C15.67616,22.96372 16.12885,20.780272 16.12885,20.700388 C16.12885,20.354232 15.80928,20.354232 15.70281,20.354232 C15.35666,20.354232 15.30335,20.487368 15.19688,20.993291 C14.58447,23.336508 13.94541,25.440079 12.48086,25.440079 C11.49565,25.440079 11.38918,24.508116 11.38918,23.789173 C11.38918,22.990353 11.469,22.724075 11.86845,21.126427 C12.26784,19.635316 12.32108,19.262515 12.6673,17.904506 L13.94541,12.87192 C14.21167,11.86006 14.21167,11.80683 14.21167,11.64704 C14.21167,11.03464 13.75898,10.68849 13.14657,10.68849 C12.29449,10.68849 11.76191,11.48726 11.65543,12.25945 L11.65543,12.25945 Z M9.31222,21.552466 C9.12578,22.218151 9.12578,22.271409 8.593268,22.883843 C7.02224,24.880897 5.557728,25.440079 4.545888,25.440079 C2.73522,25.440079 2.229297,23.469643 2.229297,22.05839 C2.229297,20.274348 3.400905,15.8542 4.226358,14.20328 C5.318082,12.07308 6.942349,10.74173 8.380249,10.74173 C10.72347,10.74173 11.2294,13.69735 11.2294,13.91037 C11.2294,14.12339 11.1495,14.33641 11.12285,14.52284 L9.31222,21.552466 L9.31222,21.552466 Z" id="Fill-3"></path>
            </g>
            <g transform="translate(25.000000, 52.000000)" stroke="#000000">
                <path d="M13.5,0.5 L13.5,195.5" id="Line" stroke-linecap="square" sketch:type="MSShapeGroup"></path>
                <path id="Line-decoration-1" d="M10.5,12.1 C11.55,8.32 12.45,5.08 13.5,1.3 C14.55,5.08 15.45,8.32 16.5,12.1" stroke-linecap="square"></path>
                <path d="M0.5,176.5 L235.5,176.5" id="Line" stroke-linecap="square" sketch:type="MSShapeGroup"></path>
                <path id="Line-decoration-1" d="M224.7,179.5 C228.48,178.45 231.72,177.55 235.5,176.5 C231.72,175.45 228.48,174.55 224.7,173.5" stroke-linecap="square"></path>
                <path d="M50,43 L205,140" id="Line-4" stroke-width="2" stroke-linecap="round" stroke-linejoin="round" sketch:type="MSShapeGroup" transform="translate(127.500000, 91.500000) scale(1, -1) translate(-127.500000, -91.500000) "></path>
                <path id="Line-4-decoration-1" d="M193.533213,136.363037 C197.2945,137.478215 200.51846,138.434082 204.279747,139.549261 C201.63249,136.653931 199.363413,134.172221 196.716156,131.276891" stroke-width="2" stroke-linecap="round" stroke-linejoin="round"></path>
                <path d="M207.5,41.5 L14.5,41.5" id="Line-2" stroke-linecap="round" stroke-linejoin="round" stroke-dasharray="5" sketch:type="MSShapeGroup"></path>
                <path d="M49.5,140.5 L14.5,140.5" id="Line" stroke-linecap="square" stroke-dasharray="5" sketch:type="MSShapeGroup"></path>
                <path d="M49.5,140.5 L49.5,179.5" id="Line" stroke-linecap="square" stroke-dasharray="5" sketch:type="MSShapeGroup"></path>
                <path d="M207.5,41.5 L209.5,176.5" id="Line" stroke-linecap="round" stroke-linejoin="round" stroke-dasharray="5" sketch:type="MSShapeGroup"></path>
            </g>
            <g id="Group-2" transform="translate(316.000000, 52.000000)" stroke="#000000">
                <path d="M13.5,0.5 L13.5,195.5" id="Line" stroke-linecap="square" sketch:type="MSShapeGroup"></path>
                <path id="Line-decoration-1" d="M10.5,12.1 C11.55,8.32 12.45,5.08 13.5,1.3 C14.55,5.08 15.45,8.32 16.5,12.1" stroke-linecap="square"></path>
                <path d="M0.5,176.5 L235.5,176.5" id="Line" stroke-linecap="square" sketch:type="MSShapeGroup"></path>
                <path id="Line-decoration-1" d="M224.7,179.5 C228.48,178.45 231.72,177.55 235.5,176.5 C231.72,175.45 228.48,174.55 224.7,173.5" stroke-linecap="square"></path>
                <path d="M50,43 L205,140" id="Line-4" stroke-width="2" stroke-linecap="round" stroke-linejoin="round" sketch:type="MSShapeGroup" transform="translate(127.500000, 91.500000) scale(1, -1) translate(-127.500000, -91.500000) "></path>
                <path id="Line-4-decoration-1" d="M193.533213,136.363037 C197.2945,137.478215 200.51846,138.434082 204.279747,139.549261 C201.63249,136.653931 199.363413,134.172221 196.716156,131.276891" stroke-width="2" stroke-linecap="round" stroke-linejoin="round"></path>
                <path d="M207.5,41.5 L14.5,41.5" id="Line-2" stroke-linecap="round" stroke-linejoin="round" stroke-dasharray="5" sketch:type="MSShapeGroup"></path>
                <path d="M208.5,140.5 L14.5,140.5" id="Line" stroke-linecap="square" stroke-dasharray="5" sketch:type="MSShapeGroup"></path>
                <path d="M49.5,140.5 L49.5,179.5" id="Line" stroke-linecap="square" stroke-dasharray="5" sketch:type="MSShapeGroup"></path>
                <path d="M207.5,41.5 L209.5,176.5" id="Line" stroke-linecap="round" stroke-linejoin="round" stroke-dasharray="5" sketch:type="MSShapeGroup"></path>
            </g>
            <g id="Imported-Layers" transform="translate(16.000000, 186.000000)" fill="#000000" sketch:type="MSShapeGroup">
                <path d="M10.235886,1.67433333 C10.315764,1.33704667 10.315764,1.28378667 10.315764,1.124 C10.315764,0.68024 10.028202,0.4672 9.6927,0.4672 C9.48501,0.4672 9.133518,0.609213333 8.941776,0.981986667 C8.893884,1.08851333 8.734092,1.83406667 8.63826,2.26010667 C8.494458,2.88142 8.334702,3.53822667 8.20689,4.17730667 L7.248282,8.49096 C7.152414,8.84597333 6.225786,10.5323607 4.8039066,10.5323607 C3.7015104,10.5323607 3.461862,9.46728467 3.461862,8.57971333 C3.461862,7.4791 3.8293224,6.00570667 4.5642342,3.89328 C4.9157268,2.91691333 4.9956036,2.65065333 4.9956036,2.17135333 C4.9956036,1.08851333 4.3086102,0.20094 3.2381934,0.20094 C1.1932044,0.20094 0.3943788,3.68024 0.3943788,3.89328 C0.3943788,4.14176667 0.6020718,4.14176667 0.6500022,4.14176667 C0.8576952,4.14176667 0.8896506,4.08855333 0.9855072,3.69800667 C1.5766398,1.46128667 2.4393678,0.733453333 3.1742874,0.733453333 C3.3340506,0.733453333 3.7015104,0.733453333 3.7015104,1.49678 C3.7015104,2.10037333 3.4938174,2.72164 3.3340506,3.18321333 C2.4713226,5.72168 2.0878872,7.07083333 2.0878872,8.20693333 C2.0878872,10.337132 3.4458864,11.047198 4.7239884,11.047198 C5.554788,11.047198 6.289716,10.6388813 6.89679,9.98207667 C6.609222,11.2247027 6.353598,12.396304 5.490858,13.656672 C4.9317186,14.4732453 4.1169132,15.16556 3.126357,15.16556 C2.8228032,15.16556 1.8482388,15.0945533 1.480779,14.1714687 C1.8322638,14.1714687 2.1198384,14.1714687 2.4074166,13.8696913 C2.6310852,13.656672 2.8387788,13.3548953 2.8387788,12.89335 C2.8387788,12.1477833 2.2636254,12.059022 2.0399568,12.059022 C1.5606606,12.059022 0.8417202,12.4495607 0.8417202,13.6211667 C0.8417202,14.8105273 1.7843334,15.6981103 3.126357,15.6981103 C5.3470968,15.6981103 7.56783,13.5146587 8.17491,10.8163867 L10.235886,1.67433333" id="Fill-1"></path>
                <path d="M14.6794339,6.68152847 C14.6794339,6.30421786 14.6533192,6.28969333 14.3137445,6.28969333 C13.5300628,7.16044536 12.4068113,7.17496988 11.897442,7.17496988 L11.897442,7.65384861 C12.1978348,7.65384861 13.0076263,7.65384861 13.6868148,7.27654345 L13.6868148,14.2424174 C13.6868148,14.6922978 13.6868148,14.8809563 12.4590702,14.8809563 L11.9888582,14.8809563 L11.9888582,15.359859 C12.2109068,15.3453476 13.7260016,15.3163214 14.1700646,15.3163214 C14.5619079,15.3163214 16.1030781,15.3453476 16.3773562,15.359859 L16.3773562,14.8809563 L15.9071785,14.8809563 C14.6794339,14.8809563 14.6794339,14.6922978 14.6794339,14.2424174 L14.6794339,6.68152847" id="Fill-3"></path>
            </g>
            <g id="Imported-Layers" transform="translate(14.000000, 88.000000)" fill="#000000" sketch:type="MSShapeGroup">
                <path d="M11.3732067,1.67433333 C11.46196,1.33704667 11.46196,1.28378667 11.46196,1.124 C11.46196,0.68024 11.1424467,0.4672 10.7696667,0.4672 C10.5389,0.4672 10.1483533,0.609213333 9.93530667,0.981986667 C9.88209333,1.08851333 9.70454667,1.83406667 9.59806667,2.26010667 C9.43828667,2.88142 9.26078,3.53822667 9.11876667,4.17730667 L8.05364667,8.49096 C7.94712667,8.84597333 6.91754,10.5323607 5.337674,10.5323607 C4.11278933,10.5323607 3.84651333,9.46728467 3.84651333,8.57971333 C3.84651333,7.4791 4.25480267,6.00570667 5.07137133,3.89328 C5.46191867,2.91691333 5.55067067,2.65065333 5.55067067,2.17135333 C5.55067067,1.08851333 4.78734467,0.20094 3.59799267,0.20094 C1.32578267,0.20094 0.438198667,3.68024 0.438198667,3.89328 C0.438198667,4.14176667 0.668968667,4.14176667 0.722224667,4.14176667 C0.952994667,4.14176667 0.988500667,4.08855333 1.095008,3.69800667 C1.751822,1.46128667 2.71040867,0.733453333 3.526986,0.733453333 C3.70450067,0.733453333 4.11278933,0.733453333 4.11278933,1.49678 C4.11278933,2.10037333 3.88201933,2.72164 3.70450067,3.18321333 C2.745914,5.72168 2.31987467,7.07083333 2.31987467,8.20693333 C2.31987467,10.337132 3.82876267,11.047198 5.248876,11.047198 C6.17198667,11.047198 6.98857333,10.6388813 7.6631,9.98207667 C7.34358,11.2247027 7.05955333,12.396304 6.10095333,13.656672 C5.47968733,14.4732453 4.574348,15.16556 3.47373,15.16556 C3.136448,15.16556 2.05359867,15.0945533 1.64531,14.1714687 C2.03584867,14.1714687 2.355376,14.1714687 2.67490733,13.8696913 C2.923428,13.656672 3.15419867,13.3548953 3.15419867,12.89335 C3.15419867,12.1477833 2.51513933,12.059022 2.26661867,12.059022 C1.73406733,12.059022 0.935244667,12.4495607 0.935244667,13.6211667 C0.935244667,14.8105273 1.98259267,15.6981103 3.47373,15.6981103 C5.94121867,15.6981103 8.4087,13.5146587 9.08323333,10.8163867 L11.3732067,1.67433333" id="Fill-1"></path>
                <path d="M17.5130008,13.899937 L17.0470864,13.899937 C17.0033968,14.2056988 16.8723828,15.0064951 16.6976464,15.1520967 C16.5811665,15.2248953 15.5328468,15.2248953 15.3289986,15.2248953 L12.8101289,15.2248953 C14.2515671,13.9581765 14.7320593,13.5796007 15.5474191,12.9244061 C16.566627,12.123623 17.5130008,11.2645791 17.5130008,9.96872714 C17.5130008,8.30890126 16.057023,7.28969333 14.309829,7.28969333 C12.6063135,7.28969333 11.4560533,8.48363762 11.4560533,9.7503395 C11.4560533,10.4492193 12.0384532,10.5220152 12.1840449,10.5220152 C12.5189453,10.5220152 12.9120693,10.2890553 12.9120693,9.79402359 C12.9120693,9.54649136 12.8101289,9.06603746 12.0967096,9.06603746 C12.5189453,8.09051362 13.4507851,7.78475781 14.1059808,7.78475781 C15.4746232,7.78475781 16.1880425,8.86218931 16.1880425,9.96872714 C16.1880425,11.1626714 15.3289986,12.1090452 14.8922288,12.6041146 L11.5871056,15.865534 C11.4560533,15.982014 11.4560533,16.0111356 11.4560533,16.3896933 L17.1053427,16.3896933 L17.5130008,13.899937" id="Fill-3"></path>
            </g>
            <g id="Imported-Layers" transform="translate(226.000000, 237.000000)">
                <mask id="mask-2" sketch:name="Clip 2" fill="white">
                    <use xlink:href="#path-1"></use>
                </mask>
                <g id="Clip-2"></g>
                <path d="M8.70474265,3.77049455 C8.861375,3.09269818 9.46835294,0.691403636 11.3087941,0.691403636 C11.4458309,0.691403636 12.0723603,0.691403636 12.6401397,1.02058909 C11.896125,1.15617455 11.3674853,1.81458909 11.3674853,2.43428364 C11.3674853,2.86033455 11.6612059,3.34443636 12.3660221,3.34443636 C12.9534044,3.34443636 13.7953088,2.87966545 13.7953088,1.83392 C13.7953088,0.478378182 12.2289926,0.110429091 11.3479412,0.110429091 C9.80116912,0.110429091 8.88097059,1.50474182 8.56770588,2.08571636 C7.90203676,0.362174545 6.47274706,0.110429091 5.70918456,0.110429091 C2.96811176,0.110429091 1.46052426,3.48002909 1.46052426,4.13844364 C1.46052426,4.39018182 1.73463309,4.39018182 1.77378824,4.39018182 C1.98915882,4.39018182 2.067475,4.35146909 2.12621324,4.09972364 C3.02684559,1.33043636 4.76938162,0.691403636 5.67003897,0.691403636 C6.15948309,0.691403636 7.07972794,0.923767273 7.07972794,2.43428364 C7.07972794,3.24762182 6.62938235,4.99049455 5.67003897,8.65055273 C5.2392875,10.2772742 4.3190625,11.3617382 3.14432206,11.3617382 C2.98768971,11.3617382 2.38073897,11.3617382 1.83252647,11.0325069 C2.49821544,10.896968 3.06600588,10.3547113 3.06600588,9.61886182 C3.06600588,8.92168 2.49821544,8.70865455 2.10663529,8.70865455 C1.30389191,8.70865455 0.638208088,9.38645091 0.638208088,10.2191716 C0.638208088,11.4198356 1.96958088,11.9426982 3.12474412,11.9426982 C4.867275,11.9426982 5.82667059,10.1223505 5.90496176,9.94804291 C6.21822574,10.916352 7.17761765,11.9426982 8.74394118,11.9426982 C11.4654265,11.9426982 12.9730074,8.57312 12.9730074,7.91470545 C12.9730074,7.66296 12.7380294,7.66296 12.6597426,7.66296 C12.4247647,7.66296 12.3660221,7.75978182 12.3268824,7.95342545 C11.4458309,10.7420444 9.64453676,11.3617382 8.80268382,11.3617382 C7.78454412,11.3617382 7.35379412,10.5290182 7.35379412,9.63819636 C7.35379412,9.07660364 7.51042647,8.49562909 7.80414706,7.35311273 L8.70474265,3.77049455" id="Fill-1" fill="#000000" sketch:type="MSShapeGroup" mask="url(#mask-2)"></path>
                <path d="M21.229421,13.0902675 L20.7583662,13.0902675 C20.7288945,13.3814679 20.5816964,14.1968295 20.4050709,14.3278691 C20.2873058,14.4152272 19.2274199,14.4152272 19.0360558,14.4152272 L16.4893565,14.4152272 C17.9320038,13.1339446 18.4177641,12.7553861 19.2568529,12.1147259 C20.2873058,11.2993649 21.229421,10.4548908 21.229421,9.15907251 C21.229421,7.4992024 19.7720793,6.48002909 17.9908698,6.48002909 C16.2685594,6.48002909 15.1056471,7.67393938 15.1056471,8.92611174 C15.1056471,9.62499405 15.7091669,9.69779019 15.8416706,9.69779019 C16.1802273,9.69779019 16.5776887,9.46482942 16.5776887,8.96975771 C16.5776887,8.72226286 16.4893565,8.24176896 15.7680716,8.24176896 C16.1949659,7.28081398 17.1370812,6.97506253 17.7847726,6.97506253 C19.1685208,6.97506253 19.8898444,8.03792008 19.8898444,9.15907251 C19.8898444,10.3384104 19.0360558,11.2848281 18.5944284,11.7798593 L15.2528451,15.0413091 C15.1056471,15.1723487 15.1056471,15.2014704 15.1056471,15.5800295 L20.8172266,15.5800295 L21.229421,13.0902675" id="Fill-3" fill="#000000" sketch:type="MSShapeGroup" mask="url(#mask-2)"></path>
            </g>
            <g id="Imported-Layers-3" transform="translate(67.000000, 237.000000)">
                <mask id="mask-4" sketch:name="Clip 2" fill="white">
                    <use xlink:href="#path-3"></use>
                </mask>
                <g id="Clip-2"></g>
                <path d="M8.70474265,3.77049455 C8.861375,3.09269818 9.46835294,0.691403636 11.3087941,0.691403636 C11.4458309,0.691403636 12.0723603,0.691403636 12.6401397,1.02058909 C11.896125,1.15617455 11.3674853,1.81458909 11.3674853,2.43428364 C11.3674853,2.86033455 11.6612059,3.34443636 12.3660221,3.34443636 C12.9534044,3.34443636 13.7953088,2.87966545 13.7953088,1.83392 C13.7953088,0.478378182 12.2289926,0.110429091 11.3479412,0.110429091 C9.80116912,0.110429091 8.88097059,1.50474182 8.56770588,2.08571636 C7.90203676,0.362174545 6.47274706,0.110429091 5.70918456,0.110429091 C2.96811176,0.110429091 1.46052426,3.48002909 1.46052426,4.13844364 C1.46052426,4.39018182 1.73463309,4.39018182 1.77378824,4.39018182 C1.98915882,4.39018182 2.067475,4.35146909 2.12621324,4.09972364 C3.02684559,1.33043636 4.76938162,0.691403636 5.67003897,0.691403636 C6.15948309,0.691403636 7.07972794,0.923767273 7.07972794,2.43428364 C7.07972794,3.24762182 6.62938235,4.99049455 5.67003897,8.65055273 C5.2392875,10.2772742 4.3190625,11.3617382 3.14432206,11.3617382 C2.98768971,11.3617382 2.38073897,11.3617382 1.83252647,11.0325069 C2.49821544,10.896968 3.06600588,10.3547113 3.06600588,9.61886182 C3.06600588,8.92168 2.49821544,8.70865455 2.10663529,8.70865455 C1.30389191,8.70865455 0.638208088,9.38645091 0.638208088,10.2191716 C0.638208088,11.4198356 1.96958088,11.9426982 3.12474412,11.9426982 C4.867275,11.9426982 5.82667059,10.1223505 5.90496176,9.94804291 C6.21822574,10.916352 7.17761765,11.9426982 8.74394118,11.9426982 C11.4654265,11.9426982 12.9730074,8.57312 12.9730074,7.91470545 C12.9730074,7.66296 12.7380294,7.66296 12.6597426,7.66296 C12.4247647,7.66296 12.3660221,7.75978182 12.3268824,7.95342545 C11.4458309,10.7420444 9.64453676,11.3617382 8.80268382,11.3617382 C7.78454412,11.3617382 7.35379412,10.5290182 7.35379412,9.63819636 C7.35379412,9.07660364 7.51042647,8.49562909 7.80414706,7.35311273 L8.70474265,3.77049455" id="Fill-1" fill="#000000" sketch:type="MSShapeGroup" mask="url(#mask-4)"></path>
                <path d="M17.7819919,7.39183514 C17.7819919,7.01452452 17.7558772,7 17.4163025,7 C16.6326208,7.87075202 15.5093693,7.88527655 15,7.88527655 L15,8.36415528 C15.3003928,8.36415528 16.1101843,8.36415528 16.7893728,7.98685011 L16.7893728,14.952724 C16.7893728,15.4026044 16.7893728,15.591263 15.5616282,15.591263 L15.0914162,15.591263 L15.0914162,16.0701657 C15.3134648,16.0556543 16.8285596,16.0266281 17.2726226,16.0266281 C17.6644659,16.0266281 19.2056361,16.0556543 19.4799142,16.0701657 L19.4799142,15.591263 L19.0097365,15.591263 C17.7819919,15.591263 17.7819919,15.4026044 17.7819919,14.952724 L17.7819919,7.39183514" id="Fill-4" fill="#000000" sketch:type="MSShapeGroup" mask="url(#mask-4)"></path>
            </g>
            <path d="M83.035311,208.872741 C81.597424,211.295842 80.186171,211.801766 78.615149,211.908275 C78.189109,211.934901 77.869582,211.934901 77.869582,212.627212 C77.869582,212.840231 78.029348,213 78.322252,213 C79.307466,213 80.39919,212.89349 81.411037,212.89349 C82.609271,212.89349 83.860764,213 85.005733,213 C85.218752,213 85.698029,213 85.698029,212.334315 C85.698029,211.934901 85.378534,211.908275 85.112276,211.908275 C84.286783,211.828391 83.434724,211.535488 83.434724,210.630157 C83.434724,210.204118 83.647744,209.804704 83.940641,209.325407 L86.65665,204.718853 L95.68337,204.718853 C95.73661,205.464454 96.24254,210.363879 96.24254,210.710035 C96.24254,211.801766 94.3786,211.908275 93.65965,211.908275 C93.15372,211.908275 92.80757,211.908275 92.80757,212.627212 C92.80757,213 93.23361,213 93.3135,213 C94.77805,213 96.32243,212.89349 97.78691,212.89349 C98.69223,212.89349 100.95562,213 101.86094,213 C102.07396,213 102.5,213 102.5,212.281056 C102.5,211.908275 102.1272,211.908275 101.67451,211.908275 C99.43783,211.908275 99.43783,211.641997 99.33129,210.603525 L97.14785,188.156553 C97.06796,187.437603 97.06796,187.304473 96.45556,187.304473 C95.89639,187.304473 95.73661,187.544143 95.52359,187.916953 L83.035311,208.872741 L83.035311,208.872741 Z M87.34895,203.600513 L94.40525,191.751303 L95.57683,203.600513 L87.34895,203.600513 L87.34895,203.600513 Z" id="Fill-2" fill="#000000" sketch:type="MSShapeGroup"></path>
            <path d="M239.4393,102.204118 C239.0665,103.615372 238.98661,103.908275 236.16412,103.908275 C235.55164,103.908275 235.17891,103.908275 235.17891,104.627212 C235.17891,105 235.4984,105 236.16412,105 L248.97188,105 C254.64352,105 258.90392,100.766232 258.90392,97.251434 C258.90392,94.668543 256.80037,92.591583 253.33882,92.192203 C257.06663,91.499903 260.82109,88.837123 260.82109,85.428803 C260.82109,82.766093 258.45129,80.476113 254.13766,80.476113 L242.07536,80.476113 C241.40972,80.476113 241.03692,80.476113 241.03692,81.195063 C241.03692,81.594453 241.35648,81.594453 242.04878,81.594453 C242.12867,81.594453 242.79431,81.594453 243.40679,81.674343 C244.07243,81.727583 244.39199,81.780823 244.39199,82.233513 C244.39199,82.393293 244.33875,82.499773 244.23221,82.925813 L239.4393,102.204118 L239.4393,102.204118 Z M244.84462,91.872633 L247.08136,82.952463 C247.40085,81.700993 247.48074,81.594453 249.02519,81.594453 L253.65832,81.594453 C256.80037,81.594453 257.57256,83.724653 257.57256,85.295683 C257.57256,88.464323 254.48381,91.872633 250.09029,91.872633 L244.84462,91.872633 L244.84462,91.872633 Z M243.22035,103.908275 C242.74107,103.908275 242.66118,103.908275 242.44816,103.855017 C242.07536,103.828391 241.96889,103.801766 241.96889,103.508862 C241.96889,103.402352 241.96889,103.322468 242.15525,102.683409 L244.6316,92.644823 L251.42164,92.644823 C254.85654,92.644823 255.54891,95.307603 255.54891,96.85198 C255.54891,100.420076 252.35361,103.908275 248.1198,103.908275 L243.22035,103.908275 L243.22035,103.908275 Z" id="Fill-4" fill="#000000" sketch:type="MSShapeGroup"></path>
            <circle id="Oval-5" fill="#000000" sketch:type="MSShapeGroup" cx="75" cy="192" r="2"></circle>
            <circle id="Oval-6" fill="#000000" sketch:type="MSShapeGroup" cx="232" cy="93" r="2"></circle>
            <g id="Imported-Layers" transform="translate(535.000000, 135.000000)">
                <mask id="mask-6" sketch:name="Clip 2" fill="white">
                    <use xlink:href="#path-5"></use>
                </mask>
                <g id="Clip-2"></g>
                <path d="M11.99227,2.44182 C11.35321,1.1104 10.31477,0.15184 8.6905,0.15184 C4.483337,0.15184 0.036549,5.4241 0.036549,10.6697 C0.036549,14.051361 2.006985,16.42121 4.829492,16.42121 C5.548435,16.42121 7.332491,16.288075 9.48927,13.731866 C9.78218,15.223003 11.03372,16.42121 12.76446,16.42121 C14.01599,16.42121 14.84142,15.595764 15.40059,14.450747 C16.01306,13.146044 16.49234,10.96261 16.49234,10.88272 C16.49234,10.53657 16.17277,10.53657 16.0663,10.53657 C15.6935,10.53657 15.66684,10.6697 15.56037,11.17563 C14.94796,13.518846 14.3089,15.62239 12.81776,15.62239 C11.85914,15.62239 11.75267,14.69042 11.75267,13.97147 C11.75267,13.199282 11.83249,12.90637 12.20529,11.30876 C12.60474,9.81762 12.68457,9.44482 13.00413,8.08681 L14.3089,3.05423 C14.54851,2.06902 14.54851,1.98913 14.54851,1.82935 C14.54851,1.21694 14.12247,0.87079 13.51006,0.87079 C12.65798,0.87079 12.09881,1.66957 11.99227,2.44182 L11.99227,2.44182 Z M9.67571,11.76138 C9.48927,12.40044 9.48927,12.48033 8.956757,13.092806 C7.359075,15.063222 5.894591,15.62239 4.882751,15.62239 C3.098709,15.62239 2.592785,13.651975 2.592785,12.26731 C2.592785,10.45668 3.737768,6.0365 4.563221,4.38558 C5.681571,2.28204 7.305838,0.95068 8.743737,0.95068 C11.0603,0.95068 11.56623,3.87965 11.56623,4.09267 C11.56623,4.30569 11.51299,4.54537 11.45976,4.70515 L9.67571,11.76138 L9.67571,11.76138 Z" id="Fill-1" fill="#000000" sketch:type="MSShapeGroup" mask="url(#mask-6)"></path>
                <path d="M26.1585746,16.5154837 L25.6136956,16.5154837 C25.5796566,16.8560325 25.4093915,17.8095695 25.2050363,17.9628158 C25.0688165,18.0649781 23.8428451,18.0649781 23.6214928,18.0649781 L20.6757517,18.0649781 C22.3444278,16.5665626 22.9063487,16.1238516 23.8769288,15.3746219 C25.0518195,14.4210855 26.1585746,13.4335025 26.1585746,11.918088 C26.1585746,9.97692771 24.4728951,8.78504 22.4125569,8.78504 C20.4203541,8.78504 19.07516,10.1812765 19.07516,11.6456485 C19.07516,12.4629671 19.7733006,12.5480996 19.9265623,12.5480996 C20.3181797,12.5480996 20.7779262,12.2756601 20.7779262,11.696691 C20.7779262,11.4072543 20.6757517,10.8453335 19.8243879,10.8453335 C20.3352215,9.72153005 21.4249796,9.36396438 22.1741627,9.36396438 C23.7747544,9.36396438 24.6091148,10.6069393 24.6091148,11.918088 C24.6091148,13.2972827 23.6214928,14.4040852 23.1107039,14.983007 L19.2454635,18.7971589 C19.07516,18.9504052 19.07516,18.9844621 19.07516,19.4271737 L25.681831,19.4271737 L26.1585746,16.5154837" id="Fill-3" fill="#000000" sketch:type="MSShapeGroup" mask="url(#mask-6)"></path>
            </g>
            <g id="Imported-Layers" transform="translate(424.000000, 197.000000)">
                <mask id="mask-8" sketch:name="Clip 2" fill="white">
                    <use xlink:href="#path-7"></use>
                </mask>
                <g id="Clip-2"></g>
                <path d="M11.99227,2.44182 C11.35321,1.1104 10.31477,0.15184 8.6905,0.15184 C4.483337,0.15184 0.036549,5.4241 0.036549,10.6697 C0.036549,14.051361 2.006985,16.42121 4.829492,16.42121 C5.548435,16.42121 7.332491,16.288075 9.48927,13.731866 C9.78218,15.223003 11.03372,16.42121 12.76446,16.42121 C14.01599,16.42121 14.84142,15.595764 15.40059,14.450747 C16.01306,13.146044 16.49234,10.96261 16.49234,10.88272 C16.49234,10.53657 16.17277,10.53657 16.0663,10.53657 C15.6935,10.53657 15.66684,10.6697 15.56037,11.17563 C14.94796,13.518846 14.3089,15.62239 12.81776,15.62239 C11.85914,15.62239 11.75267,14.69042 11.75267,13.97147 C11.75267,13.199282 11.83249,12.90637 12.20529,11.30876 C12.60474,9.81762 12.68457,9.44482 13.00413,8.08681 L14.3089,3.05423 C14.54851,2.06902 14.54851,1.98913 14.54851,1.82935 C14.54851,1.21694 14.12247,0.87079 13.51006,0.87079 C12.65798,0.87079 12.09881,1.66957 11.99227,2.44182 L11.99227,2.44182 Z M9.67571,11.76138 C9.48927,12.40044 9.48927,12.48033 8.956757,13.092806 C7.359075,15.063222 5.894591,15.62239 4.882751,15.62239 C3.098709,15.62239 2.592785,13.651975 2.592785,12.26731 C2.592785,10.45668 3.737768,6.0365 4.563221,4.38558 C5.681571,2.28204 7.305838,0.95068 8.743737,0.95068 C11.0603,0.95068 11.56623,3.87965 11.56623,4.09267 C11.56623,4.30569 11.51299,4.54537 11.45976,4.70515 L9.67571,11.76138 L9.67571,11.76138 Z" id="Fill-1" fill="#000000" sketch:type="MSShapeGroup" mask="url(#mask-8)"></path>
                <path d="M22.856598,9.22774462 C22.856598,8.80203709 22.8225527,8.78504 22.379848,8.78504 C21.3581807,9.78962075 19.8938534,9.8066626 19.2468,9.8066626 L19.2468,10.385587 C19.6214139,10.385587 20.6770819,10.385587 21.5625359,9.94288236 L21.5625359,18.1160614 C21.5625359,18.6439133 21.5625359,18.8482429 19.9619441,18.8482429 L19.3489744,18.8482429 L19.3489744,19.4271737 C19.6384174,19.4101472 21.6136231,19.3590638 22.2095893,19.3590638 C22.7033748,19.3590638 24.7126258,19.4101472 25.0701978,19.4271737 L25.0701978,18.8482429 L24.4571897,18.8482429 C22.856598,18.8482429 22.856598,18.6439133 22.856598,18.1160614 L22.856598,9.22774462" id="Fill-3" fill="#000000" sketch:type="MSShapeGroup" mask="url(#mask-8)"></path>
            </g>
            <path d="M32.122869,31.5501323 L32.628799,31.0707923 C33.693889,29.9791023 34.892119,28.7542223 37.341809,28.5944423 C37.714619,28.5412023 38.060759,28.5412023 38.060759,27.9021523 C38.060759,27.6092423 37.874399,27.4761123 37.581489,27.4761123 C36.649519,27.4761123 35.611069,27.5825823 34.625859,27.5825823 C33.454219,27.5825823 32.202759,27.4761123 31.057769,27.4761123 C30.818089,27.4761123 30.365469,27.4761123 30.365469,28.1418223 C30.365469,28.5412023 30.711619,28.5944423 30.897989,28.5944423 C31.164239,28.5944423 32.202759,28.6476823 32.202759,29.4199423 C32.202759,30.0323423 31.377259,30.9643123 31.217549,31.1240923 L22.883129,40.7099823 L18.942297,30.0590023 C18.729277,29.5530723 18.729277,29.4731723 18.729277,29.4465223 C18.729277,28.5944423 20.486673,28.5944423 20.832819,28.5944423 C21.338749,28.5944423 21.711549,28.5944423 21.711549,27.8754923 C21.711549,27.4761123 21.285509,27.4761123 21.178969,27.4761123 C20.167109,27.4761123 17.637519,27.5825823 16.652305,27.5825823 C15.746968,27.5825823 13.510261,27.4761123 12.631556,27.4761123 C12.391911,27.4761123 11.939241,27.4761123 11.939241,28.1950623 C11.939241,28.5944423 12.285401,28.5944423 12.764692,28.5944423 C14.921515,28.5944423 15.054657,28.9140123 15.374187,29.7926723 L19.794376,41.6153023 C19.847614,41.7217723 19.954089,42.1212323 19.954089,42.2277023 C19.954089,42.3342523 18.516258,48.1123923 18.329823,48.7780773 C17.877164,50.7485063 17.823913,50.8550163 14.948147,50.8816483 C14.282456,50.8816483 13.989559,50.8816483 13.989559,51.6005853 C13.989559,52 14.415598,52 14.495475,52 C15.507322,52 18.0103,51.8934902 19.02212,51.8934902 C20.007395,51.8934902 22.616869,52 23.602079,52 C23.868339,52 24.294379,52 24.294379,51.2810553 C24.294379,50.8816483 23.974879,50.8816483 23.282509,50.8816483 C23.229279,50.8816483 22.536979,50.8816483 21.924569,50.8017643 C21.178969,50.7485063 20.965949,50.6686293 20.965949,50.2425893 C20.965949,49.9763113 21.285509,48.7248193 21.445229,47.9792503 L22.723349,42.9200023 C22.883129,42.2277023 22.936369,42.1212323 23.202689,41.8016623 L32.122869,31.5501323" id="Fill-1" fill="#000000" sketch:type="MSShapeGroup"></path>
            <path d="M323.122869,31.07402 L323.628799,30.59468 C324.693889,29.50299 325.892119,28.27811 328.341809,28.11833 C328.714619,28.06509 329.060759,28.06509 329.060759,27.42604 C329.060759,27.13313 328.874399,27 328.581489,27 C327.649519,27 326.611069,27.10647 325.625859,27.10647 C324.454219,27.10647 323.202759,27 322.057769,27 C321.818089,27 321.365469,27 321.365469,27.66571 C321.365469,28.06509 321.711619,28.11833 321.897989,28.11833 C322.164239,28.11833 323.202759,28.17157 323.202759,28.94383 C323.202759,29.55623 322.377259,30.4882 322.217549,30.64798 L313.883129,40.23387 L309.942297,29.58289 C309.729277,29.07696 309.729277,28.99706 309.729277,28.97041 C309.729277,28.11833 311.486673,28.11833 311.832819,28.11833 C312.338749,28.11833 312.711549,28.11833 312.711549,27.39938 C312.711549,27 312.285509,27 312.178969,27 C311.167109,27 308.637519,27.10647 307.652305,27.10647 C306.746968,27.10647 304.510261,27 303.631556,27 C303.391911,27 302.939241,27 302.939241,27.71895 C302.939241,28.11833 303.285401,28.11833 303.764692,28.11833 C305.921515,28.11833 306.054657,28.4379 306.374187,29.31656 L310.794376,41.13919 C310.847614,41.24566 310.954089,41.64512 310.954089,41.75159 C310.954089,41.85814 309.516258,47.63628 309.329823,48.301965 C308.877164,50.272394 308.823913,50.378904 305.948147,50.405536 C305.282456,50.405536 304.989559,50.405536 304.989559,51.124473 C304.989559,51.5238877 305.415598,51.5238877 305.495475,51.5238877 C306.507322,51.5238877 309.0103,51.4173779 310.02212,51.4173779 C311.007395,51.4173779 313.616869,51.5238877 314.602079,51.5238877 C314.868339,51.5238877 315.294379,51.5238877 315.294379,50.804943 C315.294379,50.405536 314.974879,50.405536 314.282509,50.405536 C314.229279,50.405536 313.536979,50.405536 312.924569,50.325652 C312.178969,50.272394 311.965949,50.192517 311.965949,49.766477 C311.965949,49.500199 312.285509,48.248707 312.445229,47.503138 L313.723349,42.44389 C313.883129,41.75159 313.936369,41.64512 314.202689,41.32555 L323.122869,31.07402" id="Fill-5" fill="#000000" sketch:type="MSShapeGroup"></path>
            <path d="M277.4291,228.77225 L274.42024,221.60947 C274.31369,221.31656 274.2338,221.18343 274.2338,221.15685 C274.2338,220.94383 274.84628,220.25146 276.364,220.11833 C276.71015,220.06509 277.08295,220.03844 277.08295,219.42604 C277.08295,219 276.65691,219 276.55043,219 C275.0593,219 273.51485,219.10647 272.02371,219.10647 C271.1184,219.10647 268.88172,219 268.00299,219 C267.78997,219 267.33728,219 267.33728,219.71895 C267.33728,220.11833 267.71008,220.11833 268.18936,220.11833 C270.31956,220.11833 270.55923,220.46448 270.87872,221.26332 L275.11253,231.27525 L267.52372,239.423261 L267.07102,239.822668 C265.31363,241.713219 263.60947,242.299027 261.77218,242.405536 C261.31949,242.432162 261,242.432162 261,243.124473 C261,243.151105 261,243.523888 261.45262,243.523888 C262.54437,243.523888 263.71595,243.417378 264.83435,243.417378 C266.16571,243.417378 267.57695,243.523888 268.85507,243.523888 C269.06809,243.523888 269.49413,243.523888 269.49413,242.804943 C269.49413,242.432162 269.14798,242.405536 269.06809,242.405536 C268.74853,242.378904 267.63019,242.299027 267.63019,241.28718 C267.63019,240.728005 268.18936,240.142197 268.6154,239.689532 L272.26339,235.801899 L275.51192,232.28711 L279.13325,240.86114 C279.26638,241.260554 279.31969,241.28718 279.31969,241.367064 C279.31969,241.659968 278.62732,242.272394 277.21608,242.405536 C276.84328,242.432162 276.49713,242.485414 276.49713,243.097847 C276.49713,243.523888 276.89658,243.523888 277.0563,243.523888 C278.04157,243.523888 280.57115,243.417378 281.58302,243.417378 C282.46168,243.417378 284.67177,243.523888 285.5505,243.523888 C285.81676,243.523888 286.2428,243.523888 286.2428,242.831576 C286.2428,242.405536 285.89665,242.405536 285.60374,242.405536 C283.18063,242.378904 283.12739,242.272394 282.51498,240.834515 C281.10367,237.479451 278.70722,231.88765 277.88179,229.73087 C280.3049,227.22787 284.08595,222.94083 285.23093,221.92903 C286.26945,221.07696 287.65404,220.22488 289.81089,220.09175 C290.26352,220.06509 290.58308,220.06509 290.58308,219.3728 C290.58308,219.34615 290.58308,219 290.13039,219 C289.0387,219 287.86706,219.10647 286.74873,219.10647 C285.41737,219.10647 284.05936,219 282.75459,219 C282.54157,219 282.08895,219 282.08895,219.71895 C282.08895,219.95855 282.24866,220.06509 282.51498,220.09175 C282.83448,220.14499 283.95282,220.22488 283.95282,221.21008 C283.95282,221.71601 283.55343,222.19529 283.26052,222.51479 L277.45575,228.74566" id="Fill-3" fill="#000000" sketch:type="MSShapeGroup"></path>
            <path d="M569.63756,228.77225 L566.6287,221.60947 C566.52215,221.31656 566.44226,221.18343 566.44226,221.15685 C566.44226,220.94383 567.05474,220.25146 568.57246,220.11833 C568.91861,220.06509 569.29141,220.03844 569.29141,219.42604 C569.29141,219 568.86537,219 568.75889,219 C567.26776,219 565.72331,219.10647 564.23217,219.10647 C563.32686,219.10647 561.09018,219 560.21145,219 C559.99843,219 559.54574,219 559.54574,219.71895 C559.54574,220.11833 559.91854,220.11833 560.39782,220.11833 C562.52802,220.11833 562.76769,220.46448 563.08718,221.26332 L567.32099,231.27525 L559.73218,239.423261 L559.27948,239.822668 C557.52209,241.713219 555.81793,242.299027 553.98064,242.405536 C553.52795,242.432162 553.20846,242.432162 553.20846,243.124473 C553.20846,243.151105 553.20846,243.523888 553.66108,243.523888 C554.75283,243.523888 555.92441,243.417378 557.04281,243.417378 C558.37417,243.417378 559.78541,243.523888 561.06353,243.523888 C561.27655,243.523888 561.70259,243.523888 561.70259,242.804943 C561.70259,242.432162 561.35644,242.405536 561.27655,242.405536 C560.95699,242.378904 559.83865,242.299027 559.83865,241.28718 C559.83865,240.728005 560.39782,240.142197 560.82386,239.689532 L564.47185,235.801899 L567.72038,232.28711 L571.34171,240.86114 C571.47484,241.260554 571.52815,241.28718 571.52815,241.367064 C571.52815,241.659968 570.83578,242.272394 569.42454,242.405536 C569.05174,242.432162 568.70559,242.485414 568.70559,243.097847 C568.70559,243.523888 569.10504,243.523888 569.26476,243.523888 C570.25003,243.523888 572.77961,243.417378 573.79148,243.417378 C574.67014,243.417378 576.88023,243.523888 577.75896,243.523888 C578.02522,243.523888 578.45126,243.523888 578.45126,242.831576 C578.45126,242.405536 578.10511,242.405536 577.8122,242.405536 C575.38909,242.378904 575.33585,242.272394 574.72344,240.834515 C573.31213,237.479451 570.91568,231.88765 570.09025,229.73087 C572.51336,227.22787 576.29441,222.94083 577.43939,221.92903 C578.47791,221.07696 579.8625,220.22488 582.01935,220.09175 C582.47198,220.06509 582.79154,220.06509 582.79154,219.3728 C582.79154,219.34615 582.79154,219 582.33885,219 C581.24716,219 580.07552,219.10647 578.95719,219.10647 C577.62583,219.10647 576.26782,219 574.96305,219 C574.75003,219 574.29741,219 574.29741,219.71895 C574.29741,219.95855 574.45712,220.06509 574.72344,220.09175 C575.04294,220.14499 576.16128,220.22488 576.16128,221.21008 C576.16128,221.71601 575.76189,222.19529 575.46898,222.51479 L569.66421,228.74566" id="Fill-6" fill="#000000" sketch:type="MSShapeGroup"></path>
            <rect id="Rectangle-1" sketch:type="MSShapeGroup" x="0" y="0" width="592" height="268"></rect>
        </g>
    </g>
</svg>