<?xml version="1.0" encoding="UTF-8" standalone="no"?>
<svg width="398px" height="218px" viewBox="0 0 398 218" version="1.1" xmlns="http://www.w3.org/2000/svg" xmlns:xlink="http://www.w3.org/1999/xlink" xmlns:sketch="http://www.bohemiancoding.com/sketch/ns">
    <!-- Generator: Sketch 3.1.1 (8761) - http://www.bohemiancoding.com/sketch -->
    <title>Group + Imported Layers</title>
    <desc>Created with Sketch.</desc>
    <defs></defs>
    <g id="Page-1" stroke="none" stroke-width="1" fill="none" fill-rule="evenodd" sketch:type="MSPage">
        <g id="Group-+-Imported-Layers" sketch:type="MSLayerGroup">
            <g id="Group" transform="translate(61.000000, 0.000000)">
                <g id="Imported-Layers-7" transform="translate(112.000000, 0.000000)" fill="#000000" sketch:type="MSShapeGroup">
                    <path d="M14.36781,4.46918 C13.86188,4.92181 12.69031,5.93367 12.69031,6.59938 C12.69031,6.94553 13.03646,7.31833 13.40926,7.31833 C13.72876,7.31833 13.91519,7.052 14.0749,6.83898 C14.5276,6.30647 15.35302,5.29461 16.92405,4.49577 C17.19031,4.36264 17.53652,4.17627 17.53652,3.75023 C17.53652,3.37743 17.29685,3.21765 17.03059,3.03128 C16.23175,2.4987 15.85895,1.83305 15.56604,0.98098 C15.48615,0.66141 15.35302,0.18213 14.84709,0.18213 C14.34123,0.18213 14.12821,0.66141 14.12821,0.95432 C14.12821,1.1141 14.42105,2.28568 14.98029,3.03128 L2.891391,3.03128 C2.278957,3.03128 1.613273,3.03128 1.613273,3.75023 C1.613273,4.46918 2.278957,4.46918 2.891391,4.46918 L14.36781,4.46918" id="Fill-1"></path>
                    <path d="M7.684313,10.69999 C7.684313,10.67334 7.684313,10.3006 7.205036,10.3006 C6.379583,10.3006 3.770095,10.59345 2.811507,10.67334 C2.545229,10.69999 2.145822,10.75323 2.145822,11.39229 C2.145822,11.81833 2.465351,11.81833 2.997901,11.81833 C4.728684,11.81833 4.808568,12.08458 4.808568,12.4308 C4.808568,12.6704 4.489038,13.89529 4.302644,14.66747 L1.346995,26.356903 C0.9209552,28.167604 0.7878183,28.726772 0.7878183,30.004897 C0.7878183,33.413212 2.678371,35.6232933 5.341117,35.6232933 C9.574906,35.6232933 13.99501,30.271175 13.99501,25.10544 C13.99501,21.83025 12.07784,19.35391 9.228757,19.35391 C7.551184,19.35391 6.086686,20.39235 5.021588,21.51076 L7.657728,10.69999 L7.684313,10.69999 Z M4.302644,24.28001 C4.515664,23.48117 4.515664,23.42793 4.835194,23.02848 C6.592603,20.68526 8.216897,20.15275 9.148866,20.15275 C10.42698,20.15275 11.41219,21.21785 11.41219,23.53441 C11.41219,25.63802 10.21396,29.765252 9.574906,31.14988 C8.403263,33.546348 6.752371,34.851099 5.341117,34.851099 C4.116251,34.851099 2.944642,33.865877 2.944642,31.203131 C2.944642,30.537447 2.944642,29.845136 3.503817,27.581783 L4.302644,24.28001 L4.302644,24.28001 Z" id="Fill-3"></path>
                </g>
                <g id="Imported-Layers-5" transform="translate(234.000000, 57.000000)" fill="#000000" sketch:type="MSShapeGroup">
                    <path d="M16.07773,4.45761 C15.5718,4.93696 14.40022,5.94875 14.40022,6.58781 C14.40022,6.96061 14.74637,7.30676 15.11917,7.30676 C15.43867,7.30676 15.62503,7.06715 15.81147,6.82748 C16.23751,6.2949 17.06293,5.28311 18.63396,4.51092 C18.90022,4.35114 19.24637,4.19135 19.24637,3.73866 C19.24637,3.39251 19.00676,3.20615 18.74051,3.01978 C17.96825,2.4872 17.56886,1.84814 17.27595,0.99606 C17.19606,0.64991 17.06293,0.19722 16.557,0.19722 C16.05107,0.19722 15.83805,0.64991 15.83805,0.94282 C15.83805,1.12919 16.13096,2.27418 16.69013,3.01978 L4.601289,3.01978 C3.988863,3.01978 3.349804,3.01978 3.349804,3.73866 C3.349804,4.45761 3.988863,4.45761 4.601289,4.45761 L16.07773,4.45761" id="Fill-1"></path>
                    <path d="M12.93567,12.17963 C12.34992,12.17963 11.84399,12.17963 11.33806,12.68549 C10.77889,13.24473 10.699,13.83048 10.699,14.0968 C10.699,14.94888 11.33806,15.34827 12.03035,15.34827 C13.0688,15.34827 14.02742,14.49619 14.02742,13.05829 C14.02742,11.3009 12.34992,9.96954 9.79368,9.96954 C4.947451,9.96954 0.1811327,15.1086 0.1811327,20.167838 C0.1811327,23.389759 2.258073,26.2389007 5.985917,26.2389007 C11.12504,26.2389007 14.1339,22.431171 14.1339,22.005131 C14.1339,21.792112 13.92088,21.52584 13.70786,21.52584 C13.52149,21.52584 13.46825,21.605725 13.25523,21.898622 C10.40609,25.440079 6.491841,25.440079 6.065801,25.440079 C3.802469,25.440079 2.84388,23.682663 2.84388,21.52584 C2.84388,20.061328 3.562823,16.57315 4.761057,14.33641 C5.879407,12.2861 7.84985,10.74173 9.846918,10.74173 C11.04514,10.74173 12.42974,11.221 12.93567,12.17963" id="Fill-3"></path>
                </g>
                <path d="M1,90 L82.5,44.5" id="Line-5" stroke="#000000" stroke-width="2" stroke-linecap="round" stroke-linejoin="round" sketch:type="MSShapeGroup"></path>
                <path id="Line-5-decoration-1" d="M74.2348763,52.5501282 C77.023529,49.7907232 79.4138027,47.4255189 82.2024554,44.6661138 C78.3901343,45.591915 75.1224305,46.3854589 71.3101094,47.3112601" stroke="#000000" stroke-width="2" stroke-linecap="round" stroke-linejoin="round"></path>
                <path d="M85,44 L158,54" id="Line-6" stroke="#000000" stroke-width="2" stroke-linecap="round" stroke-linejoin="round" sketch:type="MSShapeGroup"></path>
                <path id="Line-6-decoration-1" d="M146.217332,55.4139529 C150.104861,54.8866852 153.43703,54.4347416 157.32456,53.907474 C153.722039,52.354172 150.634165,51.0227704 147.031644,49.4694685" stroke="#000000" stroke-width="2" stroke-linecap="round" stroke-linejoin="round"></path>
                <g id="Imported-Layers-6" transform="translate(20.000000, 36.000000)" fill="#000000" sketch:type="MSShapeGroup">
                    <path d="M15.33001,4.45761 C14.82408,4.93696 13.6525,5.94875 13.6525,6.58781 C13.6525,6.96061 13.99865,7.30676 14.37145,7.30676 C14.69095,7.30676 14.87732,7.06715 15.06375,6.82748 C15.48979,6.2949 16.31522,5.28311 17.88624,4.51092 C18.1525,4.35114 18.49865,4.19135 18.49865,3.73866 C18.49865,3.39251 18.25905,3.20615 17.99279,3.01978 C17.22053,2.4872 16.82115,1.84814 16.52823,0.99606 C16.44834,0.64991 16.31522,0.19722 15.80928,0.19722 C15.30335,0.19722 15.09033,0.64991 15.09033,0.94282 C15.09033,1.12919 15.38325,2.27418 15.94241,3.01978 L3.85357,3.01978 C3.241144,3.01978 2.602085,3.01978 2.602085,3.73866 C2.602085,4.45761 3.241144,4.45761 3.85357,4.45761 L15.33001,4.45761" id="Fill-1"></path>
                    <path d="M11.65543,12.25945 C11.01638,10.92809 9.95128,9.96954 8.353596,9.96954 C4.146474,9.96954 -0.3003117,15.24173 -0.3003117,20.487368 C-0.3003117,23.869057 1.670122,26.2389007 4.466004,26.2389007 C5.184947,26.2389007 6.969002,26.079136 9.12578,23.549528 C9.41869,25.040665 10.67023,26.2389007 12.40097,26.2389007 C13.6525,26.2389007 14.47793,25.413446 15.06375,24.268471 C15.67616,22.96372 16.12885,20.780272 16.12885,20.700388 C16.12885,20.354232 15.80928,20.354232 15.70281,20.354232 C15.35666,20.354232 15.30335,20.487368 15.19688,20.993291 C14.58447,23.336508 13.94541,25.440079 12.48086,25.440079 C11.49565,25.440079 11.38918,24.508116 11.38918,23.789173 C11.38918,22.990353 11.469,22.724075 11.86845,21.126427 C12.26784,19.635316 12.32108,19.262515 12.6673,17.904506 L13.94541,12.87192 C14.21167,11.86006 14.21167,11.80683 14.21167,11.64704 C14.21167,11.03464 13.75898,10.68849 13.14657,10.68849 C12.29449,10.68849 11.76191,11.48726 11.65543,12.25945 L11.65543,12.25945 Z M9.31222,21.552466 C9.12578,22.218151 9.12578,22.271409 8.593268,22.883843 C7.02224,24.880897 5.557728,25.440079 4.545888,25.440079 C2.73522,25.440079 2.229297,23.469643 2.229297,22.05839 C2.229297,20.274348 3.400905,15.8542 4.226358,14.20328 C5.318082,12.07308 6.942349,10.74173 8.380249,10.74173 C10.72347,10.74173 11.2294,13.69735 11.2294,13.91037 C11.2294,14.12339 11.1495,14.33641 11.12285,14.52284 L9.31222,21.552466 L9.31222,21.552466 Z" id="Fill-3"></path>
                </g>
                <path d="M159,55 L297,143" id="Line-7" stroke="#000000" stroke-width="2" stroke-linecap="round" stroke-linejoin="round" sketch:type="MSShapeGroup"></path>
                <path id="Line-7-decoration-1" d="M285.715643,139.36223 C289.467329,140.509292 292.68306,141.492487 296.434746,142.639548 C293.812159,139.721855 291.564226,137.220976 288.941638,134.303282" stroke="#000000" stroke-width="2" stroke-linecap="round" stroke-linejoin="round"></path>
                <path d="M297.5,144.5 L162,97" id="Line" stroke="#000000" stroke-width="2" stroke-linecap="round" stroke-linejoin="round" sketch:type="MSShapeGroup"></path>
                <path id="Line-decoration-1" d="M173.735919,97.9350755 C169.821394,97.6754722 166.466087,97.4529551 162.551562,97.1933518 C165.771374,99.4347154 168.531212,101.355884 171.751024,103.597248" stroke="#000000" stroke-width="2" stroke-linecap="round" stroke-linejoin="round"></path>
                <path d="M160.5,96.5 L77.5,130.5" id="Line" stroke="#000000" stroke-width="2" stroke-linecap="round" stroke-linejoin="round" sketch:type="MSShapeGroup"></path>
                <path id="Line-decoration-1" d="M86.9989231,123.366926 C83.8990476,125.771436 81.2420115,127.832446 78.1421359,130.236956 C82.038052,129.775721 85.3774086,129.380377 89.2733247,128.919141" stroke="#000000" stroke-width="2" stroke-linecap="round" stroke-linejoin="round"></path>
                <path d="M78.5,130.5 L0.5,90.5" id="Line" stroke="#000000" stroke-width="2" stroke-linecap="round" stroke-linejoin="round" sketch:type="MSShapeGroup"></path>
                <path id="Line-decoration-1" d="M12.0648593,93.0592191 C8.22221679,92.2686505 4.92852322,91.5910203 1.08588074,90.8004517 C3.97025826,93.4596369 6.44258186,95.7389386 9.32695939,98.3981238" stroke="#000000" stroke-width="2" stroke-linecap="round" stroke-linejoin="round"></path>
                <g id="Imported-Layers" transform="translate(208.000000, 124.000000)" fill="#000000" sketch:type="MSShapeGroup">
                    <path d="M22.38532,4.46918 C21.87939,4.92181 20.70775,5.93367 20.70775,6.59938 C20.70775,6.94553 21.05396,7.31833 21.4267,7.31833 C21.74626,7.31833 21.90604,7.052 22.09241,6.83898 C22.51845,6.30647 23.34388,5.29461 24.94156,4.49577 C25.18116,4.36264 25.55396,4.17627 25.55396,3.75023 C25.55396,3.37743 25.28771,3.21765 25.04803,3.03128 C24.24926,2.4987 23.84981,1.83305 23.5569,0.98098 C23.50366,0.66141 23.34388,0.18213 22.8646,0.18213 C22.35867,0.18213 22.14565,0.66141 22.14565,0.95432 C22.14565,1.1141 22.41191,2.28568 22.99773,3.03128 L10.88226,3.03128 C10.26978,3.03128 9.630725,3.03128 9.630725,3.75023 C9.630725,4.46918 10.26978,4.46918 10.88226,4.46918 L22.38532,4.46918" id="Fill-1"></path>
                    <path d="M18.12493,10.69999 C18.12493,10.67334 18.12493,10.3006 17.67223,10.3006 C17.11307,10.3006 13.70475,10.64675 13.09235,10.69999 C12.82602,10.75323 12.58642,10.91301 12.58642,11.39229 C12.58642,11.81833 12.93256,11.81833 13.46508,11.81833 C15.19589,11.81833 15.24913,12.08458 15.24913,12.4308 L15.14265,13.14968 L12.9858,21.67047 C12.34674,20.33911 11.3083,19.35391 9.684031,19.35391 C5.476868,19.35391 1.03008,24.65275 1.03008,29.871762 C1.03008,33.253451 3.000516,35.6232933 5.823023,35.6232933 C6.541966,35.6232933 8.326022,35.4901557 10.4828,32.933921 C10.77571,34.451685 12.02725,35.6232933 13.75799,35.6232933 C15.00952,35.6232933 15.83495,34.79784 16.39412,33.652858 C17.00659,32.37474 17.48587,30.164666 17.48587,30.111407 C17.48587,29.738626 17.1663,29.738626 17.05983,29.738626 C16.68703,29.738626 16.66037,29.898388 16.5539,30.377685 C15.94149,32.720902 15.30243,34.851099 13.8113,34.851099 C12.85267,34.851099 12.7462,33.919136 12.7462,33.200193 C12.7462,32.321488 12.82602,32.081843 12.95922,31.469409 L18.12493,10.69999 L18.12493,10.69999 Z M10.66924,30.963486 C10.4828,31.602545 10.4828,31.682429 9.950288,32.294862 C8.352606,34.265291 6.888122,34.851099 5.876282,34.851099 C4.09224,34.851099 3.586316,32.854037 3.586316,31.469409 C3.586316,29.658742 4.731299,25.26522 5.556752,23.58765 C6.675102,21.4841 8.299369,20.15275 9.737268,20.15275 C12.05383,20.15275 12.55976,23.10837 12.55976,23.32139 C12.55976,23.53441 12.50652,23.74743 12.45329,23.93386 L10.66924,30.963486 L10.66924,30.963486 Z" id="Fill-3"></path>
                </g>
                <g id="Imported-Layers" transform="translate(119.000000, 115.000000)" fill="#000000" sketch:type="MSShapeGroup">
                    <path d="M16.66502,4.45761 C16.15909,4.93696 14.98745,5.94875 14.98745,6.58781 C14.98745,6.96061 15.33367,7.30676 15.67982,7.30676 C16.02597,7.30676 16.18575,7.06715 16.37211,6.82748 C16.79815,6.2949 17.62358,5.28311 19.22126,4.51092 C19.46086,4.35114 19.83367,4.19135 19.83367,3.73866 C19.83367,3.39251 19.56741,3.20615 19.32774,3.01978 C18.52896,2.4872 18.12951,1.84814 17.8366,0.99606 C17.78336,0.64991 17.62358,0.19722 17.1443,0.19722 C16.63837,0.19722 16.42535,0.64991 16.42535,0.94282 C16.42535,1.12919 16.69161,2.27418 17.27743,3.01978 L5.161947,3.01978 C4.549514,3.01978 3.910455,3.01978 3.910455,3.73866 C3.910455,4.45761 4.549514,4.45761 5.161947,4.45761 L16.66502,4.45761" id="Fill-1"></path>
                    <path d="M5.401593,17.531704 C6.440065,17.531704 9.10279,17.478466 10.88684,16.70628 C13.38984,15.64118 13.5762,13.51098 13.5762,13.00505 C13.5762,11.43402 12.2182,9.96954 9.74185,9.96954 C5.747748,9.96954 0.315746,13.45775 0.315746,19.741792 C0.315746,23.389759 2.445943,26.2389007 5.960768,26.2389007 C11.09986,26.2389007 14.10879,22.431171 14.10879,22.005131 C14.10879,21.792112 13.89577,21.52584 13.68275,21.52584 C13.52297,21.52584 13.44308,21.605725 13.23006,21.898622 C10.38091,25.440079 6.466691,25.440079 6.040652,25.440079 C3.24477,25.440079 2.925241,22.431171 2.925241,21.286195 C2.925241,20.833523 2.951866,19.741792 3.484416,17.531704 L5.401593,17.531704 L5.401593,17.531704 Z M3.697435,16.75952 C5.108689,11.3009 8.809881,10.74173 9.74185,10.74173 C11.41942,10.74173 12.40463,11.80683 12.40463,13.00505 C12.40463,16.75952 6.653099,16.75952 5.188573,16.75952 L3.697435,16.75952 L3.697435,16.75952 Z" id="Fill-3"></path>
                </g>
                <g id="Imported-Layers" transform="translate(11.000000, 113.000000)" fill="#000000" sketch:type="MSShapeGroup">
                    <path d="M22.45856,4.41662 C21.97928,4.89596 20.78105,5.88117 20.78105,6.54681 C20.78105,6.89296 21.15379,7.26576 21.49994,7.26576 C21.8195,7.26576 22.00587,6.99951 22.1923,6.78649 C22.61834,6.2539 23.44377,5.24211 25.0148,4.44327 C25.28105,4.31014 25.6272,4.12371 25.6272,3.69767 C25.6272,3.35152 25.3876,3.16515 25.12127,2.97878 C24.34908,2.4462 23.9497,1.80714 23.65679,0.92841 C23.5769,0.60891 23.44377,0.15622 22.93784,0.15622 C22.43191,0.15622 22.21889,0.60891 22.21889,0.90183 C22.21889,1.08819 22.5118,2.23318 23.09762,2.97878 L10.98215,2.97878 C10.36968,2.97878 9.73062,2.97878 9.73062,3.69767 C9.73062,4.41662 10.36968,4.41662 10.98215,4.41662 L22.48521,4.41662" id="Fill-1"></path>
                    <path d="M11.46143,20.81913 L14.55018,20.81913 C15.26913,20.81913 15.64193,20.81913 15.64193,20.10018 C15.64193,19.7008 15.26913,19.7008 14.65672,19.7008 L11.67445,19.7008 L12.44663,15.60018 C12.57976,14.85458 13.08569,12.29834 13.29871,11.87231 C13.61821,11.20666 14.23068,10.64749 14.97622,10.64749 C15.136,10.64749 16.06797,10.64749 16.73368,11.31314 C15.16265,11.44627 14.8165,12.6978 14.8165,13.23031 C14.8165,14.08239 15.45556,14.50843 16.14786,14.50843 C17.07983,14.50843 18.11827,13.70959 18.11827,12.35165 C18.11827,10.70073 16.46736,9.87524 14.97622,9.87524 C13.77799,9.87524 11.51466,10.5143 10.42291,14.08239 C10.20989,14.828 10.10342,15.17414 9.25134,19.7008 L6.774993,19.7008 C6.082662,19.7008 5.683249,19.7008 5.683249,20.39309 C5.683249,20.81913 6.002778,20.81913 6.695103,20.81913 L9.06497,20.81913 L6.375566,35.01156 C5.709881,38.499793 5.097448,41.74834 3.233522,41.74834 C3.100387,41.74834 2.195057,41.74834 1.529365,41.109281 C3.180271,41.002771 3.4998,39.724653 3.4998,39.165478 C3.4998,38.340025 2.860741,37.913986 2.168424,37.913986 C1.236468,37.913986 0.197994,38.712813 0.197994,40.070809 C0.197994,41.695089 1.769017,42.5471655 3.233522,42.5471655 C5.230584,42.5471655 6.66845,40.443596 7.307509,39.058968 C8.452498,36.795636 9.27799,32.45532 9.30458,32.21572 L11.46143,20.81913" id="Fill-3"></path>
                </g>
            </g>
            <g id="Imported-Layers" transform="translate(0.000000, 175.000000)" fill="#000000" sketch:type="MSShapeGroup">
                <path d="M17.40472,13.81614 C16.89879,14.29541 15.72714,15.28062 15.72714,15.94633 C15.72714,16.29248 16.07329,16.66528 16.44609,16.66528 C16.76566,16.66528 16.95202,16.39902 17.11181,16.18601 C17.56443,15.65342 18.38992,14.64156 19.96095,13.84279 C20.20056,13.70959 20.57336,13.52322 20.57336,13.09719 C20.57336,12.75104 20.3071,12.56467 20.06743,12.37824 C19.26859,11.84572 18.8692,11.20666 18.60294,10.32793 C18.52305,10.00843 18.38992,9.55574 17.88399,9.55574 C17.37806,9.55574 17.16504,10.00843 17.16504,10.30128 C17.16504,10.48771 17.45795,11.6327 18.01712,12.37824 L5.928259,12.37824 C5.315826,12.37824 4.650141,12.37824 4.650141,13.09719 C4.650141,13.81614 5.315826,13.81614 5.928259,13.81614 L17.40472,13.81614" id="Fill-1"></path>
                <path d="M16.63253,21.64463 C16.68577,21.43161 16.739,21.24517 16.739,21.00557 C16.739,20.39309 16.31297,20.02036 15.70056,20.02036 C15.35441,20.02036 14.36914,20.28662 14.23601,21.56474 C13.59695,20.23338 12.31883,19.30141 10.881,19.30141 C6.806963,19.30141 2.33355,24.33399 2.33355,29.4997 C2.33355,33.067798 4.543631,35.197995 7.126466,35.197995 C9.230078,35.197995 10.93424,33.493838 11.28038,33.094383 L11.33362,33.147689 C10.56143,36.342964 10.13539,37.807476 10.13539,37.88736 C10.00227,38.20689 8.777385,41.74834 4.96967,41.74834 C4.277353,41.74834 3.105745,41.721715 2.093905,41.402185 C3.185629,41.082656 3.55841,40.150693 3.55841,39.538259 C3.55841,38.952459 3.185629,38.286774 2.200414,38.286774 C1.401587,38.286774 0.2566066,38.925833 0.2566066,40.363712 C0.2566066,41.828224 1.587981,42.5471655 5.049548,42.5471655 C9.522988,42.5471655 12.10581,39.751279 12.66498,37.594456 L16.63253,21.64463 L16.63253,21.64463 Z M11.97268,30.59145 C11.75966,31.52342 10.93424,32.42874 10.13539,33.094383 C9.389859,33.760095 8.271455,34.399154 7.23301,34.399154 C5.422335,34.399154 4.889786,32.53521 4.889786,31.09738 C4.889786,29.36657 5.928259,25.13283 6.913473,23.29548 C7.872069,21.53808 9.416444,20.10018 10.93424,20.10018 C13.30404,20.10018 13.80997,23.00264 13.80997,23.189 C13.80997,23.37537 13.73008,23.58839 13.70349,23.72152 L11.97268,30.59145 L11.97268,30.59145 Z" id="Fill-3"></path>
                <path d="M52.68609,23.45526 C53.24526,23.45526 53.91097,23.45526 53.91097,22.73631 C53.91097,22.01736 53.24526,22.01736 52.73933,22.01736 L31.22434,22.01736 C30.71841,22.01736 30.02612,22.01736 30.02612,22.73631 C30.02612,23.45526 30.71841,23.45526 31.251,23.45526 L52.68609,23.45526 L52.68609,23.45526 Z M52.73933,30.40502 C53.24526,30.40502 53.91097,30.40502 53.91097,29.68607 C53.91097,28.96719 53.24526,28.96719 52.68609,28.96719 L31.251,28.96719 C30.71841,28.96719 30.02612,28.96719 30.02612,29.68607 C30.02612,30.40502 30.71841,30.40502 31.22434,30.40502 L52.73933,30.40502 L52.73933,30.40502 Z" id="Fill-4"></path>
                <path d="M82.90803,13.81614 C82.40224,14.29541 81.23046,15.28062 81.23046,15.94633 C81.23046,16.29248 81.57674,16.66528 81.94961,16.66528 C82.26931,16.66528 82.45541,16.39902 82.6156,16.18601 C83.04164,15.65342 83.89372,14.64156 85.46427,13.84279 C85.70421,13.70959 86.07708,13.52322 86.07708,13.09719 C86.07708,12.75104 85.81055,12.56467 85.57129,12.37824 C84.77238,11.84572 84.37293,11.20666 84.1064,10.32793 C84.02664,10.00843 83.89372,9.55574 83.38724,9.55574 C82.88145,9.55574 82.66877,10.00843 82.66877,10.30128 C82.66877,10.48771 82.93462,11.6327 83.52085,12.37824 L71.43155,12.37824 C70.81942,12.37824 70.15344,12.37824 70.15344,13.09719 C70.15344,13.81614 70.81942,13.81614 71.43155,13.81614 L82.90803,13.81614" id="Fill-5"></path>
                <path d="M79.31362,21.61797 C78.67422,20.28662 77.63605,19.30141 76.01165,19.30141 C71.80442,19.30141 67.3578,24.60025 67.3578,29.84585 C67.3578,33.200927 69.32794,35.570797 72.12412,35.570797 C72.84328,35.570797 74.65377,35.4376 76.81056,32.88136 C77.10367,34.399154 78.3552,35.570797 80.08595,35.570797 C81.33748,35.570797 82.16297,34.745303 82.72194,33.600313 C83.33407,32.3222 83.81328,30.11211 83.81328,30.05887 C83.81328,29.68607 83.49426,29.68607 83.38724,29.68607 C83.01505,29.68607 82.98847,29.84585 82.88145,30.35178 C82.26931,32.66834 81.62991,34.798541 80.13912,34.798541 C79.1807,34.798541 79.07368,33.866639 79.07368,33.147689 C79.07368,32.34885 79.15411,32.05594 79.5263,30.48491 C79.92576,28.96719 80.00619,28.62097 80.32521,27.26303 L81.62991,22.23038 C81.86986,21.21859 81.86986,21.1387 81.86986,21.00557 C81.86986,20.39309 81.44382,20.02036 80.831,20.02036 C79.97893,20.02036 79.41996,20.81913 79.31362,21.61797 L79.31362,21.61797 Z M76.99665,30.91095 C76.81056,31.55001 76.81056,31.6299 76.27818,32.2423 C74.68036,34.212788 73.21615,34.798541 72.20388,34.798541 C70.41997,34.798541 69.91417,32.82813 69.91417,31.41688 C69.91417,29.63283 71.05937,25.21265 71.88418,23.5618 C73.00279,21.43161 74.62719,20.10018 76.06482,20.10018 C78.38179,20.10018 78.88758,23.05587 78.88758,23.26889 C78.88758,23.48191 78.80783,23.69493 78.78124,23.8813 L76.99665,30.91095 L76.99665,30.91095 Z" id="Fill-6"></path>
                <path d="M107.512,26.91681 L117.5242,26.91681 C118.03,26.91681 118.7219,26.91681 118.7219,26.19793 C118.7219,25.47898 118.03,25.47898 117.5242,25.47898 L107.512,25.47898 L107.512,15.4404 C107.512,14.93447 107.512,14.24217 106.7928,14.24217 C106.0743,14.24217 106.0743,14.93447 106.0743,15.4404 L106.0743,25.47898 L96.00891,25.47898 C95.5297,25.47898 94.83713,25.47898 94.83713,26.19793 C94.83713,26.91681 95.5297,26.91681 96.00891,26.91681 L106.0743,26.91681 L106.0743,36.982023 C106.0743,37.487947 106.0743,38.180264 106.7928,38.180264 C107.512,38.180264 107.512,37.487947 107.512,36.982023 L107.512,26.91681" id="Fill-7"></path>
                <path d="M143.9121,4.41662 C143.4056,4.89596 142.2345,5.88117 142.2345,6.54681 C142.2345,6.89296 142.5801,7.26576 142.9264,7.26576 C143.2727,7.26576 143.4322,6.99951 143.619,6.78649 C144.045,6.2539 144.8705,5.24211 146.4683,4.44327 C146.7076,4.31014 147.0805,4.12371 147.0805,3.69767 C147.0805,3.35152 146.8139,3.16515 146.5747,2.97878 C145.7758,2.4462 145.3763,1.80714 145.0832,0.92841 C145.03,0.60891 144.8705,0.15622 144.3913,0.15622 C143.8848,0.15622 143.6722,0.60891 143.6722,0.90183 C143.6722,1.08819 143.9387,2.23318 144.5242,2.97878 L132.409,2.97878 C131.7962,2.97878 131.1575,2.97878 131.1575,3.69767 C131.1575,4.41662 131.7962,4.41662 132.409,4.41662 L143.9121,4.41662" id="Fill-8"></path>
                <path d="M137.3081,10.64749 C137.3081,10.62084 137.3081,10.27469 136.8289,10.27469 C136.0034,10.27469 133.394,10.54095 132.4622,10.62084 C132.1691,10.64749 131.7696,10.70073 131.7696,11.33979 C131.7696,11.76583 132.0893,11.76583 132.6483,11.76583 C134.3525,11.76583 134.4322,12.03209 134.4322,12.37824 C134.4322,12.64449 134.1132,13.84279 133.9264,14.61498 L130.9973,26.30441 C130.5447,28.11511 130.4118,28.67428 130.4118,29.95239 C130.4118,33.360709 132.3286,35.570797 134.9653,35.570797 C139.1984,35.570797 143.619,30.21865 143.619,25.05294 C143.619,21.80434 141.7281,19.30141 138.8528,19.30141 C137.2018,19.30141 135.7369,20.36651 134.6456,21.45819 L137.3081,10.64749 L137.3081,10.64749 Z M133.9264,24.22745 C134.1398,23.45526 134.1398,23.37537 134.4588,22.97598 C136.2161,20.63277 137.8405,20.10018 138.7724,20.10018 C140.0777,20.10018 141.0362,21.19193 141.0362,23.48191 C141.0362,25.61211 139.8644,29.73937 139.1984,31.09738 C138.0273,33.493838 136.3763,34.798541 134.9653,34.798541 C133.7403,34.798541 132.5685,33.813333 132.5685,31.17721 C132.5685,30.48491 132.5685,29.79261 133.1541,27.52929 L133.9264,24.22745 L133.9264,24.22745 Z" id="Fill-9"></path>
                <path d="M166.7049,26.91681 L176.7437,26.91681 C177.2229,26.91681 177.9148,26.91681 177.9148,26.19793 C177.9148,25.47898 177.2229,25.47898 176.7437,25.47898 L166.7049,25.47898 L166.7049,15.4404 C166.7049,14.93447 166.7049,14.24217 165.9857,14.24217 C165.2672,14.24217 165.2672,14.93447 165.2672,15.4404 L165.2672,25.47898 L155.2284,25.47898 C154.7226,25.47898 154.03,25.47898 154.03,26.19793 C154.03,26.91681 154.7226,26.91681 155.2284,26.91681 L165.2672,26.91681 L165.2672,36.982023 C165.2672,37.487947 165.2672,38.180264 165.9857,38.180264 C166.7049,38.180264 166.7049,37.487947 166.7049,36.982023 L166.7049,26.91681" id="Fill-10"></path>
                <path d="M205.2079,13.81614 C204.7021,14.29541 203.5303,15.28062 203.5303,15.94633 C203.5303,16.29248 203.8766,16.66528 204.2495,16.66528 C204.5692,16.66528 204.7553,16.39902 204.9155,16.18601 C205.3415,15.65342 206.1936,14.64156 207.7642,13.84279 C208.0041,13.70959 208.377,13.52322 208.377,13.09719 C208.377,12.75104 208.1104,12.56467 207.8712,12.37824 C207.0723,11.84572 206.6728,11.20666 206.4063,10.32793 C206.3265,10.00843 206.1936,9.55574 205.6878,9.55574 C205.1813,9.55574 204.9687,10.00843 204.9687,10.30128 C204.9687,10.48771 205.2345,11.6327 205.8207,12.37824 L193.7314,12.37824 C193.1193,12.37824 192.4533,12.37824 192.4533,13.09719 C192.4533,13.81614 193.1193,13.81614 193.7314,13.81614 L205.2079,13.81614" id="Fill-11"></path>
                <path d="M202.1459,21.53808 C201.5603,21.53808 201.0811,21.53808 200.5753,22.04401 C199.9891,22.5766 199.9094,23.189 199.9094,23.45526 C199.9094,24.30734 200.5753,24.70679 201.2406,24.70679 C202.2795,24.70679 203.2645,23.82806 203.2645,22.39016 C203.2645,20.63277 201.5603,19.30141 199.0307,19.30141 C194.1847,19.30141 189.3913,24.44047 189.3913,29.4997 C189.3913,32.74823 191.4683,35.570797 195.2229,35.570797 C200.362,35.570797 203.3708,31.76303 203.3708,31.33699 C203.3708,31.12397 203.1582,30.88436 202.9448,30.88436 C202.7587,30.88436 202.6783,30.9376 202.4656,31.23051 C199.6428,34.798541 195.7287,34.798541 195.2761,34.798541 C193.013,34.798541 192.0545,33.041145 192.0545,30.88436 C192.0545,29.39323 192.773,25.9316 193.998,23.69493 C195.1166,21.64463 197.0866,20.10018 199.0573,20.10018 C200.2822,20.10018 201.6401,20.57953 202.1459,21.53808" id="Fill-12"></path>
                <path d="M226.1104,26.91681 L236.1227,26.91681 C236.6285,26.91681 237.3211,26.91681 237.3211,26.19793 C237.3211,25.47898 236.6285,25.47898 236.1227,25.47898 L226.1104,25.47898 L226.1104,15.4404 C226.1104,14.93447 226.1104,14.24217 225.392,14.24217 C224.6728,14.24217 224.6728,14.93447 224.6728,15.4404 L224.6728,25.47898 L214.6074,25.47898 C214.1282,25.47898 213.4363,25.47898 213.4363,26.19793 C213.4363,26.91681 214.1282,26.91681 214.6074,26.91681 L224.6728,26.91681 L224.6728,36.982023 C224.6728,37.487947 224.6728,38.180264 225.392,38.180264 C226.1104,38.180264 226.1104,37.487947 226.1104,36.982023 L226.1104,26.91681" id="Fill-13"></path>
                <path d="M270.0995,4.41662 C269.5937,4.89596 268.4219,5.88117 268.4219,6.54681 C268.4219,6.89296 268.7948,7.26576 269.1404,7.26576 C269.4601,7.26576 269.6469,6.99951 269.833,6.78649 C270.259,6.2539 271.0845,5.24211 272.6557,4.44327 C272.9216,4.31014 273.2679,4.12371 273.2679,3.69767 C273.2679,3.35152 273.0286,3.16515 272.7621,2.97878 C271.9898,2.4462 271.5903,1.80714 271.2979,0.92841 C271.2174,0.60891 271.0845,0.15622 270.5787,0.15622 C270.0729,0.15622 269.8596,0.60891 269.8596,0.90183 C269.8596,1.08819 270.1527,2.23318 270.7116,2.97878 L258.623,2.97878 C258.0102,2.97878 257.3715,2.97878 257.3715,3.69767 C257.3715,4.41662 258.0102,4.41662 258.623,4.41662 L270.0995,4.41662" id="Fill-14"></path>
                <path d="M265.8657,10.64749 C265.8657,10.62084 265.8657,10.27469 265.3865,10.27469 C264.8534,10.27469 261.4451,10.59419 260.833,10.64749 C260.5399,10.70073 260.3272,10.86051 260.3272,11.33979 C260.3272,11.76583 260.6469,11.76583 261.1793,11.76583 C262.91,11.76583 262.9898,12.03209 262.9898,12.37824 L262.8834,13.09719 L260.7266,21.61797 C260.0607,20.28662 259.0225,19.30141 257.4247,19.30141 C253.2174,19.30141 248.771,24.60025 248.771,29.84585 C248.771,33.200927 250.741,35.570797 253.5371,35.570797 C254.2563,35.570797 256.0402,35.4376 258.197,32.88136 C258.4894,34.399154 259.741,35.570797 261.4717,35.570797 C262.7232,35.570797 263.5487,34.745303 264.135,33.600313 C264.7471,32.3222 265.1997,30.11211 265.1997,30.05887 C265.1997,29.68607 264.88,29.68607 264.7737,29.68607 C264.4274,29.68607 264.3742,29.84585 264.2679,30.35178 C263.6557,32.66834 263.0163,34.798541 261.5521,34.798541 C260.5665,34.798541 260.4601,33.866639 260.4601,33.147689 C260.4601,32.26896 260.5399,32.02928 260.6735,31.41688 L265.8657,10.64749 L265.8657,10.64749 Z M258.3831,30.91095 C258.197,31.55001 258.197,31.6299 257.6646,32.2423 C256.0934,34.212788 254.6019,34.798541 253.6169,34.798541 C251.8064,34.798541 251.3006,32.82813 251.3006,31.41688 C251.3006,29.63283 252.4717,25.21265 253.2972,23.5618 C254.3892,21.43161 256.0136,20.10018 257.4513,20.10018 C259.7948,20.10018 260.3006,23.05587 260.3006,23.26889 C260.3006,23.48191 260.2208,23.69493 260.1936,23.8813 L258.3831,30.91095 L258.3831,30.91095 Z" id="Fill-15"></path>
                <path d="M288.6053,26.91681 L298.6441,26.91681 C299.1234,26.91681 299.8152,26.91681 299.8152,26.19793 C299.8152,25.47898 299.1234,25.47898 298.6441,25.47898 L288.6053,25.47898 L288.6053,15.4404 C288.6053,14.93447 288.6053,14.24217 287.8861,14.24217 C287.1677,14.24217 287.1677,14.93447 287.1677,15.4404 L287.1677,25.47898 L277.1288,25.47898 C276.623,25.47898 275.9305,25.47898 275.9305,26.19793 C275.9305,26.91681 276.623,26.91681 277.1288,26.91681 L287.1677,26.91681 L287.1677,36.982023 C287.1677,37.487947 287.1677,38.180264 287.8861,38.180264 C288.6053,38.180264 288.6053,37.487947 288.6053,36.982023 L288.6053,26.91681" id="Fill-16"></path>
                <path d="M327.7212,13.81614 C327.2154,14.29541 326.017,15.28062 326.017,15.94633 C326.017,16.29248 326.3899,16.66528 326.7362,16.66528 C327.0552,16.66528 327.242,16.39902 327.428,16.18601 C327.8541,15.65342 328.6796,14.64156 330.2508,13.84279 C330.5173,13.70959 330.8629,13.52322 330.8629,13.09719 C330.8629,12.75104 330.6237,12.56467 330.3572,12.37824 C329.5848,11.84572 329.1854,11.20666 328.8929,10.32793 C328.8132,10.00843 328.6796,9.55574 328.1738,9.55574 C327.668,9.55574 327.4546,10.00843 327.4546,10.30128 C327.4546,10.48771 327.7477,11.6327 328.3333,12.37824 L316.2181,12.37824 C315.606,12.37824 314.9666,12.37824 314.9666,13.09719 C314.9666,13.81614 315.606,13.81614 316.2181,13.81614 L327.7212,13.81614" id="Fill-17"></path>
                <path d="M316.5378,26.89023 C317.576,26.89023 320.2385,26.81034 322.0231,26.06473 C324.5528,24.99964 324.7389,22.86944 324.7389,22.36358 C324.7389,20.79255 323.3544,19.30141 320.8779,19.30141 C316.9107,19.30141 311.4785,22.78962 311.4785,29.07366 C311.4785,32.74823 313.5821,35.570797 317.1233,35.570797 C322.2624,35.570797 325.2713,31.76303 325.2713,31.33699 C325.2713,31.12397 325.0586,30.88436 324.8452,30.88436 C324.6591,30.88436 324.5794,30.9376 324.366,31.23051 C321.5433,34.798541 317.6291,34.798541 317.1765,34.798541 C314.381,34.798541 314.0613,31.76303 314.0613,30.61804 C314.0613,30.192 314.0879,29.07366 314.6469,26.89023 L316.5378,26.89023 L316.5378,26.89023 Z M314.8602,26.09139 C316.2447,20.63277 319.9461,20.10018 320.8779,20.10018 C322.5821,20.10018 323.5405,21.1387 323.5405,22.36358 C323.5405,26.09139 317.7893,26.09139 316.3244,26.09139 L314.8602,26.09139 L314.8602,26.09139 Z" id="Fill-18"></path>
                <path d="M349.1029,26.91681 L359.1417,26.91681 C359.6475,26.91681 360.3128,26.91681 360.3128,26.19793 C360.3128,25.47898 359.6475,25.47898 359.1417,25.47898 L349.1029,25.47898 L349.1029,15.4404 C349.1029,14.93447 349.1029,14.24217 348.3837,14.24217 C347.6653,14.24217 347.6653,14.93447 347.6653,15.4404 L347.6653,25.47898 L337.6264,25.47898 C337.1206,25.47898 336.428,25.47898 336.428,26.19793 C336.428,26.91681 337.1206,26.91681 337.6264,26.91681 L347.6653,26.91681 L347.6653,36.982023 C347.6653,37.487947 347.6653,38.180264 348.3837,38.180264 C349.1029,38.180264 349.1029,37.487947 349.1029,36.982023 L349.1029,26.91681" id="Fill-19"></path>
                <path d="M394.6093,4.41662 C394.1036,4.89596 392.9318,5.88117 392.9318,6.54681 C392.9318,6.89296 393.2781,7.26576 393.6509,7.26576 C393.9699,7.26576 394.1301,6.99951 394.3162,6.78649 C394.7423,6.2539 395.5678,5.24211 397.1656,4.44327 C397.4055,4.31014 397.7777,4.12371 397.7777,3.69767 C397.7777,3.35152 397.5119,3.16515 397.2719,2.97878 C396.473,2.4462 396.0736,1.80714 395.8077,0.92841 C395.728,0.60891 395.5943,0.15622 395.0886,0.15622 C394.5828,0.15622 394.3694,0.60891 394.3694,0.90183 C394.3694,1.08819 394.6359,2.23318 395.2215,2.97878 L383.1063,2.97878 C382.5207,2.97878 381.8547,2.97878 381.8547,3.69767 C381.8547,4.41662 382.5207,4.41662 383.1063,4.41662 L394.6093,4.41662" id="Fill-20"></path>
                <path d="M383.5057,20.81913 L386.5944,20.81913 C387.3135,20.81913 387.6598,20.81913 387.6598,20.10018 C387.6598,19.7008 387.3135,19.7008 386.7007,19.7008 L383.7184,19.7008 L384.4642,15.60018 C384.6243,14.85458 385.1301,12.29834 385.3428,11.87231 C385.6625,11.20666 386.2747,10.64749 387.0204,10.64749 C387.1806,10.64749 388.1124,10.64749 388.7777,11.31314 C387.2072,11.44627 386.8343,12.6978 386.8343,13.23031 C386.8343,14.08239 387.4996,14.50843 388.1656,14.50843 C389.0974,14.50843 390.1629,13.70959 390.1629,12.35165 C390.1629,10.70073 388.4853,9.87524 387.0204,9.87524 C385.7954,9.87524 383.5323,10.5143 382.4669,14.08239 C382.2542,14.828 382.1479,15.17414 381.2692,19.7008 L378.7927,19.7008 C378.1267,19.7008 377.7273,19.7008 377.7273,20.39309 C377.7273,20.81913 378.047,20.81913 378.7395,20.81913 L381.109,20.81913 L378.3933,35.01156 C377.7539,38.499793 377.1417,41.74834 375.2781,41.74834 C375.1445,41.74834 374.2392,41.74834 373.5473,41.109281 C375.1976,41.002771 375.5439,39.724653 375.5439,39.165478 C375.5439,38.340025 374.8786,37.913986 374.2126,37.913986 C373.2808,37.913986 372.2154,38.712813 372.2154,40.070809 C372.2154,41.695089 373.8132,42.5471655 375.2781,42.5471655 C377.2481,42.5471655 378.6864,40.443596 379.3251,39.058968 C380.4969,36.795636 381.3224,32.45532 381.349,32.21572 L383.5057,20.81913" id="Fill-21"></path>
            </g>
        </g>
    </g>
</svg>