<?xml version="1.0" encoding="UTF-8" standalone="no"?>
<svg width="676px" height="220px" viewBox="0 0 676 220" version="1.1" xmlns="http://www.w3.org/2000/svg" xmlns:xlink="http://www.w3.org/1999/xlink" xmlns:sketch="http://www.bohemiancoding.com/sketch/ns">
    <!-- Generator: Sketch 3.1.1 (8761) - http://www.bohemiancoding.com/sketch -->
    <title>Group</title>
    <desc>Created with Sketch.</desc>
    <defs></defs>
    <g id="Page-1" stroke="none" stroke-width="1" fill="none" fill-rule="evenodd" sketch:type="MSPage">
        <g id="Group" sketch:type="MSLayerGroup" transform="translate(1.000000, 3.000000)">
            <g id="Imported-Layers-2" transform="translate(87.000000, 181.000000)" fill="#000000" sketch:type="MSShapeGroup">
                <path d="M14.36781,4.46918 C13.86188,4.92181 12.69031,5.93367 12.69031,6.59938 C12.69031,6.94553 13.03646,7.31833 13.40926,7.31833 C13.72876,7.31833 13.91519,7.052 14.0749,6.83898 C14.5276,6.30647 15.35302,5.29461 16.92405,4.49577 C17.19031,4.36264 17.53652,4.17627 17.53652,3.75023 C17.53652,3.37743 17.29685,3.21765 17.03059,3.03128 C16.23175,2.4987 15.85895,1.83305 15.56604,0.98098 C15.48615,0.66141 15.35302,0.18213 14.84709,0.18213 C14.34123,0.18213 14.12821,0.66141 14.12821,0.95432 C14.12821,1.1141 14.42105,2.28568 14.98029,3.03128 L2.891391,3.03128 C2.278957,3.03128 1.613273,3.03128 1.613273,3.75023 C1.613273,4.46918 2.278957,4.46918 2.891391,4.46918 L14.36781,4.46918" id="Fill-1"></path>
                <path d="M7.684313,10.69999 C7.684313,10.67334 7.684313,10.3006 7.205036,10.3006 C6.379583,10.3006 3.770095,10.59345 2.811507,10.67334 C2.545229,10.69999 2.145822,10.75323 2.145822,11.39229 C2.145822,11.81833 2.465351,11.81833 2.997901,11.81833 C4.728684,11.81833 4.808568,12.08458 4.808568,12.4308 C4.808568,12.6704 4.489038,13.89529 4.302644,14.66747 L1.346995,26.356903 C0.9209552,28.167604 0.7878183,28.726772 0.7878183,30.004897 C0.7878183,33.413212 2.678371,35.6232933 5.341117,35.6232933 C9.574906,35.6232933 13.99501,30.271175 13.99501,25.10544 C13.99501,21.83025 12.07784,19.35391 9.228757,19.35391 C7.551184,19.35391 6.086686,20.39235 5.021588,21.51076 L7.657728,10.69999 L7.684313,10.69999 Z M4.302644,24.28001 C4.515664,23.48117 4.515664,23.42793 4.835194,23.02848 C6.592603,20.68526 8.216897,20.15275 9.148866,20.15275 C10.42698,20.15275 11.41219,21.21785 11.41219,23.53441 C11.41219,25.63802 10.21396,29.765252 9.574906,31.14988 C8.403263,33.546348 6.752371,34.851099 5.341117,34.851099 C4.116251,34.851099 2.944642,33.865877 2.944642,31.203131 C2.944642,30.537447 2.944642,29.845136 3.503817,27.581783 L4.302644,24.28001 L4.302644,24.28001 Z" id="Fill-3"></path>
            </g>
            <path d="M11.5,131.5 L96,0" id="Line-2" stroke="#000000" stroke-width="2" stroke-linecap="round" stroke-linejoin="round" sketch:type="MSShapeGroup"></path>
            <path id="Line-2-decoration-1" d="M92.5183732,10.9675845 C93.6784793,7.2199113 94.6728559,4.00762004 95.8329619,0.259946891 C92.9061628,2.87236863 90.3974779,5.11158726 87.4706789,7.72400899" stroke="#000000" stroke-width="2" stroke-linecap="round" stroke-linejoin="round"></path>
            <path d="M0,175.5 L174.5,175.5" id="Line-4" stroke="#000000" stroke-width="2" stroke-linecap="round" stroke-linejoin="round" sketch:type="MSShapeGroup"></path>
            <path id="Line-4-decoration-1" d="M163.2,178.5 C166.98,177.45 170.22,176.55 174,175.5 C170.22,174.45 166.98,173.55 163.2,172.5" stroke="#000000" stroke-width="2" stroke-linecap="round" stroke-linejoin="round"></path>
            <g id="Imported-Layers-3" transform="translate(358.000000, 181.000000)" fill="#000000" sketch:type="MSShapeGroup">
                <path d="M14.36781,4.46918 C13.86188,4.92181 12.69031,5.93367 12.69031,6.59938 C12.69031,6.94553 13.03646,7.31833 13.40926,7.31833 C13.72876,7.31833 13.91519,7.052 14.0749,6.83898 C14.5276,6.30647 15.35302,5.29461 16.92405,4.49577 C17.19031,4.36264 17.53652,4.17627 17.53652,3.75023 C17.53652,3.37743 17.29685,3.21765 17.03059,3.03128 C16.23175,2.4987 15.85895,1.83305 15.56604,0.98098 C15.48615,0.66141 15.35302,0.18213 14.84709,0.18213 C14.34123,0.18213 14.12821,0.66141 14.12821,0.95432 C14.12821,1.1141 14.42105,2.28568 14.98029,3.03128 L2.891391,3.03128 C2.278957,3.03128 1.613273,3.03128 1.613273,3.75023 C1.613273,4.46918 2.278957,4.46918 2.891391,4.46918 L14.36781,4.46918" id="Fill-1"></path>
                <path d="M7.684313,10.69999 C7.684313,10.67334 7.684313,10.3006 7.205036,10.3006 C6.379583,10.3006 3.770095,10.59345 2.811507,10.67334 C2.545229,10.69999 2.145822,10.75323 2.145822,11.39229 C2.145822,11.81833 2.465351,11.81833 2.997901,11.81833 C4.728684,11.81833 4.808568,12.08458 4.808568,12.4308 C4.808568,12.6704 4.489038,13.89529 4.302644,14.66747 L1.346995,26.356903 C0.9209552,28.167604 0.7878183,28.726772 0.7878183,30.004897 C0.7878183,33.413212 2.678371,35.6232933 5.341117,35.6232933 C9.574906,35.6232933 13.99501,30.271175 13.99501,25.10544 C13.99501,21.83025 12.07784,19.35391 9.228757,19.35391 C7.551184,19.35391 6.086686,20.39235 5.021588,21.51076 L7.657728,10.69999 L7.684313,10.69999 Z M4.302644,24.28001 C4.515664,23.48117 4.515664,23.42793 4.835194,23.02848 C6.592603,20.68526 8.216897,20.15275 9.148866,20.15275 C10.42698,20.15275 11.41219,21.21785 11.41219,23.53441 C11.41219,25.63802 10.21396,29.765252 9.574906,31.14988 C8.403263,33.546348 6.752371,34.851099 5.341117,34.851099 C4.116251,34.851099 2.944642,33.865877 2.944642,31.203131 C2.944642,30.537447 2.944642,29.845136 3.503817,27.581783 L4.302644,24.28001 L4.302644,24.28001 Z" id="Fill-3"></path>
            </g>
            <path d="M271.5,175.5 L446,175.5" id="Line-5" stroke="#000000" stroke-width="2" stroke-linecap="round" stroke-linejoin="round" sketch:type="MSShapeGroup"></path>
            <path id="Line-5-decoration-1" d="M434.7,178.5 C438.48,177.45 441.72,176.55 445.5,175.5 C441.72,174.45 438.48,173.55 434.7,172.5" stroke="#000000" stroke-width="2" stroke-linecap="round" stroke-linejoin="round"></path>
            <path d="M356.5,42.5 L531,42.5" id="Line-8" stroke="#000000" stroke-width="2" stroke-linecap="round" stroke-linejoin="round" stroke-dasharray="5" sketch:type="MSShapeGroup"></path>
            <g id="Imported-Layers-4" transform="translate(0.000000, 66.000000)" fill="#000000" sketch:type="MSShapeGroup">
                <path d="M15.33001,4.45761 C14.82408,4.93696 13.6525,5.94875 13.6525,6.58781 C13.6525,6.96061 13.99865,7.30676 14.37145,7.30676 C14.69095,7.30676 14.87732,7.06715 15.06375,6.82748 C15.48979,6.2949 16.31522,5.28311 17.88624,4.51092 C18.1525,4.35114 18.49865,4.19135 18.49865,3.73866 C18.49865,3.39251 18.25905,3.20615 17.99279,3.01978 C17.22053,2.4872 16.82115,1.84814 16.52823,0.99606 C16.44834,0.64991 16.31522,0.19722 15.80928,0.19722 C15.30335,0.19722 15.09033,0.64991 15.09033,0.94282 C15.09033,1.12919 15.38325,2.27418 15.94241,3.01978 L3.85357,3.01978 C3.241144,3.01978 2.602085,3.01978 2.602085,3.73866 C2.602085,4.45761 3.241144,4.45761 3.85357,4.45761 L15.33001,4.45761" id="Fill-1"></path>
                <path d="M11.65543,12.25945 C11.01638,10.92809 9.95128,9.96954 8.353596,9.96954 C4.146474,9.96954 -0.3003117,15.24173 -0.3003117,20.487368 C-0.3003117,23.869057 1.670122,26.2389007 4.466004,26.2389007 C5.184947,26.2389007 6.969002,26.079136 9.12578,23.549528 C9.41869,25.040665 10.67023,26.2389007 12.40097,26.2389007 C13.6525,26.2389007 14.47793,25.413446 15.06375,24.268471 C15.67616,22.96372 16.12885,20.780272 16.12885,20.700388 C16.12885,20.354232 15.80928,20.354232 15.70281,20.354232 C15.35666,20.354232 15.30335,20.487368 15.19688,20.993291 C14.58447,23.336508 13.94541,25.440079 12.48086,25.440079 C11.49565,25.440079 11.38918,24.508116 11.38918,23.789173 C11.38918,22.990353 11.469,22.724075 11.86845,21.126427 C12.26784,19.635316 12.32108,19.262515 12.6673,17.904506 L13.94541,12.87192 C14.21167,11.86006 14.21167,11.80683 14.21167,11.64704 C14.21167,11.03464 13.75898,10.68849 13.14657,10.68849 C12.29449,10.68849 11.76191,11.48726 11.65543,12.25945 L11.65543,12.25945 Z M9.31222,21.552466 C9.12578,22.218151 9.12578,22.271409 8.593268,22.883843 C7.02224,24.880897 5.557728,25.440079 4.545888,25.440079 C2.73522,25.440079 2.229297,23.469643 2.229297,22.05839 C2.229297,20.274348 3.400905,15.8542 4.226358,14.20328 C5.318082,12.07308 6.942349,10.74173 8.380249,10.74173 C10.72347,10.74173 11.2294,13.69735 11.2294,13.91037 C11.2294,14.12339 11.1495,14.33641 11.12285,14.52284 L9.31222,21.552466 L9.31222,21.552466 Z" id="Fill-3"></path>
            </g>
            <path d="M270.5,175.5 L355,44" id="Line-6" stroke="#000000" stroke-width="2" stroke-linecap="round" stroke-linejoin="round" sketch:type="MSShapeGroup"></path>
            <path id="Line-6-decoration-1" d="M351.518373,54.9675845 C352.678479,51.2199113 353.672856,48.00762 354.832962,44.2599469 C351.906163,46.8723686 349.397478,49.1115873 346.470679,51.724009" stroke="#000000" stroke-width="2" stroke-linecap="round" stroke-linejoin="round"></path>
            <path d="M447.5,175.5 L532,44" id="Line-7" stroke="#000000" stroke-width="2" stroke-linecap="round" stroke-linejoin="round" stroke-dasharray="5" sketch:type="MSShapeGroup"></path>
            <path d="M272,175 L531,44" id="Line" stroke="#000000" stroke-width="2" stroke-linecap="round" stroke-linejoin="round" sketch:type="MSShapeGroup"></path>
            <path id="Line-decoration-1" d="M522.498265,51.6620131 C525.39744,49.0189677 527.882446,46.7535001 530.78162,44.1104547 C526.934625,44.8795643 523.637201,45.5388011 519.790206,46.3079106" stroke="#000000" stroke-width="2" stroke-linecap="round" stroke-linejoin="round"></path>
            <g id="Imported-Layers-5" transform="translate(260.000000, 106.000000)" fill="#000000" sketch:type="MSShapeGroup">
                <path d="M15.33001,4.45761 C14.82408,4.93696 13.6525,5.94875 13.6525,6.58781 C13.6525,6.96061 13.99865,7.30676 14.37145,7.30676 C14.69095,7.30676 14.87732,7.06715 15.06375,6.82748 C15.48979,6.2949 16.31522,5.28311 17.88624,4.51092 C18.1525,4.35114 18.49865,4.19135 18.49865,3.73866 C18.49865,3.39251 18.25905,3.20615 17.99279,3.01978 C17.22053,2.4872 16.82115,1.84814 16.52823,0.99606 C16.44834,0.64991 16.31522,0.19722 15.80928,0.19722 C15.30335,0.19722 15.09033,0.64991 15.09033,0.94282 C15.09033,1.12919 15.38325,2.27418 15.94241,3.01978 L3.85357,3.01978 C3.241144,3.01978 2.602085,3.01978 2.602085,3.73866 C2.602085,4.45761 3.241144,4.45761 3.85357,4.45761 L15.33001,4.45761" id="Fill-1"></path>
                <path d="M11.65543,12.25945 C11.01638,10.92809 9.95128,9.96954 8.353596,9.96954 C4.146474,9.96954 -0.3003117,15.24173 -0.3003117,20.487368 C-0.3003117,23.869057 1.670122,26.2389007 4.466004,26.2389007 C5.184947,26.2389007 6.969002,26.079136 9.12578,23.549528 C9.41869,25.040665 10.67023,26.2389007 12.40097,26.2389007 C13.6525,26.2389007 14.47793,25.413446 15.06375,24.268471 C15.67616,22.96372 16.12885,20.780272 16.12885,20.700388 C16.12885,20.354232 15.80928,20.354232 15.70281,20.354232 C15.35666,20.354232 15.30335,20.487368 15.19688,20.993291 C14.58447,23.336508 13.94541,25.440079 12.48086,25.440079 C11.49565,25.440079 11.38918,24.508116 11.38918,23.789173 C11.38918,22.990353 11.469,22.724075 11.86845,21.126427 C12.26784,19.635316 12.32108,19.262515 12.6673,17.904506 L13.94541,12.87192 C14.21167,11.86006 14.21167,11.80683 14.21167,11.64704 C14.21167,11.03464 13.75898,10.68849 13.14657,10.68849 C12.29449,10.68849 11.76191,11.48726 11.65543,12.25945 L11.65543,12.25945 Z M9.31222,21.552466 C9.12578,22.218151 9.12578,22.271409 8.593268,22.883843 C7.02224,24.880897 5.557728,25.440079 4.545888,25.440079 C2.73522,25.440079 2.229297,23.469643 2.229297,22.05839 C2.229297,20.274348 3.400905,15.8542 4.226358,14.20328 C5.318082,12.07308 6.942349,10.74173 8.380249,10.74173 C10.72347,10.74173 11.2294,13.69735 11.2294,13.91037 C11.2294,14.12339 11.1495,14.33641 11.12285,14.52284 L9.31222,21.552466 L9.31222,21.552466 Z" id="Fill-3"></path>
            </g>
            <g id="Imported-Layers-6" transform="translate(531.000000, 46.000000)" fill="#000000" sketch:type="MSShapeGroup">
                <path d="M16.48875,14.45196 C15.98282,14.93124 14.81124,15.9431 14.81124,16.58216 C14.81124,16.9283 15.15739,17.30111 15.50354,17.30111 C15.84969,17.30111 16.00947,17.03478 16.19584,16.82176 C16.62188,16.28924 17.44737,15.27738 19.04498,14.5052 C19.28466,14.34541 19.65739,14.18563 19.65739,13.73301 C19.65739,13.38686 19.39113,13.20043 19.15153,13.01406 C18.35269,12.48148 17.95323,11.84242 17.66039,10.96375 C17.60708,10.64419 17.44737,10.19156 16.94144,10.19156 C16.46209,10.19156 16.22249,10.64419 16.22249,10.9371 C16.22249,11.12353 16.5154,12.26846 17.10115,13.01406 L4.985683,13.01406 C4.37325,13.01406 3.734191,13.01406 3.734191,13.73301 C3.734191,14.45196 4.37325,14.45196 4.985683,14.45196 L16.48875,14.45196" id="Fill-1"></path>
                <path d="M13.3201,22.17391 C12.73428,22.17391 12.25501,22.17391 11.74908,22.67984 C11.16325,23.21235 11.08336,23.82482 11.08336,24.09108 C11.08336,24.94316 11.74908,25.34255 12.41472,25.34255 C13.45323,25.34255 14.43844,24.49047 14.43844,23.05264 C14.43844,21.29517 12.73428,19.96382 10.2047,19.96382 C5.358471,19.96382 0.5655246,25.07629 0.5655246,30.16211 C0.5655246,33.384065 2.642467,36.233205 6.396937,36.233205 C11.53606,36.233205 14.54492,32.425503 14.54492,31.972811 C14.54492,31.759791 14.3319,31.520119 14.11888,31.520119 C13.93251,31.520119 13.85262,31.600009 13.6396,31.866267 C10.81711,35.434377 6.90286,35.434377 6.450195,35.434377 C4.213488,35.434377 3.228274,33.676968 3.228274,31.520119 C3.228274,30.055634 3.94721,26.56743 5.172077,24.33076 C6.290427,22.28038 8.260869,20.73601 10.23128,20.73601 C11.45616,20.73601 12.81417,21.21528 13.3201,22.17391" id="Fill-3"></path>
                <path d="M49.26713,24.09108 C49.79971,24.09108 50.49201,24.09108 50.49201,23.37213 C50.49201,22.65318 49.79971,22.65318 49.32043,22.65318 L27.80544,22.65318 C27.29951,22.65318 26.60722,22.65318 26.60722,23.37213 C26.60722,24.09108 27.29951,24.09108 27.83203,24.09108 L49.26713,24.09108 L49.26713,24.09108 Z M49.32043,31.040841 C49.79971,31.040841 50.49201,31.040841 50.49201,30.321891 C50.49201,29.60294 49.79971,29.60294 49.26713,29.60294 L27.83203,29.60294 C27.29951,29.60294 26.60722,29.60294 26.60722,30.321891 C26.60722,31.040841 27.29951,31.040841 27.80544,31.040841 L49.32043,31.040841 L49.32043,31.040841 Z" id="Fill-4"></path>
                <path d="M79.4894,14.45196 C78.98361,14.93124 77.78525,15.9431 77.78525,16.58216 C77.78525,16.9283 78.15812,17.30111 78.5044,17.30111 C78.85,17.30111 79.01019,17.03478 79.19629,16.82176 C79.62233,16.28924 80.44782,15.27738 82.04564,14.5052 C82.2849,14.34541 82.65777,14.18563 82.65777,13.73301 C82.65777,13.38686 82.39193,13.20043 82.15198,13.01406 C81.35307,12.48148 80.95362,11.84242 80.66118,10.96375 C80.60801,10.64419 80.44782,10.19156 79.94203,10.19156 C79.46282,10.19156 79.22287,10.64419 79.22287,10.9371 C79.22287,11.12353 79.51599,12.26846 80.10154,13.01406 L67.98627,13.01406 C67.3738,13.01406 66.73474,13.01406 66.73474,13.73301 C66.73474,14.45196 67.3738,14.45196 67.98627,14.45196 L79.4894,14.45196" id="Fill-5"></path>
                <path d="M75.89431,22.2538 C75.2556,20.92244 74.21742,19.96382 72.59302,19.96382 C68.38566,19.96382 63.9389,25.23607 63.9389,30.481673 C63.9389,33.863362 65.90931,36.233205 68.7055,36.233205 C69.42397,36.233205 71.23515,36.073437 73.39193,33.5172 C73.65778,35.034971 74.9359,36.233205 76.64005,36.233205 C77.91817,36.233205 78.74366,35.407752 79.30263,34.262769 C79.91544,32.958025 80.39465,30.774584 80.39465,30.694693 C80.39465,30.321891 80.07495,30.321891 79.94203,30.321891 C79.59574,30.321891 79.56916,30.481673 79.46282,30.987603 C78.85,33.304181 78.1847,35.434377 76.71981,35.434377 C75.76139,35.434377 75.65505,34.502421 75.65505,33.783478 C75.65505,32.984651 75.70822,32.691754 76.10767,31.120732 C76.50713,29.62959 76.58688,29.25679 76.90658,27.89878 L78.1847,22.8662 C78.45055,21.85434 78.45055,21.77452 78.45055,21.64132 C78.45055,21.02892 78.02451,20.68277 77.41238,20.68277 C76.53371,20.68277 76.00133,21.45496 75.89431,22.2538 L75.89431,22.2538 Z M73.55144,31.546772 C73.39193,32.212484 73.39193,32.265722 72.83228,32.878141 C71.26173,34.848577 69.79684,35.434377 68.78525,35.434377 C67.00107,35.434377 66.49513,33.463949 66.49513,32.052702 C66.49513,30.268653 67.64012,25.84848 68.46555,24.19756 C69.58416,22.06736 71.1813,20.73601 72.6196,20.73601 C74.96248,20.73601 75.46827,23.6917 75.46827,23.90472 C75.46827,24.11774 75.38852,24.33076 75.36193,24.51712 L73.55144,31.546772 L73.55144,31.546772 Z" id="Fill-6"></path>
                <path d="M104.0933,27.57929 L114.1049,27.57929 C114.6107,27.57929 115.3033,27.57929 115.3033,26.86034 C115.3033,26.14139 114.6107,26.14139 114.1049,26.14139 L104.0933,26.14139 L104.0933,16.07623 C104.0933,15.57029 104.0933,14.90458 103.3742,14.90458 C102.655,14.90458 102.655,15.57029 102.655,16.07623 L102.655,26.14139 L92.59029,26.14139 C92.08381,26.14139 91.41851,26.14139 91.41851,26.86034 C91.41851,27.57929 92.08381,27.57929 92.59029,27.57929 L102.655,27.57929 L102.655,37.617833 C102.655,38.123756 102.655,38.816068 103.3742,38.816068 C104.0933,38.816068 104.0933,38.123756 104.0933,37.617833 L104.0933,27.57929" id="Fill-7"></path>
                <path d="M140.4928,5.05244 C139.987,5.53172 138.7886,6.54358 138.7886,7.18264 C138.7886,7.52878 139.1615,7.90159 139.5078,7.90159 C139.8275,7.90159 140.0136,7.63533 140.1997,7.42231 C140.6257,6.88973 141.4512,5.87787 143.049,5.10568 C143.289,4.94596 143.6346,4.78618 143.6346,4.33349 C143.6346,3.98734 143.3953,3.80097 143.1554,3.61454 C142.3565,3.08202 141.9577,2.44297 141.6646,1.56423 C141.6114,1.24474 141.4512,0.79205 140.9454,0.79205 C140.4396,0.79205 140.2263,1.24474 140.2263,1.53765 C140.2263,1.72402 140.5194,2.869 141.1056,3.61454 L128.9897,3.61454 C128.3776,3.61454 127.7382,3.61454 127.7382,4.33349 C127.7382,5.05244 128.3776,5.05244 128.9897,5.05244 L140.4928,5.05244" id="Fill-8"></path>
                <path d="M133.8895,11.3099 C133.8895,11.25666 133.8895,10.91051 133.4096,10.91051 C132.5848,10.91051 129.9747,11.20336 129.0429,11.25666 C128.7505,11.3099 128.351,11.33655 128.351,11.97561 C128.351,12.40165 128.67,12.40165 129.2031,12.40165 C130.9338,12.40165 131.0136,12.66791 131.0136,13.01406 C131.0136,13.28032 130.6939,14.5052 130.5078,15.25073 L127.5521,26.96681 C127.1261,28.75086 126.9925,29.33668 126.9925,30.588149 C126.9925,33.996498 128.8834,36.233205 131.546,36.233205 C135.7798,36.233205 140.1997,30.881059 140.1997,25.6887 C140.1997,22.44016 138.3094,19.96382 135.4335,19.96382 C133.7825,19.96382 132.2917,21.00226 131.2263,22.12067 L133.8895,11.3099 L133.8895,11.3099 Z M130.5078,24.86327 C130.7205,24.09108 130.7205,24.01119 131.0402,23.61181 C132.7975,21.29517 134.4219,20.73601 135.3537,20.73601 C136.6584,20.73601 137.6169,21.82776 137.6169,24.11774 C137.6169,26.24793 136.4458,30.375129 135.7798,31.733138 C134.608,34.129634 132.957,35.434377 131.546,35.434377 C130.321,35.434377 129.1492,34.475789 129.1492,31.813029 C129.1492,31.120732 129.1492,30.428435 129.7089,28.19169 L130.5078,24.86327 L130.5078,24.86327 Z" id="Fill-9"></path>
            </g>
        </g>
    </g>
</svg>