<?xml version="1.0" encoding="UTF-8" standalone="no"?>
<svg width="106px" height="139px" viewBox="0 0 106 139" version="1.1" xmlns="http://www.w3.org/2000/svg" xmlns:xlink="http://www.w3.org/1999/xlink" xmlns:sketch="http://www.bohemiancoding.com/sketch/ns">
    <!-- Generator: Sketch 3.1.1 (8761) - http://www.bohemiancoding.com/sketch -->
    <title>Group</title>
    <desc>Created with Sketch.</desc>
    <defs></defs>
    <g id="Page-1" stroke="none" stroke-width="1" fill="none" fill-rule="evenodd" sketch:type="MSPage">
        <g id="Group" sketch:type="MSLayerGroup" transform="translate(1.000000, 2.000000)">
            <path d="M9.5,84.5 L73.5,0.5" id="Line" stroke="#000000" stroke-width="2" stroke-linecap="round" stroke-linejoin="round" sketch:type="MSShapeGroup"></path>
            <path id="Line-decoration-1" d="M68.975566,11.3884616 C70.4312061,7.74538434 71.6788976,4.62274667 73.1345376,0.979669397 C70.0084909,3.35005592 67.3290224,5.3818158 64.2029757,7.75220233" stroke="#000000" stroke-width="2" stroke-linecap="round" stroke-linejoin="round"></path>
            <path d="M9.5,85 L101.5,85" id="Line" stroke="#000000" stroke-width="2" stroke-linecap="round" stroke-linejoin="round" sketch:type="MSShapeGroup"></path>
            <path id="Line-decoration-1" d="M89.7,88 C93.48,86.95 96.72,86.05 100.5,85 C96.72,83.95 93.48,83.05 89.7,82" stroke="#000000" stroke-width="2" stroke-linecap="round" stroke-linejoin="round"></path>
            <g id="Imported-Layers-5" transform="translate(0.000000, 16.000000)" fill="#000000" sketch:type="MSShapeGroup">
                <path d="M15.33001,4.45761 C14.82408,4.93696 13.6525,5.94875 13.6525,6.58781 C13.6525,6.96061 13.99865,7.30676 14.37145,7.30676 C14.69095,7.30676 14.87732,7.06715 15.06375,6.82748 C15.48979,6.2949 16.31522,5.28311 17.88624,4.51092 C18.1525,4.35114 18.49865,4.19135 18.49865,3.73866 C18.49865,3.39251 18.25905,3.20615 17.99279,3.01978 C17.22053,2.4872 16.82115,1.84814 16.52823,0.99606 C16.44834,0.64991 16.31522,0.19722 15.80928,0.19722 C15.30335,0.19722 15.09033,0.64991 15.09033,0.94282 C15.09033,1.12919 15.38325,2.27418 15.94241,3.01978 L3.85357,3.01978 C3.241144,3.01978 2.602085,3.01978 2.602085,3.73866 C2.602085,4.45761 3.241144,4.45761 3.85357,4.45761 L15.33001,4.45761" id="Fill-1"></path>
                <path d="M11.65543,12.25945 C11.01638,10.92809 9.95128,9.96954 8.353596,9.96954 C4.146474,9.96954 -0.3003117,15.24173 -0.3003117,20.487368 C-0.3003117,23.869057 1.670122,26.2389007 4.466004,26.2389007 C5.184947,26.2389007 6.969002,26.079136 9.12578,23.549528 C9.41869,25.040665 10.67023,26.2389007 12.40097,26.2389007 C13.6525,26.2389007 14.47793,25.413446 15.06375,24.268471 C15.67616,22.96372 16.12885,20.780272 16.12885,20.700388 C16.12885,20.354232 15.80928,20.354232 15.70281,20.354232 C15.35666,20.354232 15.30335,20.487368 15.19688,20.993291 C14.58447,23.336508 13.94541,25.440079 12.48086,25.440079 C11.49565,25.440079 11.38918,24.508116 11.38918,23.789173 C11.38918,22.990353 11.469,22.724075 11.86845,21.126427 C12.26784,19.635316 12.32108,19.262515 12.6673,17.904506 L13.94541,12.87192 C14.21167,11.86006 14.21167,11.80683 14.21167,11.64704 C14.21167,11.03464 13.75898,10.68849 13.14657,10.68849 C12.29449,10.68849 11.76191,11.48726 11.65543,12.25945 L11.65543,12.25945 Z M9.31222,21.552466 C9.12578,22.218151 9.12578,22.271409 8.593268,22.883843 C7.02224,24.880897 5.557728,25.440079 4.545888,25.440079 C2.73522,25.440079 2.229297,23.469643 2.229297,22.05839 C2.229297,20.274348 3.400905,15.8542 4.226358,14.20328 C5.318082,12.07308 6.942349,10.74173 8.380249,10.74173 C10.72347,10.74173 11.2294,13.69735 11.2294,13.91037 C11.2294,14.12339 11.1495,14.33641 11.12285,14.52284 L9.31222,21.552466 L9.31222,21.552466 Z" id="Fill-3"></path>
            </g>
            <g id="Imported-Layers-3" transform="translate(47.000000, 101.000000)" fill="#000000" sketch:type="MSShapeGroup">
                <path d="M13.36781,4.46918 C12.86188,4.92181 11.69031,5.93367 11.69031,6.59938 C11.69031,6.94553 12.03646,7.31833 12.40926,7.31833 C12.72876,7.31833 12.91519,7.052 13.0749,6.83898 C13.5276,6.30647 14.35302,5.29461 15.92405,4.49577 C16.19031,4.36264 16.53652,4.17627 16.53652,3.75023 C16.53652,3.37743 16.29685,3.21765 16.03059,3.03128 C15.23175,2.4987 14.85895,1.83305 14.56604,0.98098 C14.48615,0.66141 14.35302,0.18213 13.84709,0.18213 C13.34123,0.18213 13.12821,0.66141 13.12821,0.95432 C13.12821,1.1141 13.42105,2.28568 13.98029,3.03128 L1.891391,3.03128 C1.278957,3.03128 0.613273,3.03128 0.613273,3.75023 C0.613273,4.46918 1.278957,4.46918 1.891391,4.46918 L13.36781,4.46918" id="Fill-1"></path>
                <path d="M6.684313,10.69999 C6.684313,10.67334 6.684313,10.3006 6.205036,10.3006 C5.379583,10.3006 2.770095,10.59345 1.811507,10.67334 C1.545229,10.69999 1.145822,10.75323 1.145822,11.39229 C1.145822,11.81833 1.465351,11.81833 1.997901,11.81833 C3.728684,11.81833 3.808568,12.08458 3.808568,12.4308 C3.808568,12.6704 3.489038,13.89529 3.302644,14.66747 L0.346995,26.356903 C-0.0790448,28.167604 -0.2121817,28.726772 -0.2121817,30.004897 C-0.2121817,33.413212 1.678371,35.6232933 4.341117,35.6232933 C8.574906,35.6232933 12.99501,30.271175 12.99501,25.10544 C12.99501,21.83025 11.07784,19.35391 8.228757,19.35391 C6.551184,19.35391 5.086686,20.39235 4.021588,21.51076 L6.657728,10.69999 L6.684313,10.69999 Z M3.302644,24.28001 C3.515664,23.48117 3.515664,23.42793 3.835194,23.02848 C5.592603,20.68526 7.216897,20.15275 8.148866,20.15275 C9.42698,20.15275 10.41219,21.21785 10.41219,23.53441 C10.41219,25.63802 9.21396,29.765252 8.574906,31.14988 C7.403263,33.546348 5.752371,34.851099 4.341117,34.851099 C3.116251,34.851099 1.944642,33.865877 1.944642,31.203131 C1.944642,30.537447 1.944642,29.845136 2.503817,27.581783 L3.302644,24.28001 L3.302644,24.28001 Z" id="Fill-3"></path>
            </g>
            <path d="M66.2870192,65.967629 C66.1538842,66.446927 66.1272582,66.526811 66.1272582,66.686572 C66.1272582,67.4854 66.7929432,67.698419 67.1657312,67.698419 C67.3521182,67.698419 68.1243192,67.59191 68.4971002,66.766457 C68.6036102,66.473553 68.7900112,65.301944 69.7485652,60.189499 C70.0681292,60.242737 70.3343872,60.269322 70.9202082,60.269322 C76.8847562,60.269322 82.4232662,54.62433 82.4232662,48.95269 C82.4232662,46.15678 81.0120262,44 78.3226562,44 C73.1302962,44 70.9734462,50.97635 68.8166642,57.97941 C64.9290242,57.26046 62.9319632,55.23674 62.9319632,52.65392 C62.9319632,51.64206 63.7574162,47.70116 65.9142382,45.22482 C66.1805102,44.90532 66.1805102,44.82543 66.1805102,44.74554 C66.1805102,44.61241 66.1272582,44.39939 65.7544702,44.39939 C64.7692562,44.39939 62,49.59175 62,53.05331 C62,56.43497 64.3698422,59.04451 68.2041972,59.949827 L66.2870192,65.967629 L66.2870192,65.967629 Z M71.2663562,58.19243 C70.9734462,58.19243 70.8935552,58.19243 70.6006442,58.13913 C70.1746052,58.13913 70.1480202,58.11254 70.1480202,58.006 C70.1480202,57.92611 70.7604262,54.65099 70.8669702,54.1184 C71.9853062,49.53851 74.7812162,46.07689 77.9765062,46.07689 C80.4528562,46.07689 81.4114062,48.02072 81.4114062,49.75153 C81.4114062,53.79891 76.7782162,58.19243 71.2663562,58.19243 L71.2663562,58.19243 Z" id="Imported-Layers" fill="#000000" sketch:type="MSShapeGroup"></path>
            <path d="M21,71 C21,71 25.0504105,73.6008209 26,75.5 C27.2170771,77.9341542 27.5,84 27.5,84" id="Path-176" stroke="#000000" sketch:type="MSShapeGroup"></path>
        </g>
    </g>
</svg>